<!-- Generated by IcoMoon.io -->
<svg version="1.1" xmlns="http://www.w3.org/2000/svg" viewBox="0 0 32 32">
<title>menu-take-a-tour</title>
<path d="M30.336 16c0-7.904-6.432-14.336-14.336-14.336s-14.336 6.432-14.336 14.336c0 7.904 6.432 14.336 14.336 14.336s14.336-6.432 14.336-14.336zM27.68 16c0 6.432-5.248 11.68-11.68 11.68s-11.68-5.248-11.68-11.68c0-6.432 5.248-11.68 11.68-11.68s11.68 5.248 11.68 11.68zM27.84 10.752c-0.992 0-0.896 1.856-2.144 0.992-0.48-0.32-0.736-0.8-1.344-0.928-0.512-0.128-1.024 0-1.536 0.064-0.576 0.128-1.248 0.16-1.664 0.576-0.416 0.448-0.64 0.992-1.088 1.408-0.864 0.832-1.248 1.696-0.672 2.848 0.544 1.12 1.664 1.696 2.88 1.632 1.184-0.096 2.432-0.768 2.4 0.96-0.032 0.608 0.096 1.024 0.288 1.6 0.16 0.544 0.16 1.024 0.192 1.568 0.096 1.024 0.256 2.176 0.768 3.040l0.928-1.312c0.128-0.16 0.384-0.384 0.416-0.576 0.128-0.352-0.096-0.928-0.096-1.312-0.032-0.384-0.032-0.768-0.096-1.152-0.064-0.544-0.384-1.056-0.416-1.568-0.096-0.992 0.096-1.792-0.672-2.624-0.736-0.8-1.824-0.992-2.848-0.832-0.512 0.096-2.592 0.416-1.76-0.768 0.16-0.224 0.448-0.416 0.64-0.64 0.16-0.192 0.288-0.544 0.48-0.704 0.192-0.128 1.056-0.32 1.312-0.224 0.256 0.064 0.512 0.416 0.736 0.576 0.416 0.32 0.864 0.512 1.376 0.608 0.832 0.096 2.624-0.384 2.624-1.472 0-0.544-0.512-1.248-0.704-1.76zM17.952 19.776c-0.32-1.408-2.208-1.888-3.264-2.656-0.576-0.416-1.088-1.088-1.888-1.152-0.352-0.032-0.64 0.064-0.992-0.032-0.32-0.096-0.576-0.256-0.928-0.224-0.64 0.096-1.056 0.768-1.76 0.672-0.672-0.064-1.344-0.832-1.472-1.472-0.192-0.8 0.416-1.088 1.12-1.152 0.288-0.032 0.608-0.064 0.864 0.064 0.384 0.128 0.544 0.48 0.864 0.64 0.608 0.352 0.736-0.192 0.64-0.736-0.128-0.8-0.288-1.12 0.416-1.696 0.512-0.384 0.928-0.64 0.864-1.344-0.064-0.416-0.288-0.576-0.064-0.992 0.16-0.288 0.576-0.576 0.864-0.768 0.704-0.48 3.104-0.448 2.112-1.76-0.256-0.384-0.8-1.088-1.312-1.184-0.608-0.096-0.896 0.576-1.312 0.896-0.448 0.32-1.344 0.672-1.792 0.192-0.608-0.672 0.416-0.896 0.64-1.344s-0.544-1.344-0.928-1.568l-1.856 2.112c-0.064 0.352-0.032 0.704 0.064 1.024 0.064 0.352 0.224 0.672 0.448 0.96 0.384 0.48 0.96 0.64 0.992 1.28 0.032 0.608-0.064 0.928-0.48 1.376-0.192 0.192-0.288 0.448-0.48 0.64-0.224 0.224-0.128 0.16-0.48 0.192-0.64 0.128-1.216 0.288-1.824 0.448-1.056 0.288-1.152-1.408-1.632-2.080l-1.536 1.28c-0.032 0.192 0.256 0.576 0.32 0.8 0.416 1.28 1.28 2.272 1.856 3.52 0.576 1.312 2.144 0.928 2.848 2.080 0.608 1.024-0.064 2.304 0.416 3.36 0.32 0.768 1.12 0.928 1.664 1.504 0.544 0.544 0.544 1.344 0.64 2.080 0.096 0.864 0.256 1.728 0.448 2.592 0.096 0.288 0.16 0.672 0.352 0.896 0.128 0.192 0.608 0.32 0.416 0.384 0.256 0.032 0.736 0.288 0.96 0.096 0.288-0.224 0.224-0.96 0.256-1.312 0.16-0.992 0.672-1.952 1.344-2.72 0.64-0.736 1.568-1.216 2.112-2.048 0.544-0.8 0.736-1.92 0.48-2.848zM15.872 21.408c-0.352 0.672-1.216 1.12-1.728 1.664-0.16 0.128-0.48 0.64-0.64 0.512-0.128-0.064-0.192-0.704-0.224-0.864-0.256-0.736-0.736-1.408-1.376-1.856-0.192-0.16-0.672-0.352-0.768-0.544-0.128-0.224-0.032-0.768-0.032-0.992 0.032-0.352-0.128-0.928-0.064-1.248 0.096-0.384-0.096-0.16 0.256-0.224 0.16-0.032 0.864 0.096 1.088 0.128 0.352 0.064 0.544 0.288 0.8 0.512 0.704 0.576 1.504 0.992 2.304 1.44 0.608 0.352 0.8 0.768 0.384 1.472zM11.52 4.192c0.32 0.288 0.576 0.64 1.024 0.672 0.416 0.032 0.832-0.224 1.184 0.064 0.416 0.32 0.704 0.704 1.216 0.8 0.544 0.096 1.088-0.192 1.216-0.736 0.128-0.512-0.16-1.056-0.16-1.568 0-0.064 0.032-0.384 0-0.416-0.064-0.064-0.352 0-0.384 0-0.352 0-0.704 0.032-1.024 0.064-1.216 0.128-2.432 0.448-3.584 0.928 0.16 0.096 0.352 0.128 0.512 0.192zM22.272 7.712c0.544 0 1.088-0.256 0.896-0.864-0.128-0.512-0.384-1.056-0.992-0.8-0.352 0.192-0.896 0.64-0.96 1.088-0.032 0.48 0.704 0.576 1.056 0.576zM21.856 10.4c0.544 0.32 1.344 0.16 1.76-0.288 0.32-0.384 0.512-0.992 1.088-0.992 0.224 0 0.48 0.096 0.672 0.256 0.224 0.256 0.192 0.48 0.224 0.8 0.128 0.672 0.864 0.032 1.056-0.224 0.128-0.192 0.288-0.448 0.224-0.672-0.032-0.224-0.288-0.448-0.384-0.64-0.32-0.544-0.608-1.216-1.088-1.664-0.448-0.448-1.024-0.384-1.472 0.064-0.352 0.384-0.768 0.672-1.024 1.12-0.16 0.32-0.352 0.48-0.704 0.576-0.192 0.032-0.416 0.064-0.576 0.192-0.48 0.352-0.192 1.216 0.224 1.472z"></path>
</svg>
