<!-- Generated by IcoMoon.io -->
<svg version="1.1" xmlns="http://www.w3.org/2000/svg" viewBox="0 0 32 32">
<title>menu-network</title>
<path d="M16.672 30.656c7.744 0 13.984-6.272 13.984-13.984 0-7.744-6.24-14.016-13.984-14.016s-14.016 6.272-14.016 14.016c0 7.712 6.272 13.984 14.016 13.984zM16.672 28c-6.272 0-11.328-5.088-11.328-11.328 0-6.272 5.056-11.328 11.328-11.328 6.24 0 11.328 5.056 11.328 11.328 0 6.24-5.088 11.328-11.328 11.328zM4 17.984h25.344c0.736 0 1.312-0.576 1.312-1.312s-0.576-1.344-1.312-1.344h-25.344c-0.736 0-1.344 0.608-1.344 1.344s0.608 1.312 1.344 1.312zM17.664 3.104c-0.256-0.288-0.608-0.448-0.992-0.448s-0.736 0.16-0.992 0.448c-3.392 3.712-5.312 8.512-5.408 13.536 0 0 0 0.032 0 0.064 0.096 4.992 2.016 9.824 5.408 13.536 0.256 0.256 0.608 0.416 0.992 0.416s0.736-0.16 0.992-0.416c3.36-3.712 5.312-8.544 5.408-13.536 0-0.032 0-0.064 0-0.064-0.096-5.024-2.048-9.824-5.408-13.536zM16.672 6.080c2.336 3.008 3.648 6.72 3.744 10.56-0.096 3.872-1.408 7.584-3.744 10.624-2.336-3.040-3.648-6.752-3.744-10.592 0.096-3.872 1.408-7.552 3.744-10.592v0z"></path>
</svg>
