<!-- Generated by IcoMoon.io -->
<svg version="1.1" xmlns="http://www.w3.org/2000/svg" viewBox="0 0 35 32">
<title>directory-manager</title>
<path d="M35.2 27.2v-17.6c0-1.28-0.512-2.496-1.408-3.392s-2.112-1.408-3.392-1.408h-13.536c0 0-2.72-4.096-2.72-4.096-0.32-0.448-0.8-0.704-1.344-0.704h-8c-1.28 0-2.496 0.512-3.392 1.408s-1.408 2.112-1.408 3.392v22.4c0 1.28 0.512 2.496 1.408 3.392s2.112 1.408 3.392 1.408h25.6c1.28 0 2.496-0.512 3.392-1.408s1.408-2.112 1.408-3.392zM32 27.2c0 0.416-0.16 0.832-0.48 1.12-0.288 0.32-0.704 0.48-1.12 0.48 0 0-25.6 0-25.6 0-0.416 0-0.832-0.16-1.12-0.48 0 0 0 0 0 0-0.32-0.288-0.48-0.704-0.48-1.12v-22.4c0-0.416 0.16-0.832 0.48-1.12 0 0 0 0 0 0 0.288-0.32 0.704-0.48 1.12-0.48 0 0 7.136 0 7.136 0s2.72 4.096 2.72 4.096c0.32 0.448 0.8 0.704 1.344 0.704h14.4c0.416 0 0.832 0.16 1.12 0.48 0 0 0 0 0 0 0.32 0.288 0.48 0.704 0.48 1.12 0 0 0 17.6 0 17.6zM25.6 25.408v-1.408c0-1.152-0.448-2.304-1.28-3.104-0.832-0.832-1.952-1.312-3.104-1.312h-5.6c-1.184 0-2.304 0.48-3.136 1.312-0.8 0.8-1.28 1.952-1.28 3.104 0 0 0 1.408 0 1.408 0 0.864 0.704 1.6 1.6 1.6s1.6-0.736 1.6-1.6v-1.408c0-0.32 0.128-0.64 0.352-0.864s0.544-0.352 0.864-0.352c0 0 5.6 0 5.6 0 0.32 0 0.608 0.128 0.832 0.352s0.352 0.544 0.352 0.864v1.408c0 0.864 0.704 1.6 1.6 1.6s1.6-0.736 1.6-1.6zM18.4 18.4c2.432 0 4.416-1.984 4.416-4.416 0-2.4-1.984-4.384-4.416-4.384s-4.384 1.984-4.384 4.384c0 2.432 1.952 4.416 4.384 4.416zM18.4 15.2c-0.672 0-1.184-0.544-1.184-1.216 0-0.64 0.512-1.184 1.184-1.184s1.216 0.544 1.216 1.184c0 0.672-0.544 1.216-1.216 1.216z"></path>
</svg>
