<!-- Generated by IcoMoon.io -->
<svg version="1.1" xmlns="http://www.w3.org/2000/svg" viewBox="0 0 29 32">
<title>menu-management</title>
<path d="M25.376 10.816h-22.080c-1.824 0-3.296 1.472-3.296 3.296v13.44c0 1.824 1.472 3.296 3.296 3.296 0 0 22.080 0 22.080 0 1.824 0 3.296-1.472 3.296-3.296v-13.44c0-1.824-1.472-3.296-3.296-3.296zM25.376 13.504c0.352 0 0.64 0.288 0.64 0.608 0 0 0 13.44 0 13.44 0 0.352-0.288 0.608-0.64 0.608h-22.080c-0.352 0-0.64-0.256-0.64-0.608v-13.44c0-0.32 0.288-0.608 0.64-0.608 0 0 22.080 0 22.080 0zM3.488 6.752v0zM3.488 8.096h21.696c0.736 0 1.312-0.608 1.312-1.344s-0.576-1.344-1.312-1.344h-21.696c-0.736 0-1.312 0.608-1.312 1.344s0.576 1.344 1.312 1.344zM5.664 2.656h17.344c0.736 0 1.312-0.576 1.312-1.312s-0.576-1.344-1.312-1.344h-17.344c-0.736 0-1.344 0.608-1.344 1.344s0.608 1.312 1.344 1.312z"></path>
</svg>
