<!-- Generated by IcoMoon.io -->
<svg version="1.1" xmlns="http://www.w3.org/2000/svg" viewBox="0 0 32 32">
<title>menu-program</title>
<path d="M25.568 27.52v-2.624c0-1.728-0.704-3.424-1.984-4.64-1.248-1.216-2.944-1.92-4.736-1.92 0 0-10.784 0-10.784 0-1.792 0-3.488 0.704-4.736 1.92-1.28 1.216-1.984 2.912-1.984 4.64v2.624c0 0.736 0.576 1.344 1.312 1.344s1.344-0.608 1.344-1.344v-2.624c0-1.024 0.416-2.016 1.184-2.72 0 0 0 0 0 0 0.768-0.768 1.792-1.152 2.88-1.152h10.784c1.088 0 2.112 0.384 2.88 1.152 0 0 0 0 0 0 0.768 0.704 1.184 1.696 1.184 2.72v2.624c0 0.736 0.608 1.344 1.344 1.344s1.312-0.608 1.312-1.344zM13.472 15.776c3.712 0 6.72-2.944 6.72-6.56s-3.008-6.56-6.72-6.56c-3.744 0-6.752 2.944-6.752 6.56s3.008 6.56 6.752 6.56zM13.472 13.12c-2.24 0-4.064-1.728-4.064-3.904 0-2.144 1.824-3.872 4.064-3.872 2.208 0 4.032 1.728 4.032 3.872 0 2.176-1.824 3.904-4.032 3.904zM32 27.52v-2.624c0-1.44-0.512-2.88-1.408-4.032-0.928-1.12-2.208-1.952-3.648-2.304-0.704-0.192-1.44 0.256-1.6 0.96-0.192 0.704 0.256 1.44 0.96 1.632 0.864 0.192 1.632 0.704 2.208 1.376 0 0 0 0 0 0 0.512 0.672 0.832 1.504 0.832 2.368 0 0 0 2.624 0 2.624 0 0.736 0.576 1.344 1.312 1.344s1.344-0.608 1.344-1.344zM20.896 5.472c0.896 0.192 1.664 0.704 2.208 1.376 0.544 0.704 0.832 1.536 0.832 2.368 0 0.864-0.288 1.696-0.832 2.4 0 0 0 0 0 0-0.544 0.672-1.312 1.152-2.208 1.376-0.704 0.192-1.152 0.896-0.96 1.632 0.16 0.704 0.896 1.152 1.6 0.96 1.472-0.352 2.752-1.184 3.648-2.304 0.928-1.152 1.44-2.592 1.44-4.064 0-1.44-0.512-2.88-1.44-4.032-0.896-1.12-2.176-1.952-3.648-2.304-0.704-0.192-1.44 0.256-1.6 0.96-0.192 0.736 0.256 1.44 0.96 1.632z"></path>
</svg>
