<svg viewBox="0 0 24 19" xmlns="http://www.w3.org/2000/svg">
    <g transform="matrix(0.774733,0,0,0.774733,3.97283e-05,0)">
        <path d="M26.242,2.01C24.211,1.059 22.061,0.383 19.851,0C19.55,0.553 19.276,1.121 19.032,1.701C16.685,1.342 14.296,1.342 11.949,1.701C11.703,1.12 11.426,0.552 11.121,0C8.909,0.383 6.757,1.061 4.725,2.015C0.68,8.132 -0.417,14.097 0.132,19.978C2.814,21.983 5.414,23.201 7.97,23.998C8.606,23.123 9.168,22.198 9.65,21.23C8.732,20.881 7.847,20.45 7.006,19.943C7.228,19.778 7.445,19.606 7.654,19.43C12.752,21.816 18.29,21.816 23.327,19.43C23.538,19.607 23.755,19.778 23.975,19.943C23.136,20.448 22.249,20.882 21.326,21.233C21.807,22.2 22.369,23.126 23.004,24C25.562,23.203 28.164,21.985 30.847,19.978C31.49,13.161 29.748,7.25 26.242,2.01ZM10.343,16.361C8.813,16.361 7.558,14.931 7.558,13.191C7.558,11.45 8.786,10.017 10.343,10.017C11.9,10.017 13.155,11.447 13.128,13.191C13.131,14.931 11.9,16.361 10.343,16.361ZM23.42,13.191C23.42,14.931 22.192,16.361 20.636,16.361C19.106,16.361 17.85,14.931 17.85,13.191C17.85,11.45 19.078,10.017 20.635,10.017C22.192,10.017 23.447,11.447 23.42,13.191Z"/>
    </g>
</svg>
