<?xml version="1.0" encoding="UTF-8" standalone="no"?>
<!DOCTYPE svg PUBLIC "-//W3C//DTD SVG 1.1//EN" "http://www.w3.org/Graphics/SVG/1.1/DTD/svg11.dtd">
<svg width="100%" height="100%" viewBox="0 0 20 20" version="1.1" xmlns="http://www.w3.org/2000/svg" xmlns:xlink="http://www.w3.org/1999/xlink" xml:space="preserve" xmlns:serif="http://www.serif.com/" style="fill-rule:evenodd;clip-rule:evenodd;stroke-linejoin:round;stroke-miterlimit:2;">
    <g transform="matrix(1.0208,0,0,1.0208,-0.207349,-0.207598)">
        <path d="M18.307,0.203L1.646,0.203C0.849,0.203 0.203,0.85 0.203,1.646L0.203,18.307C0.203,19.104 0.849,19.75 1.646,19.75L18.307,19.75C19.104,19.75 19.75,19.104 19.75,18.307L19.75,1.646C19.75,0.85 19.104,0.203 18.307,0.203ZM6.029,16.856L3.09,16.856L3.09,7.52L6.029,7.52L6.029,16.856ZM4.56,6.226C3.625,6.226 2.866,5.514 2.866,4.539C2.866,3.564 3.625,2.852 4.56,2.852C5.496,2.852 6.255,3.564 6.255,4.539C6.255,5.514 5.496,6.226 4.56,6.226ZM16.863,16.863L13.924,16.863L13.924,11.765C13.924,10.261 13.285,9.796 12.459,9.796C11.588,9.796 10.733,10.452 10.733,11.803L10.733,16.864L7.794,16.864L7.794,7.527L10.62,7.527L10.62,8.82L10.658,8.82C10.942,8.246 11.935,7.265 13.452,7.265C15.091,7.265 16.863,8.238 16.863,11.089L16.863,16.863Z" style="fill:rgb(10,102,194);fill-rule:nonzero;"/>
    </g>
</svg>
