<svg xmlns="http://www.w3.org/2000/svg" viewBox="0 0 32 32"><path d="M27.207 4.65C24.214 1.65 20.229 0 15.993 0A15.88 15.88 0 0 0 .136 15.857c0 2.793.729 5.521 2.114 7.929L0 32l8.407-2.207a15.81 15.81 0 0 0 7.579 1.929h.007C24.729 31.721 32 24.607 32 15.864c0-4.236-1.8-8.214-4.793-11.214zm-11.214 24.4c-2.371 0-4.693-.636-6.714-1.836l-.479-.286-4.986 1.307 1.329-4.864-.314-.5c-1.321-2.1-2.014-4.521-2.014-7.014C2.814 8.593 8.729 2.679 16 2.679a13.06 13.06 0 0 1 9.314 3.864c2.486 2.493 4.014 5.8 4.007 9.321 0 7.272-6.064 13.186-13.329 13.186zm7.229-9.871c-.393-.2-2.343-1.157-2.707-1.286-.364-.136-.628-.2-.893.2s-1.021 1.286-1.257 1.557c-.229.264-.464.3-.857.1-2.329-1.164-3.857-2.079-5.393-4.714-.407-.7.407-.65 1.164-2.164.129-.264.064-.493-.036-.693s-.893-2.15-1.221-2.943c-.321-.771-.65-.664-.893-.679-.229-.014-.493-.014-.757-.014s-.693.1-1.057.493c-.364.4-1.386 1.357-1.386 3.307s1.421 3.836 1.614 4.1c.2.264 2.793 4.264 6.771 5.986 2.514 1.086 3.5 1.179 4.757.993.764-.114 2.343-.957 2.671-1.886s.328-1.721.229-1.886c-.093-.179-.357-.279-.75-.471z"/></svg>
