<svg xmlns="http://www.w3.org/2000/svg" viewBox="0 0 24 24"><path fill-rule="evenodd" d="M22.694 4.865c1.041 1.063 1.003 2.661 1.199 4.039.221 3.022.118 6.092-.463 9.068-.415 1.35-1.807 2.082-3.15 2.126-4.669.416-9.371.375-14.051.189-1.438-.139-2.979-.021-4.305-.677C.603 18.912.355 17.334.198 15.994c-.369-3.247-.199-6.543.31-9.765.332-1.379 1.694-2.246 3.061-2.298 4.451-.43 8.935-.403 13.4-.257 1.585.113 3.223.051 4.751.538.363.151.695.374.973.653zm-6.871 7.133l-6.218 3.61V8.389l6.218 3.61z" clip-path="none"/></svg>
