<?xml version="1.0" encoding="UTF-8" standalone="no"?>
<!DOCTYPE svg PUBLIC "-//W3C//DTD SVG 1.1//EN" "http://www.w3.org/Graphics/SVG/1.1/DTD/svg11.dtd">
<svg width="100%" height="100%" viewBox="0 0 20 20" version="1.1" xmlns="http://www.w3.org/2000/svg" xmlns:xlink="http://www.w3.org/1999/xlink" xml:space="preserve" xmlns:serif="http://www.serif.com/" style="fill-rule:evenodd;clip-rule:evenodd;stroke-linejoin:round;stroke-miterlimit:2;">
    <g transform="matrix(1.17647,0,0,1.17647,-1.76471,-1.76488)">
        <path d="M4.167,4.334C3.99,4.334 3.82,4.404 3.695,4.529C3.57,4.654 3.5,4.823 3.5,5L3.5,15C3.5,15.177 3.57,15.347 3.695,15.472C3.82,15.597 3.99,15.667 4.167,15.667L15.833,15.667C16.01,15.667 16.18,15.597 16.305,15.472C16.43,15.347 16.5,15.177 16.5,15L16.5,5C16.5,4.823 16.43,4.654 16.305,4.529C16.18,4.404 16.01,4.334 15.833,4.334L4.167,4.334ZM2.281,3.115C2.781,2.614 3.459,2.334 4.167,2.334L15.833,2.334C16.541,2.334 17.219,2.614 17.719,3.115C18.219,3.615 18.5,4.293 18.5,5L18.5,15C18.5,15.707 18.219,16.386 17.719,16.886C17.219,17.386 16.541,17.667 15.833,17.667L4.167,17.667C3.459,17.667 2.781,17.386 2.281,16.886C1.781,16.386 1.5,15.707 1.5,15L1.5,5C1.5,4.293 1.781,3.615 2.281,3.115ZM4.833,6.667C4.833,6.115 5.281,5.667 5.833,5.667L14.167,5.667C14.719,5.667 15.167,6.115 15.167,6.667C15.167,7.219 14.719,7.667 14.167,7.667L5.833,7.667C5.281,7.667 4.833,7.219 4.833,6.667ZM4.833,10C4.833,9.448 5.281,9 5.833,9L14.167,9C14.719,9 15.167,9.448 15.167,10C15.167,10.552 14.719,11 14.167,11L5.833,11C5.281,11 4.833,10.552 4.833,10ZM4.833,13.334C4.833,12.781 5.281,12.334 5.833,12.334L14.167,12.334C14.719,12.334 15.167,12.781 15.167,13.334C15.167,13.886 14.719,14.334 14.167,14.334L5.833,14.334C5.281,14.334 4.833,13.886 4.833,13.334Z" style="fill-rule:nonzero;"/>
    </g>
</svg>
