<?xml version="1.0" encoding="UTF-8" standalone="no"?>
<!DOCTYPE svg PUBLIC "-//W3C//DTD SVG 1.1//EN" "http://www.w3.org/Graphics/SVG/1.1/DTD/svg11.dtd">
<svg width="100%" height="100%" viewBox="0 0 20 20" version="1.1" xmlns="http://www.w3.org/2000/svg" xmlns:xlink="http://www.w3.org/1999/xlink" xml:space="preserve" xmlns:serif="http://www.serif.com/" style="fill-rule:evenodd;clip-rule:evenodd;stroke-linejoin:round;stroke-miterlimit:2;">
    <g transform="matrix(1.17647,0,0,1.17647,-1.76471,-1.76488)">
        <path d="M13.5,4.334L13.5,15.667L16.5,15.667L16.5,4.334L13.5,4.334ZM16.667,17.667C17.153,17.667 17.619,17.474 17.963,17.13C18.307,16.786 18.5,16.32 18.5,15.834L18.5,4.167C18.5,3.681 18.307,3.214 17.963,2.87C17.619,2.527 17.153,2.334 16.667,2.334L13.333,2.334C12.847,2.334 12.381,2.527 12.037,2.87C11.693,3.214 11.5,3.681 11.5,4.167L11.5,5.667L8.333,5.667C7.847,5.667 7.381,5.86 7.037,6.204C6.693,6.548 6.5,7.014 6.5,7.5L6.5,9L3.333,9C2.847,9 2.381,9.193 2.037,9.537C1.693,9.881 1.5,10.347 1.5,10.834L1.5,15.834C1.5,16.32 1.693,16.786 2.037,17.13C2.381,17.474 2.847,17.667 3.333,17.667L16.667,17.667ZM3.5,15.667L6.5,15.667L6.5,11L3.5,11L3.5,15.667ZM8.5,15.667L11.5,15.667L11.5,7.667L8.5,7.667L8.5,15.667Z"/>
    </g>
</svg>
