<?xml version="1.0" encoding="UTF-8" standalone="no"?>
<!DOCTYPE svg PUBLIC "-//W3C//DTD SVG 1.1//EN" "http://www.w3.org/Graphics/SVG/1.1/DTD/svg11.dtd">
<svg width="100%" height="100%" viewBox="0 0 20 20" version="1.1" xmlns="http://www.w3.org/2000/svg" xmlns:xlink="http://www.w3.org/1999/xlink" xml:space="preserve" xmlns:serif="http://www.serif.com/" style="fill-rule:evenodd;clip-rule:evenodd;stroke-linejoin:round;stroke-miterlimit:2;">
    <g transform="matrix(1.17647,0,0,1.17647,-2.74529,-1.76471)">
        <path d="M11.718,1.501L11.667,1.5L5.833,1.5C5.126,1.5 4.448,1.781 3.948,2.281C3.448,2.781 3.167,3.459 3.167,4.167L3.167,15.833C3.167,16.541 3.448,17.219 3.948,17.719C4.448,18.219 5.126,18.5 5.833,18.5L8.333,18.5C8.885,18.5 9.333,18.052 9.333,17.5C9.333,16.948 8.885,16.5 8.333,16.5L5.833,16.5C5.657,16.5 5.487,16.43 5.362,16.305C5.237,16.18 5.167,16.01 5.167,15.833L5.167,4.167C5.167,3.99 5.237,3.82 5.362,3.695C5.487,3.57 5.657,3.5 5.833,3.5L10.667,3.5L10.667,5.833C10.667,6.32 10.86,6.786 11.204,7.13C11.548,7.474 12.014,7.667 12.5,7.667L14.833,7.667L14.833,9.583C14.833,10.135 15.281,10.583 15.833,10.583C16.385,10.583 16.833,10.135 16.833,9.583L16.833,6.661C16.833,6.582 16.823,6.505 16.805,6.431L16.802,6.417L16.788,6.369L16.78,6.346L16.773,6.323L16.765,6.305L16.76,6.29L16.755,6.278L16.748,6.264L16.741,6.246L16.735,6.233L16.73,6.224L16.719,6.202L16.695,6.158L16.687,6.146C16.647,6.08 16.598,6.017 16.541,5.96L12.374,1.793C12.316,1.735 12.254,1.687 12.187,1.646L12.175,1.639L12.132,1.615L12.088,1.593L12.07,1.585L12.056,1.579L12.043,1.573L12.029,1.568L12.01,1.561L11.998,1.556L11.987,1.553L11.964,1.545L11.916,1.532L11.868,1.52L11.819,1.512L11.769,1.505L11.718,1.501ZM12.667,16.833L14,16.833L14,17.5C14,18.052 14.448,18.5 15,18.5C15.552,18.5 16,18.052 16,17.5L16,14.167C16,13.459 15.719,12.781 15.219,12.281C14.719,11.781 14.041,11.5 13.333,11.5C12.626,11.5 11.948,11.781 11.448,12.281C10.948,12.781 10.667,13.459 10.667,14.167L10.667,17.5C10.667,18.052 11.115,18.5 11.667,18.5C12.219,18.5 12.667,18.052 12.667,17.5L12.667,16.833ZM16.5,12.5L16.5,17.5C16.5,18.052 16.948,18.5 17.5,18.5C18.052,18.5 18.5,18.052 18.5,17.5L18.5,12.5C18.5,11.948 18.052,11.5 17.5,11.5C16.948,11.5 16.5,11.948 16.5,12.5ZM7.5,15.167L8.333,15.167C8.885,15.167 9.333,14.719 9.333,14.167C9.333,13.615 8.885,13.167 8.333,13.167L7.5,13.167C6.948,13.167 6.5,13.615 6.5,14.167C6.5,14.719 6.948,15.167 7.5,15.167ZM14,14.833L14,14.167C14,13.99 13.93,13.82 13.805,13.695C13.68,13.57 13.51,13.5 13.333,13.5C13.157,13.5 12.987,13.57 12.862,13.695C12.737,13.82 12.667,13.99 12.667,14.167L12.667,14.833L14,14.833ZM7.5,11.833L9.583,11.833C10.135,11.833 10.583,11.385 10.583,10.833C10.583,10.281 10.135,9.833 9.583,9.833L7.5,9.833C6.948,9.833 6.5,10.281 6.5,10.833C6.5,11.385 6.948,11.833 7.5,11.833ZM7.5,8.5L8.333,8.5C8.885,8.5 9.333,8.052 9.333,7.5C9.333,6.948 8.885,6.5 8.333,6.5L7.5,6.5C6.948,6.5 6.5,6.948 6.5,7.5C6.5,8.052 6.948,8.5 7.5,8.5ZM12.667,5.667L13.419,5.667L12.667,4.914L12.667,5.667Z"/>
    </g>
</svg>
