<?xml version="1.0" encoding="UTF-8" standalone="no"?>
<!DOCTYPE svg PUBLIC "-//W3C//DTD SVG 1.1//EN" "http://www.w3.org/Graphics/SVG/1.1/DTD/svg11.dtd">
<svg width="100%" height="100%" viewBox="0 0 20 20" version="1.1" xmlns="http://www.w3.org/2000/svg" xmlns:xlink="http://www.w3.org/1999/xlink" xml:space="preserve" xmlns:serif="http://www.serif.com/" style="fill-rule:evenodd;clip-rule:evenodd;stroke-linejoin:round;stroke-miterlimit:2;">
    <g transform="matrix(1.23711,0,0,1.23711,-2.37108,-2.88675)">
        <path d="M8.784,2.41C9.158,2.255 9.588,2.34 9.874,2.626C10.448,3.2 11.146,4.427 11.491,5.813C11.744,6.827 11.834,8.037 11.472,9.215C11.506,9.181 11.543,9.142 11.582,9.098C11.826,8.826 12.12,8.417 12.474,7.822C12.637,7.548 12.921,7.368 13.238,7.338C13.555,7.308 13.868,7.43 14.08,7.668C14.575,8.224 15.044,9.058 15.386,9.888C15.727,10.713 16,11.674 16,12.5C16,14.092 15.368,15.618 14.243,16.743C13.117,17.868 11.591,18.5 10,18.5C8.409,18.5 6.883,17.868 5.757,16.743C4.632,15.618 4,14.092 4,12.5C4,10.784 4.739,8.881 5.95,7.636L6.025,7.56C7.049,6.51 8.167,5.364 8.167,3.333C8.167,2.929 8.41,2.564 8.784,2.41ZM9.53,6.218C8.962,7.42 8.126,8.273 7.514,8.897C7.469,8.943 7.425,8.988 7.383,9.031L6.667,8.333L7.383,9.031C6.551,9.886 6,11.283 6,12.5C6,13.561 6.421,14.578 7.172,15.329C7.922,16.079 8.939,16.5 10,16.5C11.061,16.5 12.078,16.079 12.828,15.329C13.579,14.578 14,13.561 14,12.5C14,12.05 13.834,11.369 13.537,10.651C13.465,10.476 13.389,10.308 13.311,10.149C13.231,10.25 13.15,10.345 13.071,10.433C12.711,10.835 12.314,11.163 11.857,11.345C10.803,11.767 9.94,11.248 9.363,10.771C8.966,10.443 8.883,9.867 9.171,9.44C9.787,8.529 9.825,7.397 9.551,6.296C9.544,6.27 9.537,6.244 9.53,6.218Z" style="fill-rule:nonzero;"/>
    </g>
</svg>
