<?xml version="1.0" encoding="UTF-8" standalone="no"?>
<!DOCTYPE svg PUBLIC "-//W3C//DTD SVG 1.1//EN" "http://www.w3.org/Graphics/SVG/1.1/DTD/svg11.dtd">
<svg width="100%" height="100%" viewBox="0 0 20 20" version="1.1" xmlns="http://www.w3.org/2000/svg" xmlns:xlink="http://www.w3.org/1999/xlink" xml:space="preserve" xmlns:serif="http://www.serif.com/" style="fill-rule:evenodd;clip-rule:evenodd;stroke-linejoin:round;stroke-miterlimit:2;">
    <g transform="matrix(1.1215,0,0,1.1215,-1.21489,-1.68225)">
        <path d="M10,3.5C8.497,3.5 7.056,4.097 5.993,5.16C4.95,6.203 4.355,7.611 4.334,9.085C4.55,9.029 4.773,9 5,9L5.833,9C6.541,9 7.219,9.281 7.719,9.781C8.219,10.281 8.5,10.959 8.5,11.667L8.5,14.167C8.5,14.874 8.219,15.552 7.719,16.052C7.219,16.552 6.541,16.833 5.833,16.833L5,16.833C4.293,16.833 3.614,16.552 3.114,16.052C2.614,15.552 2.333,14.874 2.333,14.167L2.333,9.167C2.333,7.133 3.141,5.183 4.579,3.746C6.017,2.308 7.967,1.5 10,1.5C12.033,1.5 13.983,2.308 15.421,3.746C16.859,5.183 17.667,7.133 17.667,9.167L17.667,14.167C17.667,14.874 17.386,15.552 16.886,16.052C16.588,16.35 16.226,16.571 15.833,16.7C15.506,17.517 14.746,18.114 13.983,18.496C12.912,19.031 11.502,19.333 10,19.333C9.448,19.333 9,18.886 9,18.333C9,17.781 9.448,17.333 10,17.333C11.259,17.333 12.35,17.076 13.088,16.707C13.126,16.688 13.162,16.669 13.197,16.651C12.857,16.518 12.544,16.315 12.281,16.052C11.781,15.552 11.5,14.874 11.5,14.167L11.5,11.667C11.5,10.959 11.781,10.281 12.281,9.781C12.781,9.281 13.459,9 14.167,9L15,9C15.227,9 15.45,9.029 15.666,9.085C15.645,7.611 15.05,6.203 14.007,5.16C12.944,4.097 11.503,3.5 10,3.5ZM15.667,11.667C15.667,11.49 15.596,11.32 15.471,11.195C15.346,11.07 15.177,11 15,11L14.167,11C13.99,11 13.82,11.07 13.695,11.195C13.57,11.32 13.5,11.49 13.5,11.667L13.5,14.167C13.5,14.344 13.57,14.513 13.695,14.638C13.82,14.763 13.99,14.833 14.167,14.833L15,14.833C15.177,14.833 15.346,14.763 15.471,14.638C15.596,14.513 15.667,14.344 15.667,14.167L15.667,11.667ZM4.333,11.667L4.333,14.167C4.333,14.344 4.403,14.513 4.529,14.638C4.654,14.763 4.823,14.833 5,14.833L5.833,14.833C6.01,14.833 6.18,14.763 6.305,14.638C6.43,14.513 6.5,14.344 6.5,14.167L6.5,11.667C6.5,11.49 6.43,11.32 6.305,11.195C6.18,11.07 6.01,11 5.833,11L5,11C4.823,11 4.654,11.07 4.529,11.195C4.403,11.32 4.333,11.49 4.333,11.667Z" style="fill-rule:nonzero;"/>
    </g>
</svg>
