<?xml version="1.0" encoding="UTF-8" standalone="no"?>
<!DOCTYPE svg PUBLIC "-//W3C//DTD SVG 1.1//EN" "http://www.w3.org/Graphics/SVG/1.1/DTD/svg11.dtd">
<svg width="100%" height="100%" viewBox="0 0 20 20" version="1.1" xmlns="http://www.w3.org/2000/svg" xmlns:xlink="http://www.w3.org/1999/xlink" xml:space="preserve" xmlns:serif="http://www.serif.com/" style="fill-rule:evenodd;clip-rule:evenodd;stroke-linejoin:round;stroke-miterlimit:2;">
    <g transform="matrix(1.23711,0,0,1.23711,-2.88656,-4.4332)">
        <path d="M3.114,5.615C3.614,5.114 4.293,4.834 5,4.834L15,4.834C15.707,4.834 16.386,5.114 16.886,5.615C17.386,6.115 17.667,6.793 17.667,7.5L17.667,9.167C17.667,9.719 17.219,10.167 16.667,10.167C16.114,10.167 15.667,9.719 15.667,9.167L15.667,7.5C15.667,7.323 15.596,7.154 15.471,7.029C15.346,6.904 15.177,6.834 15,6.834L5,6.834C4.823,6.834 4.654,6.904 4.529,7.029C4.404,7.154 4.333,7.323 4.333,7.5L4.333,11.667C4.333,11.844 4.404,12.013 4.529,12.138C4.654,12.263 4.823,12.334 5,12.334L8.333,12.334C8.886,12.334 9.333,12.781 9.333,13.334C9.333,13.886 8.886,14.334 8.333,14.334L5,14.334C4.293,14.334 3.614,14.053 3.114,13.552C2.614,13.052 2.333,12.374 2.333,11.667L2.333,7.5C2.333,6.793 2.614,6.115 3.114,5.615ZM13.333,13.5C13.157,13.5 12.987,13.57 12.862,13.695C12.737,13.82 12.667,13.99 12.667,14.167L12.667,14.834L14,14.834L14,14.167C14,13.99 13.93,13.82 13.805,13.695C13.68,13.57 13.51,13.5 13.333,13.5ZM16,14.167C16,13.46 15.719,12.781 15.219,12.281C14.719,11.781 14.041,11.5 13.333,11.5C12.626,11.5 11.948,11.781 11.448,12.281C10.948,12.781 10.667,13.46 10.667,14.167L10.667,17.5C10.667,18.052 11.114,18.5 11.667,18.5C12.219,18.5 12.667,18.052 12.667,17.5L12.667,16.834L14,16.834L14,17.5C14,18.052 14.448,18.5 15,18.5C15.552,18.5 16,18.052 16,17.5L16,14.167ZM17.5,11.5C18.052,11.5 18.5,11.948 18.5,12.5L18.5,17.5C18.5,18.052 18.052,18.5 17.5,18.5C16.948,18.5 16.5,18.052 16.5,17.5L16.5,12.5C16.5,11.948 16.948,11.5 17.5,11.5Z"/>
    </g>
</svg>
