<?xml version="1.0" encoding="UTF-8" standalone="no"?>
<!DOCTYPE svg PUBLIC "-//W3C//DTD SVG 1.1//EN" "http://www.w3.org/Graphics/SVG/1.1/DTD/svg11.dtd">
<svg width="100%" height="100%" viewBox="0 0 20 20" version="1.1" xmlns="http://www.w3.org/2000/svg" xmlns:xlink="http://www.w3.org/1999/xlink" xml:space="preserve" xmlns:serif="http://www.serif.com/" style="fill-rule:evenodd;clip-rule:evenodd;stroke-linejoin:round;stroke-miterlimit:2;">
    <g transform="matrix(1.30431,0,0,1.30431,-3.04314,-3.04328)">
        <path d="M8.356,2.333C8.342,2.333 8.327,2.333 8.313,2.333L5,2.333C4.293,2.333 3.615,2.614 3.115,3.115C2.614,3.615 2.333,4.293 2.333,5L2.333,11.644C2.333,11.659 2.333,11.673 2.333,11.688L2.333,15C2.333,15.707 2.614,16.386 3.115,16.886C3.615,17.386 4.293,17.667 5,17.667L11.644,17.667C11.659,17.667 11.673,17.667 11.688,17.667L15,17.667C15.707,17.667 16.386,17.386 16.886,16.886C17.386,16.386 17.667,15.707 17.667,15L17.667,5C17.667,4.293 17.386,3.615 16.886,3.115C16.386,2.614 15.707,2.333 15,2.333L8.356,2.333ZM12.448,15.667L15,15.667C15.177,15.667 15.347,15.597 15.472,15.472C15.597,15.347 15.667,15.177 15.667,15L15.667,5C15.667,4.823 15.597,4.654 15.472,4.529C15.347,4.404 15.177,4.333 15,4.333L9.614,4.333L12.448,15.667ZM10.386,15.667L9.273,11.213L4.333,12.448L4.333,15C4.333,15.177 4.404,15.347 4.529,15.472C4.654,15.597 4.823,15.667 5,15.667L10.386,15.667ZM4.333,10.386L4.333,5C4.333,4.823 4.404,4.654 4.529,4.529C4.654,4.404 4.823,4.333 5,4.333L7.553,4.333L8.787,9.273L4.333,10.386Z"/>
    </g>
</svg>
