<?xml version="1.0" encoding="UTF-8" standalone="no"?>
<!DOCTYPE svg PUBLIC "-//W3C//DTD SVG 1.1//EN" "http://www.w3.org/Graphics/SVG/1.1/DTD/svg11.dtd">
<svg width="100%" height="100%" viewBox="0 0 20 20" version="1.1" xmlns="http://www.w3.org/2000/svg" xmlns:xlink="http://www.w3.org/1999/xlink" xml:space="preserve" xmlns:serif="http://www.serif.com/" style="fill-rule:evenodd;clip-rule:evenodd;stroke-linejoin:round;stroke-miterlimit:2;">
    <g transform="matrix(1,0,0,1,0,-0.500159)">
        <path d="M4,3C3.47,3 2.961,3.211 2.586,3.586C2.211,3.961 2,4.47 2,5L2,13C2,13.531 2.211,14.039 2.586,14.414C2.961,14.789 3.47,15 4,15L6,15C6.552,15 7,15.448 7,16L7,17.234L10.486,15.143C10.641,15.049 10.819,15 11,15L16,15C16.53,15 17.039,14.789 17.414,14.414C17.789,14.039 18,13.531 18,13L18,5C18,4.47 17.789,3.961 17.414,3.586C17.039,3.211 16.53,3 16,3L4,3ZM1.172,2.172C1.922,1.422 2.939,1 4,1L16,1C17.061,1 18.078,1.422 18.828,2.172C19.579,2.922 20,3.939 20,5L20,13C20,14.061 19.579,15.078 18.828,15.829C18.078,16.579 17.061,17 16,17L11.277,17L6.515,19.858C6.206,20.043 5.821,20.048 5.507,19.87C5.194,19.693 5,19.36 5,19L5,17L4,17C2.939,17 1.922,16.579 1.172,15.829C0.421,15.078 0,14.061 0,13L0,5C0,3.939 0.421,2.922 1.172,2.172ZM6.5,7C6.5,6.448 6.948,6 7.5,6L7.51,6C8.062,6 8.51,6.448 8.51,7C8.51,7.552 8.062,8 7.51,8L7.5,8C6.948,8 6.5,7.552 6.5,7ZM11.5,7C11.5,6.448 11.948,6 12.5,6L12.51,6C13.062,6 13.51,6.448 13.51,7C13.51,7.552 13.062,8 12.51,8L12.5,8C11.948,8 11.5,7.552 11.5,7ZM6.8,10.286C7.195,9.899 7.828,9.906 8.214,10.3C8.447,10.538 8.725,10.727 9.032,10.855C9.338,10.984 9.667,11.051 10,11.051C10.333,11.051 10.662,10.984 10.969,10.855C11.275,10.727 11.553,10.538 11.786,10.3C12.172,9.906 12.805,9.899 13.2,10.286C13.594,10.672 13.601,11.306 13.214,11.7C12.795,12.128 12.295,12.467 11.743,12.699C11.191,12.931 10.599,13.051 10,13.051C9.401,13.051 8.809,12.931 8.257,12.699C7.705,12.467 7.205,12.128 6.786,11.7C6.399,11.306 6.406,10.672 6.8,10.286Z" style="fill-rule:nonzero;"/>
    </g>
</svg>
