<?xml version="1.0" encoding="UTF-8" standalone="no"?>
<!DOCTYPE svg PUBLIC "-//W3C//DTD SVG 1.1//EN" "http://www.w3.org/Graphics/SVG/1.1/DTD/svg11.dtd">
<svg width="100%" height="100%" viewBox="0 0 20 20" version="1.1" xmlns="http://www.w3.org/2000/svg" xmlns:xlink="http://www.w3.org/1999/xlink" xml:space="preserve" xmlns:serif="http://www.serif.com/" style="fill-rule:evenodd;clip-rule:evenodd;stroke-linejoin:round;stroke-miterlimit:2;">
    <g transform="matrix(1.17647,0,0,1.17647,-1.76471,-1.76735)">
        <path d="M10,3.5C8.276,3.5 6.623,4.185 5.404,5.404C4.185,6.623 3.5,8.276 3.5,10C3.5,11.724 4.185,13.377 5.404,14.596C6.623,15.815 8.276,16.5 10,16.5C10.03,16.5 10.061,16.501 10.091,16.504C10.108,16.506 10.126,16.502 10.141,16.493C10.156,16.484 10.168,16.471 10.175,16.455C10.182,16.439 10.184,16.421 10.18,16.404C10.18,16.402 10.179,16.399 10.178,16.397C9.739,16.109 9.393,15.697 9.186,15.211C8.953,14.664 8.91,14.054 9.063,13.479C9.216,12.905 9.558,12.397 10.032,12.039C10.505,11.682 11.082,11.493 11.674,11.5L13.75,11.5C14.514,11.5 15.228,11.229 15.737,10.776C16.243,10.327 16.5,9.744 16.5,9.167C16.5,6.145 13.703,3.5 10,3.5ZM3.99,3.99C5.584,2.396 7.746,1.5 10,1.5C14.58,1.5 18.5,4.825 18.5,9.167C18.5,10.356 17.967,11.47 17.066,12.271C16.169,13.068 14.974,13.5 13.75,13.5L11.667,13.5L11.651,13.5C11.502,13.498 11.357,13.545 11.238,13.634C11.119,13.724 11.034,13.851 10.996,13.995C10.957,14.138 10.968,14.291 11.026,14.428C11.085,14.565 11.187,14.678 11.317,14.75C11.387,14.789 11.453,14.836 11.512,14.89C11.832,15.185 12.051,15.573 12.139,16C12.227,16.426 12.179,16.869 12.002,17.267C11.826,17.665 11.529,17.998 11.153,18.218C10.792,18.43 10.377,18.528 9.96,18.5C7.72,18.49 5.574,17.595 3.99,16.01C2.396,14.416 1.5,12.254 1.5,10C1.5,7.746 2.396,5.584 3.99,3.99ZM9.12,4.954C9.464,4.61 9.93,4.417 10.417,4.417C10.903,4.417 11.369,4.61 11.713,4.954C12.057,5.297 12.25,5.764 12.25,6.25C12.25,6.736 12.057,7.203 11.713,7.546C11.369,7.89 10.903,8.083 10.417,8.083C9.93,8.083 9.464,7.89 9.12,7.546C8.776,7.203 8.583,6.736 8.583,6.25C8.583,5.764 8.776,5.297 9.12,4.954ZM10.417,6.417C10.461,6.417 10.503,6.399 10.535,6.368C10.566,6.337 10.583,6.294 10.583,6.25C10.583,6.206 10.566,6.163 10.535,6.132C10.503,6.101 10.461,6.083 10.417,6.083C10.373,6.083 10.33,6.101 10.299,6.132C10.268,6.163 10.25,6.206 10.25,6.25C10.25,6.294 10.268,6.337 10.299,6.368C10.33,6.399 10.373,6.417 10.417,6.417ZM5.787,7.454C6.131,7.11 6.597,6.917 7.083,6.917C7.57,6.917 8.036,7.11 8.38,7.454C8.724,7.797 8.917,8.264 8.917,8.75C8.917,9.236 8.724,9.703 8.38,10.046C8.036,10.39 7.57,10.583 7.083,10.583C6.597,10.583 6.131,10.39 5.787,10.046C5.443,9.703 5.25,9.236 5.25,8.75C5.25,8.264 5.443,7.797 5.787,7.454ZM7.083,8.917C7.128,8.917 7.17,8.899 7.201,8.868C7.232,8.837 7.25,8.794 7.25,8.75C7.25,8.706 7.232,8.663 7.201,8.632C7.17,8.601 7.128,8.583 7.083,8.583C7.039,8.583 6.997,8.601 6.965,8.632C6.934,8.663 6.917,8.706 6.917,8.75C6.917,8.794 6.934,8.837 6.965,8.868C6.997,8.899 7.039,8.917 7.083,8.917ZM12.454,7.454C12.798,7.11 13.264,6.917 13.75,6.917C14.236,6.917 14.703,7.11 15.046,7.454C15.39,7.797 15.583,8.264 15.583,8.75C15.583,9.236 15.39,9.703 15.046,10.046C14.703,10.39 14.236,10.583 13.75,10.583C13.264,10.583 12.798,10.39 12.454,10.046C12.11,9.703 11.917,9.236 11.917,8.75C11.917,8.264 12.11,7.797 12.454,7.454ZM13.75,8.917C13.794,8.917 13.837,8.899 13.868,8.868C13.899,8.837 13.917,8.794 13.917,8.75C13.917,8.706 13.899,8.663 13.868,8.632C13.837,8.601 13.794,8.583 13.75,8.583C13.706,8.583 13.663,8.601 13.632,8.632C13.601,8.663 13.583,8.706 13.583,8.75C13.583,8.794 13.601,8.837 13.632,8.868C13.663,8.899 13.706,8.917 13.75,8.917Z" style="fill-rule:nonzero;"/>
    </g>
</svg>
