<?xml version="1.0" encoding="UTF-8" standalone="no"?>
<!DOCTYPE svg PUBLIC "-//W3C//DTD SVG 1.1//EN" "http://www.w3.org/Graphics/SVG/1.1/DTD/svg11.dtd">
<svg width="100%" height="100%" viewBox="0 0 20 20" version="1.1" xmlns="http://www.w3.org/2000/svg" xmlns:xlink="http://www.w3.org/1999/xlink" xml:space="preserve" xmlns:serif="http://www.serif.com/" style="fill-rule:evenodd;clip-rule:evenodd;stroke-linejoin:round;stroke-miterlimit:2;">
    <g transform="matrix(1.17647,0,0,1.17647,-1.76471,-1.76491)">
        <path d="M5.718,2.02C6.547,1.677 7.436,1.5 8.333,1.5C9.231,1.5 10.119,1.677 10.948,2.02C11.777,2.364 12.531,2.867 13.165,3.502C13.8,4.136 14.303,4.889 14.647,5.718C14.99,6.548 15.167,7.436 15.167,8.333C15.167,9.231 14.99,10.119 14.647,10.948C14.432,11.468 14.154,11.957 13.82,12.406L18.207,16.793C18.598,17.184 18.598,17.817 18.207,18.207C17.817,18.598 17.183,18.598 16.793,18.207L12.406,13.82C11.957,14.154 11.468,14.432 10.948,14.647C10.119,14.99 9.231,15.167 8.333,15.167C7.436,15.167 6.547,14.99 5.718,14.647C4.889,14.303 4.136,13.8 3.501,13.165C2.867,12.531 2.364,11.778 2.02,10.948C1.677,10.119 1.5,9.231 1.5,8.333C1.5,7.436 1.677,6.548 2.02,5.718C2.364,4.889 2.867,4.136 3.501,3.502C4.136,2.867 4.889,2.364 5.718,2.02ZM8.333,3.5C7.699,3.5 7.07,3.625 6.484,3.868C5.897,4.111 5.364,4.467 4.916,4.916C4.467,5.365 4.111,5.897 3.868,6.484C3.625,7.07 3.5,7.699 3.5,8.333C3.5,8.968 3.625,9.597 3.868,10.183C4.111,10.77 4.467,11.302 4.916,11.751C5.364,12.2 5.897,12.556 6.484,12.799C7.07,13.042 7.699,13.167 8.333,13.167C8.968,13.167 9.597,13.042 10.183,12.799C10.769,12.556 11.302,12.2 11.751,11.751C12.2,11.302 12.556,10.77 12.799,10.183C13.042,9.597 13.167,8.968 13.167,8.333C13.167,7.699 13.042,7.07 12.799,6.484C12.556,5.897 12.2,5.365 11.751,4.916C11.302,4.467 10.769,4.111 10.183,3.868C9.597,3.625 8.968,3.5 8.333,3.5Z" style="fill-rule:nonzero;"/>
    </g>
</svg>
