<?xml version="1.0" encoding="UTF-8" standalone="no"?>
<!DOCTYPE svg PUBLIC "-//W3C//DTD SVG 1.1//EN" "http://www.w3.org/Graphics/SVG/1.1/DTD/svg11.dtd">
<svg width="100%" height="100%" viewBox="0 0 20 20" version="1.1" xmlns="http://www.w3.org/2000/svg" xmlns:xlink="http://www.w3.org/1999/xlink" xml:space="preserve" xmlns:serif="http://www.serif.com/" style="fill-rule:evenodd;clip-rule:evenodd;stroke-linejoin:round;stroke-miterlimit:2;">
    <g transform="matrix(1.1215,0,0,1.1215,-1.21504,-0.747928)">
        <path d="M10,0.667C10.552,0.667 11,1.115 11,1.667L11,2.334L13.333,2.334C14.041,2.334 14.719,2.615 15.219,3.115C15.719,3.615 16,4.293 16,5L16,8.334C16,9.041 15.719,9.719 15.219,10.219C14.758,10.68 14.147,10.955 13.5,10.995L13.5,11.049L16.281,12.439C16.775,12.686 16.975,13.287 16.728,13.781C16.481,14.275 15.88,14.475 15.386,14.228L13.5,13.285L13.5,17.5C13.5,18.052 13.052,18.5 12.5,18.5C11.948,18.5 11.5,18.052 11.5,17.5L11.5,16L8.5,16L8.5,17.5C8.5,18.052 8.052,18.5 7.5,18.5C6.948,18.5 6.5,18.052 6.5,17.5L6.5,13.285L4.614,14.228C4.12,14.475 3.519,14.275 3.272,13.781C3.025,13.287 3.226,12.686 3.72,12.439L6.5,11.049L6.5,10.995C5.854,10.955 5.242,10.68 4.781,10.219C4.281,9.719 4,9.041 4,8.334L4,5C4,4.293 4.281,3.615 4.781,3.115C5.281,2.615 5.959,2.334 6.667,2.334L9,2.334L9,1.667C9,1.115 9.448,0.667 10,0.667ZM6.667,4.334C6.49,4.334 6.32,4.404 6.195,4.529C6.07,4.654 6,4.823 6,5L6,8.334C6,8.51 6.07,8.68 6.195,8.805C6.32,8.93 6.49,9 6.667,9L13.333,9C13.51,9 13.68,8.93 13.805,8.805C13.93,8.68 14,8.51 14,8.334L14,5C14,4.823 13.93,4.654 13.805,4.529C13.68,4.404 13.51,4.334 13.333,4.334L6.667,4.334ZM11.5,11L8.5,11L8.5,11.645C8.5,11.659 8.5,11.673 8.5,11.687L8.5,14L11.5,14L11.5,11.687C11.5,11.673 11.5,11.659 11.5,11.645L11.5,11ZM8.333,5.667C8.886,5.667 9.333,6.115 9.333,6.667L9.333,6.675C9.333,7.228 8.886,7.675 8.333,7.675C7.781,7.675 7.333,7.228 7.333,6.675L7.333,6.667C7.333,6.115 7.781,5.667 8.333,5.667ZM11.667,5.667C12.219,5.667 12.667,6.115 12.667,6.667L12.667,6.675C12.667,7.228 12.219,7.675 11.667,7.675C11.114,7.675 10.667,7.228 10.667,6.675L10.667,6.667C10.667,6.115 11.114,5.667 11.667,5.667Z" style="fill-rule:nonzero;"/>
    </g>
</svg>
