<svg  viewBox="0 0 20 20" xmlns="http://www.w3.org/2000/svg" style="fill-rule:evenodd;clip-rule:evenodd;stroke-linejoin:round;stroke-miterlimit:2;">
<path d="M9.62863 3.23803C9.86704 3.14266 10.133 3.14266 10.3714 3.23803L18.7047 6.57136C19.0844 6.72322 19.3334 7.09093 19.3334 7.49984V12.4998C19.3334 13.0521 18.8856 13.4998 18.3334 13.4998C17.7811 13.4998 17.3334 13.0521 17.3334 12.4998V8.97687L16 9.5102V13.3333C16 14.5669 15.0444 15.4646 13.9828 15.9954C12.8744 16.5496 11.4413 16.8333 10 16.8333C8.55872 16.8333 7.12565 16.5496 6.01727 15.9954C4.95567 15.4646 4.00002 14.5669 4.00002 13.3333V9.5102L1.2953 8.42831C0.915638 8.27645 0.666687 7.90874 0.666687 7.49984C0.666687 7.09093 0.915638 6.72322 1.2953 6.57136L9.62863 3.23803ZM5.38921 7.91182C5.37729 7.90677 5.36525 7.90195 5.35309 7.89737L4.35927 7.49984L10 5.24354L15.6408 7.49984L14.6469 7.89737C14.6348 7.90196 14.6228 7.90677 14.6108 7.91181L10 9.75614L5.38921 7.91182ZM6.00002 10.3102V13.3333C6.00002 13.4257 6.09794 13.7997 6.9117 14.2066C7.67868 14.5901 8.78916 14.8333 10 14.8333C11.2109 14.8333 12.3214 14.5901 13.0883 14.2066C13.9021 13.7997 14 13.4257 14 13.3333V10.3102L10.3714 11.7616C10.133 11.857 9.86704 11.857 9.62863 11.7616L6.00002 10.3102Z" />
</svg>
