<?xml version="1.0" encoding="UTF-8" standalone="no"?>
<!DOCTYPE svg PUBLIC "-//W3C//DTD SVG 1.1//EN" "http://www.w3.org/Graphics/SVG/1.1/DTD/svg11.dtd">
<svg width="100%" height="100%" viewBox="0 0 20 20" version="1.1" xmlns="http://www.w3.org/2000/svg" xmlns:xlink="http://www.w3.org/1999/xlink" xml:space="preserve" xmlns:serif="http://www.serif.com/" style="fill-rule:evenodd;clip-rule:evenodd;stroke-linejoin:round;stroke-miterlimit:2;">
    <g transform="matrix(1.17647,0,0,1.17647,-1.76471,-1.76453)">
        <path d="M2.037,6.203C2.381,5.86 2.847,5.667 3.333,5.667L5.833,5.667C6.386,5.667 6.833,6.114 6.833,6.667C6.833,7.219 6.386,7.667 5.833,7.667L3.5,7.667L3.5,9L5,9C5.486,9 5.953,9.193 6.296,9.537C6.64,9.881 6.833,10.347 6.833,10.833L6.833,12.5C6.833,12.986 6.64,13.452 6.296,13.796C5.953,14.14 5.486,14.333 5,14.333L2.5,14.333C1.948,14.333 1.5,13.886 1.5,13.333C1.5,12.781 1.948,12.333 2.5,12.333L4.833,12.333L4.833,11L3.333,11C2.847,11 2.381,10.807 2.037,10.463C1.693,10.119 1.5,9.653 1.5,9.166L1.5,7.5C1.5,7.014 1.693,6.547 2.037,6.203ZM7.333,6.667C7.333,6.114 7.781,5.667 8.333,5.667L11.667,5.667C12.219,5.667 12.667,6.114 12.667,6.667C12.667,7.219 12.219,7.667 11.667,7.667L9.333,7.667L9.333,9L10.833,9C11.386,9 11.833,9.448 11.833,10C11.833,10.552 11.386,11 10.833,11L9.333,11L9.333,12.333L11.667,12.333C12.219,12.333 12.667,12.781 12.667,13.333C12.667,13.886 12.219,14.333 11.667,14.333L8.333,14.333C7.781,14.333 7.333,13.886 7.333,13.333L7.333,6.667ZM15.167,7.667L15.167,12.333L16.5,12.333L16.5,7.667L15.167,7.667ZM13.704,6.203C14.048,5.86 14.514,5.667 15,5.667L16.667,5.667C17.153,5.667 17.619,5.86 17.963,6.203C18.307,6.547 18.5,7.014 18.5,7.5L18.5,12.5C18.5,12.986 18.307,13.452 17.963,13.796C17.619,14.14 17.153,14.333 16.667,14.333L15,14.333C14.514,14.333 14.048,14.14 13.704,13.796C13.36,13.452 13.167,12.986 13.167,12.5L13.167,7.5C13.167,7.014 13.36,6.547 13.704,6.203Z" style="fill-rule:nonzero;"/>
    </g>
</svg>
