<?xml version="1.0" encoding="UTF-8" standalone="no"?>
<!DOCTYPE svg PUBLIC "-//W3C//DTD SVG 1.1//EN" "http://www.w3.org/Graphics/SVG/1.1/DTD/svg11.dtd">
<svg width="100%" height="100%" viewBox="0 0 20 20" version="1.1" xmlns="http://www.w3.org/2000/svg" xmlns:xlink="http://www.w3.org/1999/xlink" xml:space="preserve" xmlns:serif="http://www.serif.com/" style="fill-rule:evenodd;clip-rule:evenodd;stroke-linejoin:round;stroke-miterlimit:2;">
    <g transform="matrix(1.30429,0,0,1.30429,-3.04291,-3.04291)">
        <path d="M5,7.667C4.823,7.667 4.654,7.737 4.529,7.862C4.404,7.987 4.333,8.156 4.333,8.333L4.333,9.833L5.667,9.833L5.667,8.333C5.667,8.156 5.596,7.987 5.471,7.862C5.346,7.737 5.177,7.667 5,7.667ZM7.667,8.333C7.667,7.626 7.386,6.948 6.886,6.448C6.386,5.947 5.707,5.667 5,5.667C4.293,5.667 3.615,5.947 3.114,6.448C2.614,6.948 2.333,7.626 2.333,8.333L2.333,13.333C2.333,13.886 2.781,14.333 3.333,14.333C3.886,14.333 4.333,13.886 4.333,13.333L4.333,11.833L5.667,11.833L5.667,13.333C5.667,13.886 6.114,14.333 6.667,14.333C7.219,14.333 7.667,13.886 7.667,13.333L7.667,8.333ZM12.333,6.667C12.333,6.114 12.781,5.667 13.333,5.667L16.667,5.667C17.013,5.667 17.335,5.846 17.517,6.141C17.7,6.436 17.716,6.804 17.561,7.114L14.951,12.333L16.667,12.333C17.219,12.333 17.667,12.781 17.667,13.333C17.667,13.886 17.219,14.333 16.667,14.333L13.333,14.333C12.987,14.333 12.665,14.154 12.483,13.859C12.301,13.564 12.284,13.196 12.439,12.886L15.049,7.667L13.333,7.667C12.781,7.667 12.333,7.219 12.333,6.667ZM8.167,10C8.167,9.448 8.614,9 9.167,9L10.833,9C11.386,9 11.833,9.448 11.833,10C11.833,10.552 11.386,11 10.833,11L9.167,11C8.614,11 8.167,10.552 8.167,10Z"/>
    </g>
</svg>
