<!-- Generated by IcoMoon.io -->
<svg version="1.1" xmlns="http://www.w3.org/2000/svg" viewBox="0 0 32 32">
<title>customer-portal</title>
<path d="M20.8 18.336c-3.143-0.344-5.68-2.59-6.452-5.548l-0.012-0.052c-0.119-0.499-0.187-1.072-0.187-1.661 0-2.555 1.28-4.812 3.234-6.163l0.025-0.016c1.141-0.768 2.546-1.226 4.058-1.226 4.047 0 7.328 3.281 7.328 7.328 0 0.675-0.091 1.329-0.262 1.95l0.012-0.051c-1.040 3.133-3.943 5.353-7.366 5.353-0.133 0-0.265-0.003-0.397-0.010l0.018 0.001c-1.696-0.096-1.696 2.56 0 2.656 0.122 0.005 0.265 0.008 0.409 0.008 4.082 0 7.612-2.367 9.292-5.803l0.027-0.061c0.582-1.222 0.922-2.656 0.922-4.169 0-2.798-1.162-5.325-3.031-7.124l-0.003-0.003c-1.804-1.742-4.264-2.815-6.975-2.815-1.608 0-3.128 0.378-4.476 1.049l0.058-0.026c-3.321 1.721-5.552 5.132-5.552 9.065 0 0.346 0.017 0.689 0.051 1.026l-0.003-0.043c0.54 4.867 4.443 8.671 9.309 9.054l0.035 0.002c1.664 0.096 1.632-2.592-0.064-2.72zM13.344 16.384c-0.88 1.022-1.811 1.944-2.811 2.786l-0.037 0.030c-0.235 0.239-0.38 0.566-0.384 0.927v0.001c-0 0.006-0 0.012-0 0.019 0 0.366 0.147 0.699 0.384 0.941l-0-0c0.242 0.238 0.574 0.384 0.941 0.384 0.007 0 0.014-0 0.020-0h0.351c0.229-0.064 0.425-0.187 0.575-0.351l0.001-0.001c1.020-0.875 1.941-1.796 2.787-2.782l0.029-0.034c0.246-0.235 0.403-0.562 0.416-0.926l0-0.002c-0.013-0.366-0.17-0.693-0.415-0.927l-0.001-0c-0.231-0.258-0.558-0.427-0.924-0.448l-0.004-0c-0.362 0.004-0.689 0.149-0.928 0.384l0-0zM11.36 18.816c-1.824-1.024-3.264 0.736-4.384 1.92l-3.232 3.456c-0.181 0.227-0.29 0.518-0.29 0.834 0 0.742 0.602 1.344 1.344 1.344 0.316 0 0.607-0.109 0.837-0.292l-0.003 0.002 2.848-3.040c0.448-0.48 0.896-0.96 1.312-1.44 0.104-0.088 0.219-0.172 0.339-0.249l0.013-0.007c-0.128 0.128 0 0 0.096 0s0.128 0 0.16-0.096-0.224 0.096 0 0h-0.192c0.128 0 0.128 0 0 0s-0.384-0.16-0.192 0c0.156 0.068 0.337 0.108 0.528 0.108 0.742 0 1.344-0.602 1.344-1.344 0-0.434-0.206-0.82-0.525-1.066l-0.003-0.002zM10.24 21.664c0.096 0.096 0 0 0-0.096 0.128 0.192 0-0.224 0 0s0-0.256 0-0.096 0 0.224 0 0 0 0.064 0 0.064 0.096-0.256 0-0.064l-0.096 0.16s0.16-0.192 0 0c-0.448 0.48-0.928 0.896-1.344 1.312l-2.944 2.816c-0.312 0.248-0.51 0.628-0.51 1.054 0 0.742 0.602 1.344 1.344 1.344 0.426 0 0.805-0.198 1.052-0.507l0.002-0.003 3.456-3.296c0.621-0.491 1.127-1.099 1.489-1.793l0.015-0.031c0.137-0.293 0.217-0.636 0.217-0.997 0-0.66-0.266-1.257-0.697-1.691l0 0c-0.243-0.239-0.576-0.387-0.944-0.387s-0.701 0.148-0.944 0.387l0-0c-0.249 0.244-0.403 0.584-0.403 0.96s0.154 0.716 0.403 0.96l0 0zM4.256 26.4l0.96 0.832c0.115 0.112 0.254 0.199 0.408 0.254l0.008 0.002c0.149 0.078 0.325 0.125 0.511 0.128h0.001c0.187 0 0.364-0.047 0.518-0.131l-0.006 0.003c0.176-0.049 0.327-0.137 0.448-0.256l-0 0 0.192-0.288c0.117-0.192 0.188-0.423 0.192-0.671v-0.353c-0.088-0.232-0.231-0.426-0.413-0.574l-0.003-0.002-0.96-0.8c-0.11-0.128-0.25-0.227-0.409-0.286l-0.007-0.002c-0.149-0.078-0.325-0.125-0.511-0.128h-0.001c-0.187 0-0.364 0.047-0.518 0.131l0.006-0.003c-0.167 0.058-0.308 0.158-0.415 0.286l-0.001 0.002-0.256 0.256c-0.117 0.192-0.188 0.423-0.192 0.671v0.353c0.066 0.229 0.188 0.424 0.351 0.575l0.001 0.001zM8 25.12l2.4-2.912c0.234-0.252 0.379-0.588 0.384-0.959v-0.001c-0.004-0.362-0.149-0.689-0.384-0.928l0 0c-0.242-0.254-0.582-0.412-0.959-0.416h-0.001c-0.378 0.004-0.718 0.162-0.96 0.416l-0 0-2.304 2.912c-0.245 0.248-0.402 0.584-0.416 0.957l-0 0.003c0.013 0.366 0.17 0.693 0.415 0.927l0.001 0c0.243 0.239 0.576 0.387 0.944 0.387s0.701-0.148 0.944-0.387l-0 0z"></path>
</svg>
