<svg viewBox="0 0 22 20" xmlns="http://www.w3.org/2000/svg" xml:space="preserve" style="fill-rule:evenodd;clip-rule:evenodd;stroke-linejoin:round;stroke-miterlimit:2"><path d="M22 17V6c0-.796-.316-1.559-.879-2.121A2.996 2.996 0 0 0 19 3h-8.465L8.832.445A1 1 0 0 0 8 0H3C2.204 0 1.441.316.879.879A2.996 2.996 0 0 0 0 3v14c0 .796.316 1.559.879 2.121A2.996 2.996 0 0 0 3 20h16c.796 0 1.559-.316 2.121-.879A2.996 2.996 0 0 0 22 17Zm-2 0a.997.997 0 0 1-1 1H3a.997.997 0 0 1-1-1V3a.997.997 0 0 1 1-1h4.465l1.703 2.555A1 1 0 0 0 10 5h9a.997.997 0 0 1 1 1v11Z"/></svg>
