<?xml version="1.0" encoding="UTF-8" standalone="no"?>
<!DOCTYPE svg PUBLIC "-//W3C//DTD SVG 1.1//EN" "http://www.w3.org/Graphics/SVG/1.1/DTD/svg11.dtd">
<svg width="100%" height="100%" viewBox="0 0 30 30" version="1.1" xmlns="http://www.w3.org/2000/svg" xmlns:xlink="http://www.w3.org/1999/xlink" xml:space="preserve" xmlns:serif="http://www.serif.com/" style="fill-rule:evenodd;clip-rule:evenodd;stroke-linejoin:round;stroke-miterlimit:2;">
    <g id="Artboard1" transform="matrix(1.57895,0,0,1.875,0,0)">
        <rect x="0" y="0" width="19" height="16" style="fill:none;"/>
        <g transform="matrix(0.985187,0,0,0.829631,0.546143,1.2008)">
            <path d="M7.107,5.859L7.176,10.684C7.176,10.841 7.244,10.992 7.364,11.104C7.485,11.215 7.649,11.277 7.82,11.277C7.841,11.277 7.863,11.276 7.884,11.274C7.888,11.275 7.892,11.275 7.896,11.275C7.981,11.275 8.065,11.259 8.144,11.229C8.222,11.199 8.294,11.155 8.354,11.099L11.421,8.651C11.527,8.623 11.623,8.57 11.7,8.498C11.779,8.424 11.836,8.332 11.865,8.232C11.893,8.132 11.893,8.026 11.864,7.926C11.834,7.826 11.777,7.735 11.698,7.661C10.542,6.791 9.346,5.979 8.109,5.227C8.036,5.178 7.953,5.144 7.864,5.127C7.776,5.109 7.685,5.109 7.597,5.126C7.509,5.144 7.425,5.178 7.352,5.226C7.279,5.275 7.218,5.337 7.173,5.409C7.127,5.481 7.099,5.561 7.089,5.643C7.081,5.716 7.087,5.789 7.107,5.859ZM11.421,8.651L11.575,8.528L11.292,8.683L11.414,8.653L11.421,8.651ZM10.835,8.339L10.709,8.439C10.736,8.459 10.762,8.479 10.789,8.499L10.835,8.339ZM10.96,7.899L11.073,7.507C10.934,7.557 10.801,7.618 10.676,7.691C10.771,7.76 10.866,7.829 10.96,7.899Z" style="fill-rule:nonzero;"/>
            <path d="M2.702,2.09L15.205,2.09C15.475,2.062 15.749,2.08 16.011,2.143C16.728,2.392 16.478,3.279 16.47,3.785L16.47,12.476C16.563,12.976 16.45,13.487 16.148,13.928C15.576,14.467 14.391,14.283 13.633,14.283L2.662,14.283C1.969,14.25 1.856,13.659 1.856,13.192C1.815,11.208 1.815,9.205 1.815,7.201L1.751,3.851C1.695,3.434 1.695,3.013 1.751,2.596C1.815,2.436 1.944,2.298 2.117,2.206C2.29,2.114 2.497,2.073 2.702,2.09C2.916,2.09 3.121,2.021 3.272,1.898C3.423,1.775 3.508,1.607 3.508,1.433C3.508,1.259 3.423,1.092 3.272,0.969C3.121,0.845 2.916,0.776 2.702,0.776C2.127,0.749 1.558,0.884 1.09,1.157C0.622,1.431 0.283,1.828 0.131,2.281C0.074,2.656 0.074,3.035 0.131,3.411L0.139,5.237L0.268,11.944C0.191,12.69 0.24,13.442 0.413,14.178C0.541,14.57 0.816,14.919 1.201,15.176C1.586,15.433 2.06,15.585 2.557,15.61C3.621,15.662 4.709,15.61 5.781,15.61L11.819,15.61C13.041,15.669 14.267,15.656 15.487,15.57C15.954,15.528 16.401,15.391 16.787,15.172C17.172,14.952 17.485,14.658 17.696,14.316C18.009,13.58 18.125,12.798 18.034,12.023L18.034,5.408C18.107,4.434 18.107,3.458 18.034,2.484C17.959,2.036 17.698,1.621 17.293,1.312C16.887,1.002 16.363,0.815 15.809,0.783C14.495,0.697 13.141,0.783 11.827,0.783L2.702,0.783C2.503,0.799 2.319,0.875 2.185,0.996C2.051,1.117 1.977,1.274 1.977,1.436C1.977,1.599 2.051,1.756 2.185,1.877C2.319,1.998 2.503,2.074 2.702,2.09Z" style="fill-rule:nonzero;"/>
            <path d="M4.258,12.63L4.691,12.63C4.912,12.63 5.091,12.809 5.091,13.03L5.091,14.03C5.091,14.251 4.912,14.43 4.691,14.43L4.255,14.432L3.395,14.457C2.945,14.464 2.369,14.466 1.77,14.445C1.549,14.438 1.38,14.25 1.391,14.029L1.442,13.03C1.454,12.81 1.642,12.64 1.862,12.647C2.409,12.665 2.941,12.664 3.365,12.657L4.258,12.63ZM16.145,12.63L16.578,12.63C16.799,12.63 16.978,12.809 16.978,13.03L16.978,14.03C16.978,14.251 16.799,14.43 16.578,14.43L16.142,14.432L15.282,14.457C14.832,14.464 14.256,14.466 13.657,14.445C13.436,14.438 13.266,14.25 13.278,14.029L13.329,13.03C13.34,12.81 13.528,12.64 13.749,12.647C14.295,12.665 14.827,12.664 15.252,12.657L16.145,12.63ZM4.258,9.175L4.691,9.175C4.912,9.175 5.091,9.354 5.091,9.575L5.091,10.575C5.091,10.796 4.912,10.975 4.691,10.975L4.255,10.977L3.395,11.002C2.945,11.01 2.369,11.011 1.77,10.991C1.549,10.983 1.38,10.795 1.391,10.574L1.442,9.576C1.454,9.355 1.642,9.186 1.862,9.193C2.409,9.211 2.941,9.21 3.365,9.202L4.258,9.175ZM16.145,9.175L16.578,9.175C16.799,9.175 16.978,9.354 16.978,9.575L16.978,10.575C16.978,10.796 16.799,10.975 16.578,10.975L16.142,10.977L15.282,11.002C14.832,11.01 14.256,11.011 13.657,10.991C13.436,10.983 13.266,10.795 13.278,10.574L13.329,9.576C13.34,9.355 13.528,9.186 13.749,9.193C14.295,9.211 14.827,9.21 15.252,9.202L16.145,9.175ZM4.258,5.329L4.691,5.329C4.912,5.329 5.091,5.508 5.091,5.729L5.091,6.729C5.091,6.95 4.912,7.129 4.691,7.129L4.255,7.131L3.395,7.156C2.945,7.164 2.369,7.165 1.77,7.145C1.549,7.138 1.38,6.949 1.391,6.729L1.442,5.73C1.454,5.509 1.642,5.34 1.862,5.347C2.409,5.365 2.941,5.364 3.365,5.357L4.258,5.329ZM16.145,5.329L16.578,5.329C16.799,5.329 16.978,5.508 16.978,5.729L16.978,6.729C16.978,6.95 16.799,7.129 16.578,7.129L16.142,7.131L15.282,7.156C14.832,7.164 14.256,7.165 13.657,7.145C13.436,7.138 13.266,6.949 13.278,6.729L13.329,5.73C13.34,5.509 13.528,5.34 13.749,5.347C14.295,5.365 14.827,5.364 15.252,5.357L16.145,5.329ZM16.167,1.725L16.599,1.725C16.82,1.725 16.999,1.904 16.999,2.125L17,3.125C17,3.346 16.821,3.525 16.6,3.525L16.142,3.527L15.282,3.552C14.832,3.56 14.256,3.561 13.657,3.541C13.436,3.533 13.266,3.345 13.278,3.124L13.329,2.126C13.34,1.905 13.528,1.736 13.749,1.743C14.295,1.761 14.827,1.76 15.252,1.752L16.167,1.725ZM4.258,1.725L4.691,1.725C4.912,1.725 5.091,1.904 5.091,2.125L5.091,3.125C5.091,3.346 4.912,3.525 4.691,3.525L4.255,3.527L3.395,3.552C2.945,3.56 2.369,3.561 1.77,3.541C1.549,3.533 1.38,3.345 1.391,3.124L1.442,2.126C1.454,1.905 1.642,1.736 1.862,1.743C2.409,1.761 2.941,1.76 3.365,1.752L4.258,1.725Z"/>
        </g>
    </g>
</svg>
