<?xml version="1.0" encoding="UTF-8" standalone="no"?>
<!DOCTYPE svg PUBLIC "-//W3C//DTD SVG 1.1//EN" "http://www.w3.org/Graphics/SVG/1.1/DTD/svg11.dtd">
<svg width="100%" height="100%" viewBox="0 0 30 30" version="1.1" xmlns="http://www.w3.org/2000/svg" xmlns:xlink="http://www.w3.org/1999/xlink" xml:space="preserve" xmlns:serif="http://www.serif.com/" style="fill-rule:evenodd;clip-rule:evenodd;stroke-linejoin:round;stroke-miterlimit:2;">
    <g id="Artboard1" transform="matrix(1.57895,0,0,1.57895,0,0)">
        <rect x="0" y="0" width="19" height="19" style="fill:none;"/>
        <g transform="matrix(1.55556,0,0,1.58065,-0.0311137,-0.341534)">
            <g transform="matrix(0.633333,0,0,0.633333,0,0)">
                <path d="M0.82,1.982L0.912,8.537C0.912,8.751 0.998,8.956 1.149,9.107C1.3,9.258 1.505,9.342 1.719,9.342L1.815,9.338C1.921,9.338 2.027,9.317 2.125,9.276C2.223,9.235 2.312,9.175 2.387,9.1L6.222,5.772C6.354,5.734 6.474,5.662 6.571,5.564C6.67,5.464 6.74,5.339 6.776,5.203C6.812,5.067 6.811,4.924 6.775,4.788C6.738,4.652 6.666,4.528 6.566,4.428C5.12,3.247 3.622,2.147 2.073,1.128C1.982,1.061 1.878,1.015 1.768,0.991C1.657,0.968 1.543,0.968 1.433,0.991C1.323,1.015 1.218,1.061 1.127,1.127C1.036,1.193 0.959,1.278 0.903,1.375C0.846,1.473 0.811,1.581 0.798,1.693C0.788,1.79 0.795,1.888 0.82,1.982ZM6.222,5.772L6.414,5.605L6.06,5.815L6.222,5.772ZM5.488,5.35L5.331,5.486C5.364,5.512 5.398,5.539 5.431,5.566L5.488,5.35ZM5.645,4.751L5.784,4.22C5.611,4.287 5.446,4.371 5.289,4.469C5.408,4.563 5.527,4.657 5.645,4.751Z" style="fill-rule:nonzero;"/>
            </g>
            <g transform="matrix(0.633333,0,0,0.633333,0,0)">
                <path d="M5.675,18.664C5.594,18.683 5.541,18.688 5.541,18.688C5.541,18.688 5.487,18.683 5.406,18.664L3.309,18.664C2.673,18.664 1.927,18.511 1.385,17.832C0.891,17.213 0.705,16.319 0.688,15.214C0.668,13.838 0.674,13.467 0.681,13.075C0.683,12.961 0.685,12.845 0.687,12.702C0.689,12.481 0.867,12.302 1.088,12.302L2.072,12.302C2.293,12.302 2.473,12.481 2.471,12.702C2.469,12.877 2.467,13.007 2.465,13.132C2.458,13.505 2.452,13.833 2.472,15.187C2.487,16.176 2.663,16.564 2.774,16.703C2.837,16.782 2.94,16.863 3.309,16.863L4.631,16.863C4.64,16.282 4.71,15.555 4.804,15.238L4.804,15.238C5.062,14.371 5.395,13.966 6.166,13.613L6.166,13.613C6.64,13.396 7.307,13.331 8.527,13.282C9.58,13.24 10.845,13.281 11.961,13.281C13.603,13.281 14.341,14.305 14.558,14.8C14.727,15.186 14.871,16.376 14.883,16.873C15.031,16.87 15.172,16.867 15.304,16.864C16.16,16.842 16.498,16.55 16.651,16.342C16.837,16.089 16.889,15.768 16.889,15.559L16.889,12.637C16.889,12.364 16.885,11.86 16.88,11.231C16.865,9.343 16.841,6.329 16.889,5.052C16.9,4.771 16.843,4.628 16.801,4.556C16.758,4.484 16.689,4.417 16.563,4.355C16.269,4.21 15.826,4.167 15.326,4.167C15.06,4.167 14.687,4.165 14.234,4.163C13.033,4.157 11.262,4.148 9.388,4.163C9.168,4.165 8.987,3.988 8.984,3.767L8.975,2.767C8.972,2.546 9.15,2.365 9.37,2.364C11.261,2.348 13.059,2.357 14.26,2.363C14.707,2.365 15.07,2.367 15.326,2.367C15.833,2.367 16.649,2.393 17.347,2.738C17.716,2.92 18.076,3.202 18.33,3.629C18.584,4.056 18.693,4.561 18.672,5.12C18.626,6.351 18.648,9.25 18.663,11.142C18.668,11.8 18.673,12.336 18.673,12.637L18.673,15.559C18.673,15.983 18.582,16.738 18.083,17.415C17.552,18.137 16.662,18.63 15.349,18.663C14.972,18.673 14.521,18.679 14.022,18.683C13.998,18.687 13.984,18.688 13.983,18.688C13.983,18.688 13.971,18.687 13.948,18.684C12.385,18.695 10.384,18.683 8.782,18.673C7.939,18.668 7.207,18.664 6.708,18.664L5.675,18.664ZM13.083,16.887C13.078,16.556 13.019,15.775 12.909,15.522L12.909,15.522C12.833,15.35 12.531,15.081 11.961,15.081C10.868,15.081 9.63,15.039 8.599,15.081C7.733,15.115 7.252,15.096 6.915,15.25C6.685,15.355 6.606,15.493 6.529,15.752C6.464,15.969 6.427,16.464 6.425,16.863L6.708,16.863C7.229,16.863 7.981,16.868 8.839,16.873C10.153,16.881 11.717,16.891 13.083,16.887Z"/>
            </g>
            <g transform="matrix(0.633333,0,0,0.633333,0,0)">
                <path d="M12.525,9.628C12.554,8.431 11.592,6.662 9.565,6.632L9.558,6.632C7.016,6.632 6.497,8.771 6.558,9.667L6.558,9.667C6.619,10.54 7.373,12.613 9.539,12.643C11.732,12.674 12.495,10.816 12.525,9.628L12.525,9.628ZM10.725,9.583C10.713,10.063 10.45,10.856 9.564,10.843L9.564,10.843C8.651,10.831 8.38,9.911 8.354,9.544C8.331,9.201 8.578,8.438 9.54,8.432C10.336,8.447 10.737,9.114 10.725,9.583Z"/>
            </g>
        </g>
    </g>
</svg>
