<svg xmlns="http://www.w3.org/2000/svg" width="256" height="175.729"><path d="M170.603 175.729H234.7a21.314 21.314 0 0 0 19.674-13.143 21.232 21.232 0 0 0 1.625-8.157V90.332a21.314 21.314 0 0 0-13.15-19.674 21.161 21.161 0 0 0-8.149-1.625h-48.465V55.398a18.459 18.459 0 0 1 18.466-18.473h3.61V0h-3.61a55.391 55.391 0 0 0-55.391 55.384v99.038c0 2.797.549 5.565 1.611 8.157a21.197 21.197 0 0 0 11.532 11.525 21.192 21.192 0 0 0 8.149 1.625zm-149.318 0h64.104a21.314 21.314 0 0 0 19.674-13.15 21.29 21.29 0 0 0 1.618-8.149V90.332a21.45 21.45 0 0 0-1.611-8.149 21.197 21.197 0 0 0-11.532-11.525 21.19 21.19 0 0 0-8.149-1.625H36.925V55.398a18.43 18.43 0 0 1 5.404-13.055 18.503 18.503 0 0 1 13.055-5.411h3.61V0h-3.61A55.355 55.355 0 0 0 0 55.384v99.038a21.38 21.38 0 0 0 6.224 15.069 21.196 21.196 0 0 0 6.912 4.613 21.192 21.192 0 0 0 8.149 1.625z"/></svg>