<svg xmlns="http://www.w3.org/2000/svg" width="32" height="32" viewBox="0 0 32 32"><path d="M30.518 10.557a1.485 1.485 0 0 0-1.052.433l-4.229 4.229-1.589-1.589a1.485 1.485 0 0 0-2.099 2.099l2.64 2.64a1.485 1.485 0 0 0 2.099 0l5.277-5.281a1.485 1.485 0 0 0-1.048-2.532zM11.381 2.639c-3.717 0-6.762 3.044-6.762 6.762a6.79 6.79 0 0 0 6.762 6.765c3.717 0 6.765-3.048 6.765-6.765a6.79 6.79 0 0 0-6.765-6.762zm0 2.969a3.77 3.77 0 0 1 3.796 3.792c0 2.113-1.684 3.796-3.796 3.796a3.77 3.77 0 0 1-3.792-3.796 3.77 3.77 0 0 1 3.792-3.792zM6.765 18.474c-1.793 0-3.514.711-4.782 1.979S0 23.443 0 25.236v2.64a1.485 1.485 0 0 0 1.485 1.485 1.485 1.485 0 0 0 1.485-1.485v-2.64c0-1.007.402-1.971 1.113-2.683a3.79 3.79 0 0 1 2.683-1.11h9.236a3.79 3.79 0 0 1 3.792 3.792v2.64a1.485 1.485 0 1 0 2.969 0v-2.64c0-1.793-.711-3.514-1.979-4.782s-2.989-1.979-4.782-1.979z"/></svg>
