<svg width="54" height="52" viewBox="0 0 54 52" fill="none" xmlns="http://www.w3.org/2000/svg">
<rect y="36.1406" width="26.1006" height="15.058" rx="2" fill="white"/>
<rect x="28.1084" y="36.1406" width="25.0967" height="15.058" rx="2" fill="white"/>
<rect x="44.1702" y="18.0703" width="9.03482" height="16.0619" rx="2" fill="white"/>
<rect y="18.0703" width="18.0696" height="16.0619" rx="2" fill="white"/>
<rect x="30.1161" width="23.089" height="16.0619" rx="2" fill="white"/>
<rect x="21.0813" y="18.0703" width="21.0812" height="16.0619" rx="2" fill="white"/>
<rect x="0.000366211" width="28.1083" height="16.0619" rx="2" fill="white"/>
<rect x="1.00391" y="30.1172" width="29.1122" height="19.0735" rx="2" fill="#554CFF"/>
<rect x="1" y="37.1406" width="24.1006" height="13.058" rx="1" stroke="#050505" stroke-width="2"/>
<rect x="29.1084" y="37.1406" width="23.0967" height="13.058" rx="1" stroke="#050505" stroke-width="2"/>
<rect x="45.1702" y="19.0703" width="7.03482" height="14.0619" rx="1" stroke="#050505" stroke-width="2"/>
<rect x="1" y="19.0703" width="16.0696" height="14.0619" rx="1" stroke="#050505" stroke-width="2"/>
<rect x="31.1161" y="1" width="21.089" height="14.0619" rx="1" stroke="#050505" stroke-width="2"/>
<rect x="22.0813" y="19.0703" width="19.0812" height="14.0619" rx="1" stroke="#050505" stroke-width="2"/>
<rect x="1.00037" y="1" width="26.1083" height="14.0619" rx="1" stroke="#050505" stroke-width="2"/>
</svg>
