<svg width="79" height="53" viewBox="0 0 79 53" fill="none" xmlns="http://www.w3.org/2000/svg">
<path d="M47.8247 34.7878L56.3024 26.5892L44.4337 25.1544L38.9232 14.9062L33.8365 25.3594L22.1797 27.2041L30.8693 35.1977L28.962 46.6757L39.347 41.1416L49.9441 46.2657L47.8247 34.7878Z" fill="white"/>
<path d="M71.6354 43.0141L77.4821 37.2448L69.2968 36.2351L65.4965 29.0234L61.9884 36.3794L53.9492 37.6775L59.942 43.3026L58.6267 51.3797L65.7887 47.4854L73.0971 51.0912L71.6354 43.0141Z" fill="white"/>
<path d="M18.6862 43.0141L24.5329 37.2448L16.3476 36.2351L12.5472 29.0234L9.0392 36.3794L1 37.6775L6.99282 43.3026L5.67746 51.3797L12.8395 47.4854L20.1479 51.0912L18.6862 43.0141Z" fill="white"/>
<path d="M36.7229 23.5263C37.0029 22.941 37.8361 22.941 38.1161 23.5263L40.7964 29.1285C40.9047 29.355 41.1164 29.5146 41.3638 29.5566L47.2647 30.5577C47.8716 30.6606 48.12 31.3975 47.6993 31.8468L43.4177 36.4196C43.2568 36.5915 43.1831 36.8274 43.2175 37.0604L44.1536 43.3909C44.2467 44.0205 43.5808 44.4861 43.0214 44.1826L37.7878 41.3426C37.5581 41.218 37.2809 41.218 37.0512 41.3426L31.8176 44.1826C31.2581 44.4861 30.5922 44.0205 30.6854 43.3909L31.6214 37.0604C31.6559 36.8274 31.5822 36.5915 31.4212 36.4196L27.1397 31.8468C26.719 31.3975 26.9674 30.6606 27.5742 30.5577L33.4751 29.5566C33.7226 29.5146 33.9342 29.355 34.0426 29.1285L36.7229 23.5263Z" fill="#554CFF"/>
<path d="M47.8247 35.1784L56.3024 26.9798L44.4337 25.5451L38.9232 15.2969L33.8365 25.75L22.1797 27.5947L30.8693 35.5883L28.962 47.0663L39.347 41.5323L49.9441 46.6564L47.8247 35.1784Z" stroke="#050505" stroke-width="2" stroke-miterlimit="10" stroke-linecap="round" stroke-linejoin="round"/>
<path d="M71.6354 43.4048L77.4821 37.6354L69.2968 36.6258L65.4965 29.4141L61.9884 36.77L53.9492 38.0681L59.942 43.6932L58.6267 51.7703L65.7887 47.876L73.0971 51.4818L71.6354 43.4048Z" stroke="#050505" stroke-width="2" stroke-miterlimit="10" stroke-linecap="round" stroke-linejoin="round"/>
<path d="M18.6862 43.4048L24.5329 37.6354L16.3476 36.6258L12.5472 29.4141L9.0392 36.77L1 38.0681L6.99282 43.6932L5.67746 51.7703L12.8395 47.876L20.1479 51.4818L18.6862 43.4048Z" stroke="#050505" stroke-width="2" stroke-miterlimit="10" stroke-linecap="round" stroke-linejoin="round"/>
<rect x="-0.80886" y="0.194915" width="1.17664" height="7.54465" rx="0.588322" transform="matrix(-0.853083 -0.521776 -0.521776 0.853083 59.1106 12.1535)" stroke="#050505" stroke-width="1.17664"/>
<rect x="-0.588322" y="0.588323" width="1.17665" height="8.23651" rx="0.588323" transform="matrix(-1 8.74228e-08 8.74228e-08 1 38.6515 5.14328e-08)" stroke="#050505" stroke-width="1.17665"/>
<rect x="-0.194936" y="0.808855" width="1.17664" height="7.03134" rx="0.588322" transform="matrix(-0.853096 0.521754 0.521754 0.853096 19.4785 11.9783)" stroke="#050505" stroke-width="1.17664"/>
</svg>
