<svg width="57" height="56" viewBox="0 0 57 56" fill="none" xmlns="http://www.w3.org/2000/svg">
<path d="M18.5908 25.0827C19.4827 25.2101 21.2666 25.2101 22.7957 24.3182C23.9425 23.6811 24.5796 22.7891 25.599 21.26C26.2361 20.3681 27.128 18.9665 28.02 16.8003C28.9119 14.7615 28.7845 14.6341 29.9313 11.3212C30.9507 8.6453 31.0781 8.51788 31.4604 7.24366C31.8426 5.84202 32.3523 3.80328 32.2249 1C32.9894 1.12742 35.4104 1.50969 37.1944 3.67586C38.7234 5.45976 39.1057 7.49851 39.1057 8.26304C39.2331 8.90015 39.1057 9.91952 38.9782 11.8308C38.7234 14.1244 38.596 14.889 38.4686 16.418C38.3411 17.5648 38.2137 19.3487 38.3411 21.5149C42.9283 21.5149 47.5155 21.3875 52.1027 21.3875C54.1414 21.1326 56.1802 22.4068 56.6899 24.3182C57.327 26.3569 56.1802 28.6505 54.1414 29.415C54.2688 29.5425 56.435 30.9441 56.3076 33.6199C56.3076 35.4039 55.1608 37.0603 53.5043 37.9523C53.7592 38.2071 54.7785 39.7362 54.5237 41.7749C54.1414 44.3234 51.8478 45.5976 51.7204 45.725C51.8478 46.2347 52.2301 47.3815 51.8478 48.7831C51.3382 50.567 49.6817 51.8412 47.6429 52.2235C46.2413 52.4784 44.8396 52.8606 43.438 53.1155C41.3993 53.2429 39.3605 53.4977 37.1944 53.4977C34.1362 53.6251 31.2055 53.6251 28.4022 53.4977C26.4909 53.2429 24.0699 52.6058 21.3941 51.3316C20.3747 50.8219 19.2279 50.3122 18.3359 49.8025C18.5908 44.4508 18.4634 33.2377 18.5908 25.0827Z" fill="white"/>
<path d="M18.2787 19.6016H1.93359V54.7436H18.2787V19.6016Z" fill="white"/>
<rect x="1" y="29.8633" width="10.2414" height="24.207" rx="1" fill="#554CFF"/>
<path d="M17.6572 25.3366C18.5491 25.464 20.333 25.464 21.8621 24.5721C23.0089 23.935 23.646 23.043 24.6654 21.514C25.3025 20.622 26.1944 19.2204 27.0864 17.0542C27.9783 15.0154 27.8509 14.888 28.9977 11.5751C30.0171 8.89921 30.1445 8.77179 30.5268 7.49757C30.909 6.09593 31.4187 4.05718 31.2913 1.25391C32.0558 1.38133 34.4769 1.76359 36.2608 3.92976C37.7898 5.71367 38.1721 7.75241 38.1721 8.51694C38.2995 9.15405 38.1721 10.1734 38.0447 12.0847C37.7898 14.3783 37.6624 15.1429 37.535 16.6719C37.4076 17.8187 37.2801 19.6026 37.4075 21.7688C41.9947 21.7688 46.5819 21.6414 51.1691 21.6414C53.2078 21.3865 55.2466 22.6607 55.7563 24.5721C56.3934 26.6108 55.2466 28.9044 53.2078 29.6689C53.3352 29.7964 55.5014 31.198 55.374 33.8739C55.374 35.6578 54.2272 37.3142 52.5707 38.2062C52.8256 38.461 53.8449 39.9901 53.5901 42.0288C53.2078 44.5773 50.9142 45.8515 50.7868 45.9789C50.9142 46.4886 51.2965 47.6354 50.9143 49.037C50.4046 50.8209 48.7481 52.0952 46.7093 52.4774C45.3077 52.7323 43.9061 53.1145 42.5044 53.3694C40.4657 53.4968 38.4269 53.7516 36.2608 53.7516C33.2026 53.8791 30.2719 53.8791 27.4686 53.7516C25.5573 53.4968 23.1363 52.8597 20.4605 51.5855C19.4411 51.0758 18.2943 50.5661 17.4023 50.0564C17.6572 44.7047 17.5298 33.4916 17.6572 25.3366Z" stroke="#050505" stroke-width="2" stroke-miterlimit="10" stroke-linecap="round" stroke-linejoin="round"/>
<path d="M17.3451 19.8594H1V55.0014H17.3451V19.8594Z" stroke="#050505" stroke-width="2" stroke-miterlimit="10" stroke-linecap="round" stroke-linejoin="round"/>
</svg>
