<?xml version="1.0" encoding="UTF-8" standalone="no"?>
<!DOCTYPE svg PUBLIC "-//W3C//DTD SVG 1.1//EN" "http://www.w3.org/Graphics/SVG/1.1/DTD/svg11.dtd">
<svg width="100%" height="100%" viewBox="0 0 32 32" version="1.1" xmlns="http://www.w3.org/2000/svg" xmlns:xlink="http://www.w3.org/1999/xlink" xml:space="preserve" xmlns:serif="http://www.serif.com/" style="fill-rule:evenodd;clip-rule:evenodd;stroke-linejoin:round;stroke-miterlimit:2;">
    <g id="Artboard1" transform="matrix(2.66667,0,0,2.66667,-8,-2.66667)">
        <rect x="3" y="1" width="12" height="12" style="fill:none;"/>
        <g transform="matrix(0.499999,0,0,0.499999,2.96777,3.75001)">
            <path d="M8.064,5L5.064,5L5.064,2L3.064,2L3.064,5L0.064,5L0.064,7L3.064,7L3.064,10L5.064,10L5.064,7L8.064,7L8.064,5ZM18.065,6C19.725,6 21.055,4.66 21.055,3C21.055,1.34 19.725,0 18.065,0C17.745,0 17.435,0.05 17.155,0.14C17.725,0.95 18.055,1.93 18.055,3C18.055,4.07 17.715,5.04 17.155,5.86C17.435,5.95 17.745,6 18.065,6ZM13.065,6C14.725,6 16.055,4.66 16.055,3C16.055,1.34 14.725,0 13.065,0C11.405,0 10.065,1.34 10.065,3C10.065,4.66 11.405,6 13.065,6ZM19.685,8.16C20.515,8.89 21.065,9.82 21.065,11L21.065,13L24.065,13L24.065,11C24.065,9.46 21.695,8.51 19.685,8.16ZM13.065,8C11.065,8 7.064,9 7.064,11L7.064,13L19.065,13L19.065,11C19.065,9 15.065,8 13.065,8Z" style="fill-rule:nonzero;"/>
        </g>
    </g>
</svg>
