<svg xmlns="http://www.w3.org/2000/svg" viewBox="0 0 32 32" fill-rule="evenodd" stroke-linejoin="round" stroke-miterlimit="2"><path d="M13.091 1.455a4.36 4.36 0 0 0-3.085 1.278 4.358 4.358 0 0 0-1.278 3.085v1.455H4.364A4.364 4.364 0 0 0 0 11.636v14.545a4.364 4.364 0 0 0 4.364 4.364h5.818 11.636 5.818A4.364 4.364 0 0 0 32 26.182V11.636a4.364 4.364 0 0 0-4.364-4.364h-4.364V5.818a4.36 4.36 0 0 0-1.278-3.085 4.358 4.358 0 0 0-3.085-1.278zm0 2.909h5.818a1.45 1.45 0 0 1 1.455 1.455v1.455h-8.727V5.818a1.45 1.45 0 0 1 1.455-1.455zm-8.727 5.818h4.364v17.455H4.364a1.455 1.455 0 0 1-1.455-1.455V11.636a1.455 1.455 0 0 1 1.455-1.455zm7.273 0h8.727v17.455h-8.727zm11.636 0h4.364a1.455 1.455 0 0 1 1.455 1.455v14.545a1.455 1.455 0 0 1-1.455 1.455h-4.364z"/></svg>
