<svg xmlns="http://www.w3.org/2000/svg" width="32" height="32" viewBox="0 0 32 32"><path d="M16 0C7.185 0 0 7.185 0 16s7.185 16 16 16 16-7.185 16-16S24.815 0 16 0zm0 3.65c6.842 0 12.35 5.507 12.35 12.35S22.842 28.35 16 28.35 3.65 22.842 3.65 16 9.158 3.65 16 3.65zm0 2.02C10.317 5.67 5.67 10.317 5.67 16S10.317 26.33 16 26.33 26.33 21.683 26.33 16 21.683 5.67 16 5.67zm0 3.65A6.65 6.65 0 0 1 22.68 16 6.65 6.65 0 0 1 16 22.68 6.65 6.65 0 0 1 9.32 16 6.65 6.65 0 0 1 16 9.32zm0 2.02A4.69 4.69 0 0 0 11.34 16 4.69 4.69 0 0 0 16 20.66 4.69 4.69 0 0 0 20.66 16 4.69 4.69 0 0 0 16 11.34zm0 3.65A.98.98 0 0 1 17.01 16 .98.98 0 0 1 16 17.01.98.98 0 0 1 14.99 16 .98.98 0 0 1 16 14.99z"/></svg>
