<?xml version="1.0" encoding="UTF-8" standalone="no"?>
<!DOCTYPE svg PUBLIC "-//W3C//DTD SVG 1.1//EN" "http://www.w3.org/Graphics/SVG/1.1/DTD/svg11.dtd">
<svg width="100%" height="100%" viewBox="0 0 14 14" version="1.1" xmlns="http://www.w3.org/2000/svg" xmlns:xlink="http://www.w3.org/1999/xlink" xml:space="preserve" xmlns:serif="http://www.serif.com/" style="fill-rule:evenodd;clip-rule:evenodd;stroke-linejoin:round;stroke-miterlimit:2;">
    <g transform="matrix(1.02917,0,0,1.02917,-0.20412,-0.204119)">
        <path d="M4.333,0.2C4.775,0.2 5.133,0.558 5.133,1L5.133,1.534L8.867,1.534L8.867,1C8.867,0.558 9.225,0.2 9.667,0.2C10.109,0.2 10.467,0.558 10.467,1L10.467,1.534L11,1.534C11.566,1.534 12.108,1.758 12.509,2.158C12.909,2.558 13.133,3.101 13.133,3.667L13.133,11.667C13.133,12.233 12.909,12.775 12.509,13.175C12.108,13.575 11.566,13.8 11,13.8L3,13.8C2.434,13.8 1.892,13.575 1.492,13.175C1.091,12.775 0.867,12.233 0.867,11.667L0.867,3.667C0.867,3.101 1.091,2.558 1.492,2.158C1.892,1.758 2.434,1.534 3,1.534L3.533,1.534L3.533,1C3.533,0.558 3.892,0.2 4.333,0.2ZM3.533,3.134L3,3.134C2.859,3.134 2.723,3.19 2.623,3.29C2.523,3.39 2.467,3.525 2.467,3.667L2.467,5.534L11.533,5.534L11.533,3.667C11.533,3.525 11.477,3.39 11.377,3.29C11.277,3.19 11.142,3.134 11,3.134L10.467,3.134L10.467,3.667C10.467,4.109 10.109,4.467 9.667,4.467C9.225,4.467 8.867,4.109 8.867,3.667L8.867,3.134L5.133,3.134L5.133,3.667C5.133,4.109 4.775,4.467 4.333,4.467C3.892,4.467 3.533,4.109 3.533,3.667L3.533,3.134ZM11.533,7.134L2.467,7.134L2.467,11.667C2.467,11.808 2.523,11.944 2.623,12.044C2.723,12.144 2.859,12.2 3,12.2L11,12.2C11.142,12.2 11.277,12.144 11.377,12.044C11.477,11.944 11.533,11.808 11.533,11.667L11.533,7.134ZM5.533,9C5.533,8.558 5.892,8.2 6.333,8.2L7,8.2C7.442,8.2 7.8,8.558 7.8,9L7.8,11C7.8,11.442 7.442,11.8 7,11.8C6.558,11.8 6.2,11.442 6.2,11L6.2,9.789C5.822,9.726 5.533,9.397 5.533,9Z"/>
    </g>
</svg>
