<!-- Generated by IcoMoon.io -->
<svg version="1.1" xmlns="http://www.w3.org/2000/svg" viewBox="0 0 32 32">
<title>check-circle-regular</title>
<path d="M16 0.512c-8.544 0-15.488 6.912-15.488 15.488s6.944 15.488 15.488 15.488 15.488-6.944 15.488-15.488-6.912-15.488-15.488-15.488zM16 3.488c6.912 0 12.512 5.6 12.512 12.512s-5.6 12.512-12.512 12.512c-6.912 0-12.512-5.6-12.512-12.512s5.6-12.512 12.512-12.512M24.768 11.648l-1.408-1.44c-0.288-0.288-0.768-0.288-1.056 0l-8.832 8.768-3.744-3.776c-0.288-0.288-0.768-0.288-1.056 0l-1.44 1.408c-0.288 0.288-0.288 0.768 0 1.056l5.696 5.728c0.288 0.288 0.736 0.288 1.056 0l10.784-10.688c0.288-0.288 0.288-0.768 0-1.056z"></path>
</svg>
