<svg width="17" height="16" viewBox="0 0 17 16" fill="none" xmlns="http://www.w3.org/2000/svg">
<path fill-rule="evenodd" clip-rule="evenodd" d="M12.3303 4.46967C12.6232 4.76256 12.6232 5.23744 12.3303 5.53033L6.33032 11.5303C6.03742 11.8232 5.56255 11.8232 5.26966 11.5303C4.97676 11.2374 4.97676 10.7626 5.26966 10.4697L11.2697 4.46967C11.5626 4.17678 12.0374 4.17678 12.3303 4.46967Z" fill="white"/>
<path fill-rule="evenodd" clip-rule="evenodd" d="M5.26966 4.46967C5.56255 4.17678 6.03742 4.17678 6.33032 4.46967L12.3303 10.4697C12.6232 10.7626 12.6232 11.2374 12.3303 11.5303C12.0374 11.8232 11.5626 11.8232 11.2697 11.5303L5.26966 5.53033C4.97676 5.23744 4.97676 4.76256 5.26966 4.46967Z" fill="white"/>
</svg>
