<svg xmlns="http://www.w3.org/2000/svg" viewBox="0 0 32 32"><path d="M25.705 13.329a10.278 10.278 0 0 0-2.916-5.434 9.862 9.862 0 0 0-5.446-2.701 9.734 9.734 0 0 0-5.965 1.028 10.089 10.089 0 0 0-4.285 4.378 7.933 7.933 0 0 0-5.203 2.842 8.308 8.308 0 0 0-1.876 5.731 8.258 8.258 0 0 0 2.471 5.487 7.869 7.869 0 0 0 5.472 2.247h17.283a6.538 6.538 0 0 0 4.688-1.86 6.873 6.873 0 0 0 2.068-4.698 6.906 6.906 0 0 0-1.741-4.836 6.563 6.563 0 0 0-4.55-2.193zm-.465 10.851H7.956a5.247 5.247 0 0 1-3.641-1.498 5.52 5.52 0 0 1-1.648-3.652 5.536 5.536 0 0 1 1.247-3.815 5.271 5.271 0 0 1 3.459-1.9l1.423-.145.663-1.299A7.375 7.375 0 0 1 12.6 8.654a7.136 7.136 0 0 1 4.377-.753c1.5.223 2.895.916 3.993 1.988a7.54 7.54 0 0 1 2.129 3.994l.397 2.042 2.032.151a3.936 3.936 0 0 1 2.672 1.338c.687.785 1.05 1.812 1.012 2.867a4.114 4.114 0 0 1-1.215 2.783c-.742.732-1.731 1.139-2.759 1.135zm-11.967-5.204l-2.778-2.848-1.865 1.917 4.653 4.751 7.99-8.173-1.875-1.891z"/></svg>
