<svg xmlns="http://www.w3.org/2000/svg" viewBox="0 0 32 32"><path d="M16.712 14.032c-4.072-1.05-5.384-2.132-5.384-3.818 0-1.935 1.815-3.28 4.848-3.28 3.192 0 4.371 1.509 4.484 3.733h3.974c-.04-1.608-.632-3.155-1.678-4.386s-2.485-2.072-4.078-2.385V0h-5.425v3.851c-3.477.748-6.278 2.985-6.278 6.415 0 4.107 3.431 6.147 8.431 7.342 4.484 1.062 5.384 2.624 5.384 4.277 0 1.227-.881 3.182-4.841 3.182-3.695 0-5.153-1.634-5.352-3.733H6.857c.212 3.896 3.153 6.081 6.623 6.809V32h5.384v-3.844c3.498-.656 6.279-2.664 6.279-6.305-.027-5.045-4.384-6.77-8.431-7.819z"/></svg>
