<svg viewBox="0 0 17 17" xmlns="http://www.w3.org/2000/svg">
<path fill-rule="evenodd" clip-rule="evenodd" d="M1 10.25C1.41421 10.25 1.75 10.5858 1.75 11V14.3333C1.75 14.5764 1.84658 14.8096 2.01849 14.9815C2.19039 15.1534 2.42355 15.25 2.66667 15.25H14.3333C14.5764 15.25 14.8096 15.1534 14.9815 14.9815C15.1534 14.8096 15.25 14.5764 15.25 14.3333V11C15.25 10.5858 15.5858 10.25 16 10.25C16.4142 10.25 16.75 10.5858 16.75 11V14.3333C16.75 14.9743 16.4954 15.589 16.0422 16.0422C15.589 16.4954 14.9743 16.75 14.3333 16.75H2.66667C2.02573 16.75 1.41104 16.4954 0.957825 16.0422C0.504612 15.589 0.25 14.9743 0.25 14.3333V11C0.25 10.5858 0.585786 10.25 1 10.25Z"/>
<path fill-rule="evenodd" clip-rule="evenodd" d="M8.49984 11.75C8.30093 11.75 8.11016 11.671 7.96951 11.5303L3.80284 7.36366C3.50995 7.07077 3.50995 6.5959 3.80284 6.303C4.09573 6.01011 4.57061 6.01011 4.8635 6.303L8.49984 9.93934L12.1362 6.303C12.4291 6.01011 12.9039 6.01011 13.1968 6.303C13.4897 6.5959 13.4897 7.07077 13.1968 7.36366L9.03017 11.5303C8.88951 11.671 8.69875 11.75 8.49984 11.75Z"/>
<path fill-rule="evenodd" clip-rule="evenodd" d="M8.49984 11.75C8.08562 11.75 7.74976 11.4142 7.74976 11L7.74976 1C7.74976 0.585787 8.08554 0.25 8.49976 0.25C8.91397 0.25 9.24976 0.585787 9.24976 1L9.24976 11C9.24976 11.4142 8.91405 11.75 8.49984 11.75Z"/>
</svg>
