<svg width="24" height="24" viewBox="0 0 24 24" xmlns="http://www.w3.org/2000/svg">
<path fill-rule="evenodd" clip-rule="evenodd" d="M5 13.25C5.41421 13.25 5.75 13.5858 5.75 14V17.3333C5.75 17.5764 5.84658 17.8096 6.01849 17.9815C6.19039 18.1534 6.42355 18.25 6.66667 18.25H18.3333C18.5764 18.25 18.8096 18.1534 18.9815 17.9815C19.1534 17.8096 19.25 17.5764 19.25 17.3333V14C19.25 13.5858 19.5858 13.25 20 13.25C20.4142 13.25 20.75 13.5858 20.75 14V17.3333C20.75 17.9743 20.4954 18.589 20.0422 19.0422C19.589 19.4954 18.9743 19.75 18.3333 19.75H6.66667C6.02573 19.75 5.41104 19.4954 4.95783 19.0422C4.50461 18.589 4.25 17.9743 4.25 17.3333V14C4.25 13.5858 4.58579 13.25 5 13.25Z"/>
<path fill-rule="evenodd" clip-rule="evenodd" d="M12.4998 14.75C12.3009 14.75 12.1102 14.671 11.9695 14.5303L7.80284 10.3637C7.50995 10.0708 7.50995 9.5959 7.80284 9.303C8.09573 9.01011 8.57061 9.01011 8.8635 9.303L12.4998 12.9393L16.1362 9.303C16.4291 9.01011 16.9039 9.01011 17.1968 9.303C17.4897 9.5959 17.4897 10.0708 17.1968 10.3637L13.0302 14.5303C12.8895 14.671 12.6988 14.75 12.4998 14.75Z"/>
<path fill-rule="evenodd" clip-rule="evenodd" d="M12.4998 14.75C12.0856 14.75 11.7498 14.4142 11.7498 14L11.7498 4C11.7498 3.58579 12.0855 3.25 12.4998 3.25C12.914 3.25 13.2498 3.58579 13.2498 4L13.2498 14C13.2498 14.4142 12.9141 14.75 12.4998 14.75Z" />
</svg>
