<svg xmlns="http://www.w3.org/2000/svg" fill-rule="evenodd" stroke-linejoin="round" stroke-miterlimit="2" viewBox="0 0 32 32"><path d="M15.932.068c-4.146 0-8.509 1.531-11.346 4.586S0 11.854 0 16c0 3.273.875 6.328 2.621 8.729 1.746 2.619 4.362 4.581 7.199 5.89 1.964.873 3.93 1.313 6.112 1.313 1.091 0 2.183-.003 3.056-.222 3.273-.655 6.108-2.182 8.29-4.364 2.182-2.4 3.71-5.235 4.364-8.29s.44-6.331-.869-9.168c-1.309-3.055-3.276-5.453-5.894-7.199S19.205.068 15.932.068zm0 2.839c2.619 0 5.02.656 7.42 1.965 2.182 1.528 3.708 3.49 4.799 5.89.873 2.4 1.093 5.019.656 7.638a12.64 12.64 0 0 1-3.491 6.764c-1.964 1.746-4.15 3.058-6.768 3.495-2.619.655-5.237.435-7.638-.656-2.4-.873-4.363-2.617-5.89-4.799S2.839 18.619 2.839 16c0-3.491 1.529-6.545 3.93-9.163s5.672-3.93 9.163-3.93zm-4.582 7.638c-.873 0-1.53.871-1.53 1.526s.657 1.313 1.53 1.313 1.526-.44 1.526-1.313-.653-1.526-1.526-1.526zm8.729 0c-.873 0-1.53.871-1.53 1.526s.657 1.313 1.53 1.313 1.526-.44 1.526-1.313-.653-1.526-1.526-1.526zm1.253 7.241c-.405.014-.79.245-1.036.614a5.16 5.16 0 0 1-1.965 1.747c-1.528.873-3.711.873-5.238 0-.873-.436-1.528-1.093-2.182-1.747-.436-.655-1.306-.654-1.961-.217s-.658 1.31-.222 1.965c.873 1.091 1.747 1.962 3.056 2.617s2.62.874 3.93.874 2.617-.219 3.708-.874 2.183-1.526 3.056-2.617c.655-.655.437-1.528-.217-1.965-.286-.286-.614-.408-.929-.396z"/></svg>
