<svg xmlns="http://www.w3.org/2000/svg" viewBox="0 0 32 32"><path d="M7.372 0a4.488 4.488 0 0 0-4.496 4.492v23.016a4.509 4.509 0 0 0 1.318 3.178A4.488 4.488 0 0 0 7.372 32h17.26a4.488 4.488 0 0 0 4.492-4.492V11.685a1.618 1.618 0 0 0-.017-.227 1.618 1.618 0 0 0 0-.004 1.618 1.618 0 0 0 0-.004 1.618 1.618 0 0 0-.127-.429 1.618 1.618 0 0 0-.004-.009 1.618 1.618 0 0 0-.324-.472L18.585.473A1.618 1.618 0 0 0 17.439 0zm0 3.236h8.449v8.449a1.618 1.618 0 0 0 1.618 1.618h8.449v14.205a1.251 1.251 0 0 1-1.256 1.256H7.372a1.251 1.251 0 0 1-.889-.367 1.26 1.26 0 0 1-.371-.889V4.492a1.251 1.251 0 0 1 .371-.889 1.251 1.251 0 0 1 .889-.367zm11.685 2.285l4.542 4.546h-4.542z"/></svg>
