<svg xmlns="http://www.w3.org/2000/svg" width="32" height="32" viewBox="0 0 32 32"><path d="M12 0a3 3 0 0 0-3 3v.17c-.001.126-.038.247-.107.352-.064.097-.159.17-.264.221a1 1 0 0 0-.114.023c-.119.052-.249.067-.376.044s-.247-.085-.34-.176l-.051-.05a3.01 3.01 0 0 0-.974-.653 3 3 0 0 0-2.297 0c-.363.151-.694.372-.973.65a3.01 3.01 0 0 0-.652.976 3 3 0 0 0 0 2.297c.151.364.373.696.652.974l.051.051c.091.093.153.212.176.34s.007.258-.045.376l-.023.059c-.045.122-.127.229-.233.305a.65.65 0 0 1-.363.122H3a3 3 0 0 0-3 3 3 3 0 0 0 3 3h.17c.126.001.247.038.352.107s.19.171.24.287c.057.129.072.259.048.387s-.085.247-.176.34l-.05.051c-.279.279-.502.61-.653.974a3 3 0 0 0 0 2.297c.151.363.372.694.65.973l.003.002c.278.278.609.5.973.65s.754.229 1.148.229.784-.077 1.148-.229a3 3 0 0 0 .974-.652l.051-.051c.093-.091.209-.153.337-.176s.26-.007.379.045l.059.023a.65.65 0 0 1 .426.596V21a3 3 0 0 0 3 3 3 3 0 0 0 3-3v-.166-.004c.001-.126.038-.247.107-.352s.17-.19.287-.24c.129-.057.259-.072.387-.048s.247.085.34.176l.051.05c.279.279.61.502.974.653s.754.229 1.148.229.784-.077 1.148-.229.694-.372.973-.65v-.003a3 3 0 0 0 .652-.973c.151-.364.229-.754.229-1.148s-.077-.784-.229-1.148-.372-.694-.65-.973l-.002-.002-.051-.051c-.091-.093-.153-.209-.176-.337s-.007-.261.045-.379c.054-.127.139-.227.245-.297s.226-.106.352-.107H21a3 3 0 0 0 3-3 3 3 0 0 0-3-3h-.166c-.127-.001-.25-.037-.356-.107-.097-.064-.17-.159-.221-.264a1 1 0 0 0-.023-.114c-.052-.119-.067-.249-.044-.376s.085-.247.176-.34l.05-.051c.279-.279.502-.61.653-.974s.229-.754.229-1.148-.077-.784-.229-1.148-.372-.694-.65-.973a3.01 3.01 0 0 0-.976-.652 3 3 0 0 0-2.297 0c-.364.151-.695.373-.974.652l-.051.051c-.093.091-.212.153-.34.176s-.258.007-.376-.045c-.127-.054-.227-.139-.297-.245s-.106-.226-.107-.352V3a3 3 0 0 0-3-3zm0 2a1 1 0 0 1 1 1v.089c.002.521.156 1.027.441 1.458s.687.764 1.16.968a2.65 2.65 0 0 0 1.537.182 2.65 2.65 0 0 0 1.381-.712l.069-.067c.093-.094.202-.168.324-.218s.251-.076.382-.076.262.026.384.076.231.124.324.217.168.205.218.327.076.251.076.382-.026.261-.076.382a1 1 0 0 1-.217.325l-.06.06a2.66 2.66 0 0 0-.721 1.389 2.65 2.65 0 0 0 .145 1.45 1 1 0 0 0 .032.163A2.65 2.65 0 0 0 20.826 11H21a1 1 0 0 1 1 1 1 1 0 0 1-1 1h-.089c-.521.002-1.027.156-1.458.441s-.764.688-.968 1.16a2.65 2.65 0 0 0 .53 2.918l.067.069c.094.093.168.202.218.324s.076.251.076.382-.026.263-.076.384-.124.231-.217.324-.205.168-.327.218-.251.076-.382.076-.261-.026-.382-.076a1 1 0 0 1-.325-.217l-.06-.06a2.66 2.66 0 0 0-1.389-.721 2.65 2.65 0 0 0-1.537.182c-.473.204-.876.539-1.16.968s-.44.937-.442 1.453V21a1 1 0 0 1-.293.708c-.188.188-.44.293-.706.293a1 1 0 0 1-1-1v-.089-.021c-.012-.534-.184-1.051-.494-1.484a2.65 2.65 0 0 0-1.216-.926c-.476-.203-.999-.27-1.509-.177a2.65 2.65 0 0 0-1.381.712l-.069.067c-.093.094-.202.168-.324.218s-.251.076-.382.076-.262-.026-.384-.076-.231-.124-.324-.217-.168-.205-.218-.327-.076-.251-.076-.382.026-.261.076-.382a1 1 0 0 1 .217-.325l.06-.06a2.66 2.66 0 0 0 .721-1.389 2.65 2.65 0 0 0-.182-1.537c-.204-.473-.539-.876-.968-1.16s-.937-.44-1.453-.442H3a1 1 0 0 1-.708-.293c-.188-.188-.293-.44-.293-.706a1 1 0 0 1 1-1h.089.023c.532-.012 1.049-.184 1.481-.494a2.65 2.65 0 0 0 .926-1.216c.203-.476.27-.999.177-1.509a2.65 2.65 0 0 0-.712-1.381l-.067-.069c-.094-.093-.168-.202-.218-.324s-.076-.251-.076-.382.026-.262.076-.384.124-.231.217-.324.205-.168.327-.218.251-.076.382-.076.261.026.382.076a1 1 0 0 1 .325.217l.06.06a2.66 2.66 0 0 0 1.389.721 2.65 2.65 0 0 0 1.45-.145 1 1 0 0 0 .163-.032 2.65 2.65 0 0 0 1.165-.973A2.65 2.65 0 0 0 11 3.174V3a1 1 0 0 1 1-1zm0 6a4.02 4.02 0 0 0-4 4 4.02 4.02 0 0 0 4 4 4.02 4.02 0 0 0 4-4 4.02 4.02 0 0 0-4-4zM12 10c1.116 0 2 .883 2 2s-.883 2-2 2-2-.883-2-2 .883-2 2-2z" transform="matrix(1.333333 0 0 1.333333 -.000001 -.000007)"/></svg>
