<!-- Generated by IcoMoon.io -->
<svg version="1.1" xmlns="http://www.w3.org/2000/svg" viewBox="0 0 31 32">
<title>github-brands</title>
<path d="M10.368 24.832c0 0.128-0.128 0.224-0.32 0.224-0.224 0.032-0.352-0.064-0.352-0.224 0-0.128 0.128-0.224 0.32-0.224s0.352 0.096 0.352 0.224zM8.416 24.544c-0.032 0.128 0.096 0.288 0.288 0.32 0.16 0.064 0.352 0 0.384-0.128s-0.096-0.256-0.288-0.32c-0.16-0.064-0.32 0-0.384 0.128zM11.2 24.448c-0.192 0.032-0.32 0.16-0.288 0.32 0 0.096 0.16 0.192 0.352 0.16 0.192-0.064 0.32-0.16 0.288-0.288 0-0.128-0.192-0.224-0.352-0.192zM15.296 0.512c-8.672 0-15.296 6.56-15.296 15.232 0 6.944 4.352 12.864 10.592 14.944 0.8 0.16 1.088-0.352 1.088-0.736s-0.032-2.528-0.032-3.84c0 0-4.352 0.928-5.28-1.856 0 0-0.704-1.824-1.728-2.304 0 0-1.44-0.992 0.096-0.96 0 0 1.536 0.128 2.4 1.6 1.376 2.432 3.68 1.728 4.544 1.312 0.16-0.992 0.576-1.696 1.024-2.112-3.488-0.384-7.040-0.896-7.040-6.88 0-1.728 0.48-2.592 1.472-3.68-0.16-0.416-0.672-2.112 0.192-4.256 1.28-0.416 4.288 1.696 4.288 1.696 1.248-0.352 2.592-0.544 3.936-0.544s2.688 0.192 3.936 0.544c0 0 3.008-2.112 4.288-1.696 0.864 2.176 0.352 3.84 0.16 4.256 1.024 1.088 1.632 1.952 1.632 3.68 0 6.016-3.68 6.496-7.168 6.88 0.576 0.512 1.056 1.44 1.056 2.912 0 2.112-0.032 4.704-0.032 5.216 0 0.416 0.288 0.928 1.088 0.768 6.24-2.080 10.496-8 10.496-14.944 0-8.672-7.040-15.232-15.712-15.232zM6.080 22.048c-0.096 0.064-0.064 0.224 0.032 0.32s0.256 0.16 0.32 0.064c0.096-0.064 0.064-0.192-0.032-0.32-0.096-0.096-0.256-0.128-0.32-0.064zM5.408 21.536c-0.064 0.096 0 0.192 0.128 0.256 0.096 0.064 0.224 0.032 0.288-0.032 0.032-0.096-0.032-0.192-0.16-0.256-0.128-0.032-0.224-0.032-0.256 0.032zM7.424 23.776c-0.096 0.064-0.064 0.256 0.096 0.384 0.128 0.16 0.32 0.16 0.384 0.064 0.096-0.096 0.064-0.256-0.064-0.384-0.16-0.16-0.32-0.16-0.416-0.064zM6.72 22.848c-0.096 0.064-0.096 0.224 0 0.384 0.096 0.128 0.256 0.192 0.352 0.128s0.096-0.224 0-0.384c-0.096-0.128-0.256-0.192-0.352-0.128z"></path>
</svg>
