<svg xmlns="http://www.w3.org/2000/svg" viewBox="0 0 32 32"><path d="M16 0A16.032 16.032 0 0 0 0 16v3.2 6.4 1.6C0 29.832 2.168 32 4.8 32h1.6c2.632 0 4.8-2.168 4.8-4.8v-4.8c0-2.632-2.168-4.8-4.8-4.8H3.2V16C3.2 8.912 8.912 3.2 16 3.2S28.8 8.912 28.8 16v1.6h-3.2c-2.632 0-4.8 2.168-4.8 4.8v4.8c0 2.632 2.168 4.8 4.8 4.8h1.6c2.632 0 4.8-2.168 4.8-4.8v-1.6-6.4V16A16.032 16.032 0 0 0 16 0zM3.2 20.8h3.2c.902 0 1.6.698 1.6 1.6v4.8c0 .902-.698 1.6-1.6 1.6H4.8c-.902 0-1.6-.698-1.6-1.6v-1.6zm22.4 0h3.2v4.8 1.6c0 .902-.698 1.6-1.6 1.6h-1.6c-.902 0-1.6-.698-1.6-1.6v-4.8c0-.902.698-1.6 1.6-1.6z"/></svg>
