<!-- Generated by IcoMoon.io -->
<svg version="1.1" xmlns="http://www.w3.org/2000/svg" viewBox="0 0 32 32">
<title>icon-inbox</title>
<path d="M25.344 4h-18.688c-1.44 0-2.656 1.184-2.656 2.656v9.344c0 1.472 1.216 2.656 2.656 2.656h18.688c1.472 0 2.656-1.184 2.656-2.656v-9.344c0-1.472-1.184-2.656-2.656-2.656zM25.344 12h-5.344c0 2.144-1.856 4-4 4s-4-1.856-4-4h-5.344v-5.344h18.688v5.344zM20 21.344h8v4c0 1.44-1.184 2.656-2.656 2.656h-18.688c-1.44 0-2.656-1.216-2.656-2.656v-4h8c0 2.24 1.728 4 4 4s4-1.76 4-4z"></path>
</svg>
