<?xml version="1.0" encoding="UTF-8" standalone="no"?>
<!DOCTYPE svg PUBLIC "-//W3C//DTD SVG 1.1//EN" "http://www.w3.org/Graphics/SVG/1.1/DTD/svg11.dtd">
<svg width="100%" height="100%" viewBox="0 0 18 18" version="1.1" xmlns="http://www.w3.org/2000/svg" xmlns:xlink="http://www.w3.org/1999/xlink" xml:space="preserve" xmlns:serif="http://www.serif.com/" style="fill-rule:evenodd;clip-rule:evenodd;stroke-linejoin:round;stroke-miterlimit:2;">
    <g transform="matrix(1.17647,0,0,1.17647,-1.58824,-1.58824)">
        <path d="M14.25,1.35L3.75,1.35C2.425,1.35 1.35,2.425 1.35,3.75C1.35,3.75 1.35,14.25 1.35,14.25C1.35,15.575 2.425,16.65 3.75,16.65L14.25,16.65C15.575,16.65 16.65,15.575 16.65,14.25L16.65,3.75C16.65,2.425 15.575,1.35 14.25,1.35ZM14.25,3.15C14.581,3.15 14.85,3.419 14.85,3.75C14.85,3.75 14.85,14.25 14.85,14.25C14.85,14.581 14.581,14.85 14.25,14.85C14.25,14.85 3.75,14.85 3.75,14.85C3.419,14.85 3.15,14.581 3.15,14.25L3.15,3.75C3.15,3.419 3.419,3.15 3.75,3.15L14.25,3.15Z"/>
    </g>
    <g transform="matrix(1.17647,0,0,1.17647,-1.58824,-1.58824)">
        <path d="M2.25,7.65L15.75,7.65C16.247,7.65 16.65,7.247 16.65,6.75C16.65,6.253 16.247,5.85 15.75,5.85L2.25,5.85C1.753,5.85 1.35,6.253 1.35,6.75C1.35,7.247 1.753,7.65 2.25,7.65Z"/>
    </g>
    <g transform="matrix(1.17647,0,0,1.17647,-1.58824,-1.58824)">
        <path d="M7.65,15.75L7.65,6.75C7.65,6.253 7.247,5.85 6.75,5.85C6.253,5.85 5.85,6.253 5.85,6.75L5.85,15.75C5.85,16.247 6.253,16.65 6.75,16.65C7.247,16.65 7.65,16.247 7.65,15.75Z"/>
    </g>
</svg>
