<svg xmlns="http://www.w3.org/2000/svg" width="32" height="32" viewBox="0 0 32 32"><path d="M13.734 10.052c-1.266-.091-2.537.094-3.727.538a8.84 8.84 0 0 0-3.164 2.037l-4.337 4.337a1.626 1.626 0 0 0-.021.017A8.86 8.86 0 0 0 0 23.21c.02 2.321.951 4.542 2.592 6.183s3.866 2.572 6.187 2.592 4.557-.87 6.225-2.482a1.626 1.626 0 0 0 .021-.021l2.473-2.473a1.626 1.626 0 1 0-2.304-2.3l-2.448 2.452c-1.057 1.021-2.473 1.584-3.943 1.571a5.6 5.6 0 0 1-5.552-5.552c-.013-1.466.55-2.874 1.567-3.93l4.324-4.324c.568-.568 1.251-1.011 2.003-1.292s1.558-.396 2.359-.339a5.59 5.59 0 0 1 2.283.673c.705.385 1.319.915 1.8 1.558a1.626 1.626 0 0 0 2.604-1.948c-.76-1.017-1.732-1.856-2.846-2.465s-2.346-.972-3.612-1.063zM23.225.015a8.86 8.86 0 0 0-6.23 2.486 1.626 1.626 0 0 0-.017.017l-2.486 2.473a1.626 1.626 0 0 0 2.295 2.304l2.469-2.456.009-.004c1.056-1.016 2.464-1.58 3.93-1.567s2.874.604 3.913 1.643a5.59 5.59 0 0 1 1.639 3.909c.013 1.469-.55 2.886-1.571 3.943l-4.315 4.315c-.568.568-1.255 1.007-2.007 1.287s-1.553.396-2.355.339-1.582-.284-2.287-.669a5.61 5.61 0 0 1-1.8-1.563 1.626 1.626 0 1 0-2.604 1.948c.76 1.017 1.732 1.86 2.846 2.469a8.85 8.85 0 0 0 7.339.525 8.86 8.86 0 0 0 3.168-2.037l4.337-4.337a1.626 1.626 0 0 0 .017-.021A8.85 8.85 0 0 0 32 8.794c-.02-2.321-.951-4.546-2.592-6.187S25.546.035 23.225.015z"/></svg>
