<svg xmlns="http://www.w3.org/2000/svg" viewBox="0 0 32 32"><path d="M4.16 28.627A4.16 4.16 0 0 1 0 24.467h0V7.533a4.16 4.16 0 0 1 4.16-4.16h0 23.68A4.16 4.16 0 0 1 32 7.533h0v16.933a4.16 4.16 0 0 1-4.16 4.16h0zM2.667 7.533v16.933c0 .825.668 1.493 1.493 1.493h0 23.68c.825 0 1.493-.668 1.493-1.493h0V7.533c-.015-.813-.677-1.467-1.493-1.467H4.16c-.825 0-1.493.668-1.493 1.493h0zM15.173 18.2l-10.16-7.893C4.7 10.06 4.5 9.681 4.5 9.256c0-.321.113-.615.302-.844l-.002.003a1.33 1.33 0 0 1 1.87-.238l-.003-.002L16 15.427l9.333-7.253a1.33 1.33 0 0 1 .829-.289c.433 0 .817.207 1.062.526l.003.003a1.33 1.33 0 0 1 .289.829c0 .433-.207.818-.526 1.062l-.003.002-10.16 7.893c-.22.167-.498.267-.8.267h-.027.002-.027c-.302 0-.58-.1-.803-.269l.003.003z"/></svg>
