<?xml version="1.0" encoding="UTF-8" standalone="no"?>
<!DOCTYPE svg PUBLIC "-//W3C//DTD SVG 1.1//EN" "http://www.w3.org/Graphics/SVG/1.1/DTD/svg11.dtd">
<svg width="100%" height="100%" viewBox="0 0 18 18" version="1.1" xmlns="http://www.w3.org/2000/svg" xmlns:xlink="http://www.w3.org/1999/xlink" xml:space="preserve" xmlns:serif="http://www.serif.com/" style="fill-rule:evenodd;clip-rule:evenodd;stroke-linejoin:round;stroke-miterlimit:2;">
    <g>
        <g transform="matrix(0.963856,0,0,0.963856,0.325298,0.324756)">
            <path d="M16.087,3.937L16.087,3.372C16.086,2.687 15.813,2.031 15.328,1.547C15.328,1.547 15.328,1.547 15.328,1.547C14.844,1.062 14.188,0.789 13.503,0.788L2.247,0.788C1.562,0.789 0.906,1.062 0.422,1.547C0.422,1.547 0.422,1.547 0.422,1.547C-0.063,2.031 -0.336,2.687 -0.337,3.372L-0.337,12.378C-0.336,13.063 -0.063,13.719 0.422,14.203C0.422,14.203 0.422,14.203 0.422,14.203C0.906,14.688 1.562,14.961 2.247,14.962L2.812,14.963L2.812,13.163L2.252,13.163C2.043,13.162 1.843,13.078 1.695,12.93C1.547,12.782 1.463,12.582 1.462,12.373C1.462,12.373 1.462,3.377 1.462,3.377C1.463,3.168 1.547,2.968 1.695,2.82C1.843,2.672 2.043,2.588 2.252,2.587C2.252,2.588 13.498,2.588 13.498,2.588C13.707,2.588 13.907,2.672 14.055,2.82C14.203,2.968 14.287,3.168 14.288,3.377C14.287,3.377 14.288,3.938 14.288,3.938L16.087,3.937Z"/>
        </g>
        <g transform="matrix(0.963856,0,0,0.963856,0.325298,0.324756)">
            <path d="M15.821,3.6L4.992,3.6C3.602,3.6 2.475,4.727 2.475,6.117C2.475,6.117 2.475,14.696 2.475,14.696C2.475,16.086 3.602,17.213 4.992,17.213C4.992,17.213 15.821,17.213 15.821,17.213C17.211,17.213 18.338,16.086 18.338,14.696C18.338,14.696 18.338,6.117 18.338,6.117C18.338,4.727 17.211,3.6 15.821,3.6ZM15.821,5.4C16.217,5.4 16.538,5.721 16.538,6.117L16.538,14.696C16.538,15.092 16.217,15.413 15.821,15.413L4.992,15.413C4.596,15.413 4.275,15.092 4.275,14.696L4.275,6.117C4.275,5.721 4.596,5.4 4.992,5.4L15.821,5.4Z"/>
        </g>
        <g transform="matrix(0.963856,0,0,0.963856,0.325298,0.324756)">
            <path d="M13.111,9.696C14.207,9.696 15.092,8.811 15.092,7.722C15.092,6.634 14.207,5.748 13.111,5.748C12.014,5.748 11.129,6.634 11.129,7.722C11.129,8.811 12.014,9.696 13.111,9.696ZM13.111,7.896C13.012,7.896 12.929,7.82 12.929,7.722C12.929,7.625 13.012,7.548 13.111,7.548C13.209,7.548 13.292,7.625 13.292,7.722C13.292,7.82 13.209,7.896 13.111,7.896Z"/>
        </g>
        <g transform="matrix(0.963856,0,0,0.963856,0.325298,0.324756)">
            <path d="M11.025,13.358L8.69,15.675C8.338,16.025 8.336,16.595 8.686,16.948C9.036,17.3 9.606,17.302 9.959,16.953L14.126,12.815C14.159,12.783 14.204,12.763 14.25,12.761C14.25,12.761 14.25,12.761 14.251,12.761C14.297,12.759 14.343,12.774 14.379,12.804C14.379,12.804 16.864,14.86 16.864,14.86C17.247,15.176 17.814,15.123 18.131,14.74C18.448,14.357 18.394,13.789 18.011,13.473L15.523,11.414C15.143,11.101 14.661,10.941 14.169,10.963C13.678,10.985 13.212,11.189 12.862,11.534L12.302,12.089L9.597,9.408C9.239,9.054 8.761,8.85 8.258,8.835C8.258,8.835 8.258,8.835 8.258,8.835C7.755,8.821 7.265,8.998 6.887,9.33L2.78,12.954C2.407,13.283 2.371,13.852 2.7,14.225C3.029,14.597 3.598,14.633 3.97,14.304L8.077,10.681C8.112,10.65 8.159,10.633 8.206,10.634C8.253,10.636 8.299,10.655 8.332,10.688L11.025,13.358Z"/>
        </g>
    </g>
</svg>
