<!-- Generated by IcoMoon.io -->
<svg version="1.1" xmlns="http://www.w3.org/2000/svg" viewBox="0 0 25 32">
<title>industry-research</title>
<path d="M6.208 3.104v-1.056h1.76v1.056h-1.76zM5.152 5.152h-0.128v7.232h4.128v-7.232h-4zM11.2 5.152v8.256c0 0.576-0.448 1.056-1.024 1.056h-0.16v2.048c0 0.576-0.448 1.024-1.024 1.024h-3.84c-0.544 0-1.024-0.448-1.024-1.024v-2.048h-0.16c-0.544 0-1.024-0.48-1.024-1.056v-9.28c0-0.576 0.48-1.024 1.024-1.024h0.16v-2.080c0-0.576 0.48-1.024 1.024-1.024h3.84c0.576 0 1.024 0.448 1.024 1.024v2.080h3.552c0.576 0 1.024 0.448 1.024 1.024v0 6.208c0.064 0 0.128 0 0.192 0 0.8 0 1.856 0.096 2.944 0.48 1.088 0.352 2.24 0.992 3.136 2.112 0.864 1.12 1.408 2.624 1.408 4.608s-0.544 3.52-1.408 4.64c-0.896 1.12-2.048 1.76-3.136 2.112s-2.144 0.48-2.944 0.48c-0.064 0-0.128 0-0.192 0v1.024h7.968c1.152 0 2.080 0.928 2.080 2.080v1.536c0 1.152-0.928 2.080-2.080 2.080h-20.352c-1.12 0-2.048-0.928-2.048-2.080v-1.536c0-1.152 0.928-2.080 2.048-2.080h10.336v-1.024h-7.968c-0.576 0-1.024-0.448-1.024-1.024s0.448-1.024 1.024-1.024h7.968v-17.568h-1.344zM6.208 14.464h1.76v1.024h-1.76v-1.024zM14.752 22.72c-0.064 0-0.096 0-0.16 0v-1.024c0.416-0.032 0.928-0.096 1.44-0.256 0.64-0.192 1.376-0.544 1.952-1.216 0.576-0.64 0.928-1.536 0.928-2.688 0-1.12-0.352-2.016-0.928-2.688-0.576-0.64-1.312-0.992-1.952-1.184-0.512-0.16-1.024-0.224-1.44-0.256v-1.024c0.064 0 0.096 0 0.16 0 0.64 0.032 1.504 0.096 2.336 0.384 0.8 0.288 1.568 0.736 2.144 1.44 0.544 0.704 0.96 1.728 0.96 3.328s-0.416 2.656-0.96 3.36c-0.576 0.704-1.344 1.152-2.144 1.44-0.832 0.256-1.696 0.352-2.336 0.384zM15.424 19.456c-0.288 0.096-0.576 0.128-0.832 0.16v-4.128c0.256 0 0.544 0.064 0.832 0.16 0.416 0.096 0.768 0.288 1.024 0.576 0.192 0.256 0.416 0.64 0.416 1.312 0 0.704-0.224 1.088-0.416 1.344-0.256 0.256-0.608 0.448-1.024 0.576zM2.208 27.872h20.352v1.536h-20.352v-1.536z"></path>
</svg>
