<?xml version="1.0" encoding="UTF-8" standalone="no"?>
<!DOCTYPE svg PUBLIC "-//W3C//DTD SVG 1.1//EN" "http://www.w3.org/Graphics/SVG/1.1/DTD/svg11.dtd">
<svg width="100%" height="100%" viewBox="0 0 32 32" version="1.1" xmlns="http://www.w3.org/2000/svg" xmlns:xlink="http://www.w3.org/1999/xlink" xml:space="preserve" xmlns:serif="http://www.serif.com/" style="fill-rule:evenodd;clip-rule:evenodd;stroke-linejoin:round;stroke-miterlimit:2;">
    <g id="Artboard1" transform="matrix(2.66667,0,0,2.66667,-8,-8)">
        <rect x="3" y="3" width="12" height="12" style="fill:none;"/>
        <g transform="matrix(0.6,0,0,0.6,3.86133,3)">
            <path d="M6.252,10.752L8.083,10.752C12.063,10.752 14.32,8.949 15.039,5.241C15.063,5.119 15.084,5.001 15.101,4.883C15.141,4.632 15.161,4.407 15.17,4.19C15.176,4.041 15.181,3.953 15.18,3.871C15.178,3.474 15.097,3.081 14.941,2.717C14.799,2.388 14.583,2.064 14.264,1.697C13.322,0.619 11.682,0 9.722,0L3.48,0C3.268,0 3.062,0.077 2.9,0.216C2.739,0.355 2.632,0.547 2.598,0.759L1.472,8.06L0.071,17.154C0.059,17.232 0.064,17.31 0.085,17.385C0.106,17.46 0.143,17.53 0.193,17.589C0.244,17.648 0.306,17.696 0.377,17.728C0.447,17.761 0.523,17.778 0.601,17.778L3.661,17.778L4.599,12.174C4.66,11.778 4.86,11.416 5.163,11.155C5.466,10.894 5.853,10.751 6.252,10.752ZM16.302,5.656C15.428,9.846 12.596,12.069 8.082,12.069L6.252,12.069C6.164,12.069 6.079,12.1 6.013,12.158C5.946,12.215 5.903,12.295 5.89,12.382L4.67,20L7.879,20C8.065,20 8.245,19.933 8.387,19.812C8.528,19.69 8.622,19.522 8.651,19.337L8.683,19.17L9.296,15.266L9.335,15.05C9.364,14.865 9.458,14.697 9.6,14.575C9.741,14.453 9.921,14.387 10.107,14.387L10.593,14.387C13.74,14.387 16.203,13.1 16.923,9.38C17.219,7.847 17.069,6.564 16.302,5.656Z" style="fill-rule:nonzero;"/>
        </g>
    </g>
</svg>
