<svg viewBox="0 0 35 35" xmlns="http://www.w3.org/2000/svg">
<path d="M16.6245 5.80893C16.7536 5.47301 17.2288 5.47302 17.3579 5.80893L18.1109 7.7679C18.152 7.87489 18.2378 7.95859 18.3457 7.99706L20.3377 8.70669C20.6857 8.83068 20.6857 9.3229 20.3377 9.44689L18.3457 10.1565C18.2378 10.195 18.152 10.2787 18.1109 10.3857L17.3579 12.3447C17.2288 12.6806 16.7536 12.6806 16.6245 12.3446L15.8715 10.3857C15.8304 10.2787 15.7446 10.195 15.6367 10.1565L13.6447 9.44689C13.2967 9.3229 13.2967 8.83068 13.6447 8.70669L15.6367 7.99706C15.7446 7.95859 15.8304 7.87489 15.8715 7.7679L16.6245 5.80893Z" />
<path d="M11.5738 2.21995C11.7029 1.88404 12.1781 1.88404 12.3072 2.21995L12.7282 3.31525C12.7693 3.42224 12.8551 3.50594 12.9631 3.5444L14.0579 3.93444C14.406 4.05844 14.406 4.55066 14.0579 4.67465L12.9631 5.06469C12.8551 5.10316 12.7693 5.18686 12.7282 5.29385L12.3072 6.38914C12.1781 6.72506 11.7029 6.72506 11.5738 6.38914L11.1528 5.29385C11.1117 5.18686 11.0259 5.10316 10.9179 5.06469L9.82307 4.67465C9.47502 4.55066 9.47502 4.05844 9.82307 3.93444L10.9179 3.5444C11.0259 3.50594 11.1117 3.42224 11.1528 3.31525L11.5738 2.21995Z" />
<path d="M8.50371 10.7466C8.72965 10.1588 9.56135 10.1588 9.78729 10.7466L11.1512 14.2952C11.2231 14.4825 11.3733 14.6289 11.5622 14.6963L15.1732 15.9827C15.7823 16.1997 15.7823 17.061 15.1732 17.278L11.5622 18.5644C11.3733 18.6318 11.2231 18.7782 11.1512 18.9655L9.78729 22.5141C9.56135 23.1019 8.72965 23.1019 8.50371 22.5141L7.13982 18.9655C7.06786 18.7782 6.91772 18.6318 6.72877 18.5644L3.11783 17.278C2.50874 17.061 2.50874 16.1997 3.11783 15.9827L6.72877 14.6963C6.91772 14.6289 7.06786 14.4825 7.13982 14.2952L8.50371 10.7466Z" />
<path d="M30.8087 11.1295C30.2991 10.5929 29.3239 10.5677 28.7041 11.1887C28.039 11.8551 27.1972 12.6778 26.1741 13.6397C23.358 16.2872 21.9601 17.8425 21.8847 17.9267C21.8819 17.9298 21.8754 17.9371 21.8673 17.946C21.7721 18.0505 20.9132 18.9807 17.4616 22.3529C15.1996 24.5628 14.0685 25.7071 13.5435 26.249C13.3829 26.4147 13.2555 26.6212 13.1702 26.8594L12.2683 29.3766C12.1714 29.647 12.4327 29.9082 12.7031 29.8114L15.1178 28.9462C15.4009 28.8448 15.6574 28.6804 15.8702 28.4638C16.6359 27.6844 18.1674 26.1357 19.7473 24.5977C20.7341 23.637 21.422 22.9153 22.0166 22.2916C22.0828 22.2222 22.1478 22.1539 22.212 22.0868C22.8537 21.4147 23.4187 20.8331 24.1597 20.1891C24.3546 20.0197 24.5103 19.8861 24.6424 19.7728C25.0038 19.4627 25.1886 19.3041 25.5185 18.9773C25.9858 18.5144 26.7089 17.7472 28.4399 15.9056C29.4013 14.8829 30.1695 14.0873 30.7786 13.4707C31.3952 12.8465 31.4057 11.7582 30.8087 11.1295ZM27.0677 9.55551C28.5081 8.11217 30.9864 7.95922 32.4852 9.53746C33.9489 11.0787 33.9098 13.5908 32.4234 15.0955C31.8298 15.6963 31.075 16.478 30.1245 17.4891C28.4116 19.3114 27.6504 20.1198 27.1455 20.6199C26.753 21.0088 26.497 21.2283 26.11 21.5603C25.9827 21.6695 25.8413 21.7908 25.6762 21.9342C25.0214 22.5033 24.5185 23.019 23.8842 23.6833C23.8207 23.7499 23.7559 23.8178 23.6897 23.8873C23.0936 24.5126 22.3789 25.2624 21.3601 26.2542C19.798 27.775 18.28 29.3099 17.5195 30.0841C17.0645 30.5472 16.5115 30.9028 15.8976 31.1227L13.4829 31.9879C11.3739 32.7435 9.3362 30.7057 10.0918 28.5968L10.9936 26.0796C11.1824 25.5528 11.4781 25.058 11.8831 24.6401C12.4284 24.0773 13.5759 22.9168 15.8459 20.6991C19.2884 17.3359 20.1091 16.4429 20.1582 16.389L20.1584 16.3888L20.1593 16.3878L20.1618 16.385C20.2791 16.2539 21.7234 14.6507 24.5905 11.9552C25.5953 11.0105 26.4196 10.2049 27.0677 9.55551Z" />
<path d="M29.886 16.493L25.6379 12.2449L27.2727 10.61L31.5208 14.8581L29.886 16.493Z" />
</svg>
