<svg xmlns="http://www.w3.org/2000/svg" width="32" height="32" viewBox="0 0 32 32"><path d="M6.359 0C2.872 0 0 2.872 0 6.359a6.39 6.39 0 0 0 6.359 6.354c3.487 0 6.354-2.867 6.354-6.354A6.39 6.39 0 0 0 6.359 0zm21.912 1.757a1.972 1.972 0 0 0-1.392.575L2.332 26.879a1.972 1.972 0 0 0 0 2.789 1.972 1.972 0 0 0 2.789 0L29.668 5.121a1.972 1.972 0 0 0-1.397-3.364zM6.359 3.945a2.38 2.38 0 0 1 2.409 2.414c0 1.355-1.054 2.409-2.409 2.409a2.38 2.38 0 0 1-2.414-2.409c0-1.355 1.059-2.414 2.414-2.414zm19.282 15.343c-3.487 0-6.354 2.867-6.354 6.354A6.39 6.39 0 0 0 25.641 32C29.128 32 32 29.128 32 25.641a6.39 6.39 0 0 0-6.359-6.354zm0 3.945a2.38 2.38 0 0 1 2.414 2.409c0 1.354-1.06 2.414-2.414 2.414a2.38 2.38 0 0 1-2.409-2.414c0-1.355 1.054-2.409 2.409-2.409z"/></svg>
