<svg xmlns="http://www.w3.org/2000/svg" width="32" height="32" viewBox="0 0 32 32"><path d="M24.154 29.535c-1.18 0-2.836-.427-5.317-1.813-3.017-1.692-5.351-3.254-8.351-6.247-2.893-2.891-4.301-4.763-6.272-8.349-2.226-4.049-1.847-6.171-1.422-7.078.505-1.084 1.251-1.732 2.215-2.376.547-.359 1.127-.666 1.731-.918l.167-.073c.299-.135.752-.338 1.326-.121.383.144.725.438 1.26.967 1.098 1.083 2.598 3.494 3.152 4.679.372.798.618 1.325.618 1.916 0 .692-.348 1.225-.77 1.801l-.234.312c-.46.604-.561.779-.494 1.091.135.627 1.14 2.492 2.791 4.14s3.463 2.589 4.092 2.723c.325.069.503-.036 1.127-.512l.277-.21c.644-.479 1.153-.818 1.828-.818h.004c.588 0 1.091.255 1.925.676 1.088.549 3.572 2.03 4.661 3.129.53.534.825.875.97 1.257.217.576.013 1.027-.121 1.329l-.073.166c-.254.603-.564 1.181-.924 1.727-.642.961-1.293 1.704-2.38 2.21a4.07 4.07 0 0 1-1.786.391z"/></svg>
