<svg xmlns="http://www.w3.org/2000/svg" viewBox="0 0 32 32"><path d="M25.6 22.56c-1.28 0-2.24.48-3.2 1.28l-11.36-6.72c.16-.32.16-.8.16-1.12s0-.8-.16-1.12L22.4 8.32c.8.8 1.92 1.28 3.2 1.28a4.71 4.71 0 0 0 4.8-4.8A4.71 4.71 0 0 0 25.6 0a4.71 4.71 0 0 0-4.8 4.8c0 .32 0 .8.16 1.12L9.6 12.48c-.8-.8-1.92-1.28-3.2-1.28A4.71 4.71 0 0 0 1.6 16a4.71 4.71 0 0 0 4.8 4.8c1.28 0 2.4-.48 3.2-1.28l11.36 6.72c0 .32-.16.64-.16 1.12 0 2.56 2.08 4.64 4.64 4.64s4.64-2.08 4.64-4.64-1.92-4.8-4.48-4.8m0-19.36c.8 0 1.6.64 1.6 1.6 0 .8-.8 1.6-1.6 1.6-.96 0-1.6-.8-1.6-1.6 0-.96.64-1.6 1.6-1.6M6.4 17.6c-.96 0-1.6-.8-1.6-1.6 0-.96.64-1.6 1.6-1.6.8 0 1.6.64 1.6 1.6 0 .8-.8 1.6-1.6 1.6m19.2 11.2c-.96 0-1.6-.64-1.6-1.6 0-.8.64-1.6 1.6-1.6.8 0 1.6.8 1.6 1.6 0 .96-.8 1.6-1.6 1.6"/></svg>
