<svg xmlns="http://www.w3.org/2000/svg" width="32" height="32" viewBox="0 0 32 32"><path d="M5.761 2.558a1.92 1.92 0 0 0-1.92 1.92v8.96a1.92 1.92 0 0 0 3.841 0v-8.96a1.92 1.92 0 0 0-1.92-1.92zm10.239 0a1.92 1.92 0 0 0-1.92 1.92V8.96h-1.92a1.92 1.92 0 1 0 0 3.841h7.681a1.92 1.92 0 1 0 0-3.841h-1.92V4.478A1.92 1.92 0 0 0 16 2.558zm10.239 0a1.92 1.92 0 0 0-1.92 1.92V16a1.92 1.92 0 0 0 3.841 0V4.478a1.92 1.92 0 0 0-1.92-1.92zM16 14.08A1.92 1.92 0 0 0 14.08 16v11.522a1.92 1.92 0 1 0 3.841 0V16A1.92 1.92 0 0 0 16 14.08zM1.92 16.641a1.92 1.92 0 0 0 0 3.841h1.92v7.04a1.92 1.92 0 1 0 3.841 0v-7.04h1.92a1.92 1.92 0 0 0 0-3.841zm20.478 2.558a1.92 1.92 0 1 0 0 3.841h1.92v4.482a1.92 1.92 0 1 0 3.841 0V23.04h1.92a1.92 1.92 0 1 0 0-3.841h-3.841z"/></svg>
