<?xml version="1.0" encoding="UTF-8" standalone="no"?>
<!DOCTYPE svg PUBLIC "-//W3C//DTD SVG 1.1//EN" "http://www.w3.org/Graphics/SVG/1.1/DTD/svg11.dtd">
<svg width="100%" height="100%" viewBox="0 0 24 24" version="1.1" xmlns="http://www.w3.org/2000/svg" xmlns:xlink="http://www.w3.org/1999/xlink" xml:space="preserve" xmlns:serif="http://www.serif.com/" style="fill-rule:evenodd;clip-rule:evenodd;stroke-linejoin:round;stroke-miterlimit:2;">
    <g id="Artboard1" transform="matrix(1.2,0,0,1.2,0,0)">
        <rect x="0" y="0" width="20" height="20" style="fill:none;"/>
        <clipPath id="_clip1">
            <rect x="0" y="0" width="20" height="20"/>
        </clipPath>
        <g clip-path="url(#_clip1)">
            <g transform="matrix(1.10803,0,0,1.10803,-1.08033,-1.08033)">
                <path d="M19.025,10C19.025,5.016 14.984,0.975 10,0.975C5.016,0.975 0.975,5.016 0.975,10C0.975,14.984 5.016,19.025 10,19.025C14.984,19.025 19.025,14.984 19.025,10ZM17.225,10C17.225,13.99 13.99,17.225 10,17.225C6.01,17.225 2.775,13.99 2.775,10C2.775,6.01 6.01,2.775 10,2.775C13.99,2.775 17.225,6.01 17.225,10ZM6.891,13.108C6.201,12.419 5.761,11.519 5.638,10.551C5.516,9.583 5.719,8.602 6.216,7.762L6.216,7.762C6.712,6.923 7.474,6.272 8.381,5.913L8.381,5.913C9.288,5.554 10.289,5.506 11.226,5.779C11.703,5.917 12.203,5.642 12.341,5.165C12.48,4.688 12.205,4.189 11.728,4.05C10.408,3.666 8.997,3.733 7.719,4.239C6.44,4.745 5.367,5.662 4.667,6.846C3.967,8.03 3.68,9.412 3.853,10.777C4.025,12.141 4.646,13.409 5.618,14.381C5.97,14.732 6.54,14.732 6.891,14.381C7.242,14.03 7.242,13.46 6.891,13.108ZM10.364,8.228C10.246,8.204 10.125,8.192 10,8.192C9.001,8.192 8.192,9.001 8.192,10C8.192,10.999 9.001,11.808 10,11.808C10.999,11.808 11.808,10.999 11.808,10C11.808,9.971 11.808,9.943 11.806,9.914L14.401,6.203C14.447,6.137 14.468,6.059 14.46,5.98C14.454,5.902 14.418,5.827 14.364,5.772C14.307,5.715 14.234,5.681 14.156,5.674C14.077,5.666 13.997,5.687 13.933,5.733L10.364,8.228Z" style="fill-rule:nonzero;"/>
            </g>
        </g>
    </g>
</svg>
