<svg xmlns="http://www.w3.org/2000/svg" viewBox="0 0 32 32"><path d="M16.001.712a1.455 1.455 0 0 0-1.303.81L10.54 9.943l-9.297 1.362a1.455 1.455 0 0 0-.804 2.48l6.725 6.552-1.589 9.253a1.455 1.455 0 0 0 2.111 1.532l8.315-4.37 8.313 4.37a1.455 1.455 0 0 0 2.111-1.532l-1.589-9.253 6.725-6.552a1.455 1.455 0 0 0-.804-2.48L21.46 9.943l-4.156-8.421a1.455 1.455 0 0 0-1.303-.81zm0 4.742l3.19 6.463a1.455 1.455 0 0 0 1.094.796l7.137 1.043-5.163 5.029a1.455 1.455 0 0 0-.42 1.287l1.219 7.103-6.382-3.356a1.455 1.455 0 0 0-1.353 0l-6.382 3.356 1.219-7.103a1.455 1.455 0 0 0-.42-1.287l-5.161-5.029 7.137-1.043a1.455 1.455 0 0 0 1.094-.796z"/></svg>
