<svg xmlns="http://www.w3.org/2000/svg" viewBox="0 0 32 32"><path d="M14.15 2.03c.582-1.792 3.117-1.792 3.699 0l2.444 7.522c.26.801 1.007 1.344 1.85 1.344h7.909c1.884 0 2.668 2.41 1.143 3.519l-6.399 4.649c-.682.495-.967 1.373-.707 2.175l2.444 7.522c.582 1.792-1.469 3.282-2.992 2.175l-6.399-4.649a1.95 1.95 0 0 0-2.287 0l-6.399 4.649c-1.524 1.107-3.575-.383-2.992-2.175l2.444-7.522c.26-.801-.025-1.679-.707-2.175L.805 14.414c-1.524-1.107-.74-3.519 1.143-3.519h7.909c.842 0 1.59-.543 1.85-1.344z"/></svg>
