<svg xmlns="http://www.w3.org/2000/svg" width="32" height="32" viewBox="0 0 32 32"><path d="M20.025 0a2.19 2.19 0 0 0-1.537.635L.936 18.186A3.2 3.2 0 0 0 0 20.445a3.2 3.2 0 0 0 .936 2.262l8.357 8.357a3.2 3.2 0 0 0 4.523 0l17.547-17.543A2.18 2.18 0 0 0 32 11.986V3.199c.003-.419-.079-.833-.238-1.221s-.393-.739-.689-1.035a3.18 3.18 0 0 0-1.039-.699c-.389-.162-.805-.245-1.227-.244zm5.174 4.572a2.29 2.29 0 0 1 .818.174c.418.173.774.466 1.025.842s.385.817.385 1.27c0 .606-.24 1.187-.668 1.615a2.29 2.29 0 0 1-1.617.67c-.452 0-.894-.134-1.27-.385s-.669-.608-.842-1.025A2.29 2.29 0 0 1 22.9 6.41c.088-.443.307-.85.627-1.17s.727-.537 1.17-.625a2.28 2.28 0 0 1 .502-.043z"/></svg>
