<!-- Generated by IcoMoon.io -->
<svg version="1.1" xmlns="http://www.w3.org/2000/svg" viewBox="0 0 32 32">
<title>menu-social-media</title>
<path d="M12.064 13.344c1.416-1.228 2.702-2.503 3.898-3.86l0.038-0.044 4-4.128c0.312-0.248 0.51-0.628 0.51-1.054 0-0.742-0.602-1.344-1.344-1.344-0.426 0-0.805 0.198-1.052 0.507l-0.002 0.003-3.936 4.128c-1.247 1.37-2.553 2.625-3.938 3.789l-0.062 0.051c-0.239 0.243-0.387 0.576-0.387 0.944s0.148 0.701 0.387 0.944l-0-0c0.243 0.239 0.576 0.387 0.944 0.387s0.701-0.148 0.944-0.387l-0 0zM17.856 4.96c0.101 0.122 0.196 0.258 0.28 0.401l0.008 0.015s0.096 0.192 0 0l0.096 0.256c0.040 0.143 0.073 0.317 0.094 0.495l0.002 0.017c0-0.128 0 0 0 0s0 0.192 0 0.288c0.014 0.239 0.023 0.519 0.023 0.801 0 0.552-0.031 1.097-0.093 1.633l0.006-0.066c0 0.096 0 0.192 0 0.256s0 0.288 0 0.128 0 0.096 0 0.096v0.224c-0.050 0.333-0.117 0.625-0.204 0.908l0.012-0.044q-0.16 0.512-0.352 1.056s-0.128 0.256 0 0.16 0 0.096 0 0.096l-0.384 0.544c-0.112 0.192-0.178 0.422-0.178 0.668 0 0.489 0.261 0.917 0.652 1.152l0.006 0.003c0.186 0.104 0.408 0.165 0.644 0.165 0.484 0 0.908-0.255 1.144-0.639l0.003-0.006c0.69-1.349 1.167-2.92 1.339-4.583l0.005-0.057c0.1-0.468 0.158-1.005 0.158-1.556 0-1.392-0.367-2.698-1.010-3.826l0.020 0.038c-0.24-0.389-0.664-0.645-1.148-0.645-0.236 0-0.458 0.061-0.651 0.168l0.007-0.003c-0.397 0.239-0.658 0.667-0.658 1.156 0 0.246 0.066 0.476 0.181 0.675l-0.003-0.006zM9.728 12.64v12.256c-0.030 0.222-0.047 0.478-0.047 0.738 0 0.663 0.111 1.301 0.315 1.895l-0.012-0.041c0.401 0.643 1.105 1.065 1.907 1.065 0.152 0 0.3-0.015 0.443-0.044l-0.014 0.002c1.952-0.096 3.872-0.16 5.824-0.096 0.638 0.040 1.384 0.063 2.135 0.063 1.311 0 2.605-0.069 3.88-0.204l-0.159 0.014c0.884-0.014 1.677-0.392 2.238-0.99l0.002-0.002c0.516-0.765 0.969-1.641 1.316-2.569l0.028-0.087c0.832-1.792 1.696-3.616 2.464-5.44 0.344-0.768 0.544-1.666 0.544-2.609 0-0.016-0-0.033-0-0.049v0.003c0.065-0.542 0.103-1.169 0.103-1.805 0-0.39-0.014-0.776-0.041-1.159l0.003 0.051c-0.48-2.24-3.68-1.888-5.312-1.792l-6.944 0.32c-1.696 0.096-1.696 2.752 0 2.688l5.44-0.256c0.65-0.126 1.397-0.198 2.162-0.198 0.982 0 1.936 0.119 2.848 0.343l-0.082-0.017-0.768-0.32c-0.064-0.288-0.064-0.288-0.064 0v1.184c0 0.48 0 0.992 0 1.504-0.177 1.091-0.524 2.070-1.016 2.958l0.024-0.046c-0.448 0.96-0.896 1.952-1.344 2.912-0.256 0.544-0.512 1.088-0.768 1.6-0.16 0.32-0.352 0.928-0.608 1.088-0.377 0.122-0.811 0.193-1.262 0.193-0.029 0-0.058-0-0.087-0.001l0.004 0c-0.41 0.041-0.886 0.065-1.367 0.065-0.048 0-0.096-0-0.144-0.001l0.007 0c-1.056 0-2.112-0.064-3.168-0.096s-2.272 0-3.392 0c-0.786 0.086-1.697 0.135-2.62 0.135-0.204 0-0.407-0.002-0.61-0.007l0.030 0.001 0.704 0.16c0.128 0.448 0.16 0.544 0.16 0.288v-13.696c0-0.742-0.602-1.344-1.344-1.344s-1.344 0.602-1.344 1.344v0zM5.12 14.144c0.448 4.512-0.48 9.056 0 13.6l1.344-1.344c-0.608 0-1.184-0.096-1.792-0.096h-1.44l0.8 0.608c0 0.288 0.064 0.288 0 0v-1.12c0-0.544 0-1.088 0-1.632 0.064-1.056 0.192-2.144 0.16-3.232 0-2.336-0.096-4.704-0.192-7.008l-1.312 1.312c1.312 0 2.56 0 3.84 0 1.728 0 1.728-2.656 0-2.656-1.312 0-2.56 0-3.84 0-0.742 0-1.344 0.602-1.344 1.344v0c0.088 1.487 0.138 3.226 0.138 4.976s-0.050 3.489-0.149 5.215l0.011-0.239c-0.025 0.335-0.040 0.726-0.040 1.12s0.014 0.785 0.042 1.172l-0.003-0.052c-0.006 0.084-0.009 0.183-0.009 0.283 0 0.674 0.145 1.314 0.404 1.89l-0.012-0.029c0.512 0.8 1.44 0.704 2.272 0.704s1.632 0 2.432 0.096c0 0 0 0 0 0 0.731 0 1.326-0.584 1.344-1.31l0-0.002c-0.48-4.544 0.48-9.088 0-13.6 0-0.742-0.602-1.344-1.344-1.344v0c-0.728 0.018-1.312 0.613-1.312 1.344 0 0 0 0 0 0v-0z"></path>
</svg>
