<!-- Generated by IcoMoon.io -->
<svg version="1.1" xmlns="http://www.w3.org/2000/svg" viewBox="0 0 32 32">
<title>times-circle-regular</title>
<path d="M16 0.512c-8.576 0-15.488 6.912-15.488 15.488s6.912 15.488 15.488 15.488 15.488-6.912 15.488-15.488-6.912-15.488-15.488-15.488zM16 28.512c-6.912 0-12.512-5.6-12.512-12.512s5.6-12.512 12.512-12.512 12.512 5.6 12.512 12.512-5.6 12.512-12.512 12.512zM22.368 12.096l-3.904 3.904 3.904 3.872c0.288 0.32 0.288 0.768 0 1.088l-1.408 1.408c-0.288 0.288-0.768 0.288-1.056 0l-3.904-3.904-3.872 3.904c-0.32 0.288-0.768 0.288-1.088 0l-1.408-1.408c-0.288-0.32-0.288-0.768 0-1.088l3.904-3.872-3.904-3.904c-0.288-0.288-0.288-0.768 0-1.056l1.408-1.408c0.32-0.288 0.768-0.288 1.088 0l3.872 3.904 3.904-3.904c0.288-0.288 0.768-0.288 1.056 0l1.408 1.408c0.288 0.288 0.288 0.768 0 1.056z"></path>
</svg>
