<svg xmlns="http://www.w3.org/2000/svg" viewBox="0 0 32 32"><path d="M11.942 2.706c-3.592 0-6.529 2.934-6.529 6.526a6.55 6.55 0 0 0 6.529 6.529c3.592 0 6.526-2.937 6.526-6.529s-2.934-6.526-6.526-6.526zm9.398.177a1.116 1.116 0 0 0-.206 2.195c.924.237 1.743.772 2.328 1.526s.904 1.683.904 2.637-.319 1.88-.904 2.634-1.404 1.29-2.328 1.526a1.116 1.116 0 0 0 .555 2.163c1.404-.36 2.649-1.175 3.538-2.32a6.53 6.53 0 0 0 0-8.006 6.53 6.53 0 0 0-3.538-2.323 1.116 1.116 0 0 0-.349-.032zm-9.398 2.055c2.386 0 4.294 1.908 4.294 4.294s-1.908 4.297-4.294 4.297a4.28 4.28 0 0 1-4.297-4.297c0-2.386 1.911-4.294 4.297-4.294zM6.529 18.942A6.53 6.53 0 0 0 0 25.471v2.706a1.116 1.116 0 1 0 2.233 0v-2.706c0-1.14.453-2.232 1.259-3.038s1.898-1.259 3.038-1.259h10.823c1.14 0 2.232.453 3.038 1.259s1.259 1.898 1.259 3.038v2.706a1.116 1.116 0 1 0 2.233 0v-2.706a6.53 6.53 0 0 0-1.91-4.616 1.116 1.116 0 0 0-.003 0 6.53 6.53 0 0 0-4.616-1.913zm20.288.177a1.116 1.116 0 0 0-.27 2.195c.922.238 1.737.777 2.32 1.529s.9 1.676.901 2.628v2.706a1.116 1.116 0 1 0 2.233 0v-2.706a1.116 1.116 0 0 0 0-.003c-.001-1.446-.483-2.851-1.369-3.994a6.52 6.52 0 0 0-3.526-2.32 1.116 1.116 0 0 0-.288-.035z"/></svg>
