<svg xmlns="http://www.w3.org/2000/svg" width="32" height="32" viewBox="0 0 32 32"><path d="M27.884 8.295a1.778 1.778 0 0 0-1.31 3.014 6.76 6.76 0 0 1 1.87 4.69 6.76 6.76 0 0 1-1.87 4.69 1.778 1.778 0 1 0 2.556 2.472c1.845-1.91 2.87-4.485 2.87-7.162a10.31 10.31 0 0 0-2.87-7.162 1.778 1.778 0 0 0-1.245-.542zm-8.75-6.935a1.778 1.778 0 0 0-1.88.218L8.523 8.633H1.778A1.778 1.778 0 0 0 0 10.411v11.176a1.778 1.778 0 0 0 1.778 1.778h6.745l8.732 7.056a1.778 1.778 0 0 0 2.894-1.384V2.962a1.778 1.778 0 0 0-1.014-1.602zm-2.542 5.324v18.63l-6.324-5.111a1.778 1.778 0 0 0-1.116-.394H3.555v-7.62h5.597a1.778 1.778 0 0 0 1.116-.394z"/></svg>
