<svg width="20" height="20" fill="none" xmlns="http://www.w3.org/2000/svg"><g clip-path="url(#clip0_2190_21621)"><path d="M20 10c0 5.52-4.48 10-10 10S0 15.52 0 10 4.48 0 10 0s10 4.48 10 10z" fill="#FFCE00"/><path d="M6.49 13.534c-.3-.047-.508.3-.3.53.877 1.017 2.263 1.687 3.81 1.687 1.547 0 2.933-.67 3.81-1.686.208-.231 0-.578-.3-.531-1.039.161-2.24.253-3.487.253-1.293 0-2.471-.092-3.533-.254zm8.452-3.42a.296.296 0 0 1-.23-.092c-.878-.877-1.756-.092-1.848 0a.351.351 0 0 1-.462 0 .351.351 0 0 1 0-.462c.485-.485 1.663-1.085 2.771 0 .139.139.139.324 0 .462-.046.07-.138.092-.23.092zM7.23 9.492c0 .762-.462 1.386-1.063 1.386-.577 0-1.062-.624-1.062-1.386 0-.762.462-1.386 1.062-1.386.6.024 1.063.624 1.063 1.386zm-3.35-1.177c-.184-.023-.3-.139-.276-.3.046-.693.37-1.34.877-1.802a2.826 2.826 0 0 1 1.871-.716.28.28 0 0 1 .277.277.28.28 0 0 1-.277.277c-.554 0-1.085.185-1.478.555-.393.37-.647.877-.693 1.432-.023.161-.138.277-.3.277zm11.41-.23c-.07 0-.116-.024-.185-.07-.762-.623-1.547-.693-2.263-.185a.272.272 0 0 1-.393-.069.272.272 0 0 1 .07-.393c.923-.67 2.008-.577 2.955.208a.288.288 0 0 1 .047.393c-.07.07-.162.115-.231.115z" fill="#562912"/></g><defs><clipPath id="clip0_2190_21621"><path fill="#fff" d="M0 0H20V20H0z"/></clipPath></defs></svg>