<?xml version="1.0" encoding="UTF-8" standalone="no"?>
<!DOCTYPE svg PUBLIC "-//W3C//DTD SVG 1.1//EN" "http://www.w3.org/Graphics/SVG/1.1/DTD/svg11.dtd">
<svg width="100%" height="100%" viewBox="0 0 24 24" version="1.1" xmlns="http://www.w3.org/2000/svg" xmlns:xlink="http://www.w3.org/1999/xlink" xml:space="preserve" xmlns:serif="http://www.serif.com/" style="fill-rule:evenodd;clip-rule:evenodd;stroke-linejoin:round;stroke-miterlimit:2;">
    <g id="Artboard1" transform="matrix(1.2,0,0,1.2,0,0)">
        <rect x="0" y="0" width="20" height="20" style="fill:none;"/>
        <clipPath id="_clip1">
            <rect x="0" y="0" width="20" height="20"/>
        </clipPath>
        <g clip-path="url(#_clip1)">
            <g transform="matrix(1.06271,0,0,1.06271,-0.625265,-0.708539)">
                <path d="M4.85,0.926C4.678,0.958 4.513,1.04 4.38,1.174C4.029,1.525 4.029,2.095 4.38,2.446L6.716,4.783C6.837,4.904 6.932,5.047 6.998,5.205C7.063,5.363 7.097,5.532 7.097,5.703C7.097,5.874 7.063,6.044 6.998,6.202C6.932,6.36 6.836,6.503 6.716,6.624C6.595,6.745 6.451,6.841 6.293,6.906C6.135,6.972 5.966,7.005 5.795,7.005C5.624,7.005 5.455,6.972 5.297,6.906C5.139,6.841 4.996,6.745 4.875,6.624C4.875,6.624 2.539,4.288 2.539,4.288C2.253,4.002 1.822,3.949 1.482,4.128C1.209,4.209 0.979,4.418 0.883,4.708C0.544,5.736 0.496,6.838 0.747,7.892L0.747,7.892C0.998,8.945 1.536,9.907 2.302,10.672C3.069,11.437 4.032,11.973 5.086,12.222C5.976,12.432 6.9,12.429 7.784,12.217L11.572,16.005C11.612,16.08 11.664,16.151 11.728,16.214L14.063,18.55C14.353,18.84 14.697,19.068 15.077,19.223C15.456,19.377 15.862,19.454 16.274,19.45C16.682,19.446 17.088,19.363 17.467,19.203C17.844,19.043 18.188,18.812 18.479,18.522L18.479,18.521C18.77,18.231 19.001,17.887 19.16,17.51L19.16,17.509C19.32,17.13 19.404,16.725 19.408,16.316L19.408,16.316C19.412,15.905 19.334,15.498 19.18,15.12C19.026,14.74 18.797,14.395 18.508,14.106L17.94,13.538C17.901,13.47 17.853,13.406 17.795,13.349L12.147,7.7C12.319,6.852 12.3,5.973 12.09,5.129L12.09,5.129C11.841,4.128 11.331,3.212 10.612,2.472L10.612,2.472C9.894,1.733 8.992,1.197 7.999,0.919C7.006,0.641 5.957,0.631 4.959,0.89C4.921,0.9 4.885,0.912 4.85,0.926ZM7.026,2.548L7.988,3.51C8.276,3.798 8.505,4.14 8.661,4.516L8.661,4.516C8.817,4.893 8.897,5.296 8.897,5.703L8.897,5.703C8.897,6.111 8.817,6.514 8.661,6.89L8.661,6.89C8.505,7.267 8.276,7.609 7.988,7.897L7.988,7.897C7.7,8.185 7.358,8.413 6.982,8.569L6.982,8.569C6.606,8.725 6.202,8.805 5.795,8.805C5.388,8.805 4.984,8.725 4.608,8.569L4.608,8.569C4.232,8.413 3.89,8.185 3.602,7.897L2.391,6.686C2.401,6.95 2.436,7.215 2.498,7.475C2.671,8.203 3.044,8.869 3.574,9.398L3.574,9.398C4.104,9.927 4.77,10.298 5.499,10.47L5.499,10.47C6.161,10.626 6.85,10.612 7.503,10.431C7.853,10.19 8.337,10.225 8.649,10.537L14.774,16.662C14.838,16.725 14.89,16.796 14.93,16.872L15.336,17.278C15.456,17.397 15.598,17.491 15.755,17.555L15.755,17.555C15.914,17.62 16.085,17.652 16.257,17.65C16.432,17.649 16.605,17.613 16.767,17.544L16.768,17.544C16.931,17.475 17.08,17.375 17.206,17.249C17.332,17.123 17.433,16.974 17.502,16.81C17.57,16.648 17.606,16.474 17.608,16.299C17.61,16.127 17.577,15.956 17.513,15.798C17.449,15.641 17.355,15.498 17.235,15.379L14.899,13.042C14.842,12.985 14.794,12.921 14.755,12.854L10.628,8.727C10.549,8.647 10.485,8.553 10.439,8.45L10.436,8.442C10.281,8.225 10.223,7.942 10.303,7.667C10.502,6.982 10.516,6.256 10.343,5.564C10.171,4.872 9.818,4.238 9.321,3.727C8.824,3.215 8.201,2.844 7.514,2.652L7.514,2.652C7.353,2.607 7.19,2.572 7.026,2.548Z"/>
            </g>
        </g>
    </g>
</svg>
