<!-- Generated by IcoMoon.io -->
<svg version="1.1" xmlns="http://www.w3.org/2000/svg" viewBox="0 0 32 32">
<title>menu-automation</title>
<path d="M29.344 16.672c0-7.744-6.272-14.016-14.016-14.016-7.712 0-13.984 6.272-13.984 14.016 0 7.712 6.272 13.984 13.984 13.984 7.744 0 14.016-6.272 14.016-13.984zM26.656 16.672c0 6.24-5.056 11.328-11.328 11.328-6.24 0-11.328-5.088-11.328-11.328 0-6.272 5.088-11.328 11.328-11.328 6.272 0 11.328 5.056 11.328 11.328zM8.32 15.68v0.992c0.032 1.408 0.448 2.816 1.248 3.968 0.832 1.184 1.952 2.048 3.296 2.56 0 0 0 0 0 0 1.312 0.512 2.784 0.608 4.16 0.256 1.376-0.32 2.624-1.056 3.552-2.112 0.384-0.416 0.352-1.056-0.064-1.44-0.416-0.352-1.056-0.32-1.408 0.096-0.704 0.736-1.568 1.28-2.56 1.536 0 0 0 0 0 0-0.992 0.224-2.016 0.16-2.976-0.192s-1.76-0.992-2.336-1.824c-0.576-0.864-0.896-1.824-0.896-2.848 0 0 0-0.992 0-0.992 0-0.544-0.448-0.992-0.992-0.992-0.576 0-1.024 0.448-1.024 0.992zM22.336 17.664v-1.024c0-1.408-0.448-2.784-1.248-3.968-0.8-1.152-1.952-2.048-3.264-2.56-1.344-0.48-2.784-0.576-4.16-0.256-1.376 0.352-2.624 1.088-3.552 2.144-0.384 0.416-0.352 1.024 0.064 1.408 0.416 0.352 1.056 0.32 1.408-0.064 0.672-0.768 1.568-1.312 2.56-1.536 0 0 0 0 0 0 0.992-0.256 2.016-0.16 2.976 0.192 0 0 0 0 0 0 0.928 0.352 1.76 0.992 2.336 1.824 0 0 0 0 0 0 0.576 0.832 0.864 1.824 0.864 2.848 0 0 0 0.992 0 0.992 0 0.544 0.448 0.992 1.024 0.992 0.544 0 0.992-0.448 0.992-0.992zM21.6 15.872l-0.384 0.544c0 0-0.416-0.544-0.416-0.544-0.448-0.608-1.28-0.704-1.888-0.288-0.576 0.448-0.704 1.28-0.256 1.888l1.504 1.984c0.256 0.352 0.672 0.544 1.088 0.544s0.8-0.224 1.056-0.544l1.44-2.016c0.448-0.608 0.288-1.44-0.288-1.856-0.608-0.416-1.44-0.288-1.856 0.288zM6.912 15.872c-0.288 0.416-0.32 0.96-0.096 1.408s0.672 0.704 1.184 0.704h2.944c0.512 0 0.96-0.256 1.184-0.736 0.224-0.448 0.192-0.992-0.128-1.376l-1.504-2.016c-0.256-0.32-0.64-0.544-1.056-0.512-0.448 0-0.832 0.192-1.088 0.544l-1.44 1.984z"></path>
</svg>
