<!-- Generated by IcoMoon.io -->
<svg version="1.1" xmlns="http://www.w3.org/2000/svg" viewBox="0 0 35 32">
<title>building</title>
<path d="M17.696 7.104v-7.104h-17.696v32h35.36v-24.896h-17.664zM7.072 28.448h-3.52v-3.552h3.52v3.552zM7.072 21.344h-3.52v-3.552h3.52v3.552zM7.072 14.208h-3.52v-3.552h3.52v3.552zM7.072 7.104h-3.52v-3.552h3.52v3.552zM14.144 28.448h-3.52v-3.552h3.52v3.552zM14.144 21.344h-3.52v-3.552h3.52v3.552zM14.144 14.208h-3.52v-3.552h3.52v3.552zM14.144 7.104h-3.52v-3.552h3.52v3.552zM31.84 28.448h-14.144v-3.552h3.52v-3.552h-3.52v-3.552h3.52v-3.584h-3.52v-3.552h14.144v17.792zM28.288 14.208h-3.52v3.584h3.52v-3.584zM28.288 21.344h-3.52v3.552h3.52v-3.552z"></path>
</svg>
