<!-- Generated by IcoMoon.io -->
<svg version="1.1" xmlns="http://www.w3.org/2000/svg" viewBox="0 0 32 32">
<title>checklists</title>
<path d="M26.656 4h-21.312c-1.472 0-2.688 1.184-2.688 2.656v18.688c0 1.44 1.216 2.656 2.688 2.656h21.312c1.472 0 2.688-1.216 2.688-2.656v-18.688c0-1.472-1.216-2.656-2.688-2.656zM26.656 25.344h-21.312v-18.688h21.312v18.688zM25.888 13.888l-1.888-1.888-4.224 4.224-1.888-1.888-1.888 1.888 3.776 3.776 6.112-6.112zM13.344 9.344h-6.688v2.656h6.688v-2.656zM13.344 14.656h-6.688v2.688h6.688v-2.688zM13.344 20h-6.688v2.656h6.688v-2.656z"></path>
</svg>
