<!-- Generated by IcoMoon.io -->
<svg version="1.1" xmlns="http://www.w3.org/2000/svg" viewBox="0 0 32 32">
<title>menu-marketing</title>
<path d="M27.008 3.68h-22.016c-1.824 0-3.328 1.472-3.328 3.328 0 0 0 12.992 0 12.992 0 1.824 1.504 3.328 3.328 3.328h22.016c1.824 0 3.328-1.504 3.328-3.328v-12.992c0-1.856-1.504-3.328-3.328-3.328zM27.008 6.336c0.352 0 0.672 0.288 0.672 0.672 0 0 0 12.992 0 12.992 0 0.352-0.32 0.672-0.672 0.672 0 0-22.016 0-22.016 0-0.352 0-0.672-0.32-0.672-0.672v-12.992c0-0.384 0.32-0.672 0.672-0.672 0 0 22.016 0 22.016 0zM8.288 29.376l1.984-7.008c0.224-0.704-0.192-1.44-0.896-1.664-0.704-0.192-1.44 0.224-1.664 0.928l-1.984 7.008c-0.224 0.704 0.192 1.44 0.896 1.632 0.704 0.224 1.472-0.192 1.664-0.896zM26.272 28.64l-1.984-7.008c0.192 0.704-0.224 1.44-0.928 1.664-0.096 0-0.224 0.032-0.32 0.032h-0.064c-0.544 0-1.056-0.352-1.248-0.896v-0.064l1.984 7.008 2.56-0.736zM17.344 25.984v-4h-2.688v4h2.688zM17.344 4.992v-1.984h-2.688v1.984h2.688z"></path>
</svg>
