<!-- Generated by IcoMoon.io -->
<svg version="1.1" xmlns="http://www.w3.org/2000/svg" viewBox="0 0 32 32">
<title>menu-reports</title>
<path d="M23.008 1.664h-14.016c-2.368 0-4.32 1.952-4.32 4.32 0 0 0 20 0 20 0 2.4 1.952 4.352 4.32 4.352h14.016c2.4 0 4.32-1.952 4.32-4.352v-20c0-2.368-1.92-4.32-4.32-4.32zM23.008 4.32c0.928 0 1.664 0.768 1.664 1.664 0 0 0 20 0 20 0 0.928-0.736 1.696-1.664 1.696 0 0-14.016 0-14.016 0-0.896 0-1.664-0.768-1.664-1.696v-20c0-0.896 0.768-1.664 1.664-1.664h14.016zM11.008 19.328h4.992c0.736 0 1.344-0.608 1.344-1.344s-0.608-1.312-1.344-1.312h-4.992c-0.736 0-1.344 0.576-1.344 1.312s0.608 1.344 1.344 1.344zM11.008 14.336h10.048c0.704-0.032 1.28-0.64 1.28-1.344 0-0.736-0.608-1.312-1.344-1.312h-9.984v2.656zM20.992 9.344v-2.688h-9.984v2.688h9.984z"></path>
</svg>
