<svg xmlns="http://www.w3.org/2000/svg" data-name="Layer 1" viewBox="0 0 250 250"><path d="M218.32 142.36c-.08.57-.16 1.42 0 0zM191.13 188.78l.29-.33c-.61.62-.52.55-.29.33zM160.19 212.23c.39-.17 1.3-.7 0 0zM177.72 202.08a4.56 4.56 0 01.54-.39c-.72.39-.72.47-.54.39zM36 99.31l-.12.27-.09.21v.1c.21-.47.21-.62.21-.58z"/><path d="M213 132c-15.52-.41-31-.57-46.56-.31-9.71.16-19.41.4-29.12.16-5.71-.14-11.41-.41-17.1-.76l-.81-66.91-.25-20.69a6.33 6.33 0 00-2.7-5 6.15 6.15 0 00-4.07-1.68 92 92 0 00-54.51 15.6 7 7 0 00-2.32 2.66 99.83 99.83 0 00-31.2 41.17 101.69 101.69 0 00-7.26 50.25 95.23 95.23 0 006.9 26.34 92.09 92.09 0 0013.7 22.32C49 209 64.21 219.45 80.86 225.87a99.79 99.79 0 0054 4.95q3.35-.63 6.63-1.5a90.25 90.25 0 0047.4-20.93 81.72 81.72 0 0027.21-47 131.31 131.31 0 001.67-13.41c.13-1.63.26-3.25.43-4.87 0-.39.1-.78.14-1.16 0 .18 0 .33-.05.46v-.2c.11-.68.25-1.37.41-2a6 6 0 00.13-.74A5 5 0 00219 138a6.12 6.12 0 00-6-6zm-7.44 18.47c-.07.81-.15 1.62-.24 2.42l-.15 1.26c0 .15 0 .3-.05.44a84.23 84.23 0 01-2.65 12.06 74.5 74.5 0 01-1.09 3.29 25.93 25.93 0 01-1.42 3.74c.14-.3.36-.84 0 0l-.39.9c-.22.49-.44 1-.67 1.46-.45.94-.92 1.87-1.4 2.8-1 1.79-2 3.54-3.07 5.24-.53.82-1.08 1.64-1.64 2.44l-.86 1.2-.44.59.07-.06s-.07.08-.11.11l-.29.33c-1.23 1.33-2.3 2.87-3.53 4.2q-2.06 2.25-4.27 4.34a80.523 80.523 0 01-4.75 4.12l-.3.24h.05-.07l-.26.21a1.61 1.61 0 01-.28.18c-.19.15-.38.32-.57.46-.85.62-1.7 1.23-2.57 1.82a84.73 84.73 0 01-10.76 6.23c-1 .48-2 .95-3 1.39-.22.1-.48.18-.69.29h.09l-1.55.61q-3.21 1.22-6.5 2.18t-6.84 1.66c-1.08.21-2.18.4-3.27.57l-.63.09-1.65.19a5.72 5.72 0 00-1.28.18l-.66.16c-2 .51-3.92 1-5.9 1.33-1 .2-2.1.38-3.16.54l-.59.09c-.51 0-1 .12-1.53.18a90.44 90.44 0 01-13 .48c-2.07-.07-4.15-.21-6.22-.41l-1.63-.18-.44-.06c-1.07-.15-2.13-.31-3.2-.5a95.93 95.93 0 01-12.14-3q-3-.94-6-2.08c-.9-.34-1.78-.74-2.68-1.08 1.8.68 0 0-.38-.17l-1.47-.67a99.21 99.21 0 01-11-6q-2.64-1.65-5.18-3.48c-.77-.55-1.52-1.14-2.29-1.69l-.32-.26-1.38-1.11a95.93 95.93 0 01-9-8.45q-2-2.17-3.94-4.49l-1-1.22-.21-.27c-.64-.85-1.27-1.7-1.89-2.57a87.07 87.07 0 01-6.23-10.26c-.88-1.72-1.67-3.48-2.46-5.24l-.18-.46c-.18-.43-.35-.86-.51-1.3-.37-1-.73-2-1.06-3a85.21 85.21 0 01-3.05-11.75c-.18-1-.35-1.94-.49-2.91-.07-.44-.24-2.34-.06-.3 0-.52-.13-1-.19-1.55-.22-2-.38-4-.47-6.06a95 95 0 01.22-12.17c.08-.93.17-1.86.27-2.78.05-.46.11-.91.16-1.37 0-.17.05-.33.07-.5.3-2 .66-4 1.08-6a99.66 99.66 0 013.25-11.78c.65-1.89 1.36-3.74 2.11-5.59 0 .1-.09.2-.15.33.07-.14.13-.28.19-.43.07-.17.18-.41.2-.45l.44-1c.43-1 .88-1.9 1.34-2.84a95.64 95.64 0 016-10.6q1.68-2.55 3.52-5l.12-.15.11-.15.87-1.08c.66-.81 1.34-1.61 2-2.4a87.47 87.47 0 018.63-8.59c.71-.61 1.42-1.21 2.14-1.79.36-.29.76-.56 1.1-.87-1.4 1.28.1-.08.45-.34A7.26 7.26 0 0065.15 62a85.12 85.12 0 0110.42-5.84c.52-.25 1-.49 1.57-.72.3-.14 2.06-1 .55-.25a31.57 31.57 0 013.22-1.26c2-.75 4.09-1.43 6.17-2s4.18-1.12 6.29-1.56c1.13-.23 2.27-.44 3.4-.63l1.71-.27h.08l.47-.06c2.73-.32 5.47-.5 8.22-.56l.81 67.77q.14 10.34.25 20.69c0 3.14 2.74 6.15 6 6a6.63 6.63 0 001.94-.39c11.31.74 22.62 1.21 33.95 1.11 10.8-.09 21.6-.41 32.4-.4 7.85 0 15.7.11 23.54.29l-.18 2c-.12 1.53-.24 3.08-.38 4.58z"/><path d="M233.18 108.85a7.8 7.8 0 00.12-3.45 105.65 105.65 0 00-21.57-48.93 105.11 105.11 0 00-73.24-39 4.79 4.79 0 00-2.66.59h-.26c-3.18.15-6.1 2.64-6 6 .41 14.7 1 29.39 1.73 44.07.44 9 .9 18 .9 27.07 0 4.64-.12 9.27-.32 13.9a5 5 0 00-.33 2 6.24 6.24 0 004.23 5.74 5.1 5.1 0 002 .34 5.4 5.4 0 00.58-.08l69.77-.31 19.39-.08c3.14 0 6.15-2.75 6-6a6.73 6.73 0 00-.34-1.86zM156.94 105l-12.92.06q.31-10.56 0-21.12c-.35-10.6-1-21.19-1.44-31.78q-.48-11.2-.81-22.4h.32c.52.09 1 .15 1.56.23q3.15.49 6.26 1.2a98 98 0 0112.23 3.6c1 .35 1.92.72 2.88 1.1.28.11.57.21.85.33-.24-.1-.37-.15.18.09l.95.41c1.94.87 3.86 1.79 5.74 2.77a99.59 99.59 0 0110.89 6.61q1.19.83 2.34 1.68l1 .74.74.59q2.49 2 4.84 4.15a97.25 97.25 0 018.7 9.11c.61.73 1.21 1.48 1.8 2.22l-.07-.1c.11.16.24.32.37.48l1.09 1.47q1.85 2.55 3.54 5.2a97.82 97.82 0 016 10.85c.49 1 1 2.07 1.41 3.11v-.09c0 .08.07.16.1.25v.06a1.16 1.16 0 01.06.15l.12.29c.23.56.45 1.13.67 1.7.85 2.21 1.63 4.45 2.32 6.72a97.94 97.94 0 012.47 10z"/><path d="M203.12 64.8l-.12-.15c.68.99.32.4.12.15zM215.48 86l-.09-.21a1.11 1.11 0 00-.07-.16c.35 1.06.28.72.16.37z"/></svg>

