<svg xmlns="http://www.w3.org/2000/svg" data-name="Layer 1" viewBox="0 0 250 250"><path d="M226.24 157.81c-5.84-5.37-13.55-7.84-21.26-8.9-4.08-.57-8.17-.9-12.28-1.07-1.71-.07-3.41-.13-5.12-.25-.86-.06-1.72-.14-2.58-.22l-1.21-.13-.53-.06a50.83 50.83 0 01-9.94-2.37c-.34-.12-.69-.29-1-.4l-.12-.06c-.78-.36-1.55-.76-2.3-1.19s-1.35-.85-2-1.3c-.32-.27-.63-.55-.94-.84-.55-.52-1-1.12-1.56-1.66-.27-.39-.53-.79-.77-1.2s-.38-.66-.56-1a3.54 3.54 0 01-.16-.34V136.8l-.12-.24c-.16-.32-.14-.59 0-.23-.22-.72-.51-1.42-.66-2.16 0-.24-.35-1.71-.13-.64s0-.39 0-.66a25.61 25.61 0 01.06-2.77c0-.15 0-.3.05-.4.08-.42.17-.84.27-1.27a25.94 25.94 0 01.89-2.84v-.12c.22-.45.44-.9.68-1.34.46-.84 1-1.63 1.52-2.43l-.2.21a3.89 3.89 0 00.32-.39 1.64 1.64 0 01.21-.23q.39-.48.81-.93a29.12 29.12 0 012.3-2.15h.05l.04-.21.08-.06.19-.16-.1.1c.38-.27.75-.53 1.14-.78a30.16 30.16 0 012.75-1.59l1.25-.61.24-.11c1-.38 2-.74 3-1a46.45 46.45 0 016-1.32h.34c.54-.06 1.07-.1 1.6-.14 1.25-.09 2.49-.14 3.74-.14a73.86 73.86 0 017.58.39l1.7.19h.42l.42.07c1.3.19 2.6.39 3.89.61 2.43.41 4.84.87 7.26 1.33 3.07.58 6.62-.86 7.38-4.2.67-3-.9-6.75-4.19-7.38-5.42-1-10.94-2.09-16.49-2.66l.94-17a6 6 0 00-6-6 6.13 6.13 0 00-6 6l-.93 16.82c-.64 0-1.28.11-1.92.19-9.26 1.12-18.5 4.35-25.1 11.23a28.91 28.91 0 00-7.72 25.62c1.65 7.89 7.75 14.28 14.95 17.52s15 4.42 22.9 4.84c3.63.2 7.26.28 10.88.63l2.35.26h.33l1.41.23a48 48 0 015.31 1.22c.82.24 1.64.51 2.44.81l.58.22.78.36q1 .51 2 1.11c.38.23.75.47 1.11.71l.25.18c.52.53 1.18 1 1.7 1.51.31.31.61.64.9 1l.18.22a23.47 23.47 0 011.33 2.12c.15.28.28.57.42.86s.15.43.23.65a18.93 18.93 0 01.64 2.57v.1c0 .49.08 1 .1 1.49a26.65 26.65 0 01-.08 2.68 1.36 1.36 0 000 .2c-.09.47-.17.95-.28 1.42a24.12 24.12 0 01-.68 2.45c-.13.39-.33.81-.45 1.22l-.18.38a23.22 23.22 0 01-1.32 2.4c-.22.36-.45.72-.69 1.07l-.31.42c-.61.68-1.2 1.38-1.86 2-.33.32-.66.63-1 .93s-1 1.12-1.35 1.13c0 0 1.19-.86.28-.23l-.48.34c-.42.3-.86.59-1.3.86-.89.56-1.8 1.07-2.73 1.54-.41.21-.82.4-1.24.59a.74.74 0 01-.15.08l-.23.09c-1 .37-2 .73-3 1a44.46 44.46 0 01-5.81 1.34s-.49 0-.7.09l-1.06.11c-1.06.1-2.11.16-3.17.18a61.44 61.44 0 01-7.43-.26l-1.68-.17-.9-.11c-1.24-.19-2.49-.38-3.73-.6-2.46-.44-4.92-1-7.36-1.53s-4.72-1.13-7.07-1.71c-3.05-.76-6.65 1-7.39 4.19a6.11 6.11 0 004.2 7.38 165 165 0 0022.41 4.31l-1.04 18.2a6 6 0 006 6 6.13 6.13 0 006-6l1-17.88a43.92 43.92 0 0021.59-6.81c7.43-4.84 13.18-12.4 14.65-21.28s-.72-18.03-7.48-24.22zm-24.1 2.72h.17zM198.65 198s-.01 0 0 0zm.38 0h-.3c.34 0 1.27-.11.27 0zm9.17-2.4a1 1 0 01-.33.12zm12.8-12.12z"/><path d="M163.81 136.79c-.06-.22-.11-.39-.14-.49.05.16.09.32.13.47zM166.49 121.49a.22.22 0 00-.05.08.61.61 0 00-.07.1c.41-.45.43-.51.33-.41a1.54 1.54 0 00-.17.19zM169.86 118.15c-.23.21-.26.37.32-.24l-.09.06zM98.63 28.68c-.38 0-1.19.18 0 0z"/><path d="M139.23 154.22q-20.92.08-41.85.22-16.26.1-32.52.22l-24.12.11c-1.28-2-2.49-4.13-3.6-6.27q-1.34-2.55-2.49-5.18c-.16-.35-.3-.71-.46-1 .76 1.62 0 0-.12-.33-.36-.88-.7-1.76-1-2.65a88.59 88.59 0 01-3.14-10.46c-.41-1.75-.78-3.52-1.08-5.3-.15-.86-.28-1.72-.41-2.58v-.06c-.06-.49-.12-1-.17-1.48a98.32 98.32 0 01.21-21.35 2 2 0 010-.26c.06-.43.13-.85.2-1.28.15-.9.31-1.81.49-2.71.34-1.75.74-3.48 1.19-5.21a88.36 88.36 0 013.3-10.15c.16-.4.32-.8.49-1.2v-.06c.37-.84.75-1.69 1.14-2.52.77-1.62 1.58-3.22 2.45-4.79a84.75 84.75 0 015.92-9.28c.26-.36.53-.71.79-1.06l.06-.08c.58-.74 1.18-1.47 1.79-2.2 1.18-1.39 2.4-2.75 3.66-4.06a86 86 0 018-7.31l.93-.74.2-.15c.74-.55 1.48-1.1 2.24-1.63q2.19-1.53 4.46-2.94a88.58 88.58 0 019.57-5.1l1-.45c.37-.16 2-.77.26-.11.86-.33 1.7-.7 2.56-1 1.66-.63 3.33-1.22 5-1.75a91.89 91.89 0 0110.42-2.74c.85-.16 1.7-.3 2.55-.44l1.28-.19.54-.08-.34.06c1.78-.22 3.56-.38 5.34-.49a90.34 90.34 0 0110.79 0q2.8.16 5.6.49l.44.06 1 .13c.93.15 1.86.3 2.79.48A91.87 91.87 0 01135.31 32c1.79.56 3.55 1.18 5.3 1.84 2.94 1.12 6.71-1.24 7.38-4.19.78-3.42-1-6.19-4.19-7.38A96.29 96.29 0 0055 33.13a91.92 91.92 0 00-30.1 35.61 95.84 95.84 0 00-9.09 45.31 97.78 97.78 0 0013.6 45.23c1 1.68 2.07 3.32 3.17 4.94 1.62 2.35 4.74 3.73 7.44 2.55q20-.08 40-.21 16.26-.1 32.52-.22 13.32-.08 26.65-.12a6 6 0 000-12z"/><path d="M117.15 90.07a4.32 4.32 0 00-1.9.25 20.82 20.82 0 00-4.32 2.24 12.79 12.79 0 00-2.56.29 11.6 11.6 0 00-6 3.35 13.65 13.65 0 00-10.2 8.45c-.07.18-.15.37-.22.56-2.08 5.62.65 11.69 5.33 15a12.83 12.83 0 007.41 2.29 13.48 13.48 0 008.28-3.2 12.76 12.76 0 004.54-7.64 14.5 14.5 0 002.81-4A14.45 14.45 0 00123 103a10.28 10.28 0 00.45-1.94c.11-.13.22-.26.34-.38.65-.73 1.32-1.44 2-2.14 3.44-3.52 7-6.93 10.52-10.38l22-21.63a6 6 0 00-8.52-8.53l-22.71 22.36c-3.25 3.19-6.74 6.33-9.93 9.71zm-12.53 19.32zm0-.08zm.08-.45zm0 0zM104.62 109.36z"/></svg>

