<svg xmlns="http://www.w3.org/2000/svg" viewBox="0 0 43 43"><path d="M15 29.002h14V31H15v-1.998zm12.972-12.001c0-1.592-.63-3.118-1.753-4.243a5.98 5.98 0 0 0-8.467 0 6.005 6.005 0 0 0-1.754 4.243c0 4.497 5.987 11 5.987 11s6.002-6.503 6.002-11h-.015zm-9.977 0c0-1.06.42-2.078 1.169-2.828a3.984 3.984 0 0 1 5.643-.001 4.006 4.006 0 0 1 1.168 2.829c0 2.13-2.074 5.458-3.99 7.91-1.9-2.441-3.975-5.79-3.975-7.91h-.015zM22 14.999a1.997 1.997 0 0 0-1.845 1.236c-.151.366-.19.768-.114 1.156a2.004 2.004 0 0 0 1.569 1.573 1.998 1.998 0 0 0 1.8-3.376 2.003 2.003 0 0 0-1.41-.589z"></path></svg>
