<svg xmlns="http://www.w3.org/2000/svg" xmlns:xlink="http://www.w3.org/1999/xlink" xmlns:serif="http://www.serif.com/" width="100%" height="100%" viewBox="0 0 43 43" xml:space="preserve" style="fill-rule:evenodd;clip-rule:evenodd;stroke-linejoin:round;stroke-miterlimit:2;">
    <g transform="matrix(1.86318,0,0,1.86318,-18.5584,-18.5596)">
        <path d="M31.41,14.6C24.891,16.13 18.105,16.13 11.586,14.6L11,16.898C13.294,17.481 15.633,17.869 17.994,18.06L17.994,33L20.33,33L20.33,26.093L22.666,26.093L22.666,32.987L24.997,32.987L24.997,18.061C27.36,17.876 29.702,17.491 32,16.911L31.41,14.599L31.41,14.6ZM21.498,14.6C21.96,14.6 22.412,14.464 22.796,14.211C23.18,13.958 23.48,13.599 23.656,13.179C23.833,12.759 23.879,12.296 23.788,11.849C23.697,11.402 23.474,10.991 23.148,10.672C22.474,10.017 21.471,9.821 20.601,10.176C20.174,10.351 19.81,10.646 19.554,11.026C19.298,11.403 19.161,11.848 19.162,12.304C19.164,12.913 19.412,13.496 19.849,13.926C20.287,14.356 20.879,14.598 21.498,14.599L21.498,14.6Z"></path>
    </g>
</svg>
