<svg xmlns="http://www.w3.org/2000/svg" xmlns:xlink="http://www.w3.org/1999/xlink" viewBox="0 0 250 250"><defs><path id="a" d="M0-1h250v250H0z"/></defs><clipPath id="b"><use xlink:href="#a" overflow="visible"/></clipPath><path d="M159-274.9c0-13.4-9.9-24.4-22.4-26.8v-45.7c6.5-1 12.4-3.5 17.4-7.5l34.8 34.8c-1.5 2.5-2.5 6-2.5 8.9 0 9.9 8 17.9 17.9 17.9s17.9-8 17.9-17.9c0-9.9-8-17.9-17.9-17.9-3.5 0-6.5 1-8.9 2.5l-34.8-34.8c5-6 7.5-13.9 7.5-22.4s-3-15.9-7.5-22.4l43.7-43.7c5 4.5 11.4 7 18.4 7 14.9 0 27.3-12.4 27.3-27.3-1-14.4-12.9-26.3-28.3-26.3-14.9 0-27.3 11.9-27.3 27.3 0 4.5 1 8.9 3.5 12.9L153.6-412c-6-5-13.9-7.5-22.4-7.5-8.4 0-15.9 3-22.4 7.5L74-446.8c1.5-2.5 2.5-6 2.5-8.9 0-9.9-8-17.9-17.9-17.9s-17.9 8-17.9 17.9c0 9.9 8 17.9 17.9 17.9 3.5 0 6.5-1 8.9-2.5l34.8 34.8c-5 6-7.5 13.9-7.5 22.4s3 15.9 7.5 22.4L45.6-304c-5-4.5-11.4-7-18.4-7C12.4-311.1 0-299.2 0-283.8 0-268.9 11.9-257 27.3-257c14.9 0 27.3-11.9 27.3-26.8 0-4.5-1-8.9-3.5-12.9l58.2-58.2c5 4 10.9 6.5 17.4 7.5v45.7c-12.9 2-22.4 13.4-22.4 26.8M59.1-446.8c-4.9 0-8.9-3.9-8.9-8.8v-.1c0-4.9 3.9-8.9 8.8-8.9h.1c4.9 0 8.9 3.9 8.9 8.8v.1c.1 4.8-3.8 8.8-8.9 8.9.1 0 .1 0 0 0zM27.8-265.9c-9.9 0-17.9-8-17.9-17.9 0-9.9 8-17.9 17.9-17.9s17.9 8 17.9 17.9c0 9.4-7.9 17.9-17.9 17.9zm176-54.2c4.9 0 8.9 4 8.9 8.9s-4 8.9-8.9 8.9-8.9-4-8.9-8.9c-.1-4.9 3.9-8.9 8.9-8.9zm-54.2 44.7c0 9.9-8 17.9-17.9 17.9s-17.9-8-17.9-17.9c0-9.9 8-17.9 17.9-17.9s17.9 8 17.9 17.9zm-17.9-81c-14.9 0-27.3-11.9-27.3-27.3 0-14.9 12.4-27.3 27.3-27.3s27.3 11.9 27.3 27.3c-.5 14.9-12.4 27.3-27.3 27.3zm90-94.9c-9.9 0-17.9-8-17.9-17.9 0-9.9 8-17.9 17.9-17.9 9.9 0 17.9 8 17.9 17.9.5 9.9-7.5 17.9-17.9 17.9zm-51.7 327c0 24.9-19.4 45.2-44.7 45.2C100.4-79 80-98.4 80-123.8c0-24.9 19.4-45.2 44.7-45.2 24.4 0 44.8 19.4 45.3 44.7zm-8.5.5c0-5-1-9.9-3-14.4-6-12.9-15.9-20.9-29.8-22.9-7.5-1-14.9.5-21.9 4-14.9 8-21.9 23.9-18.9 40.3 1.5 7 5 13.4 9.9 18.4.5.5 1 .5 1.5 0 1-2 2.5-3.5 4-5 3.5-3.5 7.5-4.5 12.4-4.5h16.9c1.5 0 3 0 4.5.5 5.5 1.5 9.4 4 11.9 8.9.5 1 .5 1 1.5.5 7.6-6.9 11-15.8 11-25.8zm-36.7 24.4h-9.4c-4.2 0-8 2.8-8.9 7 0 .5 0 1 .5 1 3.9 2.4 8.3 4 12.9 4.5 7.5 1 14.4-.5 21.4-4 1.5-1 1.5-1 1-2.5-1.5-3.5-4.5-6-8.4-6h-9.1zm87.9 49.2c-12.9 0-22.4-9.9-22.9-21.9-.5-13.9 10.4-23.9 22.9-23.4 12.9 0 22.4 9.9 22.9 21.9 0 13.5-10.5 23.4-22.9 23.4zm-14.9-23.4c0 8 6 14.9 14.4 14.9 8 0 15.4-6 15.4-14.9 0-7.5-6.5-14.4-14.4-14.4-8.1 0-14.9 6.3-15.4 14.4zM59.6-174c-.5 13.4-10.9 22.4-22.9 22.4-12.9 0-23.4-10.9-22.4-24.4 1-11.9 10.4-21.4 22.9-21.4 13 .1 22.4 11 22.4 23.4zm-7.9 0c0-8-6-14.9-14.4-14.9-8 0-15.4 6-15.4 14.9 0 7.5 6.5 14.4 14.4 14.4 8.1.1 14.9-6.2 15.4-14.4zm161 22.4c-12.9 0-23.4-10.4-22.4-23.9.5-11.9 10.4-21.4 22.9-21.4 12.9 0 23.4 10.4 22.9 23.9-1.5 11.5-11 21.4-23.4 21.4zm-14.9-22.9c0 8.4 7 14.9 14.9 14.4 8 0 14.4-7 14.4-14.4 0-8.9-7-15.4-14.9-14.9s-14.4 7-14.4 14.9zM101.9-22.4c0-12.9 9.9-22.9 22.9-22.9s22.9 9.9 22.9 22.9m-8 .5c-.5-8.9-7-14.9-14.9-14.9-8.2 0-14.9 6.7-14.9 14.9M124.8-248c12.4.5 22.9 9.9 22.9 22.9s-9.9 22.9-22.9 22.9-22.9-9.9-22.9-22.9 10.4-22.4 22.9-22.9zm0 37.3c8.4 0 14.4-6.5 14.9-14.4 0-8-6.5-14.4-14.4-14.9-8.2 0-14.9 6.7-14.9 14.9-.1 7.9 6.4 14.4 14.4 14.4zm-88 114.8c12.4 0 23.4 9.9 22.9 23.9-.5 11.4-9.9 21.9-22.4 21.9S13.9-60 14.4-74c0-11.5 9.5-21.4 22.4-21.9zm14.9 22.8c0-8.4-7-14.4-14.9-14.4s-14.4 7-14.4 14.4c0 8.9 7 15.4 14.9 14.9s14.4-6.9 14.4-14.9zm8.9-83c6 3.5 11.4 7 17.4 9.9h1c1.5-2 2.5-4 3.5-6l-.5-.5-17.4-9.9c-.5 0-1 0-1 .5-1 1.6-2.5 3.5-3 6-.5-.5 0-.5 0 0zm109.9 9.5c.5 1 1 1 1.5.5 5.5-3 10.9-6.5 16.4-9.4.5 0 .5-.5 1-.5-1-2-2.5-4-3.5-6-.5-1-1-1-2-.5-4 2.5-8.4 5-12.4 7.5-1.5 1-3 2-5 3 1.6 1.5 2.9 3.4 4 5.4zM63.6-85.5c.5 1 1 1 2 .5 5.5-3 10.4-6 15.9-9.4.5-.5 1-.5 1.5-1-1-2-2.5-4-3.5-5.5-.5-1-1-1-2-.5-4 2.5-8.4 5-12.4 7.5-1.5 1-3 2-5 3 1 1.9 2.5 3.9 3.5 5.4zM172-92c4 2.5 8.4 5 12.4 7.5.5.5 1 .5 1.5 0 1-2 2.5-4 3.5-6.5 0 0-.5 0-.5-.5l-17.4-9.9c-.5 0-1 0-1 .5-1 2-2.5 4-3.5 6 1.5 1 3 2 5 2.9zm-51.2-84c0 .5 0 1 1 1h6c.5 0 1-.5 1-1v-19.4c0-.5-.5-1-1-1h-5.5c-1 0-1.5.5-1.5 1.5v18.9zm7.9 104.4c0-1 0-1-1-1h-6c-1 0-1 .5-1 1v19.4c0 1 .5 1 1 1h5.5c1 0 1.5-.5 1-1.5v-9.4c.5-3.5.5-6.5.5-9.5zM173-216.2c-1 1.5-2 3.5-3 5.5-.5.5 0 1 .5 1.5 2 1 3.5 2 5.5 3 .5.5 1 .5 1.5-.5 1-1.5 2-3.5 3.5-5v-1c-2-1.5-4.5-2.5-6.5-4h-.5c-.5 0-1 0-1 .5zM78.5-37.8c-2-1-3.5-2-5.5-3-.5-.5-1-.5-1.5.5-1 1.5-2 3.5-3 5-.5.5-.5 1 .5 1.5 2 1 4 2.5 6 3.5.5.5 1 .5 1.5-.5 1-2 2-3.5 3-5.5 0 0 0-.5.5-.5-.5-.5-1-1-1.5-1zm78.6 13.9s.5.5 1 0c2-1 4.5-1.5 6.5-2.5 1-.5 1-1 .5-1.5-1-2-1.5-3.5-2.5-5.5 0-.5-.5-1-1-.5-2 1-4 1.5-6.5 2.5-.5 0-.5.5-.5.5 1 2.6 1.5 5 2.5 7zM72.6-206.3c2.5-1.5 4.5-2.5 6.5-3.5 0 0 .5-1 0-1-1-2-2-3.5-3-5.5-.5-.5-.5-1-1.5-.5-2 1-4 2.5-6 3.5-.5.5-.5 1-.5 1.5 1 1.5 2 3.5 3.5 5 .5 0 .5.5 1 .5zm19.8-17.4s-.5-.5-1 0c-2 1-4.5 1.5-6.5 2.5-1 .5-1 1-.5 1.5 1 2 1.5 4 2.5 5.5 0 .5 1 .5 1 .5 2-.5 4-1.5 6.5-2.5h1c-1.5-3-2-5.5-3-7.5zm-71 121.3c0 .5.5.5 1 .5l6-1.5c.5 0 1-.5.5-1-.5-2-.5-4.5-1-6.5 0-.5-.5-.5-1-.5-2 0-4.5.5-6.5 1-.5 0-.5.5-.5.5 1 3 1 5 1.5 7.5zm206.7-34.8c1 0 1.5-.5 1-1.5-.5-2-1-4.5-1-6.5 0-1-.5-1-1.5-1-2 .5-4 1-5.5 1.5-1 0-1 .5-1 1.5.5 2 1 4 1 6 0 1 .5 1.5 1 1 2.6-.5 4-.5 6-1zm-51.2 95.9c-.5 0-.5 0 0 0-2.5 1.5-4.5 2.5-6 3.5-.5 0-.5 1-.5 1 1 2 2 3.5 3 5.5.5.5 1 1 1.5.5 2-1 4-2.5 6-3.5.5-.5 1-1 .5-1.5-1-1.5-2-3.5-3-5-1 0-1-.5-1.5-.5 0-.5 0 0 0 0zm-14.4-172.9c1-2 1.5-4 2.5-6 0 0 0-1-.5-1-2.5-1-4.5-2-7-2.5 0 0-1 0-1 .5-.5 2-1.5 4.5-2 6.5 0 0 0 .5.5.5 2 1 4.5 1.5 6.5 2.5.5-.5 1-.5 1-.5zm28.4 17.9c1.5-1.5 3-3.5 4.5-5v-1c-2-1.5-3.5-3-5.5-4.5-.5-.5-1-.5-1.5 0-1 1.5-2.5 3.5-4 5-.5.5-.5 1 0 1.5 1.5 1.5 3.5 3 5 4h1.5c-.5 0-.5 0 0 0zM65.1-46.7c-1.5-1.5-3.5-2.5-5-4-.5-.5-1-.5-1.5 0-1.5 1.5-2.5 3-4 4.5-.5.5-.5 1 0 1.5 2 1.5 3.5 3 5 4.5.5.5 1 .5 1.5 0 1-1.5 2.5-3 3.5-5l.5-.5v-1zm123.3 5.9h1c2-1.5 3.5-3 5.5-4.5.5-.5.5-1 0-1.5-1.5-1.5-3-3-4-4.5 0 0-1-.5-1 0-2 1.5-4 3-6 5 1.5 2.1 3 4 4.5 5.5zm-94 11c0-.5 0-1-.5-1.5-2-.5-4-1.5-6-2.5-.5 0-1 0-1 .5-1 2-1.5 4-2.5 6 0 0 0 1 .5 1 2.6 1.1 5.3 2.1 8 3 .5-2.6 1-4.5 1.5-6.5zM60.1-207.3c-2 1.5-4 3-6 5v1c1.5 1.5 3 3 4 4.5.5.5 1 .5 1.5 0 1.5-1.5 3.5-3 5-4 .5-.5.5-1 0-1.5-1-1.5-2.5-3-3.5-5l-.5-.5c0 .5-.5.5-.5.5zm161.1 97.5c0 2-.5 4-1 6 0 .5 0 1 1 1.5l6 1.5c.5 0 1 0 1-1 .5-2.5.5-4.5 1-7 0-1 0-1-1-1.5-2 0-3.5-.5-5.5-.5-1-.5-1.5 0-1.5 1zM28.3-137.2c.5-2 1-4.5 1-6.5 0-.5 0-1-1-1l-6-1.5c-.5 0-1 0-1 1-.5 2.5-.5 4.5-1 7 0 1 0 1 1 1.5 2 0 3.5.5 6 .5l1-1zm-8.9 16.9c0 .5 0 1 1 1h6c1 0 1-.5 1-1v-6.5c0-1-.5-1-1-1h-6c-1 0-1 .5-1 1v6.5zm210.7-6.9c0-1-.5-1-1-1h-5.5c-1 0-1 .5-1 1v6c0 1 0 1 1 1h6c.5 0 1 0 1-1v-3.5c-.5-.1-.5-1.1-.5-2.5zm-105.3-21.4c9.9 0 17.4 8 17.4 17.4s-8 17.4-17.4 17.4c-9.9 0-17.4-8-17.4-17.4s7.4-17.4 17.4-17.4zm0 7.9c-5.1.2-9.3 4.3-9.4 9.4.2 5.1 4.3 9.3 9.4 9.4 5.5 0 9.4-4.5 9.4-9.4a9.8 9.8 0 00-9.4-9.4zm82 161.6c-9 .1-16.3 7.4-16.4 16.4.1 9 7.4 16.3 16.4 16.4 9-.1 16.3-7.4 16.4-16.4-.1-9.1-7.4-16.4-16.4-16.4zm0 41.7c-13.6.1-24.7-10.8-24.9-24.4v-.5c0-13.9 11.4-24.9 24.9-24.9 13.6-.1 24.7 10.8 24.9 24.4v.5c-.1 13.5-11 24.9-24.9 24.9zm-166 132.7c-9 .1-16.3 7.4-16.4 16.4.1 9 7.4 16.3 16.4 16.4 9-.1 16.3-7.4 16.4-16.4-.1-9-7.4-16.3-16.4-16.4zm0 41.8c-13.6.1-24.7-10.8-24.9-24.4v-.5c0-13.9 11.4-24.9 24.9-24.9s24.9 10.9 24.9 24.9-11.5 24.9-24.9 24.9zm0-194.9c-1 0-2-.5-3-1-1.5-1.5-1.5-4.5 0-6C71.1 2.5 123.3-8.5 168 8.4c2 1 3 3 2.5 5.5-1 2-3 3-5.5 2.5-41.7-15.9-90.5-6-121.3 24.9-.5.4-1.5.9-2.9.9zM5.5 115.8H5c-2.5-.5-4-2.5-3.5-4.5C4 89.5 12.4 68.1 25.3 50.2c1.5-2 4-2.5 6-1s2.5 4 1 6C20.1 72 12.4 91.7 9.9 112.3c-.5 2-2.4 3.5-4.4 3.5zm12.4 70.1c-1.5 0-3-1-3.5-2.5C8 171 4 158 2 144.6c-.4-2 .9-4 2.9-4.4.2 0 .4-.1.6-.1 2-.4 4 .9 4.4 2.9 0 .2.1.4.1.6 2 12.9 5.5 24.9 11.4 36.3 1 2 .5 4.5-2 5.5-.5.5-1 .5-1.5.5zM88.5 244h-1c-11.9-3.5-22.9-8.4-32.8-15.4-2-1.5-2.5-4-1-6s4-2.5 6-1c9.4 6.5 19.9 10.9 30.3 14.4 2.1.7 3.4 2.8 3 5-1.1 2-2.5 3-4.5 3zm33.8 5h-4.5c-2.5 0-4-2-4-4.5s2-4 4.5-4c16.4.5 33.3-2.5 48.7-8.4 2-1 4.5 0 5.5 2.5 1 2 0 4.5-2.5 5.5-14.9 5.9-31.3 8.9-47.7 8.9zm69.5-21.4c-1.5 0-2.5-.5-3.5-2-1.5-2-1-4.5 1-6 13.9-9.4 25.8-22.4 34.3-36.8 1-2 3.5-2.5 5.5-1.5s2.5 3.5 1.5 5.5c-8.9 15.4-21.9 29.3-36.8 39.3-.5 1-1.5 1.5-2 1.5zm47.3-64.6h-1c-2.1-.7-3.4-2.8-3-5 4.5-15.4 6-31.3 4-47.2-.4-2 .9-4 2.9-4.4.2 0 .4-.1.6-.1 2-.4 4 .9 4.4 2.9 0 .2.1.4.1.6 2 16.9.5 34.3-4.5 50.7-.1 1.5-2 2.5-3.5 2.5zm-2-74.5c-1.5 0-3.5-1-4-3-4-10.9-9.4-20.9-15.9-29.8-1.5-2-1-4.5 1-6s4.5-1 6 1c7.5 9.9 12.9 20.9 17.4 32.3 1 2-.5 4.5-2.5 5.5h-2zm-42.8 85.9c-1 0-1.5 0-2-.5-2-1-2.5-4-1.5-6 21.4-34.3 14.4-80.5-16.4-105.4-2-1.5-2-4-.5-6s4-2 6-.5c34.3 27.3 42.2 78.5 18.4 116.3-1 1.7-2.5 2.1-4 2.1zm-50.7 35.8c-2 0-3.5-1.5-4-3.5-.5-2.5 1-4.5 3-5 11.4-2.5 22.4-7.5 31.3-14.9 2-1.5 4.5-1 6 .5 1.5 2 1 4.5-.5 6-9.9 8-21.9 13.4-34.8 16.4-.5.5-.5.5-1 .5zm-96.4-56.6c-2 0-3.5-1-4-3-3.5-11.9-5-24.9-3-37.3.5-2.5 2.5-4 4.5-3.5 2.5.5 4 2.5 3.5 4.5-1.5 11.4-.5 22.9 3 33.8.5 2-.5 4.5-3 5 0 .5-.5.5-1 .5zm5-62.2c-.5 0-1 0-2-.5-2-1-3-3.5-2-5.5 7-14.4 18.4-26.8 32.3-35.3 2-1 4.5-.5 5.5 1.5s.5 4.5-1.5 5.5C72.1 64.6 61.6 76 55.2 89c0 1.9-1.5 2.4-3 2.4zm136.2 37.8H63.6c-2.5 0-4-2-4-4 0-2.5 2-4 4-4h124.8c2.5 0 4 2 4 4-.1 2-2 4-4 4zm-62.7-62.6c-15.4 0-30.3 6-41.3 16.9s-16.9 25.3-16.9 41.3c0 15.4 6 30.3 16.9 41.3C95.3 177 109.7 183 125.7 183c15.4 0 30.3-6 41.3-16.9 10.9-10.9 16.9-25.3 16.9-41.3 0-15.4-6-30.3-16.9-41.3-10.9-10.9-25.8-16.9-41.3-16.9zm0 124.7c-17.9 0-34.3-7-47.2-19.4-12.4-12.4-19.4-29.3-19.4-47.2s7-34.3 19.4-47.2c12.4-12.4 29.3-19.4 47.2-19.4s34.3 7 47.2 19.4c12.4 12.4 19.4 29.3 19.4 47.2 0 17.9-7 34.3-19.4 47.2-12.4 12.5-29.3 19.4-47.2 19.4zm-39.2-23.8c10.9 9.9 24.9 15.4 39.3 15.4 14.9 0 28.8-5.5 39.3-15.4-8.9-2.5-22.9-5.5-39.3-5.5s-30.4 3-39.3 5.5zm39.2 23.8c-17.9 0-34.3-7-47.2-19.4-1-1-2-2.5-3-3.5s-1-2.5-1-4c.5-1.5 1.5-2.5 2.5-3 8.4-3 26.3-8 48.2-8s39.8 5 48.2 8c1.5.5 2.5 1.5 2.5 3 .5 1.5 0 3-1 4s-2 2.5-3 3.5c-11.4 12.5-28.3 19.4-46.2 19.4zM86.5 82c8.9 2.5 22.9 5.5 39.3 5.5s30.3-3 39.3-5.5c-10.9-9.9-24.9-15.4-39.3-15.4S97.4 72.1 86.5 82zm39.2 13.9c-21.9 0-39.8-5-48.2-8C76 87.5 75 86.5 75 85c-.5-1.5 0-3 1-4s2-2.5 3-3.5c12.4-12.4 29.3-19.4 47.2-19.4s34.3 7 47.2 19.4c1 1 2 2.5 3 3.5s1 2.5 1 4c-.5 1.5-1.5 2.5-2.5 3-9.4 2.9-27.3 7.9-49.2 7.9zm4.5-25.3v108.3c1.5-1.5 3.5-3 5.5-5 13.4-13.4 20.9-30.8 20.9-49.2s-7.5-35.8-20.9-49.2c-2-1.5-4-3.4-5.5-4.9zm-4.5 120.7c-.5 0-1.5 0-2-.5-1.5-.5-2-2-2-3.5V62.6c0-1.5 1-3 2-3.5 1.5-.5 3-.5 4.5 0 4.5 3 8.4 6 12.9 10.9 14.9 14.9 23.4 34.3 23.4 55.2 0 20.4-8.4 40.3-23.4 55.2-5 5-8.9 8-12.9 10.9h-2.5zm-3.9-120.7c-1.5 1.5-3.5 3-5.5 5-13.4 13.4-20.9 30.8-20.9 49.2s7.5 35.8 20.9 49.2c2 2 3.5 3.5 5.5 5V70.6zm3.9 120.7c-1 0-1.5 0-2-.5-4.5-3-8.4-6-12.9-10.9-14.9-14.9-23.4-34.3-23.4-55.2 0-20.4 8.4-40.3 23.4-55.2 4.5-4.5 8.9-8 12.9-10.9 1.5-1 3-1 4.5 0 1.5.5 2 2 2 3.5v124.8c0 1.5-1 3-2 3.5-1 .9-1.5.9-2.5.9zM120.8-52c0 .5 0 1 1 1h6c.5 0 1-.5 1-1v-19.4c0-.5-.5-1-1-1h-5.5c-1 0-1.5.5-1.5 1.5V-52z" clip-path="url(#b)"/><path d="M128.7 196.3v-19.4" fill="#2587d9"/></svg>

