<svg xmlns="http://www.w3.org/2000/svg" data-name="Layer 1" viewBox="0 0 250 250"><path d="M184.52 93a6.71 6.71 0 01-1.32 9.38 741.89 741.89 0 00-68.37 58.3 6.69 6.69 0 01-9.12.17c-6.52-5.85-10.93-10.56-15.19-15.12s-8.27-8.85-14.35-14.3a6.7 6.7 0 019-10C91.63 127.3 96 132 100.3 136.57c3.1 3.32 6.07 6.5 9.81 10.09a756.72 756.72 0 0165-55 6.71 6.71 0 019.41 1.34zM217 162.46c-15.18 37.21-45.34 65.3-80.68 75.14a44.38 44.38 0 01-11.91 1.92 27.43 27.43 0 01-3.12-.17l-1-.13a43.07 43.07 0 01-12.44-3c-.7-.26-1.39-.54-2.08-.81-.41-.16-.78-.3-1.13-.45-34.54-14.12-62.45-44.22-73.3-79.31-10-32.38-11.38-51.48-11-83.4v-.62c-.18-4.29-.24-14.77 3.17-19.56a20.72 20.72 0 019.88-7.13C65.7 33.27 83.62 26.4 119.9 11a6.68 6.68 0 016.63.81 6.41 6.41 0 012.14.33 700.36 700.36 0 0195.48 39.22 6.67 6.67 0 013.66 5.27c4.54 42.31 1.01 76.93-10.81 105.83zm-2.13-100.75a687.42 687.42 0 00-90.37-36.83 6.85 6.85 0 01-1.42-.67C87.89 39.11 69.88 46 38 57.53a8 8 0 00-3.37 2.11 22.85 22.85 0 00-.75 5.09 6 6 0 01.07 1c-.64 35.36.1 53 10.27 85.92 9.66 31.23 34.49 58.05 65.24 70.73h.11l.24.1 1 .38a79.2 79.2 0 0010.89 2.93h.76a6.58 6.58 0 011.89.23 32.17 32.17 0 008.47-1.42c31.37-8.74 58.24-33.9 71.87-67.3 10.69-26.25 13.96-56.74 10.18-95.59z"/></svg>

