<svg xmlns="http://www.w3.org/2000/svg" viewBox="0 0 43 43"><path d="M21.597 12.266a.563.563 0 0 1 .563.546v2.291h6.758v6.753h2.26a.57.57 0 0 1 .351.967.574.574 0 0 1-.351.162h-2.26v6.77h-2.376a5.294 5.294 0 0 0-1.948-2.46 5.298 5.298 0 0 0-5.998 0 5.294 5.294 0 0 0-1.948 2.46h-2.393v-2.4a5.306 5.306 0 0 0 3.385-4.943 5.297 5.297 0 0 0-3.385-4.943v-2.39h6.775V12.82a.555.555 0 0 1 .555-.562l.012.008zM21.585 10a2.822 2.822 0 0 0-2.823 2.82h-4.507a2.258 2.258 0 0 0-2.247 2.262v4.283h.33a3.05 3.05 0 0 1 2.939 3.047 3.053 3.053 0 0 1-2.939 3.048H12v4.286A2.257 2.257 0 0 0 14.255 32h4.295v-.337a3.042 3.042 0 0 1 3.047-3.046 3.05 3.05 0 0 1 3.048 3.046V32h4.273a2.256 2.256 0 0 0 2.26-2.254V25.24a2.822 2.822 0 1 0 0-5.641v-4.495a2.273 2.273 0 0 0-2.26-2.274H24.42a2.823 2.823 0 0 0-2.823-2.821L21.585 10z"></path></svg>
