<svg xmlns="http://www.w3.org/2000/svg" data-name="Layer 1" viewBox="0 0 250 250"><path d="M144.25 66.85c-.26-.17-.44-.24.43.34l-.1-.09zM39.67 109.72c.23-1.25.12-.84 0-.42v.22a1.36 1.36 0 000 .2z"/><path d="M69.58 175.32c-1-.62-2-1.27-2.91-1.94-.42-.3-.85-.61-1.26-.92-.24-.17-.46-.36-.7-.52l.11.07a64.74 64.74 0 01-5.19-4.61 68.87 68.87 0 01-4.7-5.11c-.34-.4-.67-.8-1-1.21l-.12-.15-.11-.15c-.1-.12-.19-.25-.3-.37a2.61 2.61 0 01.17.2c-.68-.92-1.35-1.84-2-2.79a76.28 76.28 0 01-6.67-12l-.21-.5c-.22-.54-.44-1.07-.64-1.61-.42-1.09-.81-2.19-1.18-3.29-.73-2.21-1.37-4.45-1.9-6.72s-.91-4.38-1.25-6.59v-.39c-.07-.58-.13-1.16-.18-1.73-.11-1.16-.19-2.32-.25-3.48q-.15-3.47 0-7c.06-1.16.14-2.31.26-3.46 0-.45.09-.9.15-1.34v.17c0-.12 0-.25.06-.37v-.2l.06-.44a66.34 66.34 0 013.51-13.3c.18-.49.38-1 .57-1.45.08-.19.16-.38.25-.57.48-1.07 1-2.14 1.53-3.19a69.13 69.13 0 013.56-6.12c.64-1 1.31-2 2-2.91l.76-1.12c.21-.25.41-.51.61-.76q2.23-2.74 4.73-5.27c1.66-1.64 3.35-3.18 5.11-4.69.41-.35.82-.69 1.24-1s2-1.31.46-.38c1-.61 1.91-1.42 2.88-2.09a77.08 77.08 0 0112.36-7c.45-.2 2.34-.82.52-.24.51-.16 1-.4 1.49-.6 1.15-.45 2.32-.87 3.5-1.27q3.36-1.12 6.81-1.93c1-.24 2.08-.46 3.12-.65.58-.11 1.16-.21 1.75-.3l.7-.11h.12c2.24-.26 4.48-.45 6.73-.51a67.08 67.08 0 017.09.2c.59 0 1.18.1 1.77.17l.61.07c1.13.17 2.27.35 3.4.58a67 67 0 016.83 1.75c1 .31 2 .65 3 1 .55.2 1.1.41 1.64.63l.66.26h.13a76.5 76.5 0 0112.09 6.67c.93.63 1.84 1.28 2.74 2l.15.12.18.13.15.12.22.17a.32.32 0 00-.12-.08c.47.37.94.74 1.4 1.13 1.81 1.51 3.56 3.1 5.22 4.77s3.19 3.34 4.66 5.1c.34.41.68.82 1 1.24l.37.47c.71.94 1.4 1.89 2.06 2.86A78.47 78.47 0 01166.2 95c.08.21.18.42.26.63l.51 1.32c.46 1.21.88 2.43 1.27 3.66a67 67 0 011.73 6.65c.23 1.1.42 2.2.59 3.31 0 .22.06.47.11.7v-.08l.18 1.65a6.44 6.44 0 001.75 4.24 6.1 6.1 0 004.25 1.76c3-.14 6.31-2.66 6-6A80.23 80.23 0 00117 42.32c.21-.59.4-1.19.56-1.8a16.17 16.17 0 00.57-5.62 12.67 12.67 0 00-1.79-5.77 13.09 13.09 0 00-4.21-4.13 10.38 10.38 0 00-5.56-1.53 9.41 9.41 0 00-2.78.46 11.31 11.31 0 00-3.61 2.07c-2.47 2-3.51 5.46-3.47 8.51a20.71 20.71 0 001.55 7.28q-.77.07-1.53.18c-20.42 2.68-39.82 13.14-52.8 29.25a74.39 74.39 0 00-14.39 28 71.92 71.92 0 00-1.5 7.49l-.61-.21a18.66 18.66 0 00-4.46-.81 8.07 8.07 0 00-1.39 0 12.8 12.8 0 00-2.81.47 12.23 12.23 0 00-4.34 2.56 13.36 13.36 0 00-1.6 1.92 6.18 6.18 0 00-.61 1 10.17 10.17 0 00-1.2 4.83 8.57 8.57 0 00.38 2.45 7.17 7.17 0 003.07 4.22 7.13 7.13 0 003.36.82h9.65c.15 2 .35 4 .64 6.07 2.79 19.59 13.13 38.65 28.77 50.93a79.2 79.2 0 006.63 4.75 6 6 0 008.21-2.15 6.14 6.14 0 00-2.15-8.24z"/><path d="M64.82 172c.31.26 1.26.86 0 0zM170.65 111.17v-.11c-.07-.45-.37-1.54 0 .11zM53.82 160.93c.2.24.39.42-.25-.33l.13.17zM127.05 146.92A36.88 36.88 0 00140.39 128a38.3 38.3 0 00-10.87-39.36 37.39 37.39 0 00-20.69-9.53 31.54 31.54 0 00-5.14-.21 37 37 0 00-21.25 8.2 38.11 38.11 0 00-12.08 17.51c-4.85 14.16-.27 31.26 11.51 40.65a38.19 38.19 0 0022.8 8.55 35.91 35.91 0 0022.38-6.89zm2.82-26.77c0-.12 0-.16 0 0zm-.1.75v-.18a1.1 1.1 0 000 .18zm-49.14-1v-.21c-.13-.56-.05-.11 0 .31zm15.93 20.27c-.3-.11-.62-.27-.94-.37h-.11c-.76-.35-1.5-.73-2.23-1.14s-1.34-.79-2-1.22q-.49-.31-1-.66l-.28-.21a30.46 30.46 0 01-3.34-3.18c-.25-.28-.49-.55-.72-.83l-.18-.21c-.41-.6-.85-1.17-1.24-1.78a31 31 0 01-2.12-3.93c-.11-.3-.23-.59-.34-.89-.26-.72-.49-1.46-.7-2.2s-.39-1.49-.54-2.25l-.2-1v-.12c0-1.43-.24-2.85-.21-4.3 0-.77.06-1.55.14-2.31v-.52l.09-.54a33 33 0 011.09-4.3c.11-.33.23-.66.35-1 0-.14.26-.67.34-.86v-.1c.17-.37.35-.73.53-1.09a32.78 32.78 0 012.2-3.7l.57-.8c.5-.59 1-1.18 1.52-1.75A35.11 35.11 0 0190.52 96l.7-.51c.67-.46 1.35-.89 2-1.3s1.21-.68 1.83-1l.92-.43a29.06 29.06 0 014.38-1.32q.52-.12 1-.21l.52-.09h.39l1.28-.09a37.52 37.52 0 014.5.14h.11l1.06.2c.76.16 1.5.35 2.24.56s1.35.42 2 .67l.47.19.52.23a31.84 31.84 0 013.94 2.25l.86.6.13.09c.5.43 1 .83 1.5 1.27a33.27 33.27 0 013.13 3.26l.39.49.16.21c.44.61.86 1.24 1.25 1.88a33.34 33.34 0 012.06 3.87c.12.3.23.6.34.9.25.7.47 1.41.67 2.12s.34 1.3.48 2c.08.38.16.77.22 1.16v.28c0 .2.06.52.07.63 0 .34.06.68.08 1 0 .73.06 1.47.06 2.21s0 1.36-.07 2l-.09 1v.26a34.67 34.67 0 01-.9 4c-.19.67-.41 1.33-.64 2-.09.25-.19.5-.29.75l-.1.22a30.49 30.49 0 01-2.22 4l-.61.87a.71.71 0 01-.1.14c-.45.52-.87 1.06-1.34 1.57s-1.1 1.14-1.68 1.67c-.28.25-.55.5-.84.74l-.41.33-.63.47-1 .67q-1.08.69-2.22 1.29c-.34.18-.69.35-1 .52l-.41.19-.84.33c-.42.16-.85.3-1.28.43a33.21 33.21 0 01-4.28 1h-.31c-.44 0-.88.08-1.33.1-.82.05-1.65.06-2.47 0s-1.52-.07-2.28-.14l-.35-.05-.88-.14a31.71 31.71 0 01-4.65-1.26zM168.42 136.59h-.73a2.39 2.39 0 00.73 0zM179.44 147.89c-.08-.55-.27-1.25 0 0zM163.18 162.18h.08l.42.14a3.79 3.79 0 00-.69-.26zM178.4 155.7a3.33 3.33 0 01.12-.58 1.48 1.48 0 00-.12.58zM174 161a2 2 0 01.56-.34.8.8 0 00-.56.34zM176.58 158.64a2.57 2.57 0 01.34-.52 1 1 0 00-.34.52z"/><path d="M181.81 170.71l1.43.61a6.16 6.16 0 003.19 0l1.44-.61a6 6 0 002.15-2.15l1.61-2.9a4.38 4.38 0 00.71-2.23 4.52 4.52 0 00-.11-2.39 4.47 4.47 0 00-1.07-2 4.61 4.61 0 00-.85-1 27.21 27.21 0 001.19-6.15l1.2-.51a6 6 0 002.15-2.15c.2-.48.4-.95.61-1.43a6.16 6.16 0 000-3.19c-.33-1-.65-1.94-1-2.9a6.69 6.69 0 00-2.76-3.59 4.48 4.48 0 00-2.23-.71 4.56 4.56 0 00-1.16-.11 23.08 23.08 0 00-1.42-2.21l.52-.68a5.94 5.94 0 00.82-3l-.21-1.59a6 6 0 00-1.55-2.65l-1.93-1.93a4.43 4.43 0 00-1.93-1.24 4.51 4.51 0 00-2.31-.52 4.46 4.46 0 00-2.3.52 4.38 4.38 0 00-1.93 1.24l-.71.9a24.73 24.73 0 00-3.86-1.13 6.37 6.37 0 00-.59-1.38c-.31-.4-.62-.81-.94-1.21a6 6 0 00-2.64-1.54q-1-.18-2-.27a3.09 3.09 0 00-.43 0 3 3 0 00-.43 0c-.58.07-1.17.14-1.75.23h-.23a2.85 2.85 0 00-.39.11l-.21.08c-.53.2-1.06.43-1.58.66a4 4 0 00-.77.45 4.45 4.45 0 00-1.68 1.54 4.58 4.58 0 00-1.08 2 5.3 5.3 0 00-.18.95 23.34 23.34 0 00-3.2 1.79 6 6 0 00-3-.82l-1.6.21a6 6 0 00-2.64 1.55l-3.16 3.32a4.62 4.62 0 00-1.24 1.93 6.17 6.17 0 001.24 6.55l.49.38a23.58 23.58 0 00-1 4.06l-.6.25a6.09 6.09 0 00-2.15 2.16l-.6 1.43a6 6 0 000 3.19l1 2.9a6.81 6.81 0 002.76 3.59 4.45 4.45 0 001.73.65 26.08 26.08 0 002 3.62 5 5 0 00-.71 1c-.2.48-.4 1-.61 1.44a6.16 6.16 0 000 3.19c.21.48.41.95.61 1.43a6 6 0 002.15 2.15l3.56 1.59a4.35 4.35 0 002.23.71 4.52 4.52 0 002.39-.1 7.3 7.3 0 002.57-1.52 24.27 24.27 0 004.29 1.28 6 6 0 001.44 2.38l1.22.93a5.84 5.84 0 003 .82l2.9-.3a4.51 4.51 0 002.31-.52 4.43 4.43 0 001.93-1.24 4.38 4.38 0 001.24-1.93 4.5 4.5 0 00.51-1.87 23.33 23.33 0 003.79-2.37c.1.07.22.17.36.25zM177 141.64a3.17 3.17 0 01-.22-.27s.15.11.22.27zm1.46 13.88a1.09 1.09 0 00-.08.15.59.59 0 000 .13v-.1c-.07.15-.15.31-.23.46-.25.48-.52 1-.81 1.4a4.48 4.48 0 01-.41.53c.06 0 .05.08-.14.29l-.2.23a.59.59 0 00-.06.14v-.11c-.16.18-.31.37-.48.55-.37.39-.75.77-1.15 1.13l-.37.31h-.07l-.15.14c-.31.26-.43.27-.41.2-.21.16-.41.34-.55.43-.46.28-.92.52-1.39.76-.2.07-.39.18-.57.24-.52.18-1 .33-1.58.46s-2 .19-.29.12c-.6 0-1.2.11-1.81.11a12.92 12.92 0 01-1.39-.05h-.24c-.85-.2-1.68-.41-2.5-.68.08.05-.16 0-.39-.11l-.11-.06c-.17-.06-.33-.14-.49-.19l.3.1-.86-.43a21.39 21.39 0 01-2.16-1.31l-.52-.37c-.39-.33-.79-.66-1.16-1l-.67-.67a1.54 1.54 0 01-.17-.19 1.29 1.29 0 01-.16-.17c0-.06-.09-.11-.13-.16a23.51 23.51 0 01-1.59-2.58l-.3-.62c-.2-.58-.41-1.14-.58-1.74s-.27-1.2-.41-1.8c0-.3-.05-.59-.07-.88a19.25 19.25 0 010-2v-.58-.25a17.06 17.06 0 01.51-2c.09-.28.18-.54.28-.81a23.84 23.84 0 011.66-2.9l.11-.14a2.25 2.25 0 01.25-.29c.38-.44.78-.86 1.21-1.27l.51-.47.54-.44.79-.52c.5-.31 1-.6 1.55-.86.12-.07.25-.12.37-.18l.17-.06a18.4 18.4 0 012.92-.75 17.26 17.26 0 012.49-.05.86.86 0 01.45 0h.53-.25c.47.1.94.19 1.41.32s.95.29 1.42.46l.21.08c.74.37 1.48.74 2.18 1.18.29.18.57.37.85.56l.35.26.11.09c.2.17.4.34.59.52l.62.6c.3.32.58.65.87 1v.05c.18.27.37.6.39.63.26.42.51.85.74 1.29a3.78 3.78 0 01.17.35c.1.41.36.9.47 1.28.17.53.3 1 .42 1.59s.15.93.25 1.38c0-.12 0-.22-.07-.32v.21a23.87 23.87 0 01.05 2.54c0 .53-.07 1.06-.11 1.58 0 .14 0 .27-.07.4s-.1.48-.16.71c-.13.53-.45 1.17-.64 1.76.38-.13.45-.04.25.39zM119.49 210h.08l.43.13a4.09 4.09 0 00-.7-.26zM134.72 203.55a2.66 2.66 0 01.13-.58 1.37 1.37 0 00-.13.58zM124.73 184.44H124a2.35 2.35 0 00.73 0zM132.9 206.49a2.57 2.57 0 01.34-.52c-.05.03-.24.17-.34.52zM135.76 195.74c-.08-.55-.28-1.25 0 0zM130.32 208.84a2 2 0 01.56-.34.78.78 0 00-.56.34z"/><path d="M150.8 189.56a6.66 6.66 0 00-2.75-3.58 4.53 4.53 0 00-2.23-.72 4.59 4.59 0 00-1.16-.1 26.24 26.24 0 00-1.42-2.22l.52-.67a6.09 6.09 0 00.82-3c-.08-.53-.15-1.07-.22-1.6a6 6 0 00-1.54-2.65l-1.93-1.93a4.56 4.56 0 00-1.94-1.24 4.46 4.46 0 00-2.31-.52 6.7 6.7 0 00-4.24 1.76l-.7.91a24.88 24.88 0 00-3.87-1.14 6.55 6.55 0 00-.58-1.37l-.94-1.22a6 6 0 00-2.65-1.54c-.65-.12-1.31-.21-2-.27a3.23 3.23 0 00-.44 0h-.43c-.58.07-1.17.14-1.74.24h-.23l-.39.11-.22.08c-.53.21-1 .43-1.57.66a3.7 3.7 0 00-.77.45 4.64 4.64 0 00-1.69 1.54 4.56 4.56 0 00-1.07 2 5.33 5.33 0 00-.19.95 22.66 22.66 0 00-3.19 1.79 6 6 0 00-3-.82l-1.59.22a6 6 0 00-2.65 1.54l-3.2 3.24a5.79 5.79 0 00-1.29 6.63 4.58 4.58 0 001.28 1.91l.49.37a24.68 24.68 0 00-1 4.07l-.59.25a6 6 0 00-2.18 2.17l-.61 1.43a6.16 6.16 0 000 3.19l1 2.9a6.69 6.69 0 002.76 3.62 4.41 4.41 0 001.72.65 25.68 25.68 0 002 3.63 4.43 4.43 0 00-.72 1l-.6 1.43a6 6 0 000 3.19l.6 1.43a6.12 6.12 0 002.16 2.16l3.55 1.58a4.49 4.49 0 002.23.72 4.62 4.62 0 002.39-.11 4.38 4.38 0 002-1.08 4.51 4.51 0 00.54-.44 25.34 25.34 0 004.28 1.29 6 6 0 001.45 2.37l1.21.94a6.09 6.09 0 003 .82l2.9-.31a4.56 4.56 0 002.31-.51 5.36 5.36 0 003.18-3.18 4.49 4.49 0 00.5-1.87 23 23 0 003.8-2.37c.13.09.24.2.38.28l1.44.6a6 6 0 003.19 0l1.43-.6a6.09 6.09 0 002.15-2.16l1.61-2.9a6.64 6.64 0 00.61-4.62 7.44 7.44 0 00-1.92-3 27.21 27.21 0 001.19-6.15l1.19-.5a6 6 0 002.16-2.16l.6-1.43a6 6 0 000-3.19c-.23-1.02-.55-1.98-.88-2.95zm-17.44-.07c-.12-.13-.23-.27-.23-.27s.12.11.23.27zm1.45 13.88a1.09 1.09 0 01-.08.15v.03l-.23.46c-.25.48-.52 1-.81 1.4a5.86 5.86 0 01-.41.53c.06 0 0 .08-.14.29s-.14.15-.2.23a.46.46 0 00-.07.14v-.11l-.48.55c-.37.39-.76.77-1.16 1.13l-.36.32h-.07a1.07 1.07 0 01-.16.14c-.31.26-.42.27-.4.2-.21.17-.42.34-.56.43-.45.28-.92.52-1.39.76-.19.08-.39.18-.56.24a14.46 14.46 0 01-1.59.46c-.54.13-2 .19-.28.12-.61 0-1.2.11-1.81.12s-.93 0-1.4-.05h-.24c-.85-.19-1.67-.41-2.49-.68.08.05-.17 0-.39-.11l-.12-.06-.49-.19.3.1c-.29-.14-.57-.27-.86-.43a21.79 21.79 0 01-2.16-1.31l-.52-.37c-.39-.33-.78-.66-1.15-1s-.46-.44-.68-.67l-.17-.18-.15-.18-.14-.16a23.3 23.3 0 01-1.58-2.57c-.11-.21-.2-.42-.31-.63-.2-.57-.41-1.14-.57-1.73s-.28-1.21-.41-1.81c0-.29-.06-.59-.07-.88a19 19 0 010-2v-.58-.26a19.94 19.94 0 01.52-2c.08-.27.18-.54.27-.81a21.89 21.89 0 011.67-2.89.92.92 0 01.11-.15l.24-.29c.39-.44.79-.86 1.21-1.27l.52-.47.53-.43.79-.53c.51-.31 1-.6 1.55-.86l.38-.18.16-.06a18.8 18.8 0 012.93-.75 17.26 17.26 0 012.49-.05.91.91 0 01.45 0h.52-.25c.48.1 1 .2 1.42.33s.95.28 1.41.45l.22.08c.74.37 1.47.75 2.18 1.19.28.17.56.36.84.55l.36.26.1.09c.21.17.4.35.6.53s.41.39.61.59.58.66.87 1l.39.63c.26.42.51.85.73 1.29l.18.35c.09.42.35.9.47 1.29s.3 1.05.42 1.58.15.93.25 1.39c0-.12-.05-.23-.07-.33a1.83 1.83 0 010 .21 23.93 23.93 0 01.06 2.54c0 .53-.07 1.06-.12 1.59 0 .13 0 .26-.07.4l-.15.71c-.13.52-.45 1.16-.64 1.75.4-.14.4.06.21.43zM221.72 200.55a2.66 2.66 0 01.13-.58 1.37 1.37 0 00-.13.58zM222.76 192.74c-.08-.55-.28-1.25 0 0zM217.32 205.84a2 2 0 01.56-.34.78.78 0 00-.56.34zM211.73 181.44H211a2.35 2.35 0 00.73 0zM219.9 203.49a2.57 2.57 0 01.34-.52c-.05.03-.24.17-.34.52zM206.49 207h.08l.43.13a4.09 4.09 0 00-.7-.26z"/><path d="M238.77 189.46c-.32-1-.64-1.93-1-2.9a6.66 6.66 0 00-2.75-3.58 4.53 4.53 0 00-2.23-.72 4.59 4.59 0 00-1.16-.1 26.24 26.24 0 00-1.42-2.22l.52-.67a6.09 6.09 0 00.82-3c-.08-.53-.15-1.07-.22-1.6a6 6 0 00-1.54-2.65l-1.93-1.93a4.56 4.56 0 00-1.94-1.24 4.46 4.46 0 00-2.31-.52 6.7 6.7 0 00-4.24 1.76l-.7.91a24.88 24.88 0 00-3.87-1.14 6.55 6.55 0 00-.58-1.37l-.94-1.22a6 6 0 00-2.65-1.54c-.65-.12-1.31-.21-2-.27a3.23 3.23 0 00-.44 0h-.43c-.58.07-1.17.14-1.74.24h-.23l-.39.11-.22.08c-.53.21-1.05.43-1.57.66a3.7 3.7 0 00-.77.45 4.64 4.64 0 00-1.69 1.54 4.56 4.56 0 00-1.07 2 5.33 5.33 0 00-.19.95 22.66 22.66 0 00-3.19 1.79 6 6 0 00-3-.82l-1.59.22a6 6 0 00-2.65 1.54l-3.2 3.24a5.79 5.79 0 00-1.24 6.56 4.58 4.58 0 001.24 1.93l.49.37a24.68 24.68 0 00-1 4.07l-.59.25a6 6 0 00-2.15 2.15l-.61 1.43a6.16 6.16 0 000 3.19l1 2.9a6.69 6.69 0 002.76 3.59 4.41 4.41 0 001.72.65 25.68 25.68 0 002 3.63 4.43 4.43 0 00-.72 1l-.6 1.43a6 6 0 000 3.19l.6 1.43a6.12 6.12 0 002.16 2.16l3.55 1.58a4.49 4.49 0 002.23.72 4.62 4.62 0 002.39-.11 4.38 4.38 0 002-1.08 4.51 4.51 0 00.54-.44 25.34 25.34 0 004.28 1.29 6 6 0 001.45 2.37l1.21.94a6.09 6.09 0 003 .82l2.9-.31a4.56 4.56 0 002.31-.51 5.36 5.36 0 003.18-3.18 4.49 4.49 0 00.5-1.87 23 23 0 003.8-2.37c.13.09.24.2.38.28l1.44.6a6 6 0 003.19 0l1.43-.6a6.09 6.09 0 002.15-2.16l1.61-2.9a6.64 6.64 0 00.61-4.62 7.44 7.44 0 00-1.92-3 27.21 27.21 0 001.19-6.15l1.19-.5a6 6 0 002.16-2.16l.6-1.43a6 6 0 00.08-3.14zm-18.41-3c-.12-.13-.23-.27-.23-.27s.12.14.23.3zm1.45 13.88a1.09 1.09 0 01-.08.15v.03l-.23.46c-.25.48-.52 1-.81 1.4a5.86 5.86 0 01-.41.53c.06 0 0 .08-.14.29s-.14.15-.2.23a.46.46 0 00-.07.14v-.11l-.48.55c-.37.39-.76.77-1.16 1.13l-.36.32h-.07a1.07 1.07 0 01-.16.14c-.31.26-.42.27-.4.2-.21.17-.42.34-.56.43-.45.28-.92.52-1.39.76-.19.08-.39.18-.56.24a14.46 14.46 0 01-1.59.46c-.54.13-2 .19-.28.12-.61 0-1.2.11-1.81.12s-.93 0-1.4-.05h-.24c-.85-.19-1.67-.41-2.49-.68.08.05-.17 0-.39-.11l-.12-.06-.49-.19.3.1c-.29-.14-.57-.27-.86-.43a21.79 21.79 0 01-2.16-1.31l-.52-.37c-.39-.33-.78-.66-1.15-1s-.46-.44-.68-.67l-.17-.18-.15-.18-.14-.16a23.3 23.3 0 01-1.58-2.57c-.11-.21-.2-.42-.31-.63-.2-.57-.41-1.14-.57-1.73s-.28-1.21-.41-1.81c0-.29-.06-.59-.07-.88a19 19 0 010-2c0-.2 0-.39.05-.58s0-.17 0-.26a19.94 19.94 0 01.52-2c.08-.27.18-.54.27-.81a21.89 21.89 0 011.67-2.89.92.92 0 01.11-.15l.24-.29c.39-.44.79-.86 1.21-1.27l.52-.47.53-.43.79-.53c.51-.31 1-.6 1.55-.86l.38-.18.16-.06a18.8 18.8 0 012.93-.75 17.26 17.26 0 012.49-.05.91.91 0 01.45 0h.52-.25c.48.1 1 .2 1.42.33s.95.28 1.41.45l.22.08c.74.37 1.47.75 2.18 1.19.28.17.56.36.84.55l.36.26.1.09c.21.17.4.35.6.53s.41.39.61.59.58.66.87 1l.39.63c.26.42.51.85.73 1.29l.18.35c.09.42.35.9.47 1.29s.3 1.05.42 1.58.15.93.25 1.39c0-.12-.05-.23-.07-.33a1.83 1.83 0 010 .21 23.93 23.93 0 01.06 2.54c0 .53-.07 1.06-.12 1.59 0 .13 0 .26-.07.4l-.15.71c-.13.52-.45 1.16-.64 1.75.35-.11.35.09.16.46z"/></svg>

