<svg xmlns="http://www.w3.org/2000/svg" data-name="Layer 1" viewBox="0 0 250 250"><path d="M110.43 99.72c-.06.14-.13.28-.19.43s0 .09 0 .14c.32-.61.29-.71.19-.57zM131.07 90.8a2.93 2.93 0 01-.65-.22c-.18-.01-.04.13.65.22zM119.32 120.53a3.17 3.17 0 01.41.21h.12c-.66-.37-.72-.34-.53-.21zM141.31 104.09V104c-.04-.53-.43-1.19 0 .09zM123.42 121.74c.45.06 1 .08 0 0zM134.5 118.65l.22-.17.15-.13c-.73.4-.62.47-.37.3zM134.94 93.2c.23.21.18.15 0 0zM137.9 96.1l-.09-.1c.52 1 .42.5.09.1zM110.27 111.65a2.81 2.81 0 00-.18-.68c.08.25.13.47.18.68zM109.13 107.56a3.94 3.94 0 01.14.7c.09.16.12-.04-.14-.7zM109.29 103.38c-.05.23-.08.46-.12.69a.22.22 0 000 .08c.13-.6.15-.79.12-.77z"/><path d="M159.85 141.69a35.23 35.23 0 00-15.95-7.39 83.15 83.15 0 00-12-1.33 25.4 25.4 0 008.92-4.15c9.28-6.81 14.68-18.34 11.68-29.82-3.18-12.17-15-21.52-27.6-21.46a5.81 5.81 0 00-1.85.33 9.31 9.31 0 00-2.4.08c-10.88 1.57-20.09 10.89-22.74 21.36A26.24 26.24 0 0099.17 116a30 30 0 0010.67 12.89 27 27 0 008.79 4 69.13 69.13 0 00-11.38 1.5c-10.81 2.43-21.25 8.82-26.27 19-5.52 11.17-4.82 23.84-3.57 35.88a6.5 6.5 0 001.76 4.24 6.09 6.09 0 004.24 1.76c3-.13 6.35-2.66 6-6a132.85 132.85 0 01-.91-14.52c0-1.14 0-2.27.1-3.41 0-.6.08-1.2.14-1.79a10.72 10.72 0 00.26-1.85c0-.15.05-.31.07-.46q.14-.77.3-1.53a36.61 36.61 0 011-3.56c.18-.55.37-1.1.58-1.64.09-.24.2-.48.29-.72l-.13.34a31.87 31.87 0 011.74-3.2c.32-.5.66-1 1-1.47l.06-.08a2.62 2.62 0 00.22-.25 29.26 29.26 0 012.46-2.52c.4-.36.81-.7 1.22-1l.63-.45a33.43 33.43 0 013-1.85c.46-.26.93-.5 1.41-.73.29-.14.59-.29.89-.42l.34-.19a.85.85 0 00-.15.09c-.79.52.19-.07.38-.15l.74-.28c.62-.23 1.25-.44 1.88-.64a39.1 39.1 0 017.29-1.65h.32l.94-.1c.63-.06 1.26-.12 1.9-.16 1.5-.12 3-.18 4.51-.21a124.75 124.75 0 0115.94.62l.78.09 1.77.29c1.23.23 2.44.5 3.64.84.6.17 1.19.35 1.77.55a6.86 6.86 0 011.74.65c-.09-.07-1.29-.6-.31-.12l.74.36c.62.31 1.22.64 1.81 1s.92.58 1.36.89l.27.19.19.16a24.94 24.94 0 012.6 2.54c.33.38.63.8 1 1.17-1.11-1.17-.08-.08.2.33a31 31 0 011.89 3.13c.3.58.59 1.16.86 1.74 0 .11.08.18.11.25s.17.45.18.47c.46 1.22.86 2.46 1.2 3.71s.62 2.55.84 3.84c0 .31.12.63.16 1v.32c.09.79.16 1.59.22 2.39.45 6.52-.16 13.05-.77 19.54-.29 3.14 3 6.14 6 6 3.5-.15 5.69-2.64 6-6 1.1-11.73 2-24.05-2.61-35.2-2.23-5.34-5.24-10.29-9.62-13.93zM88.9 168v-.13c-.03.4-.13.93 0 .13zm0-.43zm38.56-45.84s.06.02.05.02zm10.2-6.2c-.16.23-.12.16 0 0zM116 118.67l-.43-.31c-.41-.35-.83-.69-1.22-1.06a29.77 29.77 0 01-2-2.17.91.91 0 01-.11-.16c-.34-.47-.66-1-1-1.46s-.52-.9-.76-1.37c-.08-.14-.15-.29-.22-.44v-.03l-.08-.15c-.16-.34-.16-.6-.09-.5-.24-.72-.57-1.44-.74-2.17 0-.17-.06-.35-.09-.54a1.09 1.09 0 01-.12-.46v-.24a.65.65 0 000-.13.42.42 0 010 .1v-.43a21.15 21.15 0 01.06-3v.23l.06-.31a2.09 2.09 0 010-.25 1.13 1.13 0 01.11-.44c.11-.57.26-1.13.42-1.69s.31-.92.47-1.37l-.12.19a2.06 2.06 0 00.17-.33v-.14a1.09 1.09 0 01.15-.29c0-.07 0-.14.08-.2a24.59 24.59 0 011.77-3c.11-.17.23-.33.35-.49.38-.44.74-.88 1.14-1.29s.74-.75 1.12-1.11l.66-.58c.18-.15 1-.76.21-.2h-.06l.29-.2c.23-.17.47-.33.72-.49.48-.32 1-.62 1.49-.9s.9-.45 1.35-.67l.72-.25a20 20 0 013.58-.83h.19a6.15 6.15 0 00.87.06h2.04a24.36 24.36 0 012.89.71 5.72 5.72 0 01.55.22 1.12 1.12 0 01.45.13l.2.09a.45.45 0 00.11 0h-.08l.39.19a22.15 22.15 0 012.86 1.69 5.89 5.89 0 01.62.52l-.43-.41c.34.32.73.6 1.07.91a25.47 25.47 0 012.23 2.3l-.09-.16a6 6 0 00.42.57c.27.38.53.77.77 1.16s.54.9.79 1.36c.11.21.22.41.32.62s.26.61.32.75l.15.39q.25.74.45 1.5c.12.45.22.9.31 1.36a5.81 5.81 0 00.11.69 1.31 1.31 0 00-.05-.15 19.92 19.92 0 010 3.09v.27c-.1.52-.2 1-.34 1.57s-.24.89-.39 1.34c-.07.23-.53 1.33-.45 1.2-.12.26-.24.51-.28.58-.26.52-.55 1-.85 1.53s-.5.79-.76 1.18l-.19.26a10.33 10.33 0 00-1 1.13c-.4.43-.81.85-1.23 1.25s-.64.58-1 .86l.18-.1a2.19 2.19 0 00-.33.23l-.06.06-.16.11a25.27 25.27 0 01-2.68 1.64l-1.07.5-.7.25a22.27 22.27 0 01-2.76.69c-.21 0-.42.06-.6.07h-1.41c-.47 0-1 0-1.57-.07-.23 0-.46-.06-.69-.07h.41-.19a21.5 21.5 0 01-2.86-.76l-.52-.18.16.1a1.22 1.22 0 00-.28-.14 2 2 0 01-.39-.2c-.3-.14-.6-.26-.88-.41a24.27 24.27 0 01-2.45-1.35zm35.6 31.71zM158 159a1.1 1.1 0 01.1.24c-.1-.1-.1-.24-.1-.24z"/><path d="M91 160.13c-.14.33-.31.87 0 0zM246.24 136.25c-2.91-9.28-8.87-17.81-17.89-22-8.14-3.77-17-4.46-25.9-4.83a25.69 25.69 0 0013.07-4.84c9.29-6.82 14.69-18.35 11.69-29.83-3.18-12.17-15-21.51-27.61-21.45a5.74 5.74 0 00-1.84.32 9.89 9.89 0 00-2.41.09c-10.87 1.57-20.08 10.89-22.73 21.36a26.24 26.24 0 001.25 16.73 29.91 29.91 0 0010.67 12.89 27.17 27.17 0 0011.46 4.56 71 71 0 00-12.51.87 97.33 97.33 0 00-10.24 2.5 29.39 29.39 0 00-11.12 5.47 15.48 15.48 0 00-5.22 12.45c.12 3.13 2.67 6.15 6 6 3.15-.14 6.13-2.64 6-6v-1.28c.05-.23.09-.45.15-.67l.12-.39.43-.66.07-.08c.23-.24.48-.46.72-.68l.58-.38c.62-.38 1.25-.69 1.89-1l.76-.28c.7-.26 1.41-.49 2.13-.7 2.84-.85 5.75-1.6 8.63-2.25.54-.12 1.07-.23 1.61-.33l.91-.16.67-.09.67-.07q.9-.09 1.8-.15c2.34-.15 4.69-.15 7-.09 4.34.11 8.71.27 13 .65l1.65.16a5.42 5.42 0 011.4.16c-.23-.06-1.37-.19-.34 0l.61.09c.61.1 1.22.2 1.82.32a39.7 39.7 0 015.87 1.57l1 .4.49.23a25.71 25.71 0 012.81 1.56c.45.28.87.58 1.3.88l.21.18a26.5 26.5 0 012.1 2c.36.38.7.77 1 1.16l.24.32c.55.8 1.11 1.59 1.61 2.44s1 1.71 1.38 2.59l.43.95c.09.23.18.46.26.69a41.32 41.32 0 011.8 6.44c.13.67.24 1.34.34 2a1.94 1.94 0 010 .24v-.09c-.15-.89.05.46.07.64.14 1.36.24 2.72.29 4.08a144.89 144.89 0 01-.59 16.67c-.23 3.14 2.93 6.14 6 6a6.15 6.15 0 006-6c.94-10.46 1.62-21.25-1.56-31.36zm-77.32-7.53v-.06a2.36 2.36 0 01.18-.35 2.66 2.66 0 01-.18.41zm33.29-31.2zm10.2-6.19c-.16.23-.12.16 0 0zm-17.7 5.32c-.08-.05-.19-.09-.28-.14a1.29 1.29 0 01-.39-.2c-.3-.13-.61-.26-.88-.4a24.36 24.36 0 01-2.4-1.46c-.15-.09-.29-.2-.43-.3-.41-.35-.83-.7-1.22-1.07A28.09 28.09 0 01187 90.9l-.11-.16c-.34-.47-.66-1-1-1.46s-.53-.9-.76-1.37l-.22-.44v-.03a.8.8 0 01-.08-.16c-.16-.33-.16-.59-.1-.49-.23-.72-.56-1.45-.73-2.17 0-.17-.06-.35-.09-.54a1.15 1.15 0 01-.12-.46v-.24a.57.57 0 000-.14 1 1 0 000 .1v-.42a21.33 21.33 0 01.06-3c0 .08 0 .14-.06.24a1.7 1.7 0 00.06-.31v-.25a1.13 1.13 0 01.11-.44c.12-.57.27-1.13.43-1.69s.31-.92.47-1.38l-.12.19a2.55 2.55 0 00.17-.33v-.13a1.09 1.09 0 01.15-.29c0-.07.05-.14.08-.2a24.59 24.59 0 011.77-3c.11-.17.23-.33.35-.5.38-.43.74-.87 1.14-1.29s.74-.75 1.12-1.1l.66-.59c.17-.15 1-.75.2-.19l.28-.19c.23-.17.47-.33.72-.49.48-.32 1-.62 1.49-.9s.9-.46 1.35-.67l.72-.26a22 22 0 013.57-.83h.2a6.11 6.11 0 00.86.07h2.05a29 29 0 012.89.71c.17.06.36.15.55.23a1.2 1.2 0 01.44.12l.21.1h.11-.08l.39.19a23.42 23.42 0 012.86 1.7 5.77 5.77 0 01.62.51l-.43-.4c.34.32.73.59 1.07.91a24.26 24.26 0 012.23 2.3l-.09-.16a4.81 4.81 0 00.42.56c.27.38.53.77.77 1.17s.54.9.79 1.36c.11.2.21.41.32.62s.26.61.32.74l.15.4c.16.49.32 1 .45 1.49s.22.91.31 1.36a4.13 4.13 0 00.11.69l-.05-.15a20.05 20.05 0 010 3.1v.26c-.1.53-.2 1.06-.34 1.58s-.24.89-.39 1.33c-.07.23-.53 1.34-.45 1.21l-.28.58c-.27.52-.55 1-.85 1.53s-.5.79-.76 1.17l-.19.26a11.15 11.15 0 00-.95 1.13c-.4.44-.81.85-1.23 1.26l-1 .86.18-.1a1.65 1.65 0 00-.33.23h-.06l-.16.12A21.47 21.47 0 01206.5 96l-1.07.5-.7.26a24.2 24.2 0 01-2.76.69c-.21 0-.42.06-.61.07h-1.4c-.47 0-1.05 0-1.57-.08l-.69-.07h.41-.19a21.47 21.47 0 01-2.86-.75l-.52-.19zM77.38 124.75a19.67 19.67 0 012 1.2c.22.19.44.37.64.58s.32.34.48.51c.15.24.28.48.42.73s.16.59.23.89c.29 3.07 2.64 6 6 5.84 3.06-.13 6.24-2.64 6-6-1.27-17.86-25-19.08-38.47-19.06h-2.42a25.78 25.78 0 0013.26-4.86c9.29-6.82 14.69-18.35 11.69-29.83C74 62.6 62.22 53.26 49.6 53.32a5.74 5.74 0 00-1.84.32 9.89 9.89 0 00-2.41.09C34.48 55.3 25.27 64.62 22.62 75.09a26.24 26.24 0 001.25 16.73 29.91 29.91 0 0010.67 12.89 27.21 27.21 0 0014.79 4.82c-7.44.24-14.94 1.12-21.84 3.94a38 38 0 00-13.87 9.25 41.19 41.19 0 00-8 13.37C1.77 146.16 1.45 157.38 1.37 168a6.06 6.06 0 006 6 6.1 6.1 0 006-6c0-4.41.13-8.83.5-13.23.09-1 .19-2 .3-3 0-.18.05-.35.07-.53.09-.54.15-1.08.24-1.62a60.1 60.1 0 011.4-6.36c.28-1 .59-2 .94-3 .16-.46.33-.91.5-1.36l.09-.22.15-.35a34.16 34.16 0 013-5.29c.11-.17.23-.33.35-.49s.46-.58.7-.85a30.24 30.24 0 012.3-2.37c.41-.38.85-.73 1.28-1.1l.46-.33a30.69 30.69 0 013-1.88c.52-.29 1.05-.56 1.59-.82l.72-.33a1.1 1.1 0 00.28-.18c.31-.11.63-.19.88-.28.63-.23 1.26-.44 1.9-.64a49.62 49.62 0 016.69-1.58l.81-.13c.22 0 1.37 0 .4-.06h-.22a3.08 3.08 0 00.43 0l.81-.09c1.21-.13 2.42-.22 3.63-.28 1.61-.08 3.22-.14 4.83-.17 3.5-.08 7 0 10.49.15 1.81.11 3.62.26 5.43.48l1.11.18c.88.14 1.75.3 2.62.49a38.57 38.57 0 015.17 1.47 7.67 7.67 0 001.16.52zM52.21 97.52zm10.2-6.19c-.16.23-.12.16 0 0zm-14.7 6.16h.41-.19a21.47 21.47 0 01-2.86-.75l-.52-.19.16.1c-.08-.05-.19-.09-.28-.14a1.29 1.29 0 01-.39-.2c-.3-.13-.61-.26-.88-.4a24.36 24.36 0 01-2.4-1.46c-.15-.09-.29-.2-.43-.3-.41-.35-.83-.7-1.22-1.07A28.09 28.09 0 0137 90.9l-.11-.16c-.34-.47-.66-1-1-1.46s-.53-.9-.76-1.37a9.02 9.02 0 01-.22-.44v-.03a.8.8 0 01-.08-.16c-.16-.33-.16-.59-.1-.49-.23-.72-.56-1.45-.73-2.17 0-.17-.06-.35-.09-.54a1.15 1.15 0 01-.12-.46v-.24a.57.57 0 000-.14 1 1 0 000 .1v-.42a21.33 21.33 0 01.06-3c0 .08 0 .14-.06.24a1.7 1.7 0 00.06-.31v-.25a1.13 1.13 0 01.11-.44c.12-.57.27-1.13.43-1.69s.31-.92.47-1.38l-.12.19a2.55 2.55 0 00.17-.33v-.13a1.09 1.09 0 01.15-.29c0-.07 0-.14.08-.2a24.59 24.59 0 011.77-3c.11-.17.23-.33.35-.5.38-.43.74-.87 1.14-1.29s.74-.75 1.12-1.1l.66-.59c.17-.15 1-.75.2-.19l.28-.19c.23-.17.47-.33.72-.49.48-.32 1-.62 1.49-.9s.9-.46 1.35-.67l.72-.26a22 22 0 013.57-.83h.2a6.11 6.11 0 00.86.07h2.05a29 29 0 012.89.71c.17.06.36.15.55.23a1.2 1.2 0 01.44.12l.21.1h.11-.08l.39.19A23.42 23.42 0 0159 68.46a5.77 5.77 0 01.62.51l-.43-.4c.34.32.73.59 1.07.91a24.26 24.26 0 012.23 2.3l-.09-.16a4.81 4.81 0 00.42.56c.27.38.53.77.77 1.17s.54.9.79 1.36c.11.2.21.41.32.62s.26.61.32.74l.15.4c.16.49.32 1 .45 1.49s.22.91.31 1.36a4.13 4.13 0 00.11.69v-.15A20.05 20.05 0 0166 83v.26c-.1.53-.2 1.06-.34 1.58s-.24.89-.39 1.33c-.07.23-.53 1.34-.45 1.21l-.28.58c-.27.52-.55 1-.85 1.53s-.5.79-.76 1.17l-.19.26a11.15 11.15 0 00-.97 1.08c-.4.44-.81.85-1.23 1.26l-1 .86.18-.1a1.65 1.65 0 00-.33.23h-.06l-.16.12a21.47 21.47 0 01-2.67 1.64l-1.07.5-.7.26a24.2 24.2 0 01-2.76.69c-.21 0-.42.06-.61.07h-1.4c-.47 0-1 0-1.57-.08zm28.64 26.8l.48.19c.86.32-.14-.02-.48-.19z"/><path d="M48.12 97.52c.44.06 1 .08 0 0zM44 96.3l.41.21h.12c-.64-.36-.7-.33-.53-.21zM35 87.43a2.22 2.22 0 00-.19-.68 5.25 5.25 0 01.19.68zM33.83 83.33a3.77 3.77 0 01.14.7c.08.17.12-.03-.14-.7zM55.77 66.57a2.93 2.93 0 01-.65-.22c-.18 0-.04.13.65.22zM35.13 75.5l-.19.42a1.21 1.21 0 000 .14c.32-.6.29-.7.19-.56zM34 79.16c-.05.23-.08.46-.13.69v.07c.13-.59.13-.78.13-.76zM66 79.86c0-.62-.42-1.28 0 0zM59.2 94.43l.22-.17.15-.13c-.73.4-.63.46-.37.3zM62.59 71.87l-.08-.09c.49.98.42.49.08.09zM184 79.16c-.05.23-.08.46-.13.69v.07c.13-.59.13-.78.13-.76zM194 96.3l.41.21h.12c-.64-.36-.7-.33-.53-.21zM183.83 83.33a3.77 3.77 0 01.14.7c.08.17.12-.03-.14-.7zM185 87.43a2.22 2.22 0 00-.19-.68 5.25 5.25 0 01.19.68zM216 79.86c0-.62-.42-1.28 0 0zM209.2 94.43l.22-.17.15-.13c-.73.4-.63.46-.37.3zM198.12 97.52c.44.06 1 .08 0 0zM212.59 71.87l-.08-.09c.49.98.42.49.08.09zM185.13 75.5l-.19.42a1.21 1.21 0 00-.05.14c.37-.6.34-.7.24-.56zM205.77 66.57a2.93 2.93 0 01-.65-.22c-.18 0-.04.13.65.22z"/></svg>

