<svg xmlns="http://www.w3.org/2000/svg" xmlns:xlink="http://www.w3.org/1999/xlink" xmlns:serif="http://www.serif.com/" width="100%" height="100%" viewBox="0 0 24 23" xml:space="preserve" style="fill-rule:evenodd;clip-rule:evenodd;stroke-linejoin:round;stroke-miterlimit:2;"><path d="M4.964,22.732C4.99,22.736 5.016,22.737 5.042,22.737L7.294,22.737C7.335,22.737 7.374,22.733 7.413,22.725C12.607,22.709 17.789,22.68 23,22.68C23.331,22.68 23.6,22.411 23.6,22.08C23.6,21.749 23.331,21.48 23,21.48L21.868,21.481L21.868,5.742C21.868,5.41 21.599,5.142 21.268,5.142L19.016,5.142C18.684,5.142 18.416,5.41 18.416,5.742C18.416,10.933 18.47,16.284 18.473,21.487C17.275,21.489 16.078,21.493 14.881,21.498L14.881,10.14C14.881,9.809 14.612,9.54 14.281,9.54L12.029,9.54C11.698,9.54 11.429,9.809 11.429,10.14L11.429,21.511L9.663,21.518L7.894,21.524L7.894,14.025C7.894,13.694 7.625,13.425 7.294,13.425L5.042,13.425C4.711,13.425 4.442,13.694 4.442,14.025L4.442,21.534C3.515,21.536 2.587,21.537 1.658,21.537C1.654,14.707 1.6,7.827 1.6,1C1.6,0.669 1.331,0.4 1,0.4C0.669,0.4 0.4,0.669 0.4,1C0.4,8.027 0.458,15.111 0.458,22.137C0.458,22.469 0.726,22.737 1.058,22.737C2.362,22.737 3.664,22.735 4.964,22.732ZM6.694,21.528L5.642,21.53L5.642,14.625C5.642,14.625 6.694,14.625 6.694,14.625L6.694,21.528ZM20.668,21.479C20.325,21.477 20.004,21.472 19.673,21.458C19.67,16.465 19.62,11.335 19.616,6.342C19.616,6.342 20.668,6.342 20.668,6.342L20.668,21.479ZM13.681,21.479C13.33,21.477 12.98,21.472 12.629,21.457C12.629,21.457 12.629,10.74 12.629,10.74C12.629,10.74 13.681,10.74 13.681,10.74L13.681,21.479ZM15.458,2.076C13.945,3.081 12.02,4.192 9.683,5.065C9.68,5.066 9.678,5.067 9.676,5.068C7.075,6.075 4.7,6.522 2.834,6.745C2.505,6.785 2.27,7.084 2.31,7.413C2.349,7.741 2.648,7.976 2.977,7.937C4.921,7.704 7.396,7.237 10.106,6.188C12.678,5.228 14.77,3.991 16.382,2.901C16.365,3.772 16.337,4.642 16.337,5.513C16.337,5.844 16.606,6.113 16.937,6.113C17.268,6.113 17.537,5.844 17.537,5.513C17.537,4.256 17.595,2.999 17.595,1.743L17.595,1.728L17.593,1.698L17.592,1.681L17.59,1.669L17.588,1.651L17.586,1.639L17.583,1.622L17.58,1.61L17.576,1.593L17.573,1.582L17.568,1.564L17.564,1.554L17.558,1.536L17.554,1.526L17.548,1.509L17.543,1.499L17.536,1.483L17.53,1.471L17.522,1.457L17.516,1.445L17.508,1.432L17.5,1.419L17.492,1.407L17.483,1.393L17.464,1.369L17.444,1.345L17.424,1.323L17.402,1.302L17.38,1.282L17.357,1.264L17.346,1.256L17.333,1.247L17.322,1.24L17.308,1.231L17.298,1.225L17.272,1.21L17.255,1.202L17.245,1.197L17.228,1.19L17.218,1.186L17.201,1.179L17.19,1.175L17.173,1.17L17.145,1.162L17.116,1.155L17.101,1.152C15.831,0.924 14.56,0.695 13.29,0.467C12.964,0.408 12.652,0.625 12.593,0.951C12.535,1.277 12.752,1.589 13.077,1.648L15.458,2.076Z"></path></svg>
