<svg xmlns="http://www.w3.org/2000/svg" clip-rule="evenodd" fill-rule="evenodd" stroke-linejoin="round" stroke-miterlimit="2" viewBox="0 0 26 24"><g transform="matrix(.935322 0 0 .969781 1.34664 1.49103)"><path d="m-1.44-1.537h27.582v23.864h-27.582z" fill="none"></path><g transform="matrix(1.06915 0 0 1.03116 -.08543 -.2188)"><path d="m21.267 2.118.848-.848zm.021 9.622.849.848zm-.069.068-.837-.86-.012.012zm-19.222-9.811.849.849zm-.001 9.642.849-.848zm0 .001.849-.848zm.051.051-.849.848zm0 .008.848-.849zm11.055 8.226-.849-.848zm-2.829 0-.848.849zm1.473-17.927.831.866zm10.369-.728c-3.088-3.089-8.068-3.144-11.2-.137l1.662 1.731c2.185-2.097 5.671-2.067 7.841.103zm.022 11.318c3.123-3.123 3.106-8.19-.022-11.318l-1.697 1.697c2.198 2.198 2.201 5.746.022 7.924zm-.082.081c.028-.027.055-.054.082-.081l-1.697-1.697c-.019.019-.038.038-.058.057zm-1.685-1.709-8.117 8.117 1.697 1.697 8.117-8.117zm-9.248 8.117-8.227-8.227-1.697 1.697 8.227 8.227zm-9.974-6.588.05.05 1.697-1.697-.05-.05zm.001-11.34c-3.131 3.131-3.132 8.207-.001 11.339l1.697-1.697c-2.193-2.194-2.193-5.751.001-7.945zm11.34 0c-3.132-3.132-8.209-3.132-11.34 0l1.697 1.697c2.194-2.194 5.752-2.194 7.946 0zm-9.644 11.339c.476-.476.461-1.235 0-1.697l-1.697 1.697c-.461-.461-.476-1.221 0-1.696zm0-1.696c.468.468.468 1.228 0 1.696l-1.697-1.696c-.469.468-.469 1.228 0 1.697zm.05 1.751c.47-.47.47-1.231 0-1.701l-1.697 1.697c-.467-.467-.467-1.225 0-1.693zm0-1.693c.468.468.468 1.226 0 1.693l-1.697-1.697c-.47.47-.47 1.232 0 1.701zm9.358 8.227c-.312.312-.819.312-1.131 0l-1.697 1.697c1.249 1.25 3.276 1.25 4.525 0zm-1.461-16.231c.496.496 1.289.494 1.785.018l-1.662-1.731c.437-.42 1.136-.422 1.574.016z" fill-rule="nonzero"></path><path d="m4.669 17.429h13.24l-.017-.616c-.095-3.542-3.03-6.394-6.603-6.394s-6.507 2.852-6.603 6.394zm11.971-1.2h-10.702c.374-2.604 2.639-4.61 5.351-4.61s4.977 2.006 5.351 4.61z"></path><path d="m11.423 3.409c-2.083 0-3.774 1.692-3.774 3.775s1.691 3.775 3.774 3.775 3.775-1.692 3.775-3.775-1.692-3.775-3.775-3.775zm0 1.2c1.421 0 2.575 1.154 2.575 2.575s-1.154 2.575-2.575 2.575-2.574-1.154-2.574-2.575 1.153-2.575 2.574-2.575z"></path><path d="m9.71 18.585 1.258 2.145c.238.408.827.411 1.069.002l1.258-2.147c.076-.129.103-.281.074-.43.002.008-1.256-7.069-1.256-7.069-.121-.681-1.1-.681-1.221 0 0 0-1.258 7.079-1.258 7.079-.024.147.003.294.076.42zm1.144-.422.649 1.107.649-1.107-.649-3.653z"></path></g></g></svg>
