<svg xmlns="http://www.w3.org/2000/svg" clip-rule="evenodd" fill-rule="evenodd" stroke-linejoin="round" stroke-miterlimit="2" viewBox="0 0 27 24"><g transform="matrix(.887368 0 0 1.04923 .982991 1.90721)"><path d="m-1.108-1.818h29.676v22.5h-29.676z" fill="none"></path><path d="m12.871 2.037.849-.848-.006-.006zm0 0-.848.849.005.005zm-9.836 0 .849.849zm0 9.836.854-.843-.005-.005zm0 0-.854.843.006.006zm.001.001.849-.848zm19.57.21-.83-.867-.009.009-.01.009zm.111-.109.849.848zm-.022-9.814-.848.848zm-11.186 18.192.848-.849zm1.474-18.314.831.866zm-9.895 9.893.849-.848zm0-.006.849-.848zm8.935-9.04.001.001 1.697-1.697-.001-.001zm.005.005 1.686-1.708zm-8.144-.005c2.247-2.248 5.891-2.248 8.139 0l1.697-1.697c-3.185-3.185-8.349-3.185-11.533 0zm0 8.139c-2.248-2.248-2.248-5.892 0-8.139l-1.697-1.697c-3.185 3.185-3.185 8.348 0 11.533zm.005.005-1.708 1.686zm-.004-.004-.001-.001-1.697 1.697.001.001zm.052.052-.052-.052-1.697 1.697.052.052zm8.42 8.426-8.42-8.42-1.697 1.697 8.42 8.42zm9.4-8.269-8.269 8.269 1.697 1.697 8.269-8.269zm.112-.109c-.031.031-.062.061-.093.091l1.659 1.734c.044-.042.088-.085.131-.128zm-.022-8.117c2.251 2.251 2.254 5.885.022 8.117l1.697 1.697c3.176-3.176 3.159-8.33-.022-11.511zm-8.033-.104c2.238-2.149 5.81-2.119 8.033.104l1.697-1.697c-3.142-3.142-8.207-3.197-11.392-.139zm-3.154 18.296c1.25 1.25 3.276 1.25 4.525 0l-1.697-1.697c-.312.313-.819.313-1.131 0zm1.492-20.028c.429-.412 1.126-.425 1.569.017l-1.697 1.697c.503.503 1.299.489 1.79.018zm-9.912 9.908c-.47.469-.47 1.23 0 1.7l1.697-1.697c.468.468.468 1.226 0 1.694zm0 1.694c-.468-.468-.468-1.226 0-1.694l1.697 1.697c.469-.47.469-1.231 0-1.7z" fill-rule="nonzero" transform="matrix(1.12693 0 0 .95308 -.75243 -.551433)"></path><path d="m16.225 8.007c0-1.383-1.12-2.503-2.502-2.503s-2.503 1.12-2.503 2.503c0 1.382 1.121 2.502 2.503 2.502v-1.2c-.72 0-1.303-.583-1.303-1.302 0-.72.583-1.303 1.303-1.303.719 0 1.302.583 1.302 1.303z" transform="matrix(1.12693 0 0 .95308 -1.87936 -.551433)"></path><path d="m11.22 11.812c0 1.382 1.12 2.502 2.503 2.502 1.382 0 2.502-1.12 2.502-2.502s-1.12-2.503-2.502-2.503v1.2c.719 0 1.302.583 1.302 1.303 0 .719-.583 1.302-1.302 1.302-.72 0-1.303-.583-1.303-1.302z" transform="matrix(1.12693 0 0 .95308 -1.87936 -.551433)"></path><g transform="matrix(1.12693 0 0 .95308 -2.23469 -1.81772)"><path d="m14.534 15.293c0-.139-.112-.251-.251-.251s-.251.112-.251.251v1.006c0 .138.112.251.251.251s.251-.113.251-.251zm-1.999-2.136c0 .221-.179.401-.401.401-.221 0-.401-.18-.401-.401 0-.222.18-.401.401-.401.222 0 .401.179.401.401zm3.797-3.799c0 .221-.18.4-.401.4s-.401-.179-.401-.4c0-.222.18-.401.401-.401s.401.179.401.401zm-1.798-3.117c0-.139-.112-.252-.251-.252s-.251.113-.251.252v1.006c0 .138.112.251.251.251s.251-.113.251-.251z"></path><path d="m14.786 15.293c0-.278-.225-.503-.503-.503-.277 0-.503.225-.503.503v1.006c0 .277.226.503.503.503.278 0 .503-.226.503-.503zm-.503 1.006v-1.006zm-1.497-3.142c0-.361-.292-.653-.652-.653s-.652.292-.652.653c0 .36.292.652.652.652s.652-.292.652-.652zm-.503 0c0 .082-.066.149-.149.149-.082 0-.149-.067-.149-.149 0-.083.067-.15.149-.15.083 0 .149.067.149.15zm4.3-3.799c0-.361-.292-.653-.652-.653s-.652.292-.652.653c0 .36.292.652.652.652s.652-.292.652-.652zm-.503 0c0 .082-.066.149-.149.149s-.149-.067-.149-.149c0-.083.066-.15.149-.15s.149.067.149.15zm-1.294-3.117c0-.278-.225-.503-.503-.503-.277 0-.503.225-.503.503v1.006c0 .277.226.503.503.503.278 0 .503-.226.503-.503zm-.503 1.006v-1.006z"></path></g></g></svg>
