<svg xmlns="http://www.w3.org/2000/svg" xmlns:xlink="http://www.w3.org/1999/xlink" xmlns:serif="http://www.serif.com/" viewBox="0 0 20 20" xml:space="preserve"><path d="M 10.084209,1.0930993e-7 C 9.9167991,1.0930993e-7 9.7764055,0.14039389 9.7764055,0.30780409 V 1.9165154 c 0,0.1674104 0.1403936,0.306352 0.3078035,0.306352 0.167411,0 0.306352,-0.1389417 0.306352,-0.306352 V 0.30780409 C 10.390561,0.14039389 10.251621,1.0930993e-7 10.084209,1.0930993e-7 Z M 5.6515419,2.3274046 C 5.5923705,2.3270223 5.5323732,2.3447315 5.4802171,2.3796732 5.341134,2.4728516 5.3028284,2.6659987 5.3960066,2.8050815 L 6.342649,4.2192375 C 6.4358272,4.3583204 6.6304263,4.3966262 6.7695092,4.303448 6.9085923,4.2102697 6.945446,4.0156706 6.8522678,3.8765878 L 5.9056254,2.4624318 C 5.8473891,2.3755051 5.750161,2.3280418 5.6515419,2.3274046 Z m 8.9335741,0.03049 c -0.09886,9.887e-4 -0.195846,0.049553 -0.254083,0.1364792 l -0.927768,1.3851181 c -0.09318,0.1390824 -0.05632,0.3322284 0.08276,0.4254083 0.139082,0.093179 0.335133,0.054871 0.428312,-0.084211 l 0.927768,-1.3851181 c 0.09318,-0.139083 0.05342,-0.3336804 -0.08566,-0.4268603 -0.05216,-0.034942 -0.112012,-0.051411 -0.171326,-0.050816 z M 9.9999989,3.0620688 c -1.0589866,0 -1.9165152,0.9247268 -1.9165152,1.9992739 0,1.0745522 0.8575286,1.9992742 1.9165152,1.9992742 1.0589821,0 1.9165151,-0.9247247 1.9165151,-1.9992742 0,-1.0745444 -0.857533,-1.9992738 -1.9165151,-1.9992739 z m 0,0.8929219 c 0.5094481,0 1.0250451,0.5245399 1.0250451,1.106352 0,0.5818217 -0.515597,1.106352 -1.0250451,1.106352 -0.5094584,0 -1.0250452,-0.5245329 -1.0250452,-1.106352 0,-0.5818095 0.5155868,-1.106352 1.0250452,-1.106352 z M 5.098366,4.9393826 c -0.2884768,0 -0.5884618,0.095284 -0.8130671,0.3324864 -0.2246059,0.2371978 -0.3063521,0.5367232 -0.3063521,0.8246823 0,0.2879591 0.081746,0.5874841 0.3063521,0.8246827 L 4.2606169,6.893647 c 0.7945676,0.9871984 1.5512853,1.9813191 2.3520869,2.9807622 v 3.9869318 5.692922 a 0.44606999,0.44606999 0 0 0 0.4471869,0.445735 h 2.9401086 2.9401077 a 0.44606999,0.44606999 0 0 0 0.447188,-0.445735 V 13.861341 9.8744095 C 14.18811,8.8749686 14.94486,7.8808576 15.739381,6.8936473 l -0.02468,0.027587 c 0.224624,-0.2371942 0.306352,-0.5367145 0.306352,-0.8246827 0,-0.2879682 -0.08173,-0.5874888 -0.306352,-0.8246823 -0.224598,-0.2372449 -0.524591,-0.3324864 -0.813067,-0.3324864 -0.288477,0 -0.589921,0.095241 -0.814519,0.3324864 C 13.150848,6.2606035 12.215393,7.2493786 11.27913,8.238112 H 8.7208702 C 7.7846208,7.2493786 6.8491448,6.2606043 5.9128849,5.271869 5.6882796,5.0346664 5.3868427,4.9393826 5.098366,4.9393826 Z m 0,0.89147 c 0.079125,0 0.1465062,0.033562 0.1669691,0.055173 0.9802778,1.0352208 1.9598345,2.0704011 2.9401086,3.105626 a 0.44606999,0.44606999 0 0 0 0.323775,0.1393829 h 2.9415603 a 0.44606999,0.44606999 0 0 0 0.323775,-0.1393833 c 0.980288,-1.0352249 1.959822,-2.0704044 2.940109,-3.105626 0.02042,-0.021568 0.08785,-0.055173 0.166969,-0.055173 0.07912,0 0.145098,0.033604 0.165517,0.055173 0.02046,0.021612 0.06244,0.1102859 0.06244,0.2105263 0,0.1002403 -0.04196,0.1889141 -0.06244,0.2105262 a 0.44606999,0.44606999 0 0 0 -0.02323,0.027586 C 14.2054,7.3765425 13.420996,8.4117191 12.593102,9.4402895 a 0.44606999,0.44606999 0 0 0 -0.09873,0.280217 V 13.414154 H 7.5056252 V 9.7205065 a 0.44606999,0.44606999 0 0 0 -0.09873,-0.280217 C 6.5790191,8.4117222 5.7946676,7.3765553 4.9560793,6.3346638 a 0.44606999,0.44606999 0 0 0 -0.02323,-0.027586 C 4.9123883,6.2854698 4.8704173,6.196801 4.8704173,6.0965515 c 0,-0.1002495 0.041971,-0.1889185 0.062432,-0.2105263 0.020463,-0.021611 0.086392,-0.055173 0.1655167,-0.055173 z m 2.4072592,8.4762234 h 4.9887478 v 4.801452 h -2.048639 v -2.659891 a 0.44602538,0.44602538 0 0 0 -0.4457351,-0.445735 0.44602538,0.44602538 0 0 0 -0.445735,0.445735 v 2.659891 H 7.5056252 Z"></path></svg>
