<svg xmlns="http://www.w3.org/2000/svg" xmlns:xlink="http://www.w3.org/1999/xlink" xmlns:serif="http://www.serif.com/" width="100%" height="100%" viewBox="0 0 23 22" xml:space="preserve" style="fill-rule:evenodd;clip-rule:evenodd;stroke-linejoin:round;stroke-miterlimit:2;"><path d="M1.303,10.553C1.203,10.628 0.525,11.159 0.411,11.954C0.409,11.966 0.408,11.977 0.407,11.989C0.336,12.841 0.855,13.473 0.926,13.544L0.914,13.531C3.38,16.133 5.796,18.686 8.262,21.238C8.264,21.241 8.267,21.244 8.27,21.247C8.337,21.313 9.068,21.988 10.137,21.86C10.977,21.79 11.5,21.278 11.63,21.148C11.632,21.146 11.634,21.144 11.636,21.143C15.135,17.562 18.584,13.98 22.083,10.399C22.246,10.237 22.396,10.066 22.48,9.746C22.597,9.388 22.6,9.084 22.6,8.899C22.6,8.891 22.6,8.882 22.599,8.874C22.501,6.519 22.402,4.164 22.304,1.809L22.304,1.834C22.304,1.751 22.25,1.237 21.832,0.82C21.832,0.82 21.832,0.82 21.832,0.82C21.421,0.411 20.85,0.4 20.768,0.4L12.625,0.547C12.485,0.547 12.328,0.601 12.102,0.676L12.102,0.676C11.954,0.725 11.855,0.774 11.708,0.823C11.625,0.85 11.55,0.895 11.486,0.955C8.092,4.138 4.698,7.37 1.303,10.553ZM21.106,1.884L21.4,8.912C21.4,9.019 21.401,9.191 21.332,9.395C21.328,9.41 21.323,9.425 21.319,9.44C21.304,9.501 21.262,9.523 21.232,9.553C21.23,9.555 21.228,9.557 21.226,9.559C17.728,13.14 14.279,16.72 10.78,20.301C10.71,20.371 10.45,20.632 10.027,20.665C10.018,20.665 10.009,20.666 9.999,20.667C9.521,20.727 9.182,20.455 9.123,20.402C6.66,17.852 4.25,15.307 1.792,12.712C1.774,12.687 1.587,12.404 1.601,12.112C1.654,11.791 1.871,11.624 1.968,11.553C2.047,11.495 2.1,11.453 2.118,11.434L2.105,11.446C5.476,8.285 8.847,5.076 12.218,1.914C12.302,1.881 12.379,1.848 12.48,1.815L12.675,1.746L20.779,1.6C20.784,1.6 20.903,1.589 20.985,1.67C21.057,1.742 21.097,1.857 21.106,1.884ZM19.443,3.399C18.669,2.5 17.202,2.555 16.433,3.39C16.432,3.391 16.432,3.391 16.431,3.392C15.735,4.154 15.686,5.402 16.382,6.164C16.383,6.164 16.383,6.165 16.384,6.166C17.147,6.995 18.396,7.01 19.229,6.319C19.23,6.318 19.231,6.317 19.232,6.316C20.139,5.552 20.204,4.235 19.443,3.399L19.443,3.399ZM18.536,4.185C18.542,4.191 18.547,4.197 18.552,4.203C18.866,4.544 18.831,5.084 18.461,5.397C18.111,5.686 17.588,5.7 17.267,5.354C16.979,5.036 17.028,4.519 17.317,4.202C17.629,3.864 18.224,3.818 18.536,4.185Z"></path><path d="M12.123,11.124C11.607,10.481 11.595,9.477 12.111,8.875C12.556,8.356 13.324,8.352 13.773,8.864C14.287,9.511 14.297,10.509 13.783,11.109C13.567,11.361 13.597,11.74 13.848,11.955C14.1,12.171 14.479,12.141 14.694,11.89C15.562,10.877 15.574,9.189 14.706,8.109C14.702,8.104 14.698,8.099 14.694,8.094C13.758,7.002 12.136,7.002 11.2,8.094C11.2,8.094 11.2,8.094 11.2,8.094C10.332,9.107 10.32,10.795 11.188,11.875C11.395,12.133 11.773,12.175 12.031,11.967C12.289,11.76 12.331,11.382 12.123,11.124Z"></path><path d="M11.226,11.92C11.744,12.448 11.761,13.27 11.251,13.769C10.671,14.281 9.781,14.296 9.239,13.79C8.72,13.255 8.708,12.43 9.227,11.934C9.467,11.705 9.476,11.325 9.247,11.086C9.018,10.846 8.638,10.837 8.399,11.066C7.398,12.022 7.384,13.614 8.385,14.634C8.389,14.638 8.394,14.643 8.399,14.647C9.378,15.583 11.01,15.596 12.054,14.661C12.059,14.656 12.064,14.652 12.069,14.647C13.069,13.692 13.083,12.099 12.082,11.08C11.85,10.843 11.47,10.84 11.234,11.072C10.998,11.304 10.994,11.684 11.226,11.92Z"></path><path d="M14.823,9.026L15.909,7.94C16.143,7.706 16.143,7.326 15.909,7.091C15.675,6.857 15.294,6.857 15.06,7.091L13.974,8.178C13.74,8.412 13.74,8.792 13.974,9.026C14.208,9.26 14.589,9.26 14.823,9.026Z"></path><path d="M7.94,15.909L9.026,14.823C9.26,14.589 9.26,14.208 9.026,13.974C8.792,13.74 8.412,13.74 8.178,13.974L7.091,15.06C6.857,15.294 6.857,15.675 7.091,15.909C7.326,16.143 7.706,16.143 7.94,15.909Z"></path></svg>
