<svg xmlns="http://www.w3.org/2000/svg" xmlns:xlink="http://www.w3.org/1999/xlink" xmlns:serif="http://www.serif.com/" width="100%" height="100%" viewBox="0 0 25 26" xml:space="preserve" style="fill-rule:evenodd;clip-rule:evenodd;stroke-linejoin:round;stroke-miterlimit:2;"><path d="M12.122,3.996C10.563,4.173 9.057,4.402 7.496,4.575C7.352,4.591 7.219,4.658 7.122,4.764C6.294,5.658 5.475,6.552 4.657,7.446L3.024,9.234C2.207,10.128 1.387,11.022 0.56,11.916C0.389,12.1 0.351,12.37 0.464,12.594C0.577,12.817 0.817,12.947 1.066,12.92C2.576,12.752 4.033,12.532 5.537,12.358L5.811,12.657C5.972,12.832 6.133,13.006 6.294,13.181L6.77,13.694C6.024,13.863 5.269,14.04 4.486,14.246C4.282,14.3 4.12,14.458 4.062,14.661C4.004,14.865 4.057,15.084 4.202,15.238C6.111,17.264 8.02,19.231 9.929,21.257C10.076,21.414 10.296,21.479 10.505,21.429C10.714,21.379 10.88,21.222 10.941,21.015C11.053,20.635 11.173,20.247 11.295,19.857L11.541,19.075L11.604,18.872C12.038,19.339 12.47,19.807 12.901,20.277C12.738,21.776 12.623,23.13 12.454,24.591C12.425,24.841 12.554,25.082 12.778,25.195C13.002,25.309 13.273,25.271 13.457,25.101C15.843,22.896 18.17,20.691 20.556,18.485C20.662,18.387 20.729,18.255 20.745,18.111C20.918,16.554 21.091,15.053 21.264,13.499C21.446,13.218 21.625,12.927 21.8,12.626C24.678,7.731 24.865,3.019 24.865,1C24.865,0.669 24.596,0.4 24.265,0.4C22.257,0.4 17.171,0.643 12.122,3.996ZM6.196,24.667C7.21,23.654 8.165,22.701 9.179,21.688C9.413,21.453 9.413,21.073 9.179,20.839C8.945,20.605 8.565,20.605 8.331,20.839C7.317,21.852 6.362,22.805 5.348,23.819C5.114,24.053 5.114,24.433 5.348,24.667C5.582,24.901 5.962,24.902 6.196,24.667ZM2.617,23.475L6.793,19.304C7.027,19.069 7.027,18.69 6.793,18.455C6.559,18.221 6.179,18.221 5.945,18.455L1.769,22.627C1.535,22.861 1.534,23.241 1.769,23.475C2.003,23.709 2.383,23.71 2.617,23.475ZM19.835,15.463C17.735,18.035 15.486,19.593 14.091,20.434C13.99,21.368 13.907,22.246 13.817,23.13C15.742,21.339 17.641,19.547 19.577,17.756C19.663,16.984 19.749,16.223 19.835,15.463ZM3.559,16.071L0.576,19.051C0.342,19.285 0.341,19.665 0.576,19.899C0.81,20.134 1.19,20.134 1.424,19.9L4.407,16.92C4.641,16.686 4.641,16.306 4.407,16.071C4.173,15.837 3.793,15.837 3.559,16.071ZM7.717,14.711L8.234,15.265L8.886,15.961C9.49,16.616 10.078,17.265 10.649,17.898C10.471,18.486 10.278,19.088 10.092,19.684C8.654,18.167 7.216,16.675 5.778,15.158C6.435,14.998 7.077,14.854 7.717,14.711ZM20.235,12.881C20.415,12.604 20.591,12.318 20.763,12.022C20.764,12.021 20.764,12.02 20.765,12.019C23.235,7.818 23.609,3.758 23.658,1.608C21.449,1.669 17.037,2.131 12.673,5.071C11.516,5.88 10.011,7.034 8.681,8.652C8.679,8.655 8.676,8.658 8.673,8.662C7.758,9.728 7.065,10.751 6.517,11.652C7.18,12.373 7.847,13.092 8.516,13.808C8.938,14.253 9.352,14.697 9.759,15.138C11.054,16.521 12.35,17.903 13.632,19.299C14.593,18.689 15.707,17.898 16.82,16.887C18.327,15.497 19.429,14.108 20.182,12.95C20.198,12.925 20.216,12.902 20.235,12.881ZM18.723,6.535C17.36,5.173 15.063,5.173 13.7,6.535C12.336,7.898 12.335,10.193 13.7,11.556C13.7,11.556 13.7,11.556 13.7,11.556C15.063,12.918 17.36,12.918 18.723,11.556C18.723,11.556 18.723,11.556 18.723,11.556C20.087,10.193 20.087,7.898 18.723,6.535ZM10.176,5.449C9.405,5.551 8.634,5.653 7.851,5.743C6.067,7.672 4.32,9.601 2.547,11.531C3.496,11.407 4.439,11.277 5.4,11.166C6.241,9.694 7.729,7.503 10.176,5.449ZM17.875,7.384C18.778,8.286 18.778,9.805 17.875,10.707C16.972,11.609 15.451,11.609 14.548,10.707C13.645,9.805 13.645,8.286 14.548,7.384C15.451,6.482 16.972,6.482 17.875,7.384Z"></path><path d="M12.122,3.996C10.563,4.173 9.057,4.402 7.496,4.575C7.352,4.591 7.219,4.658 7.122,4.764C6.294,5.658 5.475,6.552 4.657,7.446L3.024,9.234C2.207,10.128 1.387,11.022 0.56,11.916C0.389,12.1 0.351,12.37 0.464,12.594C0.577,12.817 0.817,12.947 1.066,12.92C2.576,12.752 4.033,12.532 5.537,12.358L5.811,12.657C5.972,12.832 6.133,13.006 6.294,13.181L6.77,13.694C6.024,13.863 5.269,14.04 4.486,14.246C4.282,14.3 4.12,14.458 4.062,14.661C4.004,14.865 4.057,15.084 4.202,15.238C6.111,17.264 8.02,19.231 9.929,21.257C10.076,21.414 10.296,21.479 10.505,21.429C10.714,21.379 10.88,21.222 10.941,21.015C11.053,20.635 11.173,20.247 11.295,19.857L11.541,19.075L11.604,18.872C12.038,19.339 12.47,19.807 12.901,20.277C12.738,21.776 12.623,23.13 12.454,24.591C12.425,24.841 12.554,25.082 12.778,25.195C13.002,25.309 13.273,25.271 13.457,25.101C15.843,22.896 18.17,20.691 20.556,18.485C20.662,18.387 20.729,18.255 20.745,18.111C20.918,16.554 21.091,15.053 21.264,13.499C21.446,13.218 21.625,12.927 21.8,12.626C24.678,7.731 24.865,3.019 24.865,1C24.865,0.669 24.596,0.4 24.265,0.4C22.257,0.4 17.171,0.643 12.122,3.996ZM6.196,24.667C7.21,23.654 8.165,22.701 9.179,21.688C9.413,21.453 9.413,21.073 9.179,20.839C8.945,20.605 8.565,20.605 8.331,20.839C7.317,21.852 6.362,22.805 5.348,23.819C5.114,24.053 5.114,24.433 5.348,24.667C5.582,24.901 5.962,24.902 6.196,24.667ZM2.617,23.475L6.793,19.304C7.027,19.069 7.027,18.69 6.793,18.455C6.559,18.221 6.179,18.221 5.945,18.455L1.769,22.627C1.535,22.861 1.534,23.241 1.769,23.475C2.003,23.709 2.383,23.71 2.617,23.475ZM19.835,15.463C17.735,18.035 15.486,19.593 14.091,20.434C13.99,21.368 13.907,22.246 13.817,23.13C15.742,21.339 17.641,19.547 19.577,17.756C19.663,16.984 19.749,16.223 19.835,15.463ZM3.559,16.071L0.576,19.051C0.342,19.285 0.341,19.665 0.576,19.899C0.81,20.134 1.19,20.134 1.424,19.9L4.407,16.92C4.641,16.686 4.641,16.306 4.407,16.071C4.173,15.837 3.793,15.837 3.559,16.071ZM7.717,14.711L8.234,15.265L8.886,15.961C9.49,16.616 10.078,17.265 10.649,17.898C10.471,18.486 10.278,19.088 10.092,19.684C8.654,18.167 7.216,16.675 5.778,15.158C6.435,14.998 7.077,14.854 7.717,14.711ZM20.235,12.881C20.415,12.604 20.591,12.318 20.763,12.022C20.764,12.021 20.764,12.02 20.765,12.019C23.235,7.818 23.609,3.758 23.658,1.608C21.449,1.669 17.037,2.131 12.673,5.071C11.516,5.88 10.011,7.034 8.681,8.652C8.679,8.655 8.676,8.658 8.673,8.662C7.758,9.728 7.065,10.751 6.517,11.652C7.18,12.373 7.847,13.092 8.516,13.808C8.938,14.253 9.353,14.697 9.76,15.139C11.054,16.522 12.35,17.904 13.632,19.299C14.593,18.689 15.707,17.898 16.82,16.887C18.327,15.497 19.429,14.108 20.182,12.95C20.198,12.925 20.216,12.902 20.235,12.881ZM10.176,5.449C9.405,5.551 8.634,5.653 7.851,5.743C6.067,7.672 4.32,9.601 2.547,11.531C3.496,11.407 4.439,11.277 5.4,11.166C6.241,9.694 7.729,7.503 10.176,5.449Z"></path><path d="M13.656,6.554C12.292,7.917 12.292,10.212 13.656,11.574C13.656,11.574 13.656,11.574 13.656,11.574C15.02,12.937 17.317,12.937 18.68,11.574C18.68,11.574 18.68,11.574 18.68,11.574C20.044,10.212 20.044,7.916 18.68,6.554C17.317,5.191 15.02,5.191 13.656,6.554L13.656,6.554ZM14.505,7.403C15.408,6.5 16.929,6.5 17.832,7.403C18.735,8.305 18.735,9.824 17.832,10.726C16.929,11.628 15.408,11.628 14.505,10.726C13.602,9.824 13.602,8.305 14.505,7.403L14.505,7.403Z"></path></svg>
