<svg xmlns="http://www.w3.org/2000/svg" xmlns:xlink="http://www.w3.org/1999/xlink" xmlns:serif="http://www.serif.com/" viewBox="0 0 20 20" xml:space="preserve"><path d="M 10,0 C 4.4839321,-1.1143567e-8 -1.1143562e-8,4.4839321 0,10 -2.2287144e-7,15.516068 4.4839319,20 10,20 15.516068,20 20,15.516068 20,10 20,4.4839319 15.516068,-2.2287143e-7 10,0 Z m 0,1.1421131 c 4.898424,-1e-7 8.857887,3.9594635 8.857887,8.8578869 0,4.898424 -3.959463,8.857887 -8.857887,8.857887 -4.8984234,0 -8.857887,-3.959463 -8.8578869,-8.857887 0,-0.1530762 0.00352,-0.30458 0.011161,-0.4557295 C 1.390149,4.8586324 5.2546525,1.142113 10,1.1421131 Z M 7.546503,5.6603423 A 0.75471713,1.1320763 0 0 0 6.7912947,6.7912947 0.75471713,1.1320763 0 0 0 7.546503,7.9241071 0.75471713,1.1320763 0 0 0 8.3017113,6.7912947 0.75471713,1.1320763 0 0 0 7.546503,5.6603423 Z m 4.906994,0 A 0.75471713,1.1320763 0 0 0 11.700149,6.7912947 0.75471713,1.1320763 0 0 0 12.453497,7.9241071 0.75471713,1.1320763 0 0 0 13.208706,6.7912947 0.75471713,1.1320763 0 0 0 12.453497,5.6603423 Z M 3.8039434,11.72619 c -0.2038578,-0.01469 -0.4073661,0.140161 -0.4073661,0.368304 0,0.108286 0.046078,0.207628 0.1320685,0.273437 0.6923136,0.52981 3.9505281,2.916667 6.4713542,2.916667 2.520759,0 5.778974,-2.386857 6.471354,-2.916667 0.086,-0.06581 0.132069,-0.165151 0.132069,-0.273437 0,-0.30419 -0.362253,-0.477804 -0.604539,-0.293899 C 14.82079,12.694975 12.144379,14.52939 10,14.52939 c -2.1444073,0 -4.8226881,-1.834415 -6.000744,-2.728795 -0.060571,-0.04598 -0.1273599,-0.06951 -0.1953126,-0.07441 z"></path></svg>
