<svg xmlns="http://www.w3.org/2000/svg" xmlns:xlink="http://www.w3.org/1999/xlink" xmlns:serif="http://www.serif.com/" width="100%" height="100%" viewBox="0 0 20 22" xml:space="preserve" style="fill-rule:evenodd;clip-rule:evenodd;stroke-linejoin:round;stroke-miterlimit:2;">    <path d="M18.579,15.872C18.562,15.9 18.542,15.93 18.523,15.954C18.421,16.079 18.277,16.211 18.097,16.355C17.386,16.925 16.181,17.616 14.638,18.464C14.636,18.465 14.635,18.466 14.634,18.466C13.093,19.328 11.085,20.326 9.926,20.295C9.023,20.257 8.14,20.016 7.342,19.591C7.334,19.587 7.326,19.583 7.317,19.579C6.974,19.415 6.648,19.25 6.338,19.082L6.263,19.042L6.177,18.994L6.157,18.983C5.335,18.556 4.252,18.374 3.054,18.278C2.723,18.252 2.434,18.498 2.408,18.828C2.381,19.159 2.628,19.448 2.958,19.474C3.978,19.555 4.904,19.685 5.603,20.048C5.664,20.08 5.73,20.1 5.797,20.11L5.976,20.169L5.7,20.102L6.029,20.197L5.743,20.124C6.075,20.305 6.426,20.483 6.795,20.659C7.745,21.163 8.801,21.449 9.881,21.494C9.883,21.494 9.886,21.494 9.889,21.494C11.191,21.531 13.481,20.485 15.217,19.515C16.57,18.772 17.671,18.139 18.43,17.604C19.012,17.193 19.407,16.819 19.605,16.5C19.782,16.217 19.837,15.948 19.807,15.704C19.775,15.442 19.648,15.189 19.378,14.966C19.377,14.966 19.377,14.965 19.376,14.965C19.015,14.67 18.447,14.585 17.734,14.76C16.572,15.046 14.884,16.019 13.377,16.783C13.081,16.932 12.963,17.294 13.112,17.589C13.262,17.885 13.623,18.003 13.919,17.853C15.152,17.228 16.506,16.447 17.567,16.065C17.867,15.957 18.137,15.882 18.368,15.867C18.449,15.861 18.522,15.851 18.579,15.872Z"></path>    <path d="M12.457,18.217L12.454,18.225C12.439,18.227 12.419,18.23 12.404,18.23C12.313,18.234 12.209,18.219 12.094,18.196C11.745,18.126 11.318,17.978 10.828,17.811C10.828,17.811 10.828,17.811 10.828,17.811C9.478,17.349 8.483,16.915 6.94,16.792C6.61,16.766 6.32,17.012 6.294,17.342C6.268,17.672 6.514,17.962 6.844,17.988C8.273,18.102 9.19,18.519 10.44,18.946C11.319,19.246 12.033,19.462 12.513,19.426C13.064,19.385 13.437,19.128 13.611,18.551C13.727,18.166 13.631,17.703 13.28,17.237C12.74,16.52 11.515,15.712 10.237,15.196C10.237,15.196 10.237,15.196 10.237,15.196C9.67,14.967 9.188,14.623 8.714,14.323C8.134,13.956 7.56,13.652 6.914,13.567C6.907,13.566 6.9,13.566 6.894,13.565C5.984,13.477 5.066,13.597 4.21,13.916C3.724,14.076 3.284,14.2 2.884,14.291C2.562,14.364 2.359,14.686 2.433,15.009C2.506,15.332 2.828,15.535 3.151,15.461C3.586,15.362 4.064,15.227 4.6,15.051C4.608,15.048 4.615,15.046 4.623,15.043C5.306,14.787 6.038,14.69 6.765,14.758C7.239,14.822 7.648,15.069 8.072,15.337C8.605,15.674 9.151,16.052 9.788,16.309C10.707,16.68 11.605,17.212 12.126,17.737C12.239,17.85 12.332,17.961 12.396,18.07C12.424,18.117 12.451,18.197 12.457,18.217Z"></path>    <path d="M17.295,14.499C17.158,14.385 16.998,14.299 16.827,14.248C16.827,14.248 16.827,14.248 16.827,14.248C16.66,14.198 16.484,14.181 16.31,14.198L16.321,14.197C15.913,14.203 15.414,14.365 14.875,14.628C14.137,14.988 13.309,15.535 12.54,16.028C12.354,16.147 12.3,16.395 12.419,16.58C12.538,16.766 12.786,16.821 12.972,16.702C13.715,16.226 14.513,15.695 15.226,15.347C15.645,15.142 16.027,14.997 16.342,14.997C16.357,14.997 16.371,14.996 16.386,14.995C16.457,14.987 16.529,14.993 16.597,15.014C16.666,15.034 16.729,15.069 16.784,15.114C16.954,15.255 17.206,15.232 17.347,15.062C17.488,14.892 17.465,14.64 17.295,14.499Z"></path>    <path d="M15.028,13.842C14.863,13.81 14.694,13.801 14.527,13.818C14.184,13.848 13.822,13.999 13.434,14.24C12.934,14.551 12.375,15.017 11.715,15.5C11.537,15.63 11.498,15.881 11.628,16.059C11.759,16.237 12.009,16.276 12.188,16.146C12.828,15.677 13.37,15.222 13.856,14.92C14.123,14.754 14.365,14.635 14.6,14.614C14.601,14.614 14.602,14.614 14.604,14.614C14.694,14.605 14.786,14.61 14.875,14.627C15.091,14.669 15.302,14.528 15.344,14.311C15.386,14.094 15.245,13.884 15.028,13.842Z"></path>    <path d="M13.063,13.753C12.898,13.727 12.731,13.727 12.567,13.753C12.283,13.796 12.062,13.907 11.832,14.087C11.572,14.29 11.295,14.601 10.804,15.001C10.633,15.14 10.607,15.392 10.746,15.564C10.886,15.735 11.138,15.761 11.309,15.621C11.721,15.286 11.984,15.012 12.211,14.812C12.37,14.672 12.499,14.573 12.691,14.544C12.692,14.544 12.694,14.543 12.695,14.543C12.774,14.53 12.855,14.53 12.934,14.543C13.152,14.579 13.358,14.43 13.393,14.213C13.429,13.995 13.281,13.789 13.063,13.753Z"></path>    <path d="M2.827,13.609L0.966,13.609C0.536,13.609 0.187,13.958 0.187,14.388L0.187,19.504C0.187,19.934 0.536,20.283 0.966,20.283L2.827,20.283C3.257,20.283 3.606,19.934 3.606,19.504L3.606,14.388C3.606,13.958 3.257,13.609 2.827,13.609ZM1.387,14.809L1.387,19.083L2.406,19.083L2.406,14.809L1.387,14.809Z"></path>    <path d="M8.026,5.81L5.935,6.115C5.734,6.145 5.546,6.23 5.391,6.361C5.391,6.361 5.391,6.361 5.391,6.361C5.236,6.492 5.121,6.663 5.058,6.856C4.996,7.049 4.989,7.256 5.037,7.453C5.086,7.649 5.188,7.829 5.333,7.971L6.861,9.459L6.499,11.572C6.469,11.769 6.492,11.97 6.568,12.154C6.644,12.338 6.769,12.498 6.929,12.616C7.09,12.734 7.279,12.806 7.478,12.824C7.676,12.842 7.876,12.805 8.054,12.717L9.957,11.717L11.86,12.717C12.039,12.805 12.239,12.842 12.437,12.824C12.635,12.806 12.825,12.734 12.985,12.616C12.985,12.616 12.986,12.616 12.986,12.616C13.146,12.498 13.27,12.338 13.346,12.154C13.422,11.97 13.446,11.769 13.415,11.572L13.052,9.459L14.581,7.971C14.726,7.829 14.829,7.649 14.877,7.453C14.926,7.256 14.919,7.049 14.856,6.856C14.794,6.663 14.678,6.492 14.524,6.361C14.369,6.23 14.181,6.145 13.98,6.115L11.867,5.809L10.923,3.897C10.923,3.896 10.923,3.895 10.922,3.895C10.832,3.713 10.693,3.561 10.521,3.454C10.349,3.348 10.15,3.291 9.948,3.291C9.746,3.291 9.547,3.348 9.375,3.454C9.375,3.454 9.375,3.454 9.375,3.454C9.203,3.561 9.064,3.714 8.974,3.895L8.026,5.81ZM9.948,4.632L10.817,6.393C10.895,6.551 11.01,6.688 11.153,6.791C11.295,6.895 11.46,6.962 11.634,6.988L13.581,7.27L12.171,8.642C12.045,8.764 11.95,8.916 11.896,9.084C11.841,9.252 11.829,9.431 11.859,9.605L12.191,11.536L10.462,10.626C10.307,10.545 10.133,10.502 9.957,10.502C9.781,10.502 9.608,10.545 9.452,10.627L7.723,11.536L8.053,9.603C8.083,9.431 8.071,9.252 8.016,9.084C7.962,8.916 7.867,8.764 7.74,8.641L6.334,7.27L8.26,6.988C8.433,6.962 8.599,6.895 8.741,6.791C8.741,6.791 8.741,6.791 8.741,6.791C8.883,6.688 8.998,6.551 9.076,6.394L9.948,4.632Z"></path>    <path d="M9.42,1.002L9.419,1.002L9.41,1.476L9.41,1.477L9.41,1.5C9.41,1.831 9.678,2.1 10.009,2.1C10.009,2.1 10.599,2.048 10.61,1.5C10.611,1.434 10.619,1.026 10.619,1.026L10.02,1.6C9.688,0.4 9.42,0.669 9.42,1L9.42,1.002Z"></path>    <path d="M9.391,13.414L9.39,13.413L9.39,13.899C9.39,14.23 9.659,14.499 9.99,14.499C9.99,14.499 10.59,14.441 10.59,13.888L10.59,13.413C10.59,12.874 9.99,13.999 9.99,13.999C9.659,12.799 9.39,13.068 9.39,13.399L9.391,13.414Z"></path>    <path d="M15.969,8.599L16,8.6L16.5,8.6C16.5,8.6 17.278,7.4 16.495,7.4L16.002,7.4C15.704,7.4 15.631,7.572 15.656,7.786C15.501,7.617 15.4,7.797 15.4,8C15.4,8.321 15.652,8.583 15.969,8.599Z"></path>    <path d="M15.924,12.076L15.424,11.576C15.19,11.342 14.81,11.342 14.576,11.576C14.342,11.81 14.342,12.19 14.576,12.424L15.076,12.924C15.31,13.158 15.69,13.158 15.924,12.924C16.158,12.69 16.158,12.31 15.924,12.076Z"></path>    <path d="M14.076,2.576L13.576,3.076C13.342,3.31 13.342,3.69 13.576,3.924C13.81,4.158 14.19,4.158 14.424,3.924L14.924,3.424C15.158,3.19 15.158,2.81 14.924,2.576C14.69,2.341 14.31,2.341 14.076,2.576Z"></path>    <path d="M4.076,11.576L3.576,12.076C3.342,12.31 3.342,12.69 3.576,12.924C3.81,13.158 4.19,13.158 4.424,12.924L4.924,12.424C5.158,12.19 5.158,11.81 4.924,11.576C4.69,11.342 4.31,11.342 4.076,11.576Z"></path>    <path d="M3,8.6L3.5,8.6C3.5,8.6 4.278,7.4 3.495,7.4L3.002,7.4C2.704,7.4 2.631,7.572 2.656,7.786C2.501,7.617 2.4,7.797 2.4,8C2.4,8.331 2.669,8.6 3,8.6Z"></path>    <path d="M4.576,3.424L5.076,3.924C5.31,4.158 5.69,4.158 5.924,3.924C6.158,3.69 6.158,3.31 5.924,3.076L5.424,2.576C5.19,2.341 4.81,2.341 4.576,2.576C4.342,2.81 4.342,3.19 4.576,3.424Z"></path></svg>
