<svg xmlns="http://www.w3.org/2000/svg" viewBox="0 0 29 19" fill-rule="evenodd" clip-rule="evenodd" stroke-linejoin="round" stroke-miterlimit="2"><path d="M18.209 12.648l2.767-2.676a.602.602 0 0 0-.345-1.027l-3.888-.47-1.801-3.35a.6.6 0 0 0-1.068.022l-1.662 3.415-3.814.604a.6.6 0 0 0-.312 1.034l2.834 2.607-.621 3.739a.599.599 0 1 0 .874.628l3.403-1.814 3.473 1.679a.599.599 0 0 0 .852-.649l-.692-3.742zm-1.065-.639a.597.597 0 0 0-.173.54l.534 2.894-2.681-1.296a.598.598 0 0 0-.543.01l-2.599 1.385.475-2.859a.6.6 0 0 0-.186-.539l-2.159-1.987 2.896-.458a.601.601 0 0 0 .446-.33l1.286-2.643 1.393 2.592a.6.6 0 0 0 .457.311l2.946.356-2.092 2.024z"></path><path d="M26.624 15.555l1.842-1.818a.601.601 0 0 0-.348-1.023l-2.583-.319-1.198-2.272a.6.6 0 1 0-1.072.021l-1.106 2.317-2.532.409a.6.6 0 0 0-.315 1.03l1.886 1.771-.413 2.541a.6.6 0 0 0 .878.623l2.26-1.228 2.305 1.137a.598.598 0 0 0 .856-.645l-.46-2.544zm-1.068-.632a.598.598 0 0 0-.169.534l.304 1.684-1.516-.748a.601.601 0 0 0-.552.011l-1.457.792.268-1.648a.602.602 0 0 0-.181-.534l-1.23-1.154 1.638-.264a.598.598 0 0 0 .446-.334l.726-1.522.786 1.492a.601.601 0 0 0 .458.316l1.664.205-1.185 1.17zm-17.655.632l1.842-1.818a.601.601 0 0 0-.348-1.023l-2.583-.319-1.198-2.272a.602.602 0 0 0-.543-.321.602.602 0 0 0-.529.342l-1.105 2.317-2.533.409a.602.602 0 0 0-.315 1.03l1.887 1.771-.414 2.541a.6.6 0 0 0 .879.623L5.2 17.607l2.306 1.137a.6.6 0 0 0 .856-.645l-.461-2.544zm-1.068-.632a.6.6 0 0 0-.169.534l.305 1.684-1.517-.748a.601.601 0 0 0-.552.011l-1.457.792.268-1.648a.6.6 0 0 0-.181-.534L2.3 13.86l1.639-.264a.596.596 0 0 0 .445-.334l.726-1.522.787 1.492a.598.598 0 0 0 .457.316l1.664.205-1.185 1.17z"></path><path d="M21.116 4.358l-1.175 1.921a.416.416 0 0 0 .138.572l.109.03-.11-.03c.197.12.453.058.573-.138l1.175-1.921a.416.416 0 0 0-.138-.572l-.108.385.108-.385a.416.416 0 0 0-.572.138zm-.82 2.138l-.108.385.108-.385zm1.175-1.921l-1.175 1.921 1.175-1.921zm0 0l.11.03-.11-.03zm0 0z"></path><path d="M13.898.416v2.497a.416.416 0 0 0 .832 0V.416a.416.416 0 1 0-.832 0zm.416 0v0zm0 0z"></path><path d="M7.32 4.947L8.4 6.713a.417.417 0 1 0 .71-.434L8.03 4.513a.416.416 0 1 0-.71.434zm.355-.217l1.08 1.766-1.08-1.766z"></path></svg>
