<svg xmlns="http://www.w3.org/2000/svg" xmlns:xlink="http://www.w3.org/1999/xlink" xmlns:serif="http://www.serif.com/" viewBox="0 0 20 20" xml:space="preserve"><path d="m 11.071816,0.19979284 a 0.57566291,0.57566291 0 0 0 -0.67079,0.59396773 C 10.441036,1.674526 10.285663,2.2892196 10.157443,2.7592879 10.036231,3.1617129 9.9998838,3.1871442 9.6496658,4.1064891 a 0.57566291,0.57566291 0 0 0 -0.0057,0.016863 C 9.2443781,5.2781572 9.2999278,5.2895027 9.0051079,5.9633409 a 0.57566291,0.57566291 0 0 0 -0.00562,0.011242 C 8.7112189,6.6746211 8.4320067,7.1100731 8.2312636,7.391112 a 0.57566291,0.57566291 0 0 0 -0.00937,0.016863 C 7.8758177,7.9270866 7.7310987,8.1215875 7.457415,8.2736317 a 0.57566291,0.57566291 0 0 0 -0.00937,0.00562 C 7.2416637,8.399646 6.9871208,8.4493665 6.7660182,8.4684982 V 7.160645 A 0.57566291,0.57566291 0 0 0 6.1907876,6.5854144 H 0.57526302 A 0.57566291,0.57566291 0 0 0 3.2429703e-5,7.160645 V 19.232993 A 0.57566291,0.57566291 0 0 0 0.57526302,19.808223 H 6.1907876 a 0.57566291,0.57566291 0 0 0 0.5752306,-0.57523 v -0.773845 c 0.077456,0.03729 0.1599099,0.07621 0.2323407,0.112424 a 0.57566291,0.57566291 0 0 0 0.00937,0.0037 c 0.9736436,0.463678 1.8621477,0.700549 2.5801053,0.796329 a 0.57566291,0.57566291 0 0 0 0.048716,0.0037 c 0.9733698,0.04422 1.9900278,0.04333 3.0466608,0 0.789326,0 1.504569,-0.0889 2.181004,-0.131159 a 0.57566291,0.57566291 0 0 0 0.06745,-0.0094 c 0.514622,-0.09361 0.99636,-0.223854 1.444634,-0.305417 a 0.57566291,0.57566291 0 0 0 0.0019,-0.0019 c 0.87258,-0.163615 1.646773,-0.728958 1.892453,-1.588911 a 0.57566291,0.57566291 0 0 0 0.0019,-0.0057 c 0.121278,-0.444633 0.02483,-0.663149 -0.02811,-0.914373 0.08802,-0.06881 0.182073,-0.141887 0.290425,-0.252952 0.274227,-0.281093 0.582216,-0.715163 0.67079,-1.305979 a 0.57566291,0.57566291 0 0 0 0.0019,-0.015 c 0.05771,-0.461472 -0.02835,-0.862292 -0.142402,-1.161704 -0.02068,-0.05431 -0.04832,-0.06876 -0.06745,-0.114296 0.463675,-0.412657 0.817527,-0.936369 0.822561,-1.581416 0.02431,-0.611273 -0.213248,-1.105118 -0.455312,-1.418402 -0.01731,-0.0224 -0.03146,-0.02974 -0.04872,-0.05059 0.512776,-0.507499 0.834025,-1.1780136 0.612705,-1.9018214 -0.258823,-0.941941 -1.191195,-1.5220904 -2.152898,-1.4221499 -1.379466,3.893e-4 -2.747555,0.02918 -4.110932,0.037475 0.003,-0.4087821 5.48e-4,-0.8578883 0.02811,-1.105492 a 0.57566291,0.57566291 0 0 0 0.0019,-0.01499 c 0.04243,-0.5094337 0.08402,-0.7659704 0.172383,-1.5608049 a 0.57566291,0.57566291 0 0 0 0.0037,-0.024359 c 0.04057,-0.6068902 0.09222,-0.9211313 0.03197,-1.2965075 C 13.897619,2.7743782 13.742281,2.0437186 13.121661,1.3165271 12.367871,0.40621664 11.32354,0.24175621 11.071816,0.19979284 Z m 0.370996,1.43151846 c 0.276837,0.094815 0.51962,0.083724 0.796329,0.4197122 a 0.57566291,0.57566291 0 0 0 0.0075,0.00937 c 0.415067,0.4842537 0.517145,1.1303352 0.517145,1.2010515 a 0.57566291,0.57566291 0 0 0 0.01124,0.112423 c 0.006,0.030054 -0.0085,0.4111816 -0.0506,1.0492806 -0.0011,0.01597 -7.41e-4,0.00991 -0.0019,0.026232 -0.08405,0.7518237 -0.129931,1.0342362 -0.174254,1.566426 -0.04601,0.4176434 -0.09071,1.0546187 -0.04496,1.8324934 a 0.57566291,0.57566291 0 0 0 0.573357,0.5415038 c 1.58647,0 3.162229,-0.043096 4.727383,-0.043096 a 0.57566291,0.57566291 0 0 0 0.0712,-0.00562 c 0.419128,-0.052391 0.855071,0.2357316 0.9481,0.5845991 a 0.57566291,0.57566291 0 0 0 0.0075,0.022484 c 0.123589,0.3953026 -0.115994,0.8853144 -0.528319,1.0399086 a 0.57566291,0.57566291 0 0 0 -0.204236,0.9462265 c 0.107555,0.107791 0.07713,0.06841 0.09743,0.08432 0.0203,0.01592 0.04389,0.03424 0.0712,0.05809 0.05463,0.04769 0.123495,0.114069 0.187372,0.19674 0.127753,0.16534 0.233503,0.37078 0.219224,0.670789 a 0.57566291,0.57566291 0 0 0 0,0.02811 c 0,0.366174 -0.254735,0.763862 -0.659547,0.981827 a 0.57566291,0.57566291 0 0 0 -0.134908,0.914373 c -0.09239,-0.0923 0.04952,0.06276 0.11055,0.222972 0.06008,0.157728 0.100219,0.367168 0.07307,0.601463 -0.04417,0.280974 -0.190226,0.502826 -0.352259,0.668915 -0.08174,0.08378 -0.163594,0.150406 -0.228593,0.198615 -0.0325,0.02411 -0.06126,0.04282 -0.08619,0.05996 -0.02492,0.01713 0.01192,-0.03816 -0.129286,0.103054 a 0.57566291,0.57566291 0 0 0 -0.151772,0.547125 c 0.05976,0.239172 0.128663,0.446408 0.04685,0.753233 -0.104995,0.363517 -0.466824,0.672088 -0.991195,0.771971 h -0.0019 l -0.0019,0.0019 c -0.500893,0.09137 -0.969006,0.216275 -1.40716,0.297921 -0.711432,0.04573 -1.388252,0.129286 -2.076076,0.129286 a 0.57566291,0.57566291 0 0 0 -0.02436,0 c -1.024099,0.04264 -2.00234,0.04155 -2.9379852,0 C 9.13041,18.14446 8.3648084,17.945858 7.5117569,17.541028 7.2504895,17.410436 7.0156587,17.294012 6.7847553,17.177528 6.855383,15.321526 6.8337408,12.09887 6.8653251,9.4896733 7.2385302,9.4746883 7.5796034,9.5303014 8.0214075,9.2741958 8.5294683,8.9899673 8.8230893,8.5764064 9.1737423,8.0506598 9.4104066,7.7185255 9.7413708,7.1959236 10.063757,6.4130326 10.373149,5.7041523 10.351766,5.6039984 10.727052,4.5168327 l 0.0057,-0.016863 c 0.335902,-0.8803518 0.395362,-0.9661072 0.532097,-1.42215 a 0.57566291,0.57566291 0 0 0 0.0037,-0.01499 c 0.08291,-0.3039289 0.116237,-0.9131545 0.174256,-1.4315184 z M 1.1504936,7.7358756 H 5.6136833 V 18.657762 H 1.1504936 Z"></path></svg>
