<svg
   viewBox="0 0 32 32"
   version="1.1"
   id="svg12"
   xmlns="http://www.w3.org/2000/svg"
   xmlns:svg="http://www.w3.org/2000/svg">
  <path
     id="path2"
     d="m 28.903226,7.2258065 c -1.691966,0 -3.096774,1.4047829 -3.096774,3.0967745 0,0.275658 0.0351,0.542808 0.104838,0.798387 l -4.98387,4.98387 C 20.671843,16.035099 20.404686,16 20.129032,16 c -0.275654,0 -0.54281,0.0351 -0.798387,0.104838 L 15.895161,12.669355 C 15.964903,12.413778 16,12.146622 16,11.870968 16,10.179001 14.595192,8.7741936 12.903226,8.7741936 c -1.691967,0 -3.096774,1.4048074 -3.096774,3.0967744 0,0.275654 0.0351,0.54281 0.104838,0.798387 L 3.8951614,18.685483 C 3.6395826,18.615743 3.3724325,18.580646 3.0967742,18.580646 1.4047829,18.580646 0,19.985454 0,21.677419 c 0,1.691966 1.4047829,3.096774 3.0967742,3.096774 1.6919913,0 3.0967742,-1.404808 3.0967742,-3.096774 0,-0.275654 -0.035098,-0.542811 -0.1048386,-0.798388 l 6.0161292,-6.016127 c 0.255577,0.06974 0.522733,0.104838 0.798387,0.104838 0.275654,0 0.54281,-0.0351 0.798387,-0.104838 l 3.435484,3.435483 c -0.06974,0.255577 -0.104839,0.522733 -0.104839,0.798388 0,1.691965 1.404808,3.096774 3.096774,3.096774 1.691966,0 3.096774,-1.404784 3.096774,-3.096774 0,-0.275659 -0.0351,-0.542809 -0.104838,-0.798387 l 4.98387,-4.983872 c 0.255577,0.06974 0.522734,0.104839 0.798388,0.104839 C 30.595192,13.419355 32,12.014572 32,10.322581 32,8.6305894 30.595192,7.2258065 28.903226,7.2258065 Z" />
</svg>
