<svg xmlns="http://www.w3.org/2000/svg" viewBox="0 0 57 58" fill="none"><path d="M38.002 30.319L7.288 34.334a.998.998 0 0 0-.857 1.085l1.01 7.706a.999.999 0 0 0 1.085.857l30.713-4.015c.242-.038.463-.157.63-.337l3.83-4.417a1 1 0 0 0-.13-1.486l-4.84-3.256a.977.977 0 0 0-.727-.152z" fill="#118AF7"></path><path d="M44.476 34.285l3.864-4.395a.988.988 0 0 0-.185-1.477l-4.808-3.32a.987.987 0 0 0-.694-.174l-30.735 3.798a.999.999 0 0 0-.88 1.086l.956 7.716a.999.999 0 0 0 1.085.868l30.735-3.798a.944.944 0 0 0 .662-.304z" stroke="#050505" stroke-width="2"></path><path d="M27.817 57a1.487 1.487 0 0 1-1.498-1.498V2.498a1.498 1.498 0 0 1 2.996 0v53.004A1.498 1.498 0 0 1 27.817 57z" fill="#fff"></path><path d="M27.817 57a1.487 1.487 0 0 1-1.498-1.498V2.498a1.498 1.498 0 0 1 2.996 0v53.004A1.498 1.498 0 0 1 27.817 57z" stroke="#050505" stroke-width="2"></path><path d="M13.155 6.741l-4.623 3.582a.998.998 0 0 0-.098 1.486l4.103 4.168c.173.17.398.277.64.304l30.908 2.062a.987.987 0 0 0 1.086-.933l.52-7.75a1.01 1.01 0 0 0-.933-1.085l-30.963-2.04a.966.966 0 0 0-.64.206z" fill="#fff"></path><path d="M13.155 6.741l-4.623 3.582a.998.998 0 0 0-.098 1.486l4.103 4.168c.173.17.398.277.64.304l30.908 2.062a.987.987 0 0 0 1.086-.933l.52-7.75a1.01 1.01 0 0 0-.933-1.085l-30.963-2.04a.966.966 0 0 0-.64.206z" stroke="#050505" stroke-width="2"></path><path d="M7.805 5.103L1 10.692l5.936 6.381m43.205 17.733l5.546-6.848-7.109-5.046" stroke="#050505" stroke-width="2" stroke-linecap="round" stroke-linejoin="round"></path></svg>
