<svg xmlns="http://www.w3.org/2000/svg" viewBox="0 0 30 60" fill="none"><path d="M25.349 20.74a8.1 8.1 0 0 0-6.81-8.16 7.888 7.888 0 0 0-8.86 7.533 7.89 7.89 0 0 0 8.27 8.177 11.61 11.61 0 0 1 11.55 10.81c.27 6.5-5.54 12-12.09 11.66a11.77 11.77 0 0 1-11-12.8 1.84 1.84 0 1 1 3.65.17 8 8 0 0 0 7.6 8.89 7.58 7.58 0 0 0-.14-15.16A11.652 11.652 0 0 1 7.146 15.312 11.65 11.65 0 0 1 18.369 8.58a12 12 0 0 1 11.26 12.33 2.16 2.16 0 1 1-4.31-.17h.03z" fill="#118AF7"></path><path d="M15.293 48.75v7.37a2 2 0 0 1-4 0c0-2.44 0-4.87.08-7.31l3.92-.06z" fill="#fff" stroke="#000" stroke-width="2"></path><path d="M15.293 27.82v1.53-1.53z" fill="#fff"></path><path d="M15.293 27.82v1.53" stroke="#000" stroke-width="2"></path><path d="M11.293 10.47V3a2 2 0 1 1 4 0v7.57l-4-.1z" fill="#fff" stroke="#000" stroke-width="2"></path><path d="M11.293 10.9v-.45.45z" fill="#fff"></path><path d="M11.293 10.9v-.45" stroke="#000" stroke-width="2"></path><path d="M20.294 20.74a8.1 8.1 0 0 0-6.81-8.16A7.892 7.892 0 0 0 5.17 23.312a7.889 7.889 0 0 0 7.722 4.978 11.61 11.61 0 0 1 11.55 10.81c.27 6.5-5.54 12-12.09 11.66a11.751 11.751 0 0 1-11-12.8 1.91 1.91 0 0 1 1.73-2 1.94 1.94 0 0 1 1.91 2.14 8 8 0 0 0 7.6 8.89 7.58 7.58 0 0 0-.14-15.16 11.649 11.649 0 1 1 .85-23.28 12 12 0 0 1 11.26 12.33 2.16 2.16 0 1 1-4.31-.17l.04.03z" fill="#fff"></path><path d="M20.294 20.74a8.1 8.1 0 0 0-6.81-8.16A7.892 7.892 0 0 0 5.17 23.312a7.889 7.889 0 0 0 7.722 4.978 11.61 11.61 0 0 1 11.55 10.81c.27 6.5-5.54 12-12.09 11.66a11.75 11.75 0 0 1-11-12.8 1.91 1.91 0 0 1 1.73-2 1.94 1.94 0 0 1 1.91 2.14 8 8 0 0 0 7.6 8.89 7.58 7.58 0 0 0-.14-15.16 11.649 11.649 0 1 1 .85-23.28 12 12 0 0 1 11.26 12.33 2.16 2.16 0 1 1-4.31-.17l.04.03z" stroke="#050505" stroke-width="2" stroke-linecap="round" stroke-linejoin="round"></path></svg>
