<svg xmlns="http://www.w3.org/2000/svg" viewBox="0 0 60 60" fill="none"><path d="M35.28 47.53c11.979 0 21.69-9.711 21.69-21.69 0-11.98-9.711-21.69-21.69-21.69-11.98 0-21.69 9.71-21.69 21.69 0 11.979 9.71 21.69 21.69 21.69z" fill="#0B93F9"></path><path d="M15.238 12a9.79 9.79 0 0 0-.24 5.26c.53 2.16 1.55 2.67 3 5.79 1.27 2.77 2.15 4.69 1.35 6.06-.91 1.59-3 .64-5.42 2.72a8.9 8.9 0 0 0-2.54 3.89c-.79 2.45.08 3.7-.9 5.52a5.78 5.78 0 0 1-2.66 2.38 24.3 24.3 0 0 1-2.64-16.83A24.33 24.33 0 0 1 15.238 12zm10.223 11.31c-.52 1.3.35 2.16.82 4.2 1.08 4.67-2 7-.49 9.22 1.21 1.81 4.59 2.27 5.89 1.15 1.3-1.12-.47-3.22.66-6.55 1-2.9 2.92-3.07 2.94-5.07 0-2.41-2.74-5.35-5.73-5.24-1.55.06-3.47.79-4.09 2.29z" fill="#fff"></path><path d="M29.65 39.5A5.998 5.998 0 0 1 25 37.29c-1-1.47-.52-2.95-.08-4.39a9.26 9.26 0 0 0 .43-5.17 11.917 11.917 0 0 0-.53-1.65 3.912 3.912 0 0 1-.24-3.14c.78-1.92 3.06-2.85 5-2.92a6.56 6.56 0 0 1 4.77 2 6.13 6.13 0 0 1 2 4.25 3.999 3.999 0 0 1-1.41 2.9 6.33 6.33 0 0 0-1.59 2.48 7.5 7.5 0 0 0-.21 3.7c.15 1.16.3 2.35-.72 3.27a4 4 0 0 1-2.77.88zm.06-17.5h-.12c-1.24.05-2.78.65-3.2 1.67-.18.46-.08.79.26 1.68.25.621.453 1.26.61 1.91a11.18 11.18 0 0 1-.47 6.21c-.42 1.36-.6 2-.17 2.69a3.62 3.62 0 0 0 2.48 1.29 2.61 2.61 0 0 0 1.9-.32c.21-.19.21-.51.08-1.52a9.452 9.452 0 0 1 .3-4.6 8.19 8.19 0 0 1 2-3.2c.61-.66.86-1 .87-1.56a4.19 4.19 0 0 0-1.39-2.8A4.66 4.66 0 0 0 29.71 22z" fill="#000"></path><path d="M19 53.68a26.08 26.08 0 0 0 4.82-4.8c1.9-2.47 2.06-3.64 3.93-5.24.54-.46 3.86-3.3 6.22-2.29 1.74.75 1.31 2.91 3.11 3.6 1.8.69 3-1.09 5.07-.65 1 .21 2.38 1 3.69 3.83A24.53 24.53 0 0 1 19 53.68zM36.941 9.56c.14 1.17.38 2.81.8 4.75.95 4.38 1.46 6.59 3.14 7.54 1.68.95 2.46-.22 4.08.78s1.44 2.71 3.14 4.87a10.28 10.28 0 0 0 3.93 3 23.19 23.19 0 0 0-15.09-20.94z" fill="#fff"></path><path d="M27.84 55.85A24.82 24.82 0 1 1 52.66 31a24.84 24.84 0 0 1-24.82 24.85zm0-47.63A22.82 22.82 0 1 0 50.66 31 22.84 22.84 0 0 0 27.84 8.22z" fill="#000"></path><path d="M7.149 43.84a1 1 0 0 1-.87-.51 25.33 25.33 0 0 1-2.69-17.54 25.21 25.21 0 0 1 10.46-15.38 1 1 0 0 1 1.51 1.13 8.76 8.76 0 0 0-.26 4.7c.234.89.635 1.728 1.18 2.47a22.762 22.762 0 0 1 1.74 3.13c1.38 3 2.37 5.16 1.32 7a3.732 3.732 0 0 1-2.72 1.64 6 6 0 0 0-2.92 1.32 7.49 7.49 0 0 0-2.57 6 6 6 0 0 1-.64 3.13 6.75 6.75 0 0 1-3.1 2.82c-.14.06-.29.09-.44.09zm6-30.21a23 23 0 0 0-7.61 12.58 23.28 23.28 0 0 0 2 15.25A4.32 4.32 0 0 0 8.929 40a4.09 4.09 0 0 0 .4-2.19 9.56 9.56 0 0 1 .43-3.16 9.89 9.89 0 0 1 2.83-4.34 8.11 8.11 0 0 1 3.77-1.77c.9-.21 1.23-.32 1.45-.69.53-.92-.28-2.69-1.4-5.13a21.7 21.7 0 0 0-1.61-2.9 9.17 9.17 0 0 1-1.44-3.08 9.89 9.89 0 0 1-.24-3.11h.03zM27.74 55.71a26.091 26.091 0 0 1-9.74-1.9 1 1 0 0 1-.24-1.72 24.715 24.715 0 0 0 4.64-4.61c.71-.93 1.17-1.67 1.58-2.32a11.546 11.546 0 0 1 2.49-3.07c1.62-1.38 4.72-3.54 7.26-2.44a4 4 0 0 1 2 2.28c.34.72.54 1.1 1 1.3.46.2 1 .05 1.78-.26a5.25 5.25 0 0 1 3.14-.44c1.74.38 3.21 1.85 4.39 4.39a1.001 1.001 0 0 1-.12 1.08 25.601 25.601 0 0 1-12.28 7 25.249 25.249 0 0 1-5.9.71zm-7.38-3.16A23.5 23.5 0 0 0 44 47.14c-.82-1.55-1.73-2.44-2.69-2.65a3.4 3.4 0 0 0-2 .35 4.23 4.23 0 0 1-3.22.26 3.91 3.91 0 0 1-2.14-2.32c-.32-.69-.52-1.09-1-1.3-1.1-.47-3.08.34-5.17 2.13a9.645 9.645 0 0 0-2.09 2.6A27.842 27.842 0 0 1 24 48.7a28.006 28.006 0 0 1-3.64 3.85zm31.03-21.86a1 1 0 0 1-.39-.09 11.52 11.52 0 0 1-4.3-3.27 11.728 11.728 0 0 1-1.56-2.77 3.45 3.45 0 0 0-1.31-1.87 2.19 2.19 0 0 0-1.52-.28 4.11 4.11 0 0 1-2.53-.48c-2.1-1.19-2.64-3.68-3.63-8.19-.34-1.6-.62-3.23-.82-4.85a.998.998 0 0 1 .38-.9 1 1 0 0 1 1-.15 24.12 24.12 0 0 1 15.68 21.82 1 1 0 0 1-1 1.03zm-8.63-10.3a3.83 3.83 0 0 1 2.1.6A5.35 5.35 0 0 1 47 23.77a9.397 9.397 0 0 0 1.3 2.32 8.74 8.74 0 0 0 2 1.83 22.1 22.1 0 0 0-12.76-17.55c.15 1 .34 2 .55 2.94.92 4.25 1.38 6.16 2.65 6.88a2.2 2.2 0 0 0 1.42.22l.6-.02z" fill="#000"></path></svg>
