<svg xmlns="http://www.w3.org/2000/svg" viewBox="0 0 36 41" fill="none"><circle cx="17.921" cy="13.978" r="13.978" fill="#fff"></circle><path fill="#fff" d="M11.263 25.67c-1.964-1.134-2.457-1.82-3.47-2.675C5.454 26.945 3.3 30.793 1 34.676c1.993-.528 3.947-.99 5.94-1.517.664 1.974 1.329 3.947 2.032 5.855 2.25-4 4.236-7.817 6.488-11.816-1.462-.166-2.107-.41-4.197-1.528zM24.313 25.822c-1.964 1.134-2.804 1.217-4.052 1.667 2.251 4 4.507 7.79 6.72 11.723.54-1.99 1.117-3.912 1.656-5.902 2.041.411 4.083.822 6.086 1.167-2.338-3.949-4.65-7.577-6.989-11.526-.874 1.183-1.408 1.62-3.42 2.87z"></path><circle cx="16.817" cy="13.61" r="9.932" fill="#118AF7"></circle><circle cx="17.921" cy="13.978" r="12.978" stroke="#050505" stroke-width="2"></circle><circle cx="18.289" cy="13.61" r="8.46" fill="#fff"></circle><circle cx="18.289" cy="13.61" r="7.46" stroke="#050505" stroke-width="2"></circle><rect width="1.471" height="8.093" x="17.921" y="9.563" fill="#050505" rx=".736"></rect><path fill="#050505" d="M16.093 11.329c-.21-.363-.085-.827.278-1.036l1.82-1.051c.392-.227.893-.094 1.122.296.242.412.084.942-.343 1.154l-1.882.937c-.359.178-.795.047-.995-.3z"></path><rect width="5.885" height="1.471" x="15.714" y="16.92" fill="#050505" rx=".736"></rect><path stroke="#050505" stroke-linecap="round" stroke-linejoin="round" stroke-miterlimit="10" stroke-width="2" d="M11.3 25.749c-1.965-1.134-2.208-1.84-3.311-2.943C5.65 26.756 3.3 30.793 1 34.676c1.993-.528 3.947-.99 5.94-1.517.664 1.974 1.329 3.947 2.032 5.855 2.25-4 4.49-7.794 6.742-11.794-1.462-.166-2.325-.353-4.415-1.471zM24.174 25.749c-1.965 1.134-2.575 1.104-4.046 1.471 2.251 4 4.64 8.059 6.853 11.992.54-1.989 1.116-3.912 1.656-5.902 2.041.411 4.083.823 6.086 1.168-2.338-3.95-4.65-7.578-6.989-11.527-.985.959-1.547 1.547-3.56 2.798z"></path></svg>
