<svg xmlns="http://www.w3.org/2000/svg" viewBox="0 0 49 45" fill="none"><g clip-path="url(#clip0_2_6717)"><path d="M11.953 13.303c3.39 0 6.14-2.708 6.14-6.048s-2.75-6.047-6.14-6.047c-3.391 0-6.14 2.707-6.14 6.047s2.749 6.048 6.14 6.048z" fill="#fff"></path><path d="M14.006 13.303c3.39 0 6.14-2.708 6.14-6.048s-2.75-6.047-6.14-6.047c-3.391 0-6.14 2.707-6.14 6.047s2.749 6.048 6.14 6.048zm34.209-6.7a2.615 2.615 0 0 0 0-3.739 2.713 2.713 0 0 0-3.795 0L6.304 40.407a2.615 2.615 0 0 0 0 3.738 2.713 2.713 0 0 0 3.795 0L48.215 6.602z" fill="#118AF7"></path><path d="M43.8 5.603a2.615 2.615 0 0 0 0-3.738 2.713 2.713 0 0 0-3.795 0L1.889 39.407a2.615 2.615 0 0 0 0 3.738 2.713 2.713 0 0 0 3.795 0L43.8 5.603z" fill="#fff" stroke="#000" stroke-width="2"></path><path d="M10.35 13.303c3.391 0 6.14-2.708 6.14-6.048s-2.749-6.047-6.14-6.047c-3.39 0-6.14 2.707-6.14 6.047s2.75 6.048 6.14 6.048z" stroke="#000" stroke-width="2"></path><path d="M34.066 43.749c3.342 0 6.051-2.669 6.051-5.961 0-3.292-2.71-5.96-6.051-5.96-3.343 0-6.052 2.668-6.052 5.96s2.71 5.96 6.052 5.96z" fill="#fff"></path><path d="M39.052 43.749c3.343 0 6.052-2.669 6.052-5.961 0-3.292-2.71-5.96-6.052-5.96-3.342 0-6.052 2.668-6.052 5.96s2.71 5.96 6.052 5.96z" fill="#118AF7"></path><path d="M35.452 43.749c3.342 0 6.052-2.669 6.052-5.961 0-3.292-2.71-5.96-6.052-5.96-3.342 0-6.052 2.668-6.052 5.96s2.71 5.96 6.052 5.96z" stroke="#000" stroke-width="2"></path></g><defs><clipPath id="clip0_2_6717"><path fill="#fff" d="M0 0H49V45H0z"></path></clipPath></defs></svg>
