<svg xmlns="http://www.w3.org/2000/svg" viewBox="0 0 44 68" fill="none"><path d="M21.69 1.189a46.074 46.074 0 0 1 12.3 21.034 44.74 44.74 0 0 1 0 22.781c-7.914-.344-15.816-.511-23.729-.856a42.71 42.71 0 0 1-.87-20.213 44.522 44.522 0 0 1 12.3-22.746zm0 17.526a6.16 6.16 0 0 0-3.42 1.028 6.123 6.123 0 0 0-.945 9.441 6.154 6.154 0 0 0 6.704 1.336 6.146 6.146 0 0 0 2.762-2.26 6.125 6.125 0 0 0 1.037-3.41 6.212 6.212 0 0 0-1.821-4.31 6.24 6.24 0 0 0-4.317-1.825zm-12.31 5.28c-2.11 2.627-4.04 5.255-6.15 7.894.262 6.742.607 13.413.87 20.214 2.11-2.7 3.992-5.327 6.15-7.895a49.701 49.701 0 0 1-1.49-8.68 42.079 42.079 0 0 1 .62-11.534zM35.382 35.54a51.129 51.129 0 0 1-1.406 9.512c2.11 2.64 4.04 4.91 6.054 7.455.263-6.754.441-13.412.715-20.213-2.109-2.628-4.123-5.172-6.233-7.8a45.232 45.232 0 0 1 .87 11.046zM16.84 44.41c-1.192 1.926-2.467 3.852-3.695 5.945 5.804.178 11.513.262 17.316.428-1.06-1.926-2.109-4.03-3.17-5.945-3.337-.178-6.852-.345-10.451-.428zm-1.192 19.428v-7.502 7.502zm5.959 2.961c0-2.556 0-7.955.06-10.51l-.06 10.51zm6.042-3.044v-7.503 7.503z" fill="#fff"></path><path d="M33.977 45.004a44.74 44.74 0 0 0 0-22.781A46.076 46.076 0 0 0 21.69 1.189 44.522 44.522 0 0 0 9.38 23.994m24.597 21.01l-24.026.06m24.026-.06a51.136 51.136 0 0 0 1.407-9.512 45.236 45.236 0 0 0-.87-11.046l8.14 6.86.154 22.414-8.83-8.716zM9.38 23.994c-.095.393-.214.963-.345 1.653a35.115 35.115 0 0 0-.275 9.833c.246 2.947.447 6.722 1.192 9.584m-.572-21.07L1.192 31.83c.063 7.57.095 15.144.095 22.722l5.887-6.444 2.777-3.044m-.572-21.07c-1.333 6.71-1.333 14.498.572 21.07m-.572-21.07L8.63 29l-.035 5 .575 5.5.782 5.564m0 0h24.026m-6.245 14.703v-5.503 5.503zM16.5 45.047L13 51.212h17.39L27 45.021l-10.5.027zm-.864 14.803v-5.502 5.502zm5.959 2.96c0-2.556 0-5.954.06-8.51l-.06 8.51z" stroke="#000" stroke-width="2" stroke-linecap="round" stroke-linejoin="round"></path><path d="M15.493 24.946a6.125 6.125 0 0 1 1.06-3.396 6.163 6.163 0 0 1 9.455-.878 6.13 6.13 0 0 1 1.311 6.68 6.139 6.139 0 0 1-2.265 2.746 6.16 6.16 0 0 1-3.412 1.03 6.24 6.24 0 0 1-4.34-1.837 6.211 6.211 0 0 1-1.809-4.345z" fill="#118AF7" stroke="#000" stroke-width="2" stroke-linecap="round" stroke-linejoin="round"></path></svg>
