<svg xmlns="http://www.w3.org/2000/svg" viewBox="0 0 60 60" fill="none"><path d="M13.871 54.65h32.26a16.47 16.47 0 0 0-15.27-14.72 16.51 16.51 0 0 0-16.99 14.72z" fill="#0B93F9"></path><path d="M29.999 34a12.52 12.52 0 1 1-.02-25.041A12.52 12.52 0 0 1 30 34zm0-23a10.52 10.52 0 1 0-.02 21.04 10.52 10.52 0 0 0 .02-21.04z" fill="#000"></path><path d="M51.54 55.55H8.46a1 1 0 0 1-1-1 22.54 22.54 0 1 1 45.08 0 1 1 0 0 1-1 1zm-42.06-2h41a20.54 20.54 0 0 0-41 0z" fill="#000"></path><path d="M17.58 15.69c1.69-7.54 4-9.67 5.87-10.08 1.87-.41 2.93 1 6.5 1s4.72-1.48 6.62-1.07c1.9.41 4.14 2.58 5.76 10.17 3.88-.26 4.82-.22 4.83-.12 0 .31-8.25 2.13-17.77 2.1-8.69 0-16.59-1.57-16.55-1.93.01-.14.86-.22 4.74-.07z" fill="#fff"></path><path d="M29.57 18.67h-.18c-7 0-16.37-1.22-17.28-2.22a1.07 1.07 0 0 1-.27-.8c.1-1.08.82-1.15 4.95-1 1.48-6.13 3.6-9.42 6.45-10a5.47 5.47 0 0 1 3 .34 11 11 0 0 0 3.76.6c1.28 0 2.549-.226 3.75-.67a5.37 5.37 0 0 1 3.08-.37c2.83.61 4.91 3.91 6.34 10.09 4.33-.29 4.92-.27 5 .82a1.061 1.061 0 0 1-.26.8c-.83.92-9.98 2.41-18.34 2.41zm-11-2.75c3.597.478 7.22.728 10.85.75a84.54 84.54 0 0 0 11.93-.85c-1.22-5.66-2.93-8.88-5-9.32a3.71 3.71 0 0 0-2 .32 12.94 12.94 0 0 1-4.35.77 12.2 12.2 0 0 1-4.28-.71 3.7 3.7 0 0 0-2-.3c-2.07.45-3.84 3.67-5.11 9.33l-.04.01zM30.051 28a6.68 6.68 0 0 1-5-2.53 1 1 0 1 1 1.6-1.2 4.579 4.579 0 0 0 3.84 1.73 4.26 4.26 0 0 0 2.81-1.7 1.002 1.002 0 1 1 1.62 1.18 6.27 6.27 0 0 1-4.19 2.52 5.248 5.248 0 0 1-.68 0z" fill="#000"></path><path d="M20.55 16.16c3.051.355 6.12.532 9.19.53a81.007 81.007 0 0 0 9.65-.61c-1.39-5-3.06-6.35-4.39-6.55-1.64-.24-2.43 1.4-5 1.45-2.57.05-3.42-1.52-5.1-1.23-1.31.25-2.9 1.56-4.35 6.41z" fill="#0B93F9"></path></svg>
