<svg xmlns="http://www.w3.org/2000/svg" viewBox="0 0 60 60" fill="none"><path d="M9.559 55.66h40.86A20.86 20.86 0 0 0 31.079 37a20.92 20.92 0 0 0-21.52 18.66zm20.593-25.24a9.48 9.48 0 1 0 0-18.96 9.48 9.48 0 0 0 0 18.96z" fill="#0B93F9"></path><path d="M30 32a14.21 14.21 0 1 1 14.21-14.19A14.23 14.23 0 0 1 30 32zm0-26.39a12.21 12.21 0 1 0 12.21 12.2A12.22 12.22 0 0 0 30 5.61z" fill="#000"></path><path d="M54.71 56.73H5.29a1 1 0 0 1-1-1 25.71 25.71 0 0 1 51.42 0 1 1 0 0 1-1 1zm-48.4-2h47.38a23.71 23.71 0 0 0-47.38 0z" fill="#000"></path><path d="M29.61 36.38L27 33a.61.61 0 0 1 .48-1h5.36a.61.61 0 0 1 .47 1l-2.74 3.34a.62.62 0 0 1-.96.04z" fill="#fff"></path><path d="M30.099 37.61a1.58 1.58 0 0 1-1.27-.61l-2.62-3.33a1.62 1.62 0 0 1 1.27-2.61h5.36a1.61 1.61 0 0 1 1.25 2.64l-2.75 3.3a1.57 1.57 0 0 1-1.24.61zm-1.82-4.56l1.82 2.33 1.9-2.33h-3.72z" fill="#000"></path><path d="M30.129 36.61l-4 3.66 3.6 15.64 4.22-15.74-3.82-3.56z" fill="#fff"></path><path d="M29.689 56.91a1 1 0 0 1-1-.78l-3.57-15.63a1 1 0 0 1 .3-1l4-3.66a1 1 0 0 1 1.35 0l3.78 3.56a1 1 0 0 1 .28 1l-4.17 15.77a1 1 0 0 1-.97.74zm-2.49-16.29l2.56 11.15 3-11.28-2.64-2.49-2.92 2.62zm2.8-15.54a6.68 6.68 0 0 1-4.95-2.53 1.003 1.003 0 0 1 .162-1.436 1.002 1.002 0 0 1 1.427.226 4.611 4.611 0 0 0 3.8 1.71 4.191 4.191 0 0 0 2.81-1.69 1.001 1.001 0 0 1 1.824.413 1 1 0 0 1-.204.757 6.25 6.25 0 0 1-4.15 2.47c-.23.06-.46.08-.72.08z" fill="#000"></path></svg>
