<svg width="178" height="34" fill="none" xmlns="http://www.w3.org/2000/svg"><path d="M60.145 19.93c0 .604-.149 1.172-.448 1.706-.299.533-.747.999-1.345 1.397-.597.399-1.344.715-2.24.95-.891.228-1.934.342-3.13.342-1.195 0-2.244-.114-3.146-.343-.896-.234-1.644-.55-2.241-.949-.598-.398-1.046-.864-1.345-1.397a3.434 3.434 0 0 1-.448-1.705v-8.007h3.252v6.838c0 .404.05.788.15 1.151.105.357.298.671.58.94.286.27.685.484 1.194.642.516.158 1.184.237 2.004.237.815 0 1.477-.079 1.987-.237.51-.158.905-.372 1.186-.642.287-.269.48-.583.58-.94.1-.363.15-.747.15-1.151v-6.838h3.26v8.007zM70.698 24h-3.261V11.924h8.174c.879 0 1.623.09 2.232.272.615.182 1.113.44 1.494.774.387.334.665.738.835 1.213.176.468.264.993.264 1.573 0 .51-.073.955-.22 1.336-.14.38-.334.709-.58.984-.24.27-.521.498-.844.686a5.73 5.73 0 0 1-1.02.465L81.729 24h-3.814l-3.657-4.447h-3.56V24zm6.442-8.262a1.64 1.64 0 0 0-.097-.597.775.775 0 0 0-.316-.396 1.572 1.572 0 0 0-.615-.228 5.322 5.322 0 0 0-.95-.07h-4.464v2.583h4.465c.38 0 .697-.023.949-.07.258-.047.463-.12.615-.22a.82.82 0 0 0 .316-.404c.065-.164.097-.363.097-.598zM87.666 24V11.924h3.26v9.43h8.816V24H87.666zm29.422-8.675c-.228-.111-.53-.237-.905-.378-.375-.14-.8-.272-1.275-.395-.474-.13-.99-.235-1.546-.317a10.977 10.977 0 0 0-1.714-.131c-.469 0-.87.014-1.204.044-.329.029-.607.067-.835.114a2.442 2.442 0 0 0-.537.167c-.128.058-.228.12-.298.184a.496.496 0 0 0-.141.194.655.655 0 0 0-.026.175c0 .176.088.332.263.466.176.13.416.246.721.352.305.1.659.196 1.063.29.405.088.833.181 1.284.281.457.094.925.2 1.406.317.486.11.955.243 1.406.395.457.152.888.331 1.292.536.404.2.759.434 1.064.703.304.27.545.58.72.932.176.351.264.753.264 1.204 0 .58-.103 1.078-.308 1.494-.205.416-.48.768-.826 1.055-.34.287-.735.518-1.186.694a8.49 8.49 0 0 1-1.424.396c-.492.093-.993.155-1.503.184-.504.03-.984.044-1.441.044-1.196 0-2.303-.1-3.323-.299a16.433 16.433 0 0 1-2.689-.73v-2.882c.803.445 1.717.794 2.742 1.046 1.031.252 2.133.378 3.305.378.691 0 1.254-.035 1.687-.106.44-.076.782-.17 1.029-.28.246-.118.413-.244.501-.379a.718.718 0 0 0 .131-.387c0-.193-.088-.36-.263-.5a2.299 2.299 0 0 0-.721-.378 8.193 8.193 0 0 0-1.064-.3 34.685 34.685 0 0 0-1.291-.272c-.452-.093-.917-.193-1.398-.299-.48-.105-.949-.228-1.406-.369a11.445 11.445 0 0 1-1.283-.5 4.923 4.923 0 0 1-1.064-.677 3.036 3.036 0 0 1-.721-.906 2.612 2.612 0 0 1-.263-1.195c0-.533.093-.993.281-1.38.187-.387.439-.715.756-.984a4.037 4.037 0 0 1 1.107-.668c.422-.17.865-.302 1.327-.396.463-.093.932-.158 1.407-.193.474-.035.925-.053 1.353-.053.469 0 .949.024 1.442.07.498.047.987.115 1.467.203.481.082.944.178 1.389.29.451.111.867.228 1.248.351v2.795zM124.784 24V11.924h3.261v9.43h8.815V24h-12.076zm27.998-2.285h-6.732L144.916 24h-3.639l6.32-12.076h3.638L157.555 24h-3.639l-1.134-2.285zm-5.563-2.356h4.412l-2.197-4.447-2.215 4.447zm29.686 1.31c0 .469-.062.876-.185 1.222a2.717 2.717 0 0 1-.518.896 2.644 2.644 0 0 1-.791.607 4.985 4.985 0 0 1-1.02.369c-.369.088-.765.15-1.187.184-.421.035-.858.053-1.309.053h-8.763V11.924h8.605c.345 0 .691.014 1.037.044.351.03.685.085 1.002.167.316.076.609.184.879.325.275.14.512.325.712.554.205.228.363.504.474.826.117.322.176.703.176 1.142 0 .786-.193 1.41-.58 1.873-.387.456-.996.761-1.828.914.586.04 1.087.131 1.503.272.422.135.764.322 1.028.563.264.234.457.524.58.87.123.34.185.738.185 1.195zm-4.07-5.168c0-.152-.023-.296-.07-.43a.828.828 0 0 0-.255-.37 1.382 1.382 0 0 0-.501-.255 2.819 2.819 0 0 0-.808-.096h-4.808v2.267h4.808c.328 0 .597-.03.808-.088.211-.058.378-.137.501-.237a.78.78 0 0 0 .255-.352c.047-.14.07-.287.07-.439zm.756 4.79c0-.275-.047-.495-.14-.66a.897.897 0 0 0-.44-.386 2.34 2.34 0 0 0-.773-.184c-.317-.03-.695-.044-1.134-.044h-4.711v2.557h4.711c.439 0 .817-.014 1.134-.044.316-.029.574-.09.773-.184a.958.958 0 0 0 .44-.387c.093-.17.14-.393.14-.668z" fill="#14142B"/><g clip-path="url(#clip0_3_5571)"><path d="M8.451 0h13.022A12.527 12.527 0 0 1 34 12.527v13.022A8.45 8.45 0 0 1 25.549 34H12.527A12.526 12.526 0 0 1 0 21.473V8.451A8.451 8.451 0 0 1 8.451 0z" fill="#554cff"/><path d="M22.828 22.318A5.834 5.834 0 0 1 17 28.146a5.834 5.834 0 0 1-5.374-8.093 5.782 5.782 0 0 1 1.305-1.907 1.02 1.02 0 0 1 1.424 1.46 3.787 3.787 0 1 0 5.29 0 1.02 1.02 0 0 1 1.424-1.46 5.784 5.784 0 0 1 1.759 4.172zm-4.808-1.583v-7.469a1.02 1.02 0 0 0-2.04 0v7.469a1.02 1.02 0 1 0 2.04 0zm5.71-12.33a1.02 1.02 0 0 0-.885-.51H11.154a1.02 1.02 0 0 0-.884 1.53l2.49 4.311a1.02 1.02 0 1 0 1.767-1.02L12.92 9.935h8.16l-1.607 2.781a1.02 1.02 0 0 0 1.768 1.02l2.49-4.311a1.02 1.02 0 0 0-.002-1.02z" fill="#fff"/></g><defs><clipPath id="clip0_3_5571"><path fill="#fff" d="M0 0H34V34H0z"/></clipPath></defs></svg>
