<!-- Generated by IcoMoon.io -->
<svg version="1.1" xmlns="http://www.w3.org/2000/svg" viewBox="0 0 32 32">
<title>dribbble-brands</title>
<path d="M16 0.512c-8.544 0-15.488 6.944-15.488 15.488s6.944 15.488 15.488 15.488 15.488-6.944 15.488-15.488-6.944-15.488-15.488-15.488zM26.24 7.648c1.856 2.24 2.976 5.12 3.008 8.256-0.448-0.096-4.832-0.992-9.216-0.448-0.384-0.864-0.704-1.632-1.184-2.592 4.896-1.984 7.136-4.832 7.392-5.216zM24.768 6.112c-0.224 0.352-2.208 3.008-6.944 4.8-2.144-4-4.544-7.264-4.928-7.776 4.192-0.992 8.64 0.096 11.872 2.976zM10.368 4.032c0.352 0.48 2.72 3.776 4.928 7.648-6.208 1.664-11.648 1.632-12.256 1.632 0.864-4.128 3.616-7.52 7.328-9.28zM2.752 16.032c0-0.16 0-0.288 0.032-0.416 0.576 0 6.976 0.096 13.6-1.888 0.384 0.736 0.736 1.504 1.056 2.24-4.768 1.344-9.12 5.216-11.264 8.896-2.112-2.336-3.424-5.44-3.424-8.832zM7.872 26.464c1.376-2.816 5.152-6.464 10.464-8.288 1.856 4.832 2.656 8.864 2.848 10.048-4.256 1.792-9.376 1.312-13.312-1.76zM23.392 27.008c-0.128-0.832-0.832-4.704-2.56-9.44 4.128-0.672 7.776 0.416 8.256 0.544-0.608 3.68-2.72 6.88-5.696 8.896z"></path>
</svg>
