<!-- Generated by IcoMoon.io -->
<svg version="1.1" xmlns="http://www.w3.org/2000/svg" viewBox="0 0 32 32">
<title>icon-info</title>
<path d="M16 0c-8.837 0-16 7.163-16 16s7.163 16 16 16c8.837 0 16-7.163 16-16v0c-0.018-8.829-7.171-15.982-15.998-16h-0.002zM16 6.56c1.149 0 2.080 0.931 2.080 2.080s-0.931 2.080-2.080 2.080c-1.149 0-2.080-0.931-2.080-2.080v0c0-1.149 0.931-2.080 2.080-2.080v0zM19.84 24.64h-7.040c-0.707 0-1.28-0.573-1.28-1.28s0.573-1.28 1.28-1.28v0h2.24v-7.040h-1.28c-0.707 0-1.28-0.573-1.28-1.28s0.573-1.28 1.28-1.28v0h2.56c0.707 0 1.28 0.573 1.28 1.28v0 8.32h2.24c0.707 0 1.28 0.573 1.28 1.28s-0.573 1.28-1.28 1.28v0z"></path>
</svg>
