<!-- Generated by IcoMoon.io -->
<svg version="1.1" xmlns="http://www.w3.org/2000/svg" viewBox="0 0 32 32">
<title>use-cases</title>
<path d="M13.472 29.44c-0.612-0.792-1.262-1.493-1.97-2.131l-0.014-0.013c-0.263-0.2-0.448-0.49-0.511-0.824l-0.001-0.008c-0.064-0.384-0.096-0.8-0.096-1.184-0.064-1.024-0.128-2.048-0.128-3.072 0-0.576-0.128-1.568 0.224-1.984 0.213-0.219 0.344-0.518 0.344-0.848s-0.131-0.629-0.345-0.848l0 0c-0.219-0.213-0.518-0.344-0.848-0.344s-0.629 0.131-0.848 0.345l0-0c-0.566 0.724-0.908 1.647-0.908 2.65 0 0.115 0.004 0.228 0.013 0.341l-0.001-0.015c0 1.184 0 2.368 0.064 3.584-0.007 0.109-0.011 0.236-0.011 0.363 0 1.039 0.265 2.016 0.731 2.868l-0.016-0.031c0.64 0.864 1.568 1.504 2.24 2.368 0.223 0.362 0.617 0.6 1.067 0.6 0.219 0 0.425-0.056 0.604-0.155l-0.006 0.003c0.355-0.217 0.588-0.602 0.588-1.041 0-0.23-0.064-0.445-0.175-0.628l0.003 0.005zM10.976 20.16h0.096l-0.256 0.128c0.093-0.048 0.201-0.082 0.315-0.096l0.005-0h-0.256c0.146 0.032 0.274 0.076 0.395 0.133l-0.011-0.005-0.288-0.128c0.134 0.052 0.251 0.116 0.356 0.195l-0.004-0.003-0.256-0.192c0.101 0.071 0.185 0.155 0.254 0.253l0.002 0.003-0.096-0.128c0.152 0.274 0.399 0.479 0.695 0.574l0.009 0.002c0.092 0.024 0.197 0.038 0.306 0.038 0.229 0 0.444-0.062 0.628-0.169l-0.006 0.003c0.266-0.161 0.468-0.405 0.573-0.695l0.003-0.009c0.020-0.088 0.032-0.188 0.032-0.292 0-0.233-0.059-0.452-0.164-0.643l0.004 0.007c-0.354-0.58-0.9-1.012-1.549-1.211l-0.020-0.005c-0.163-0.042-0.359-0.076-0.56-0.095l-0.016-0.001h-0.288c-0.403 0.029-0.774 0.144-1.102 0.327l0.014-0.007c-0.271 0.155-0.476 0.401-0.573 0.695l-0.003 0.009c-0.020 0.088-0.032 0.188-0.032 0.292 0 0.233 0.059 0.452 0.164 0.643l-0.004-0.007c0.165 0.267 0.423 0.462 0.728 0.542l0.008 0.002h0.32c0.213-0.003 0.411-0.062 0.582-0.163l-0.006 0.003zM14.080 24.16c-0.258-2.216-0.404-4.783-0.404-7.384 0-1.737 0.066-3.459 0.194-5.163l-0.014 0.227c0.019-0.356 0.124-0.685 0.293-0.97l-0.005 0.010c0-0.096 0.256-0.096 0.096-0.128s0 0 0 0.096c0.208 0.646 0.328 1.39 0.328 2.162 0 0.117-0.003 0.234-0.008 0.351l0.001-0.016c0 1.792-0.128 3.616-0.128 5.408 0.098 0.582 0.598 1.019 1.2 1.019s1.102-0.438 1.199-1.012l0.001-0.007c0.060-1.056 0.095-2.292 0.095-3.536s-0.034-2.48-0.102-3.707l0.008 0.171c-0.003-1.153-0.522-2.185-1.338-2.875l-0.006-0.005c-0.369-0.237-0.819-0.378-1.303-0.378-0.68 0-1.296 0.279-1.737 0.73l-0 0c-0.678 0.755-1.093 1.759-1.093 2.86 0 0.075 0.002 0.149 0.006 0.222l-0-0.010c-0.064 1.344-0.096 2.688-0.096 4q0 4 0.352 8c0.16 1.536 2.56 1.568 2.4 0zM16.16 16.32v0c0.5 0.059 0.954 0.172 1.385 0.333l-0.041-0.013-0.288-0.096c0.135 0.055 0.25 0.12 0.358 0.196l-0.006-0.004-0.224-0.192c0.106 0.088 0.2 0.182 0.285 0.284l0.003 0.004-0.192-0.224c0.111 0.13 0.207 0.277 0.283 0.436l0.005 0.012-0.128-0.288c0.087 0.213 0.154 0.461 0.19 0.719l0.002 0.017v-0.32c0.025 0.216 0.039 0.466 0.039 0.72s-0.014 0.504-0.042 0.75l0.003-0.030c0.011 0.334 0.143 0.636 0.353 0.865l-0.001-0.001c0.219 0.213 0.518 0.344 0.848 0.344s0.629-0.131 0.848-0.345l-0 0c0.203-0.231 0.332-0.531 0.352-0.86l0-0.004c0.043-0.241 0.067-0.517 0.067-0.8 0-0.884-0.239-1.712-0.655-2.423l0.012 0.023c-0.388-0.564-0.951-0.983-1.611-1.179l-0.021-0.005c-0.512-0.154-1.111-0.268-1.728-0.318l-0.032-0.002c-0.341 0.007-0.647 0.153-0.863 0.383l-0.001 0.001c-0.213 0.219-0.344 0.518-0.344 0.848s0.131 0.629 0.345 0.848l-0-0c0.231 0.198 0.533 0.318 0.864 0.32h0zM20 16.48v0l-0.224 0.192 0.128-0.064-0.288 0.096c0.075-0.034 0.162-0.056 0.253-0.064l0.003-0h-0.32c0.072-0.010 0.155-0.016 0.24-0.016s0.168 0.006 0.249 0.017l-0.009-0.001h-0.32c0.409 0.070 0.774 0.181 1.118 0.332l-0.030-0.012-0.288-0.128c0.171 0.070 0.319 0.156 0.452 0.259l-0.004-0.003-0.224-0.192c0.086 0.054 0.16 0.118 0.223 0.191l0.001 0.001-0.192-0.224c0.046 0.065 0.089 0.138 0.125 0.216l0.003 0.008-0.128-0.288c0.056 0.138 0.101 0.3 0.127 0.468l0.002 0.012v-0.32c0.043 0.413 0.068 0.892 0.068 1.377 0 0.112-0.001 0.224-0.004 0.336l0-0.017c0 0.672 0.544 1.216 1.216 1.216v0c0.651-0.034 1.168-0.562 1.184-1.214l0-0.002c0-0.026 0-0.057 0-0.088 0-0.691-0.047-1.371-0.137-2.038l0.009 0.078c-0.117-0.726-0.545-1.334-1.141-1.69l-0.011-0.006c-0.425-0.24-0.917-0.428-1.438-0.538l-0.034-0.006c-0.245-0.064-0.526-0.101-0.816-0.101-0.062 0-0.123 0.002-0.184 0.005l0.009-0c-0.212 0.018-0.407 0.063-0.591 0.133l0.015-0.005c-0.283 0.098-0.528 0.239-0.739 0.419l0.003-0.003c-0.205 0.217-0.33 0.51-0.33 0.833 0 0.653 0.514 1.185 1.16 1.215l0.003 0h0.32c0.215-0.057 0.4-0.169 0.544-0.32l0-0zM22.656 17.6c0.32 0 1.088 0 1.344 0.224s0.192 0.928 0.192 1.184c0 1.248 0 2.496-0.064 3.744 0.006 0.185 0.010 0.402 0.010 0.62 0 1.058-0.085 2.095-0.249 3.107l0.015-0.111c-0.349 1.232-0.807 2.304-1.381 3.302l0.037-0.070c-0.672 1.344 1.344 2.592 2.080 1.216 0.725-1.245 1.299-2.688 1.645-4.218l0.019-0.102c0.147-1.236 0.231-2.668 0.231-4.119 0-0.251-0.003-0.501-0.007-0.75l0.001 0.037c0.058-0.469 0.092-1.012 0.092-1.562 0-1.023-0.115-2.018-0.333-2.975l0.017 0.090c-0.544-1.632-2.080-1.92-3.648-2.016s-1.536 2.304 0 2.4zM10.496 14.432c-0.98-0.796-1.745-1.819-2.222-2.99l-0.018-0.050c-0.238-0.632-0.375-1.363-0.375-2.125 0-1.365 0.441-2.627 1.188-3.652l-0.012 0.018c1.075-1.61 2.885-2.657 4.939-2.657 0.030 0 0.059 0 0.089 0.001l-0.005-0c2.072 0.135 3.853 1.268 4.881 2.918l0.015 0.026c0.524 0.761 0.837 1.703 0.837 2.718 0 1.201-0.438 2.299-1.163 3.144l0.005-0.007c-0.206 0.222-0.332 0.52-0.332 0.848s0.126 0.626 0.333 0.849l-0.001-0.001c0.22 0.223 0.526 0.36 0.864 0.36s0.644-0.138 0.864-0.36l0-0c1.148-1.271 1.851-2.963 1.851-4.819 0-0.986-0.198-1.925-0.556-2.78l0.018 0.048c-1.072-2.497-3.194-4.367-5.794-5.074l-0.062-0.014c-5.728-1.344-11.104 3.904-10.272 9.6 0.376 2.302 1.548 4.28 3.218 5.684l0.014 0.012c0.222 0.206 0.52 0.332 0.848 0.332s0.626-0.126 0.849-0.333l-0.001 0.001c0.213-0.219 0.344-0.518 0.344-0.848s-0.131-0.629-0.345-0.848l0 0z"></path>
</svg>
