<!-- Generated by IcoMoon.io -->
<svg version="1.1" xmlns="http://www.w3.org/2000/svg" viewBox="0 0 30 32">
<title>icon-user</title>
<path d="M2.752 30.368c-0.628-0.010-1.133-0.522-1.133-1.152 0-0.114 0.017-0.224 0.047-0.328l-0.002 0.008c1.12-6.272 7.232-9.568 13.248-9.568s12.096 3.296 13.248 9.568c0.029 0.096 0.045 0.206 0.045 0.32 0 0.63-0.505 1.141-1.132 1.152h-0.001zM8.832 8.256c-0.024-0.202-0.038-0.437-0.038-0.674 0-3.287 2.665-5.952 5.952-5.952 0.059 0 0.117 0.001 0.175 0.003l-0.009-0c0.039-0.001 0.085-0.001 0.13-0.001 3.305 0 5.984 2.679 5.984 5.984 0 0.226-0.013 0.449-0.037 0.668l0.002-0.027c-0.288 3.648-3.040 6.624-6.080 6.624s-5.824-2.976-6.080-6.624z"></path>
</svg>
