<svg width="28" height="28" viewBox="0 0 28 28" fill="none" xmlns="http://www.w3.org/2000/svg">
<path fill-rule="evenodd" clip-rule="evenodd" d="M22.1667 4.66667H5.83333C5.189 4.66667 4.66667 5.189 4.66667 5.83333L4.66667 22.1667H21C21.6443 22.1667 22.1667 21.6443 22.1667 21V4.66667ZM5.83333 3.5C4.54467 3.5 3.5 4.54467 3.5 5.83333V22.1667C3.5 22.811 4.02233 23.3333 4.66667 23.3333H21C22.2887 23.3333 23.3333 22.2887 23.3333 21V4.66667C23.3333 4.02233 22.811 3.5 22.1667 3.5H5.83333Z" fill="#050505"/>
<path d="M22.3879 3.50002L5.83366 3.50002C4.545 3.50002 3.50033 4.54469 3.50033 5.83336L3.50033 22.3876C3.50033 23.1671 4.44283 23.5575 4.99405 23.0063L23.0066 4.99374C23.5578 4.44252 23.1674 3.50002 22.3879 3.50002Z" fill="#ECB0EA"/>
<mask id="mask0_920_52935" style="mask-type:alpha" maskUnits="userSpaceOnUse" x="3" y="3" width="21" height="21">
<path d="M23.0913 3.5L4.0829 3.5C3.76074 3.5 3.49957 3.76116 3.49957 4.08333L3.49957 23.0917C3.49957 23.6114 4.1279 23.8717 4.49538 23.5042L23.5038 4.49581C23.8712 4.12833 23.611 3.5 23.0913 3.5Z" fill="#FEC200"/>
</mask>
<g mask="url(#mask0_920_52935)">
<path d="M19.8337 14C19.8337 17.2217 17.222 19.8334 14.0003 19.8334C10.7787 19.8334 8.16699 17.2217 8.16699 14C8.16699 10.7784 10.7787 8.16669 14.0003 8.16669C17.222 8.16669 19.8337 10.7784 19.8337 14Z" fill="#BD64B9"/>
</g>
<mask id="mask1_920_52935" style="mask-type:alpha" maskUnits="userSpaceOnUse" x="4" y="4" width="21" height="21">
<path d="M4.90872 24.5L23.9171 24.5C24.2393 24.5 24.5004 24.2388 24.5004 23.9167L24.5004 4.9083C24.5004 4.3886 23.8721 4.12834 23.5046 4.49582L4.49624 23.5042C4.12876 23.8717 4.38903 24.5 4.90872 24.5Z" fill="#FEC200"/>
</mask>
<g mask="url(#mask1_920_52935)">
<path fill-rule="evenodd" clip-rule="evenodd" d="M14.0003 18.6667C16.5777 18.6667 18.667 16.5773 18.667 14C18.667 11.4227 16.5777 9.33335 14.0003 9.33335C11.423 9.33335 9.33366 11.4227 9.33366 14C9.33366 16.5773 11.423 18.6667 14.0003 18.6667ZM14.0003 19.8334C17.222 19.8334 19.8337 17.2217 19.8337 14C19.8337 10.7784 17.222 8.16669 14.0003 8.16669C10.7787 8.16669 8.16699 10.7784 8.16699 14C8.16699 17.2217 10.7787 19.8334 14.0003 19.8334Z" fill="#050505"/>
</g>
</svg>
