<svg width="29" height="28" viewBox="0 0 29 28" fill="none" xmlns="http://www.w3.org/2000/svg">
<path d="M20.0296 19.8333C20.0296 19.0672 19.8788 18.3087 19.5856 17.6009C19.2925 16.8932 18.8628 16.2501 18.3211 15.7085C17.7794 15.1668 17.1364 14.7371 16.4286 14.444C15.7209 14.1508 14.9624 13.9999 14.1963 13.9999C13.4303 13.9999 12.6717 14.1508 11.964 14.444C11.2563 14.7371 10.6132 15.1668 10.0715 15.7085C9.52985 16.2501 9.10016 16.8932 8.80701 17.6009C8.51386 18.3087 8.36298 19.0672 8.36298 19.8333H14.1963H20.0296Z" fill="#A9C2EC"/>
<path fill-rule="evenodd" clip-rule="evenodd" d="M4.86298 6.41658C4.86298 4.16142 6.69115 2.33325 8.94631 2.33325H19.4463C21.7015 2.33325 23.5296 4.16142 23.5296 6.41658V16.9166C23.5296 19.1717 21.7015 20.9999 19.4463 20.9999H8.94631C6.69115 20.9999 4.86298 19.1717 4.86298 16.9166V6.41658ZM8.94631 3.49992C7.33548 3.49992 6.02964 4.80575 6.02964 6.41658V16.9166C6.02964 18.5274 7.33548 19.8333 8.94631 19.8333H19.4463C21.0571 19.8333 22.363 18.5274 22.363 16.9166V6.41658C22.363 4.80575 21.0571 3.49992 19.4463 3.49992H8.94631Z" fill="#050505"/>
<path d="M14.1963 13.9999C13.4303 13.9999 12.6717 14.1508 11.964 14.444C11.2563 14.7371 10.6132 15.1668 10.0715 15.7085C9.52985 16.2501 9.10016 16.8932 8.80701 17.6009C8.51386 18.3087 8.36298 19.0672 8.36298 19.8333C8.36298 20.5993 8.51386 21.3578 8.80701 22.0656C9.10016 22.7733 9.52985 23.4164 10.0715 23.958C10.6132 24.4997 11.2563 24.9294 11.964 25.2225C12.6717 25.5157 13.4303 25.6666 14.1963 25.6666V19.8333V13.9999Z" fill="#5796FF"/>
<path fill-rule="evenodd" clip-rule="evenodd" d="M14.1963 10.4999C15.1628 10.4999 15.9463 9.71642 15.9463 8.74992C15.9463 7.78342 15.1628 6.99992 14.1963 6.99992C13.2298 6.99992 12.4463 7.78342 12.4463 8.74992C12.4463 9.71642 13.2298 10.4999 14.1963 10.4999ZM14.1963 12.8333C16.4515 12.8333 18.2796 11.0051 18.2796 8.74992C18.2796 6.49476 16.4515 4.66659 14.1963 4.66659C11.9411 4.66659 10.113 6.49476 10.113 8.74992C10.113 11.0051 11.9411 12.8333 14.1963 12.8333Z" fill="#2570ED"/>
</svg>
