<svg width="28" height="28" viewBox="0 0 28 28" fill="none" xmlns="http://www.w3.org/2000/svg">
<path d="M4.66699 10.5C4.66699 9.21131 5.71166 8.16665 7.00033 8.16665H15.167C16.4557 8.16665 17.5003 9.21131 17.5003 10.5V23.3333C17.5003 24.622 16.4557 25.6666 15.167 25.6666H7.00033C5.71166 25.6666 4.66699 24.622 4.66699 23.3333V10.5Z" fill="#BD64B9"/>
<path fill-rule="evenodd" clip-rule="evenodd" d="M13.417 5.83331C12.4505 5.83331 11.667 6.61681 11.667 7.58331V22.75C11.667 23.0721 11.4058 23.3333 11.0837 23.3333C10.7615 23.3333 10.5003 23.0721 10.5003 22.75V7.58331C10.5003 5.97248 11.8062 4.66665 13.417 4.66665H21.5837C21.9058 4.66665 22.167 4.92781 22.167 5.24998C22.167 5.57215 21.9058 5.83331 21.5837 5.83331H13.417Z" fill="#050505"/>
<path fill-rule="evenodd" clip-rule="evenodd" d="M18.8378 2.50417C19.0657 2.27636 19.435 2.27636 19.6628 2.50417L21.9961 4.8375C22.2239 5.06531 22.2239 5.43465 21.9961 5.66246L19.6628 7.99579C19.435 8.2236 19.0657 8.2236 18.8378 7.99579C18.61 7.76799 18.61 7.39864 18.8378 7.17083L20.7587 5.24998L18.8378 3.32913C18.61 3.10132 18.61 2.73197 18.8378 2.50417Z" fill="#050505"/>
<path d="M24.5003 14.5833C24.5003 16.8385 22.6722 18.6666 20.417 18.6666C18.1618 18.6666 16.3337 16.8385 16.3337 14.5833C16.3337 12.3281 18.1618 10.5 20.417 10.5C22.6722 10.5 24.5003 12.3281 24.5003 14.5833Z" fill="#ECB0EA"/>
<path d="M24.5003 19.25C24.5003 21.5051 22.6722 23.3333 20.417 23.3333C18.1618 23.3333 16.3337 21.5051 16.3337 19.25C16.3337 16.9948 18.1618 15.1666 20.417 15.1666C22.6722 15.1666 24.5003 16.9948 24.5003 19.25Z" fill="#E094DD"/>
</svg>
