<svg width="29" height="28" viewBox="0 0 29 28" fill="none" xmlns="http://www.w3.org/2000/svg">
<path fill-rule="evenodd" clip-rule="evenodd" d="M22.6663 17.5C22.9885 17.5 23.2497 17.2388 23.2497 16.9166V8.16665C23.2497 6.55582 21.9438 5.24998 20.333 5.24998L11.8747 5.24998C11.5525 5.24998 11.2913 5.51115 11.2913 5.83331C11.2913 6.15548 11.5525 6.41665 11.8747 6.41665L20.333 6.41665C21.2995 6.41665 22.083 7.20015 22.083 8.16665V16.9166C22.083 17.2388 22.3442 17.5 22.6663 17.5Z" fill="#050505"/>
<path fill-rule="evenodd" clip-rule="evenodd" d="M6.33301 10.5C6.01084 10.5 5.74967 10.7611 5.74967 11.0833L5.74967 18.6666C5.74967 20.9218 7.57785 22.75 9.83301 22.75H17.1247C17.4468 22.75 17.708 22.4888 17.708 22.1666C17.708 21.8445 17.4468 21.5833 17.1247 21.5833H9.83301C8.22218 21.5833 6.91634 20.2775 6.91634 18.6666L6.91634 11.0833C6.91634 10.7611 6.65517 10.5 6.33301 10.5Z" fill="#050505"/>
<path fill-rule="evenodd" clip-rule="evenodd" d="M10.035 3.22139C11.4505 2.63508 12.9676 2.33331 14.4997 2.33331V10.5C14.4996 10.5 14.4997 10.5 14.4997 10.5C12.5667 10.5 10.9996 12.067 10.9996 14L2.83301 14C2.83301 12.4679 3.13477 10.9508 3.72108 9.53534C4.30738 8.11987 5.16674 6.83375 6.25009 5.7504C7.33344 4.66705 8.61957 3.80769 10.035 3.22139Z" fill="#6AE3E3"/>
<path fill-rule="evenodd" clip-rule="evenodd" d="M14.4997 17.5C16.4326 17.4999 17.9996 15.9329 17.9996 14L26.1663 14C26.1663 15.5321 25.8646 17.0492 25.2783 18.4646C24.692 19.8801 23.8326 21.1662 22.7493 22.2496C21.6659 23.3329 20.3798 24.1923 18.9643 24.7786C17.5488 25.3649 16.0318 25.6666 14.4997 25.6666V17.5Z" fill="#3AB3B3"/>
<path fill-rule="evenodd" clip-rule="evenodd" d="M14.4997 19.8333C17.7213 19.8333 20.333 17.2216 20.333 14C20.333 10.7783 17.7213 8.16665 14.4997 8.16665C11.278 8.16665 8.66634 10.7783 8.66634 14C8.66634 17.2216 11.278 19.8333 14.4997 19.8333ZM14.4997 16.9166C16.1105 16.9166 17.4163 15.6108 17.4163 14C17.4163 12.3891 16.1105 11.0833 14.4997 11.0833C12.8888 11.0833 11.583 12.3891 11.583 14C11.583 15.6108 12.8888 16.9166 14.4997 16.9166Z" fill="#138B8B"/>
</svg>
