<svg width="29" height="28" viewBox="0 0 29 28" fill="none" xmlns="http://www.w3.org/2000/svg">
<path d="M4 5.83333C4 4.54467 5.04467 3.5 6.33333 3.5H22.6667C23.9553 3.5 25 4.54467 25 5.83333V11.6667C25 12.9553 23.9553 14 22.6667 14H6.33333C5.04467 14 4 12.9553 4 11.6667V5.83333Z" fill="#138B8B"/>
<path d="M6.33333 11.6667C6.33333 10.378 7.378 9.33333 8.66667 9.33333H20.3333C21.622 9.33333 22.6667 10.378 22.6667 11.6667V17.5C22.6667 18.7887 21.622 19.8333 20.3333 19.8333H8.66667C7.378 19.8333 6.33333 18.7887 6.33333 17.5V11.6667Z" fill="#6AE3E3"/>
<path fill-rule="evenodd" clip-rule="evenodd" d="M16.25 16.3333H12.75C11.4613 16.3333 10.4167 17.378 10.4167 18.6667V22.1667C10.4167 23.4553 11.4613 24.5 12.75 24.5H16.25C17.5387 24.5 18.5833 23.4553 18.5833 22.1667V18.6667C18.5833 17.378 17.5387 16.3333 16.25 16.3333ZM12.75 15.1667C10.817 15.1667 9.25 16.7337 9.25 18.6667V22.1667C9.25 24.0997 10.817 25.6667 12.75 25.6667H16.25C18.183 25.6667 19.75 24.0997 19.75 22.1667V18.6667C19.75 16.7337 18.183 15.1667 16.25 15.1667H12.75Z" fill="#050505"/>
</svg>
