<svg width="29" height="28" viewBox="0 0 29 28" fill="none" xmlns="http://www.w3.org/2000/svg">
<path d="M5.16699 8.16669C5.16699 6.23369 6.734 4.66669 8.66699 4.66669H20.3337C22.2667 4.66669 23.8337 6.23369 23.8337 8.16669V19.8334C23.8337 21.7664 22.2667 23.3334 20.3337 23.3334H8.66699C6.734 23.3334 5.16699 21.7664 5.16699 19.8334V8.16669Z" fill="#138B8B"/>
<path d="M21.5007 9.33333C21.5007 10.622 20.456 11.6667 19.1673 11.6667C17.8787 11.6667 16.834 10.622 16.834 9.33333C16.834 8.04467 17.8787 7 19.1673 7C20.456 7 21.5007 8.04467 21.5007 9.33333Z" fill="#6AE3E3"/>
<path d="M12.441 11.976L6.49718 17.9198C6.22157 18.1954 6.41677 18.6667 6.80654 18.6667H18.6941C19.0839 18.6667 19.2791 18.1954 19.0035 17.9198L13.0597 11.976C12.8888 11.8052 12.6118 11.8052 12.441 11.976Z" fill="#3AB3B3"/>
<path d="M17.1073 13.1427L12.3302 17.9198C12.0546 18.1955 12.2498 18.6667 12.6395 18.6667H22.1938C22.5835 18.6667 22.7787 18.1955 22.5031 17.9198L17.726 13.1427C17.5552 12.9719 17.2782 12.9719 17.1073 13.1427Z" fill="#3AB3B3"/>
<path fill-rule="evenodd" clip-rule="evenodd" d="M21.0318 19.8447C21.3477 19.9079 21.5526 20.2152 21.4894 20.5311L20.3227 26.3644C20.2595 26.6803 19.9522 26.8852 19.6363 26.822C19.3204 26.7588 19.1155 26.4515 19.1787 26.1356L20.3454 20.3023C20.4086 19.9864 20.7159 19.7815 21.0318 19.8447Z" fill="#050505"/>
<path fill-rule="evenodd" clip-rule="evenodd" d="M18.486 20.6764C18.3072 20.4084 17.9451 20.336 17.677 20.5147L14.541 22.6053C14.0215 22.9517 14.0215 23.7151 14.541 24.0614L17.677 26.152C17.9451 26.3308 18.3072 26.2583 18.486 25.9903C18.6647 25.7222 18.5922 25.36 18.3242 25.1813L15.5522 23.3334L18.3242 21.4854C18.5922 21.3067 18.6647 20.9445 18.486 20.6764Z" fill="#050505"/>
<path fill-rule="evenodd" clip-rule="evenodd" d="M22.182 20.6764C22.3607 20.4084 22.7229 20.336 22.991 20.5147L26.1269 22.6053C26.6464 22.9517 26.6464 23.7151 26.1269 24.0614L22.991 26.152C22.7229 26.3308 22.3607 26.2583 22.182 25.9903C22.0033 25.7222 22.0757 25.36 22.3438 25.1813L25.1158 23.3334L22.3438 21.4854C22.0757 21.3067 22.0033 20.9445 22.182 20.6764Z" fill="#050505"/>
</svg>
