<svg width="29" height="28" viewBox="0 0 29 28" fill="none" xmlns="http://www.w3.org/2000/svg">
<path d="M10.4167 5.83333C10.4167 4.54467 11.4613 3.5 12.75 3.5H22.6667C23.9553 3.5 25 4.54467 25 5.83333V15.75C25 17.0387 23.9553 18.0833 22.6667 18.0833H12.75C11.4613 18.0833 10.4167 17.0387 10.4167 15.75V5.83333Z" fill="#E93221"/>
<path d="M7.5 9.91667C7.5 7.98367 9.067 6.41667 11 6.41667H18.5833C20.5163 6.41667 22.0833 7.98367 22.0833 9.91667V17.5C22.0833 19.433 20.5163 21 18.5833 21H11C9.067 21 7.5 19.433 7.5 17.5V9.91667Z" fill="#ECACA7"/>
<path d="M4 13.4167C4 11.4837 5.567 9.91667 7.5 9.91667H15.0833C17.0163 9.91667 18.5833 11.4837 18.5833 13.4167V21C18.5833 22.933 17.0163 24.5 15.0833 24.5H7.5C5.567 24.5 4 22.933 4 21V13.4167Z" fill="#FF6052"/>
</svg>
