<svg width="29" height="28" viewBox="0 0 29 28" fill="none" xmlns="http://www.w3.org/2000/svg">
<path d="M11.0003 4.66667C11.0003 4.02233 11.5227 3.5 12.167 3.5H23.8337C24.478 3.5 25.0003 4.02233 25.0003 4.66667V8.16667C25.0003 8.811 24.478 9.33333 23.8337 9.33333H12.167C11.5227 9.33333 11.0003 8.811 11.0003 8.16667V4.66667Z" fill="#E93221"/>
<path d="M16.8337 12.8333C16.8337 12.189 17.356 11.6667 18.0003 11.6667H23.8337C24.478 11.6667 25.0003 12.189 25.0003 12.8333V16.3333C25.0003 16.9777 24.478 17.5 23.8337 17.5H18.0003C17.356 17.5 16.8337 16.9777 16.8337 16.3333V12.8333Z" fill="#E93221"/>
<path d="M11.0003 21C11.0003 20.3557 11.5227 19.8333 12.167 19.8333H23.8337C24.478 19.8333 25.0003 20.3557 25.0003 21V24.5C25.0003 25.1443 24.478 25.6667 23.8337 25.6667H12.167C11.5227 25.6667 11.0003 25.1443 11.0003 24.5V21Z" fill="#E93221"/>
<path d="M9.52436 9.69709L13.8889 13.9494C14.2482 14.2995 14.2482 14.8671 13.8889 15.2172L9.52436 19.4696C8.9447 20.0343 7.95357 19.6344 7.95357 18.8357L7.95357 10.331C7.95357 9.53231 8.9447 9.13233 9.52436 9.69709Z" fill="#FF6052"/>
<path d="M5.44872 9.69709L9.81322 13.9494C10.1726 14.2995 10.1726 14.8671 9.81322 15.2172L5.44872 19.4696C4.86906 20.0343 3.87793 19.6344 3.87793 18.8357L3.87793 10.331C3.87793 9.53231 4.86906 9.13233 5.44872 9.69709Z" fill="#ECACA7"/>
</svg>
