<svg width="28" height="28" viewBox="0 0 28 28" fill="none" xmlns="http://www.w3.org/2000/svg">
<path d="M9.91667 5.83333C9.91667 4.54467 10.9613 3.5 12.25 3.5H22.1667C23.4553 3.5 24.5 4.54467 24.5 5.83333V15.75C24.5 17.0387 23.4553 18.0833 22.1667 18.0833H12.25C10.9613 18.0833 9.91667 17.0387 9.91667 15.75V5.83333Z" fill="#BD64B9"/>
<path d="M7 9.91667C7 7.98367 8.567 6.41667 10.5 6.41667H18.0833C20.0163 6.41667 21.5833 7.98367 21.5833 9.91667V17.5C21.5833 19.433 20.0163 21 18.0833 21H10.5C8.567 21 7 19.433 7 17.5V9.91667Z" fill="#ECB0EA"/>
<path d="M3.5 13.4167C3.5 11.4837 5.067 9.91667 7 9.91667H14.5833C16.5163 9.91667 18.0833 11.4837 18.0833 13.4167V21C18.0833 22.933 16.5163 24.5 14.5833 24.5H7C5.067 24.5 3.5 22.933 3.5 21V13.4167Z" fill="#E094DD"/>
</svg>
