<svg width="28" height="28" viewBox="0 0 28 28" fill="none" xmlns="http://www.w3.org/2000/svg">
<path fill-rule="evenodd" clip-rule="evenodd" d="M18.0545 3.15744C18.8747 2.55327 19.8854 2.26543 20.9008 2.34685C21.9162 2.42826 22.8682 2.87345 23.5816 3.60058C24.295 4.32772 24.722 5.28793 24.7841 6.30471C24.8462 7.3215 24.5392 8.32654 23.9196 9.13507C23.2999 9.94361 22.4092 10.5013 21.4113 10.7057C20.4133 10.91 19.3751 10.7473 18.4875 10.2474C18.2068 10.0893 18.1074 9.73362 18.2655 9.45291C18.4236 9.1722 18.7793 9.0728 19.06 9.23089C19.7027 9.59288 20.4545 9.71071 21.1772 9.56273C21.8999 9.41474 22.5448 9.01089 22.9936 8.42539C23.4423 7.8399 23.6646 7.11212 23.6196 6.37582C23.5747 5.63953 23.2655 4.9442 22.7488 4.41766C22.2322 3.89112 21.5429 3.56874 20.8076 3.50978C20.0723 3.45083 19.3404 3.65926 18.7465 4.09676C18.1526 4.53427 17.7365 5.17144 17.5748 5.89117C17.4131 6.61089 17.5166 7.3648 17.8663 8.01431C18.0191 8.29797 17.9129 8.65174 17.6292 8.80446C17.3456 8.95719 16.9918 8.85105 16.8391 8.56738C16.3562 7.67044 16.2132 6.62933 16.4365 5.63543C16.6598 4.64152 17.2344 3.76161 18.0545 3.15744Z" fill="#050505"/>
<path d="M4.66699 21C4.66699 20.3557 5.18933 19.8333 5.83366 19.8333H19.8337C20.478 19.8333 21.0003 20.3557 21.0003 21V22.1667C21.0003 22.811 20.478 23.3333 19.8337 23.3333H5.83366C5.18933 23.3333 4.66699 22.811 4.66699 22.1667V21Z" fill="#BD64B9"/>
<path d="M4.66699 15.1667C4.66699 14.5223 5.18933 14 5.83366 14H19.8337C20.478 14 21.0003 14.5223 21.0003 15.1667V17.5C21.0003 18.1443 20.478 18.6667 19.8337 18.6667H5.83366C5.18933 18.6667 4.66699 18.1443 4.66699 17.5V15.1667Z" fill="#E094DD"/>
<path d="M4.66699 8.16665C4.66699 7.52232 5.18933 6.99999 5.83366 6.99999H19.8337C20.478 6.99999 21.0003 7.52232 21.0003 8.16665V11.6667C21.0003 12.311 20.478 12.8333 19.8337 12.8333H5.83366C5.18933 12.8333 4.66699 12.311 4.66699 11.6667V8.16665Z" fill="#ECB0EA"/>
</svg>
