<svg width="28" height="28" viewBox="0 0 28 28" fill="none" xmlns="http://www.w3.org/2000/svg">
<path d="M24.4997 20.4166C24.4997 22.6718 22.6715 24.5 20.4163 24.5C18.1612 24.5 16.333 22.6718 16.333 20.4166C16.333 18.1615 18.1612 16.3333 20.4163 16.3333C22.6715 16.3333 24.4997 18.1615 24.4997 20.4166Z" fill="#ECB0EA"/>
<path fill-rule="evenodd" clip-rule="evenodd" d="M13.9997 10.5C15.9326 10.5 17.4996 12.067 17.4996 14L25.6663 14C25.6663 12.4679 25.3646 10.9508 24.7783 9.53534C24.192 8.11987 23.3326 6.83375 22.2493 5.7504C21.1659 4.66705 19.8798 3.80769 18.4643 3.22139C17.0488 2.63508 15.5318 2.33331 13.9997 2.33331V10.5Z" fill="#BD64B9"/>
<path d="M20.9997 14C20.9997 17.866 17.8657 21 13.9997 21C10.1337 21 6.99967 17.866 6.99967 14C6.99967 10.134 10.1337 6.99998 13.9997 6.99998C17.8657 6.99998 20.9997 10.134 20.9997 14Z" fill="#E094DD"/>
<path fill-rule="evenodd" clip-rule="evenodd" d="M17.7045 4.17531C15.8078 3.46007 13.7446 3.30915 11.764 3.74076C9.78337 4.17238 7.97004 5.16808 6.5429 6.60766C5.11577 8.04724 4.13584 9.86914 3.72144 11.8534C3.30703 13.8377 3.47585 15.8995 4.20753 17.79C4.93921 19.6804 6.20246 21.3186 7.84477 22.5069C9.48708 23.6951 11.4382 24.3826 13.4627 24.4862C13.7844 24.5027 14.0319 24.7769 14.0154 25.0986C13.9989 25.4204 13.7247 25.6679 13.403 25.6514C11.1536 25.5362 8.98568 24.7724 7.16089 23.4521C5.3361 22.1318 3.93249 20.3116 3.11952 18.2111C2.30654 16.1106 2.11896 13.8197 2.57941 11.6149C3.03986 9.41016 4.12867 7.38582 5.71437 5.78629C7.30008 4.18675 9.31489 3.08042 11.5156 2.60085C13.7162 2.12127 16.0087 2.28897 18.1162 3.08368C20.2236 3.8784 22.056 5.26615 23.3921 7.07941C24.7281 8.89267 25.5107 11.0539 25.6455 13.3022C25.6647 13.6238 25.4196 13.9001 25.0981 13.9194C24.7765 13.9386 24.5001 13.6936 24.4809 13.372C24.3596 11.3485 23.6553 9.4034 22.4528 7.77147C21.2504 6.13954 19.6012 4.89055 17.7045 4.17531Z" fill="#050505"/>
</svg>
