<svg width="28" height="28" viewBox="0 0 28 28" fill="none" xmlns="http://www.w3.org/2000/svg">
<path d="M3.5 5.83333C3.5 4.54467 4.54467 3.5 5.83333 3.5H22.1667C23.4553 3.5 24.5 4.54467 24.5 5.83333V11.6667C24.5 12.9553 23.4553 14 22.1667 14H5.83333C4.54467 14 3.5 12.9553 3.5 11.6667V5.83333Z" fill="#BD64B9"/>
<path d="M5.83333 11.6667C5.83333 10.378 6.878 9.33333 8.16667 9.33333H19.8333C21.122 9.33333 22.1667 10.378 22.1667 11.6667V17.5C22.1667 18.7887 21.122 19.8333 19.8333 19.8333H8.16667C6.878 19.8333 5.83333 18.7887 5.83333 17.5V11.6667Z" fill="#ECB0EA"/>
<path fill-rule="evenodd" clip-rule="evenodd" d="M15.75 16.3333H12.25C10.9613 16.3333 9.91667 17.378 9.91667 18.6667V22.1667C9.91667 23.4553 10.9613 24.5 12.25 24.5H15.75C17.0387 24.5 18.0833 23.4553 18.0833 22.1667V18.6667C18.0833 17.378 17.0387 16.3333 15.75 16.3333ZM12.25 15.1667C10.317 15.1667 8.75 16.7337 8.75 18.6667V22.1667C8.75 24.0997 10.317 25.6667 12.25 25.6667H15.75C17.683 25.6667 19.25 24.0997 19.25 22.1667V18.6667C19.25 16.7337 17.683 15.1667 15.75 15.1667H12.25Z" fill="#050505"/>
</svg>
