<svg width="29" height="28" viewBox="0 0 29 28" fill="none" xmlns="http://www.w3.org/2000/svg">
<path d="M24.9997 20.4166C24.9997 22.6718 23.1715 24.5 20.9163 24.5C18.6612 24.5 16.833 22.6718 16.833 20.4166C16.833 18.1615 18.6612 16.3333 20.9163 16.3333C23.1715 16.3333 24.9997 18.1615 24.9997 20.4166Z" fill="#ECACA7"/>
<path fill-rule="evenodd" clip-rule="evenodd" d="M14.5 10.5C16.433 10.5 17.9999 12.067 17.9999 14L26.1667 14C26.1667 12.4679 25.8649 10.9508 25.2786 9.53536C24.6923 8.11989 23.8329 6.83377 22.7496 5.75042C21.6662 4.66707 20.3801 3.80771 18.9646 3.22141C17.5492 2.6351 16.0321 2.33333 14.5 2.33333L14.5 10.5Z" fill="#E93221"/>
<path d="M15.083 6.99996L21.4997 6.99996L21.4997 13.4166L15.083 6.99996Z" fill="#E93221"/>
<path d="M21.5 14C21.5 17.866 18.366 21 14.5 21C10.634 21 7.5 17.866 7.5 14C7.5 10.134 10.634 7 14.5 7C18.366 7 21.5 10.134 21.5 14Z" fill="#FF6052"/>
<path fill-rule="evenodd" clip-rule="evenodd" d="M18.2045 4.17531C16.3078 3.46007 14.2446 3.30914 12.264 3.74076C10.2834 4.17237 8.47004 5.16808 7.0429 6.60765C5.61577 8.04723 4.63584 9.86914 4.22144 11.8534C3.80703 13.8377 3.97585 15.8995 4.70753 17.79C5.43921 19.6804 6.70246 21.3186 8.34477 22.5069C9.98708 23.6951 11.9382 24.3826 13.9627 24.4862C14.2844 24.5027 14.5319 24.7769 14.5154 25.0986C14.4989 25.4204 14.2247 25.6679 13.903 25.6514C11.6536 25.5362 9.48568 24.7724 7.66089 23.4521C5.8361 22.1318 4.43249 20.3116 3.61952 18.2111C2.80654 16.1106 2.61896 13.8197 3.07941 11.6149C3.53986 9.41016 4.62867 7.38582 6.21437 5.78628C7.80008 4.18675 9.81489 3.08042 12.0156 2.60085C14.2162 2.12127 16.5087 2.28897 18.6162 3.08368C20.7236 3.87839 22.556 5.26615 23.8921 7.07941C25.2281 8.89267 26.0107 11.0539 26.1455 13.3022C26.1647 13.6238 25.9196 13.9001 25.5981 13.9194C25.2765 13.9386 25.0002 13.6936 24.9809 13.372C24.8596 11.3485 24.1553 9.4034 22.9528 7.77147C21.7504 6.13953 20.1012 4.89055 18.2045 4.17531Z" fill="#050505"/>
<path fill-rule="evenodd" clip-rule="evenodd" d="M10.708 10.7916C10.708 10.4695 10.9692 10.2083 11.2913 10.2083H17.708C17.8732 10.2083 18.0306 10.2783 18.1412 10.401C18.2518 10.5237 18.3053 10.6875 18.2882 10.8518L17.584 17.6452C17.56 17.8765 17.401 18.0714 17.1792 18.1414L14.6752 18.9313C14.5609 18.9673 14.4384 18.9673 14.3242 18.9313L11.8201 18.1414C11.5997 18.0718 11.4411 17.8786 11.4158 17.6489L11.2593 16.227C11.224 15.9068 11.4551 15.6186 11.7753 15.5833C12.0955 15.5481 12.3837 15.7791 12.4189 16.0994L12.5338 17.1432L14.4997 17.7633L16.463 17.144L16.7089 14.7717H11.6043C11.2822 14.7717 11.021 14.5105 11.021 14.1883C11.021 13.8662 11.2822 13.605 11.6043 13.605H16.8299L17.0611 11.375H11.2913C10.9692 11.375 10.708 11.1138 10.708 10.7916Z" fill="#050505"/>
</svg>
