<svg width="29" height="28" viewBox="0 0 29 28" fill="none" xmlns="http://www.w3.org/2000/svg">
<path fill-rule="evenodd" clip-rule="evenodd" d="M18.5545 3.15744C19.3747 2.55327 20.3854 2.26543 21.4008 2.34685C22.4162 2.42826 23.3682 2.87345 24.0816 3.60058C24.795 4.32772 25.222 5.28793 25.2841 6.30471C25.3462 7.3215 25.0392 8.32654 24.4196 9.13507C23.7999 9.94361 22.9092 10.5013 21.9113 10.7057C20.9133 10.91 19.8751 10.7473 18.9875 10.2474C18.7068 10.0893 18.6074 9.73362 18.7655 9.45291C18.9236 9.1722 19.2793 9.0728 19.56 9.23089C20.2027 9.59288 20.9545 9.71071 21.6772 9.56273C22.3999 9.41474 23.0448 9.01089 23.4936 8.42539C23.9423 7.8399 24.1646 7.11212 24.1196 6.37582C24.0747 5.63953 23.7655 4.9442 23.2488 4.41766C22.7322 3.89112 22.0429 3.56874 21.3076 3.50978C20.5723 3.45083 19.8404 3.65926 19.2465 4.09676C18.6526 4.53427 18.2365 5.17144 18.0748 5.89117C17.9131 6.61089 18.0166 7.3648 18.3663 8.01431C18.5191 8.29797 18.4129 8.65174 18.1292 8.80446C17.8456 8.95719 17.4918 8.85105 17.3391 8.56738C16.8562 7.67044 16.7132 6.62933 16.9365 5.63543C17.1598 4.64152 17.7344 3.76161 18.5545 3.15744Z" fill="#050505"/>
<path d="M5.16699 21C5.16699 20.3557 5.68933 19.8333 6.33366 19.8333H20.3337C20.978 19.8333 21.5003 20.3557 21.5003 21V22.1667C21.5003 22.811 20.978 23.3333 20.3337 23.3333H6.33366C5.68933 23.3333 5.16699 22.811 5.16699 22.1667V21Z" fill="#E93221"/>
<path d="M5.16699 15.1667C5.16699 14.5223 5.68933 14 6.33366 14H20.3337C20.978 14 21.5003 14.5223 21.5003 15.1667V17.5C21.5003 18.1443 20.978 18.6667 20.3337 18.6667H6.33366C5.68933 18.6667 5.16699 18.1443 5.16699 17.5V15.1667Z" fill="#FF6052"/>
<path d="M5.16699 8.16665C5.16699 7.52232 5.68933 6.99999 6.33366 6.99999H20.3337C20.978 6.99999 21.5003 7.52232 21.5003 8.16665V11.6667C21.5003 12.311 20.978 12.8333 20.3337 12.8333H6.33366C5.68933 12.8333 5.16699 12.311 5.16699 11.6667V8.16665Z" fill="#ECACA7"/>
</svg>
