<svg width="28" height="28" viewBox="0 0 28 28" fill="none" xmlns="http://www.w3.org/2000/svg">
<path fill-rule="evenodd" clip-rule="evenodd" d="M22.1663 17.5C22.4885 17.5 22.7497 17.2388 22.7497 16.9166V8.16665C22.7497 6.55582 21.4438 5.24998 19.833 5.24998L11.3747 5.24998C11.0525 5.24998 10.7913 5.51115 10.7913 5.83331C10.7913 6.15548 11.0525 6.41665 11.3747 6.41665L19.833 6.41665C20.7995 6.41665 21.583 7.20015 21.583 8.16665V16.9166C21.583 17.2388 21.8442 17.5 22.1663 17.5Z" fill="#050505"/>
<path fill-rule="evenodd" clip-rule="evenodd" d="M5.83301 10.5C5.51084 10.5 5.24967 10.7611 5.24967 11.0833L5.24967 18.6666C5.24967 20.9218 7.07785 22.75 9.33301 22.75H16.6247C16.9468 22.75 17.208 22.4888 17.208 22.1666C17.208 21.8445 16.9468 21.5833 16.6247 21.5833H9.33301C7.72218 21.5833 6.41634 20.2775 6.41634 18.6666L6.41634 11.0833C6.41634 10.7611 6.15517 10.5 5.83301 10.5Z" fill="#050505"/>
<path fill-rule="evenodd" clip-rule="evenodd" d="M9.53503 3.22139C10.9505 2.63508 12.4676 2.33331 13.9997 2.33331V10.5C13.9996 10.5 13.9997 10.5 13.9997 10.5C12.0667 10.5 10.4996 12.067 10.4996 14L2.33301 14C2.33301 12.4679 2.63477 10.9508 3.22108 9.53534C3.80738 8.11987 4.66674 6.83375 5.75009 5.7504C6.83344 4.66705 8.11957 3.80769 9.53503 3.22139Z" fill="#A9C2EC"/>
<path fill-rule="evenodd" clip-rule="evenodd" d="M13.9997 17.5C15.9326 17.4999 17.4996 15.9329 17.4996 14L25.6663 14C25.6663 15.5321 25.3646 17.0492 24.7783 18.4646C24.192 19.8801 23.3326 21.1662 22.2493 22.2496C21.1659 23.3329 19.8798 24.1923 18.4643 24.7786C17.0488 25.3649 15.5318 25.6666 13.9997 25.6666V17.5Z" fill="#5796FF"/>
<path fill-rule="evenodd" clip-rule="evenodd" d="M13.9997 19.8333C17.2213 19.8333 19.833 17.2216 19.833 14C19.833 10.7783 17.2213 8.16665 13.9997 8.16665C10.778 8.16665 8.16634 10.7783 8.16634 14C8.16634 17.2216 10.778 19.8333 13.9997 19.8333ZM13.9997 16.9166C15.6105 16.9166 16.9163 15.6108 16.9163 14C16.9163 12.3891 15.6105 11.0833 13.9997 11.0833C12.3888 11.0833 11.083 12.3891 11.083 14C11.083 15.6108 12.3888 16.9166 13.9997 16.9166Z" fill="#2570ED"/>
</svg>
