<svg width="28" height="28" viewBox="0 0 28 28" fill="none" xmlns="http://www.w3.org/2000/svg">
<path fill-rule="evenodd" clip-rule="evenodd" d="M20.9997 3.49998C19.0667 3.49998 17.4997 5.06698 17.4997 6.99998C17.4997 8.93298 19.0667 10.5 20.9997 10.5C22.9327 10.5 24.4997 8.93298 24.4997 6.99998C24.4997 5.06698 22.9327 3.49998 20.9997 3.49998ZM16.333 6.99998C16.333 4.42265 18.4223 2.33331 20.9997 2.33331C23.577 2.33331 25.6663 4.42265 25.6663 6.99998C25.6663 9.57731 23.577 11.6666 20.9997 11.6666C18.4223 11.6666 16.333 9.57731 16.333 6.99998Z" fill="#050505"/>
<path fill-rule="evenodd" clip-rule="evenodd" d="M6.99967 17.5C5.06668 17.5 3.49967 19.067 3.49967 21C3.49967 22.933 5.06668 24.5 6.99967 24.5C8.93267 24.5 10.4997 22.933 10.4997 21C10.4997 19.067 8.93267 17.5 6.99967 17.5ZM2.33301 21C2.33301 18.4227 4.42235 16.3333 6.99967 16.3333C9.577 16.3333 11.6663 18.4227 11.6663 21C11.6663 23.5773 9.577 25.6666 6.99967 25.6666C4.42235 25.6666 2.33301 23.5773 2.33301 21Z" fill="#050505"/>
<path d="M20.1247 14C20.1247 17.3827 17.3824 20.125 13.9997 20.125C10.6169 20.125 7.87467 17.3827 7.87467 14C7.87467 10.6172 10.6169 7.87498 13.9997 7.87498C17.3824 7.87498 20.1247 10.6172 20.1247 14Z" fill="#2570ED"/>
<path d="M24.258 11.6666L16.9163 11.6666C16.5942 11.6666 16.333 11.4055 16.333 11.0833V3.7416C16.333 3.22191 16.9613 2.96164 17.3288 3.32912L24.6705 10.6708C25.038 11.0383 24.7777 11.6666 24.258 11.6666Z" fill="#A9C2EC"/>
<path d="M3.7413 16.3333H11.083C11.4052 16.3333 11.6663 16.5945 11.6663 16.9166V24.2584C11.6663 24.778 11.038 25.0383 10.6705 24.6708L3.32882 17.3291C2.96134 16.9616 3.2216 16.3333 3.7413 16.3333Z" fill="#5796FF"/>
</svg>
