<svg width="29" height="28" viewBox="0 0 29 28" fill="none" xmlns="http://www.w3.org/2000/svg">
<path fill-rule="evenodd" clip-rule="evenodd" d="M21.1963 3.49992C19.2633 3.49992 17.6963 5.06692 17.6963 6.99992C17.6963 8.93292 19.2633 10.4999 21.1963 10.4999C23.1293 10.4999 24.6963 8.93292 24.6963 6.99992C24.6963 5.06692 23.1293 3.49992 21.1963 3.49992ZM16.5297 6.99992C16.5297 4.42259 18.619 2.33325 21.1963 2.33325C23.7737 2.33325 25.863 4.42259 25.863 6.99992C25.863 9.57725 23.7737 11.6666 21.1963 11.6666C18.619 11.6666 16.5297 9.57725 16.5297 6.99992Z" fill="#050505"/>
<path fill-rule="evenodd" clip-rule="evenodd" d="M7.19633 17.4999C5.26333 17.4999 3.69633 19.0669 3.69633 20.9999C3.69633 22.9329 5.26333 24.4999 7.19633 24.4999C9.12933 24.4999 10.6963 22.9329 10.6963 20.9999C10.6963 19.0669 9.12933 17.4999 7.19633 17.4999ZM2.52966 20.9999C2.52966 18.4226 4.619 16.3333 7.19633 16.3333C9.77366 16.3333 11.863 18.4226 11.863 20.9999C11.863 23.5772 9.77366 25.6666 7.19633 25.6666C4.619 25.6666 2.52966 23.5772 2.52966 20.9999Z" fill="#050505"/>
<path d="M20.3213 13.9999C20.3213 17.3827 17.5791 20.1249 14.1963 20.1249C10.8136 20.1249 8.07133 17.3827 8.07133 13.9999C8.07133 10.6172 10.8136 7.87492 14.1963 7.87492C17.5791 7.87492 20.3213 10.6172 20.3213 13.9999Z" fill="#BD64B9"/>
<path d="M24.4547 11.6666L17.113 11.6666C16.7908 11.6666 16.5297 11.4054 16.5297 11.0833V3.74154C16.5297 3.22185 17.158 2.96158 17.5255 3.32906L24.8672 10.6708C25.2347 11.0383 24.9744 11.6666 24.4547 11.6666Z" fill="#ECB0EA"/>
<path d="M3.93795 16.3333H11.2797C11.6018 16.3333 11.863 16.5944 11.863 16.9166V24.2583C11.863 24.778 11.2347 25.0383 10.8672 24.6708L3.52548 17.3291C3.158 16.9616 3.41826 16.3333 3.93795 16.3333Z" fill="#E094DD"/>
</svg>
