<svg width="28" height="28" viewBox="0 0 28 28" fill="none" xmlns="http://www.w3.org/2000/svg">
<path d="M12.7533 14.5419C12.2117 15.0836 11.782 15.7266 11.4888 16.4343C11.1957 17.1421 11.0448 17.9006 11.0448 18.6667L13.374 18.6667C13.374 18.2065 13.4646 17.7508 13.6407 17.3257C13.8168 16.9006 14.0749 16.5143 14.4003 16.1889L12.7533 14.5419Z" fill="#A9C2EC"/>
<path d="M13.3784 22.1667C13.3784 22.811 12.8561 23.3333 12.2117 23.3333C11.5674 23.3333 11.0451 22.811 11.0451 22.1667C11.0451 21.5223 11.5674 21 12.2117 21C12.8561 21 13.3784 21.5223 13.3784 22.1667Z" fill="#A9C2EC"/>
<path d="M15.8655 11.7967L15.8679 11.7991L17.5149 13.4461L17.5155 13.4467L14.4013 16.2006L12.7541 14.545L15.8655 11.7967Z" fill="#A9C2EC"/>
<path d="M17.5149 13.4461C18.1871 12.7699 18.6835 11.9392 18.9603 11.0267C19.2388 10.1087 19.2865 9.13617 19.0994 8.19531C18.9122 7.25444 18.4959 6.37425 17.8874 5.63271C17.2788 4.89116 16.4967 4.31114 15.6104 3.94404C14.7242 3.57693 13.761 3.43406 12.8064 3.52809C11.8517 3.62212 10.9349 3.95014 10.1373 4.48309L11.4313 6.41976C11.9105 6.09961 12.4612 5.90257 13.0347 5.84608C13.6081 5.7896 14.1867 5.87542 14.7191 6.09594C15.2515 6.31647 15.7213 6.66489 16.0869 7.11034C16.4524 7.55579 16.7025 8.08453 16.8149 8.64971C16.9273 9.2149 16.8986 9.79909 16.7314 10.3505C16.5657 10.8966 16.2693 11.3938 15.8679 11.7991L17.5149 13.4461Z" fill="#A9C2EC"/>
<path d="M9.33366 18.6667C9.33366 19.311 8.81132 19.8333 8.16699 19.8333C7.52266 19.8333 7.00033 19.311 7.00033 18.6667C7.00033 18.0223 7.52266 17.5 8.16699 17.5C8.81132 17.5 9.33366 18.0223 9.33366 18.6667Z" fill="#5796FF"/>
<path d="M8.36716 11.8668C7.93382 12.3002 7.59008 12.8146 7.35555 13.3808C7.12103 13.947 7.00033 14.5538 7.00033 15.1667H9.36746C9.36746 14.8647 9.42694 14.5657 9.5425 14.2867C9.65807 14.0077 9.82745 13.7542 10.041 13.5407L8.36716 11.8668Z" fill="#5796FF"/>
<path d="M12.6335 11.4665C13.1762 10.9238 13.5766 10.2557 13.7994 9.52133C14.0222 8.78694 14.0604 8.00894 13.9107 7.25625C13.7609 6.50355 13.4279 5.7994 12.941 5.20617C12.4542 4.61293 11.8285 4.14892 11.1195 3.85523C10.4105 3.56154 9.63999 3.44725 8.87625 3.52247C8.1125 3.59769 7.3791 3.86011 6.741 4.28648C6.1029 4.71284 5.57979 5.29 5.21803 5.96682C4.85626 6.64364 4.66699 7.39923 4.66699 8.16667L7.01949 8.16667C7.01949 7.7861 7.11335 7.41141 7.29274 7.07578C7.47214 6.74014 7.73154 6.45394 8.04798 6.24251C8.36441 6.03107 8.7281 5.90094 9.10683 5.86364C9.48557 5.82634 9.86766 5.88302 10.2193 6.02865C10.5709 6.17429 10.8811 6.40439 11.1225 6.69857C11.364 6.99276 11.5291 7.34194 11.6034 7.7152C11.6776 8.08845 11.6587 8.47426 11.5482 8.83844C11.4377 9.20262 11.2391 9.53393 10.97 9.80303L12.6335 11.4665Z" fill="#5796FF"/>
<path d="M10.9728 9.80279L12.6339 11.4657L10.0349 13.5425L8.36832 11.8723L10.9728 9.80279Z" fill="#5796FF"/>
<path d="M7.00033 15.1667H9.33366V16.3333H7.00033V15.1667Z" fill="#5796FF"/>
<path fill-rule="evenodd" clip-rule="evenodd" d="M19.8337 24.5C22.411 24.5 24.5003 22.4107 24.5003 19.8333C24.5003 17.256 22.411 15.1667 19.8337 15.1667C17.2563 15.1667 15.167 17.256 15.167 19.8333C15.167 22.4107 17.2563 24.5 19.8337 24.5ZM19.8337 22.1667C21.1223 22.1667 22.167 21.122 22.167 19.8333C22.167 18.5447 21.1223 17.5 19.8337 17.5C18.545 17.5 17.5003 18.5447 17.5003 19.8333C17.5003 21.122 18.545 22.1667 19.8337 22.1667Z" fill="#2570ED"/>
<path d="M24.4289 14.8458C24.5783 14.5603 24.468 14.2078 24.1825 14.0585C23.897 13.9091 23.5446 14.0195 23.3952 14.3049L20.3797 20.0687C20.3627 20.0896 20.3469 20.1119 20.3326 20.1356C20.2796 20.223 20.2046 20.295 20.115 20.3443C20.0255 20.3936 19.9245 20.4185 19.8223 20.4166C19.7201 20.4146 19.6201 20.3857 19.5326 20.333C19.445 20.2802 19.3728 20.2053 19.3233 20.1159C19.3125 20.0964 19.3008 20.0778 19.2882 20.06L19.0824 19.6017C18.9504 19.3078 18.6052 19.1765 18.3113 19.3085C18.0174 19.4404 17.8861 19.7857 18.0181 20.0796L18.2262 20.5431C18.2423 20.5788 18.2614 20.6121 18.2833 20.6428C18.2892 20.6557 18.2957 20.6684 18.3026 20.681C18.4512 20.9493 18.6677 21.1739 18.9304 21.3322C19.1931 21.4905 19.4928 21.577 19.7995 21.583C20.1062 21.589 20.4091 21.5143 20.6778 21.3663C20.9464 21.2184 21.1715 21.0025 21.3304 20.7402C21.3564 20.7089 21.3795 20.6745 21.3991 20.637L24.4289 14.8458Z" fill="#050505"/>
</svg>
