<svg width="28" height="28" viewBox="0 0 28 28" fill="none" xmlns="http://www.w3.org/2000/svg">
<path fill-rule="evenodd" clip-rule="evenodd" d="M8.16699 4.66669C6.234 4.66669 4.66699 6.23369 4.66699 8.16669V19.8334C4.66699 21.7663 6.234 23.3334 8.16699 23.3334H19.8337C21.7667 23.3334 23.3337 21.7663 23.3337 19.8334V8.16669C23.3337 6.23369 21.7667 4.66669 19.8337 4.66669H8.16699ZM16.0182 19.25H18.3753L14.9334 13.3967L18.3485 8.75002H16.045L13.3932 12.3194C13.2548 12.5253 13.1186 12.7312 12.9847 12.9371C12.8508 13.143 12.7146 13.3489 12.5762 13.5547V8.75002H10.5003V19.25H12.5762V15.501L13.4535 14.8259L16.0182 19.25Z" fill="#2570ED"/>
<path d="M25.667 17.7416V25.0834C25.667 25.4055 25.4058 25.6667 25.0837 25.6667H17.7419C17.2223 25.6667 16.962 25.0384 17.3295 24.6709L24.6712 17.3292C25.0387 16.9617 25.667 17.2219 25.667 17.7416Z" fill="#A9C2EC"/>
</svg>
