<svg width="28" height="28" viewBox="0 0 28 28" fill="none" xmlns="http://www.w3.org/2000/svg">
<path fill-rule="evenodd" clip-rule="evenodd" d="M22.1667 4.66667H5.83333C5.189 4.66667 4.66667 5.189 4.66667 5.83333V22.1667H21C21.6443 22.1667 22.1667 21.6443 22.1667 21V4.66667ZM5.83333 3.5C4.54467 3.5 3.5 4.54467 3.5 5.83333V22.1667C3.5 22.811 3.9148 23.3333 4.37629 23.3333H21C22.2887 23.3333 23.3333 22.2887 23.3333 21V4.37376C23.3211 3.94068 22.811 3.5 22.1667 3.5H5.83333Z" fill="#050505"/>
<path d="M22.4535 3.5L5.84148 3.5C4.54832 3.5 3.5 4.54832 3.5 5.84148L3.5 22.4535C3.5 23.2358 4.44579 23.6275 4.99893 23.0744L23.0744 4.99893C23.6275 4.44579 23.2358 3.5 22.4535 3.5Z" fill="#A9C2EC"/>
<path d="M9.91212 18.1619L18.1617 9.91231C17.1066 8.86097 15.6513 8.21106 14.0442 8.21106C10.8225 8.21106 8.21086 10.8227 8.21086 14.0444C8.21086 15.6515 8.86077 17.1068 9.91212 18.1619Z" fill="#2570ED"/>
<path d="M9.91175 18.1625C10.9674 19.218 12.4257 19.8709 14.0365 19.8709C17.2581 19.8709 19.8698 17.2593 19.8698 14.0376C19.8698 12.4268 19.2169 10.9685 18.1613 9.91289L17.3364 10.7379C18.1808 11.5823 18.7031 12.749 18.7031 14.0376C18.7031 16.6149 16.6138 18.7043 14.0365 18.7043C12.7478 18.7043 11.5812 18.182 10.7367 17.3375L9.91175 18.1625Z" fill="#050505"/>
</svg>
