<svg width="28" height="28" viewBox="0 0 28 28" fill="none" xmlns="http://www.w3.org/2000/svg">
<path d="M10.5003 4.66667C10.5003 4.02233 11.0227 3.5 11.667 3.5H23.3337C23.978 3.5 24.5003 4.02233 24.5003 4.66667V8.16667C24.5003 8.811 23.978 9.33333 23.3337 9.33333H11.667C11.0227 9.33333 10.5003 8.811 10.5003 8.16667V4.66667Z" fill="#BD64B9"/>
<path d="M16.3337 12.8333C16.3337 12.189 16.856 11.6667 17.5003 11.6667H23.3337C23.978 11.6667 24.5003 12.189 24.5003 12.8333V16.3333C24.5003 16.9777 23.978 17.5 23.3337 17.5H17.5003C16.856 17.5 16.3337 16.9777 16.3337 16.3333V12.8333Z" fill="#BD64B9"/>
<path d="M10.5003 21C10.5003 20.3557 11.0227 19.8333 11.667 19.8333H23.3337C23.978 19.8333 24.5003 20.3557 24.5003 21V24.5C24.5003 25.1443 23.978 25.6667 23.3337 25.6667H11.667C11.0227 25.6667 10.5003 25.1443 10.5003 24.5V21Z" fill="#BD64B9"/>
<path d="M9.02436 9.69709L13.3889 13.9494C13.7482 14.2995 13.7482 14.8671 13.3889 15.2172L9.02436 19.4696C8.4447 20.0343 7.45357 19.6344 7.45357 18.8357L7.45357 10.331C7.45357 9.53231 8.4447 9.13233 9.02436 9.69709Z" fill="#E094DD"/>
<path d="M4.94872 9.69709L9.31322 13.9494C9.67256 14.2995 9.67256 14.8671 9.31322 15.2172L4.94872 19.4696C4.36906 20.0343 3.37793 19.6344 3.37793 18.8357L3.37793 10.331C3.37793 9.53231 4.36906 9.13233 4.94872 9.69709Z" fill="#ECB0EA"/>
</svg>
