<svg width="28" height="28" viewBox="0 0 28 28" fill="none" xmlns="http://www.w3.org/2000/svg">
<path fill-rule="evenodd" clip-rule="evenodd" d="M22.1667 14V22.75C22.1667 23.0722 22.4278 23.3333 22.75 23.3333C23.0722 23.3333 23.3333 23.0722 23.3333 22.75V14C23.3333 12.3892 22.0275 11.0833 20.4167 11.0833L11.9583 11.0833C11.6362 11.0833 11.375 11.3445 11.375 11.6667C11.375 11.9888 11.6362 12.25 11.9583 12.25H20.4167C21.3832 12.25 22.1667 13.0335 22.1667 14Z" fill="#050505"/>
<path fill-rule="evenodd" clip-rule="evenodd" d="M11.6667 11.0833C11.3445 11.0833 11.0833 11.3445 11.0833 11.6667L11.0833 20.4167C11.0833 22.0275 12.3892 23.3333 14 23.3333L22.75 23.3333C23.0722 23.3333 23.3333 23.0722 23.3333 22.75C23.3333 22.4278 23.0722 22.1667 22.75 22.1667L14 22.1667C13.0335 22.1667 12.25 21.3832 12.25 20.4167V11.6667C12.25 11.3445 11.9888 11.0833 11.6667 11.0833Z" fill="#050505"/>
<path d="M3.5 5.83333C3.5 4.54467 4.54467 3.5 5.83333 3.5H17.5C18.7887 3.5 19.8333 4.54467 19.8333 5.83333V16.9167C19.8333 18.2053 18.7887 19.25 17.5 19.25H5.83333C4.54467 19.25 3.5 18.2053 3.5 16.9167V5.83333Z" fill="#A9C2EC"/>
<path fill-rule="evenodd" clip-rule="evenodd" d="M12.0728 7.59466C12.3887 7.65785 12.5936 7.96517 12.5304 8.28108L11.3637 14.1144C11.3005 14.4303 10.9932 14.6352 10.6773 14.572C10.3613 14.5088 10.1565 14.2015 10.2197 13.8856L11.3864 8.05226C11.4496 7.73635 11.7569 7.53148 12.0728 7.59466Z" fill="#050505"/>
<path fill-rule="evenodd" clip-rule="evenodd" d="M9.52703 8.42642C9.34832 8.15836 8.98615 8.08593 8.71809 8.26463L5.58211 10.3553C5.0626 10.7016 5.0626 11.465 5.58211 11.8114L8.71809 13.902C8.98615 14.0807 9.34832 14.0083 9.52703 13.7402C9.70573 13.4722 9.6333 13.11 9.36524 12.9313L6.59329 11.0833L9.36524 9.23536C9.6333 9.05665 9.70573 8.69448 9.52703 8.42642Z" fill="#050505"/>
<path fill-rule="evenodd" clip-rule="evenodd" d="M13.223 8.42642C13.4017 8.15836 13.7639 8.08593 14.0319 8.26463L17.1679 10.3553C17.6874 10.7016 17.6874 11.465 17.1679 11.8114L14.0319 13.902C13.7639 14.0807 13.4017 14.0083 13.223 13.7402C13.0443 13.4722 13.1167 13.11 13.3848 12.9313L16.1567 11.0833L13.3848 9.23536C13.1167 9.05665 13.0443 8.69448 13.223 8.42642Z" fill="#050505"/>
<path d="M25.6667 22.75C25.6667 24.3608 24.3608 25.6667 22.75 25.6667C21.1392 25.6667 19.8333 24.3608 19.8333 22.75C19.8333 21.1392 21.1392 19.8333 22.75 19.8333C24.3608 19.8333 25.6667 21.1392 25.6667 22.75Z" fill="#2570ED"/>
</svg>
