<svg width="29" height="28" viewBox="0 0 29 28" fill="none" xmlns="http://www.w3.org/2000/svg">
<path fill-rule="evenodd" clip-rule="evenodd" d="M8.36292 4.66675C6.42992 4.66675 4.86292 6.23375 4.86292 8.16675V19.8334C4.86292 21.7664 6.42992 23.3334 8.36292 23.3334H20.0296C21.9626 23.3334 23.5296 21.7664 23.5296 19.8334V8.16675C23.5296 6.23375 21.9626 4.66675 20.0296 4.66675H8.36292ZM16.2141 19.2501H18.5712L15.1293 13.3968L18.5445 8.75008H16.2409L13.5891 12.3195C13.4507 12.5254 13.3146 12.7313 13.1806 12.9372C13.0467 13.143 12.9105 13.3489 12.7721 13.5548V8.75008H10.6962V19.2501H12.7721V15.5011L13.6494 14.826L16.2141 19.2501Z" fill="#BD64B9"/>
<path d="M25.8629 17.7417V25.0834C25.8629 25.4056 25.6017 25.6667 25.2796 25.6667H17.9379C17.4182 25.6667 17.1579 25.0384 17.5254 24.6709L24.8671 17.3292C25.2346 16.9617 25.8629 17.222 25.8629 17.7417Z" fill="#ECB0EA"/>
</svg>
