<svg width="28" height="28" viewBox="0 0 28 28" fill="none" xmlns="http://www.w3.org/2000/svg">
<path d="M4.66699 8.16663C4.66699 6.23363 6.234 4.66663 8.16699 4.66663H19.8337C21.7667 4.66663 23.3337 6.23363 23.3337 8.16663V19.8333C23.3337 21.7663 21.7667 23.3333 19.8337 23.3333H8.16699C6.234 23.3333 4.66699 21.7663 4.66699 19.8333V8.16663Z" fill="#2570ED"/>
<path d="M21.0007 9.33333C21.0007 10.622 19.956 11.6667 18.6673 11.6667C17.3787 11.6667 16.334 10.622 16.334 9.33333C16.334 8.04467 17.3787 7 18.6673 7C19.956 7 21.0007 8.04467 21.0007 9.33333Z" fill="#A9C2EC"/>
<path d="M11.941 11.976L5.99718 17.9198C5.72157 18.1954 5.91677 18.6667 6.30654 18.6667H18.1941C18.5839 18.6667 18.7791 18.1954 18.5035 17.9198L12.5597 11.976C12.3888 11.8052 12.1118 11.8052 11.941 11.976Z" fill="#5796FF"/>
<path d="M16.6073 13.1427L11.8302 17.9198C11.5546 18.1954 11.7498 18.6666 12.1395 18.6666H21.6938C22.0835 18.6666 22.2787 18.1954 22.0031 17.9198L17.226 13.1427C17.0552 12.9718 16.7782 12.9718 16.6073 13.1427Z" fill="#5796FF"/>
<path fill-rule="evenodd" clip-rule="evenodd" d="M20.5318 19.8446C20.8477 19.9078 21.0526 20.2151 20.9894 20.531L19.8227 26.3644C19.7595 26.6803 19.4522 26.8851 19.1363 26.822C18.8204 26.7588 18.6155 26.4515 18.6787 26.1355L19.8454 20.3022C19.9086 19.9863 20.2159 19.7814 20.5318 19.8446Z" fill="#050505"/>
<path fill-rule="evenodd" clip-rule="evenodd" d="M17.986 20.6764C17.8072 20.4084 17.4451 20.336 17.177 20.5147L14.041 22.6053C13.5215 22.9517 13.5215 23.7151 14.041 24.0614L17.177 26.152C17.4451 26.3308 17.8072 26.2583 17.986 25.9903C18.1647 25.7222 18.0922 25.36 17.8242 25.1813L15.0522 23.3334L17.8242 21.4854C18.0922 21.3067 18.1647 20.9445 17.986 20.6764Z" fill="#050505"/>
<path fill-rule="evenodd" clip-rule="evenodd" d="M21.682 20.6764C21.8607 20.4084 22.2229 20.336 22.491 20.5147L25.6269 22.6053C26.1464 22.9517 26.1464 23.7151 25.6269 24.0614L22.491 26.152C22.2229 26.3308 21.8607 26.2583 21.682 25.9903C21.5033 25.7222 21.5757 25.36 21.8438 25.1813L24.6158 23.3334L21.8438 21.4854C21.5757 21.3067 21.5033 20.9445 21.682 20.6764Z" fill="#050505"/>
</svg>
