<svg width="28" height="28" viewBox="0 0 28 28" fill="none" xmlns="http://www.w3.org/2000/svg">
<path fill-rule="evenodd" clip-rule="evenodd" d="M22.167 13.4166C22.4892 13.4166 22.7503 13.6778 22.7503 14C22.7503 15.7179 22.2446 17.3977 21.2964 18.8301C20.348 20.2626 18.9991 21.3842 17.4176 22.0551C15.8362 22.726 14.0922 22.9165 12.4032 22.603C10.7142 22.2894 9.15485 21.4856 7.91958 20.2918C7.68792 20.0679 7.68162 19.6986 7.90551 19.467C8.1294 19.2353 8.49869 19.229 8.73035 19.4529C9.80091 20.4875 11.1523 21.1842 12.6162 21.4559C14.08 21.7277 15.5914 21.5625 16.962 20.9811C18.3326 20.3996 19.5017 19.4276 20.3235 18.1861C21.1454 16.9447 21.5837 15.4888 21.5837 14C21.5837 13.6778 21.8448 13.4166 22.167 13.4166Z" fill="#050505"/>
<path d="M21.5837 14C21.5837 18.1881 18.1885 21.5833 14.0003 21.5833C9.81217 21.5833 6.41699 18.1881 6.41699 14C6.41699 9.81182 9.81217 6.41665 14.0003 6.41665C18.1885 6.41665 21.5837 9.81182 21.5837 14Z" fill="#FF6B18"/>
<path d="M17.5003 3.49998C17.5003 2.85565 18.0227 2.33331 18.667 2.33331H24.5003C25.1447 2.33331 25.667 2.85565 25.667 3.49998V9.33331C25.667 9.97764 25.1447 10.5 24.5003 10.5H18.667C18.0227 10.5 17.5003 9.97764 17.5003 9.33331V3.49998Z" fill="#FFAA7B"/>
<path fill-rule="evenodd" clip-rule="evenodd" d="M10.9128 17.0875C11.1406 17.3153 11.1406 17.6847 10.9128 17.9125L3.9128 24.9125C3.685 25.1403 3.31565 25.1403 3.08785 24.9125C2.86004 24.6847 2.86004 24.3153 3.08785 24.0875L10.0878 17.0875C10.3157 16.8597 10.685 16.8597 10.9128 17.0875Z" fill="#050505"/>
<path fill-rule="evenodd" clip-rule="evenodd" d="M19.4212 15.5791C19.1934 15.3513 19.1934 14.982 19.4212 14.7542L21.7545 12.4208C21.9823 12.193 22.3517 12.193 22.5795 12.4208L24.9128 14.7542C25.1406 14.982 25.1406 15.3513 24.9128 15.5791C24.685 15.8069 24.3157 15.8069 24.0878 15.5791L22.167 13.6583L20.2461 15.5791C20.0183 15.8069 19.649 15.8069 19.4212 15.5791Z" fill="#050505"/>
</svg>
