<svg width="28" height="28" viewBox="0 0 28 28" fill="none" xmlns="http://www.w3.org/2000/svg">
<path d="M3.5 12.8333C3.5 12.189 4.02233 11.6666 4.66667 11.6666H10.5C11.1443 11.6666 11.6667 12.189 11.6667 12.8333V23.3333C11.6667 23.9776 11.1443 24.5 10.5 24.5H4.66667C4.02233 24.5 3.5 23.9776 3.5 23.3333V12.8333Z" fill="#FF6B18"/>
<path d="M8.16667 10.2083C8.16667 9.56397 8.689 9.04164 9.33333 9.04164H14C14.6443 9.04164 15.1667 9.56397 15.1667 10.2083V20.7083C15.1667 21.3526 14.6443 21.875 14 21.875H9.33333C8.689 21.875 8.16667 21.3526 8.16667 20.7083V10.2083Z" fill="#FFAA7B"/>
<path d="M12.8333 12.8333C12.8333 12.189 13.3557 11.6666 14 11.6666H23.3333C23.9777 11.6666 24.5 12.189 24.5 12.8333V23.3333C24.5 23.9776 23.9777 24.5 23.3333 24.5H14C13.3557 24.5 12.8333 23.9776 12.8333 23.3333V12.8333Z" fill="#C94901"/>
<path fill-rule="evenodd" clip-rule="evenodd" d="M19.0728 2.34463C19.3887 2.40782 19.5936 2.71514 19.5304 3.03105L18.3637 8.86437C18.3005 9.18028 17.9932 9.38515 17.6773 9.32197C17.3613 9.25878 17.1565 8.95146 17.2197 8.63555L18.3864 2.80223C18.4496 2.48632 18.7569 2.28145 19.0728 2.34463Z" fill="#050505"/>
<path fill-rule="evenodd" clip-rule="evenodd" d="M16.527 3.17639C16.3483 2.90833 15.9862 2.8359 15.7181 3.0146L12.5821 5.10525C12.0626 5.4516 12.0626 6.215 12.5821 6.56134L15.7181 8.65199C15.9862 8.8307 16.3483 8.75826 16.527 8.49021C16.7057 8.22215 16.6333 7.85997 16.3652 7.68127L13.5933 5.8333L16.3652 3.98533C16.6333 3.80662 16.7057 3.44445 16.527 3.17639Z" fill="#050505"/>
<path fill-rule="evenodd" clip-rule="evenodd" d="M20.223 3.17639C20.4017 2.90833 20.7639 2.8359 21.0319 3.0146L24.1679 5.10525C24.6874 5.4516 24.6874 6.215 24.1679 6.56134L21.0319 8.65199C20.7639 8.8307 20.4017 8.75826 20.223 8.49021C20.0443 8.22215 20.1167 7.85997 20.3848 7.68127L23.1567 5.8333L20.3848 3.98533C20.1167 3.80662 20.0443 3.44445 20.223 3.17639Z" fill="#050505"/>
</svg>
