<svg width="28" height="28" viewBox="0 0 28 28" fill="none" xmlns="http://www.w3.org/2000/svg">
<path fill-rule="evenodd" clip-rule="evenodd" d="M11.958 21.9675C12.3229 22.0965 12.7156 22.1666 13.1247 22.1666H20.708C22.641 22.1666 24.208 20.5996 24.208 18.6666V11.6666C24.208 9.73365 22.641 8.16665 20.708 8.16665H13.1247C12.7156 8.16665 12.3229 8.23683 11.958 8.3658V9.64547C12.3012 9.44694 12.6997 9.33331 13.1247 9.33331H20.708C21.9967 9.33331 23.0413 10.378 23.0413 11.6666V18.6666C23.0413 19.9553 21.9967 21 20.708 21H13.1247C12.6997 21 12.3012 20.8864 11.958 20.6878V21.9675Z" fill="#050505"/>
<path d="M12.833 8.74998C12.833 11.0051 11.0048 12.8333 8.74967 12.8333C6.49451 12.8333 4.66634 11.0051 4.66634 8.74998C4.66634 6.49482 6.49451 4.66665 8.74967 4.66665C11.0048 4.66665 12.833 6.49482 12.833 8.74998Z" fill="#F07702"/>
<path fill-rule="evenodd" clip-rule="evenodd" d="M8.74967 15.1666C12.2935 15.1666 15.1663 12.2938 15.1663 8.74998C15.1663 5.20615 12.2935 2.33331 8.74967 2.33331C5.20585 2.33331 2.33301 5.20615 2.33301 8.74998C2.33301 12.2938 5.20585 15.1666 8.74967 15.1666ZM8.74967 11.9583C10.5216 11.9583 11.958 10.5219 11.958 8.74998C11.958 6.97807 10.5216 5.54165 8.74967 5.54165C6.97776 5.54165 5.54134 6.97807 5.54134 8.74998C5.54134 10.5219 6.97776 11.9583 8.74967 11.9583Z" fill="#FFAA7B"/>
<path d="M11.3747 18.6666C11.3747 18.0223 11.897 17.5 12.5413 17.5H18.3747C19.019 17.5 19.5413 18.0223 19.5413 18.6666V24.5C19.5413 25.1443 19.019 25.6666 18.3747 25.6666H12.5413C11.897 25.6666 11.3747 25.1443 11.3747 24.5V18.6666Z" fill="#C94901"/>
</svg>
