<svg width="28" height="28" viewBox="0 0 28 28" fill="none" xmlns="http://www.w3.org/2000/svg">
<path d="M19.8337 19.8333C19.8337 19.0673 19.6828 18.3087 19.3896 17.601C19.0965 16.8933 18.6668 16.2502 18.1251 15.7085C17.5834 15.1668 16.9404 14.7372 16.2326 14.444C15.5249 14.1509 14.7664 14 14.0003 14C13.2343 14 12.4757 14.1509 11.768 14.444C11.0603 14.7372 10.4172 15.1668 9.87554 15.7085C9.33386 16.2502 8.90418 16.8933 8.61103 17.601C8.31788 18.3087 8.16699 19.0673 8.16699 19.8333H14.0003H19.8337Z" fill="#C94901"/>
<path fill-rule="evenodd" clip-rule="evenodd" d="M4.66699 6.41665C4.66699 4.16148 6.49516 2.33331 8.75033 2.33331H19.2503C21.5055 2.33331 23.3337 4.16148 23.3337 6.41665V16.9166C23.3337 19.1718 21.5055 21 19.2503 21H8.75033C6.49516 21 4.66699 19.1718 4.66699 16.9166V6.41665ZM8.75033 3.49998C7.1395 3.49998 5.83366 4.80582 5.83366 6.41665V16.9166C5.83366 18.5275 7.1395 19.8333 8.75033 19.8333H19.2503C20.8612 19.8333 22.167 18.5275 22.167 16.9166V6.41665C22.167 4.80582 20.8612 3.49998 19.2503 3.49998H8.75033Z" fill="#050505"/>
<path d="M14.0003 14C13.2343 14 12.4757 14.1509 11.768 14.444C11.0603 14.7372 10.4172 15.1668 9.87554 15.7085C9.33386 16.2502 8.90418 16.8933 8.61103 17.601C8.31788 18.3087 8.16699 19.0673 8.16699 19.8333C8.16699 20.5994 8.31788 21.3579 8.61103 22.0656C8.90418 22.7734 9.33386 23.4164 9.87554 23.9581C10.4172 24.4998 11.0603 24.9295 11.768 25.2226C12.4757 25.5158 13.2343 25.6666 14.0003 25.6666V19.8333V14Z" fill="#FF6B18"/>
<path fill-rule="evenodd" clip-rule="evenodd" d="M14.0003 10.5C14.9668 10.5 15.7503 9.71648 15.7503 8.74998C15.7503 7.78348 14.9668 6.99998 14.0003 6.99998C13.0338 6.99998 12.2503 7.78348 12.2503 8.74998C12.2503 9.71648 13.0338 10.5 14.0003 10.5ZM14.0003 12.8333C16.2555 12.8333 18.0837 11.0051 18.0837 8.74998C18.0837 6.49482 16.2555 4.66665 14.0003 4.66665C11.7452 4.66665 9.91699 6.49482 9.91699 8.74998C9.91699 11.0051 11.7452 12.8333 14.0003 12.8333Z" fill="#FFAA7B"/>
</svg>
