<svg width="29" height="28" viewBox="0 0 29 28" fill="none" xmlns="http://www.w3.org/2000/svg">
<path fill-rule="evenodd" clip-rule="evenodd" d="M18.2505 3.15738C19.0706 2.55321 20.0813 2.26537 21.0967 2.34679C22.1122 2.4282 23.0641 2.87339 23.7775 3.60052C24.491 4.32766 24.918 5.28787 24.9801 6.30465C25.0421 7.32144 24.7351 8.32647 24.1155 9.13501C23.4958 9.94355 22.6051 10.5013 21.6072 10.7056C20.6092 10.91 19.571 10.7473 18.6834 10.2474C18.4027 10.0893 18.3033 9.73355 18.4614 9.45285C18.6195 9.17214 18.9752 9.07274 19.2559 9.23083C19.8987 9.59282 20.6505 9.71065 21.3731 9.56267C22.0958 9.41468 22.7408 9.01083 23.1895 8.42533C23.6382 7.83984 23.8605 7.11206 23.8156 6.37576C23.7706 5.63947 23.4614 4.94414 22.9448 4.4176C22.4281 3.89105 21.7388 3.56868 21.0035 3.50972C20.2682 3.45077 19.5363 3.6592 18.9424 4.0967C18.3485 4.53421 17.9324 5.17138 17.7707 5.89111C17.609 6.61083 17.7125 7.36474 18.0622 8.01425C18.215 8.29791 18.1088 8.65168 17.8252 8.8044C17.5415 8.95713 17.1877 8.85099 17.035 8.56732C16.5521 7.67038 16.4091 6.62927 16.6324 5.63537C16.8557 4.64146 17.4303 3.76155 18.2505 3.15738Z" fill="#050505"/>
<path d="M4.86292 20.9999C4.86292 20.3556 5.38525 19.8333 6.02958 19.8333H20.0296C20.6739 19.8333 21.1962 20.3556 21.1962 20.9999V22.1666C21.1962 22.8109 20.6739 23.3333 20.0296 23.3333H6.02958C5.38525 23.3333 4.86292 22.8109 4.86292 22.1666V20.9999Z" fill="#D05510"/>
<path d="M4.86292 15.1666C4.86292 14.5223 5.38525 13.9999 6.02958 13.9999H20.0296C20.6739 13.9999 21.1962 14.5223 21.1962 15.1666V17.4999C21.1962 18.1443 20.6739 18.6666 20.0296 18.6666H6.02958C5.38525 18.6666 4.86292 18.1443 4.86292 17.4999V15.1666Z" fill="#FF8038"/>
<path d="M4.86292 8.16659C4.86292 7.52226 5.38525 6.99993 6.02958 6.99993H20.0296C20.6739 6.99993 21.1962 7.52226 21.1962 8.16659V11.6666C21.1962 12.3109 20.6739 12.8333 20.0296 12.8333H6.02958C5.38525 12.8333 4.86292 12.3109 4.86292 11.6666V8.16659Z" fill="#FFAA7B"/>
</svg>
