<svg width="29" height="28" viewBox="0 0 29 28" fill="none" xmlns="http://www.w3.org/2000/svg">
<path fill-rule="evenodd" clip-rule="evenodd" d="M22.363 17.4999C22.6852 17.4999 22.9463 17.2388 22.9463 16.9166V8.16658C22.9463 6.55576 21.6405 5.24992 20.0297 5.24992L11.5713 5.24992C11.2492 5.24992 10.988 5.51109 10.988 5.83325C10.988 6.15542 11.2492 6.41659 11.5713 6.41659L20.0297 6.41658C20.9962 6.41658 21.7797 7.20009 21.7797 8.16658V16.9166C21.7797 17.2388 22.0408 17.4999 22.363 17.4999Z" fill="#050505"/>
<path fill-rule="evenodd" clip-rule="evenodd" d="M6.02966 10.4999C5.7075 10.4999 5.44633 10.7611 5.44633 11.0833L5.44633 18.6666C5.44633 20.9217 7.2745 22.7499 9.52966 22.7499H16.8213C17.1435 22.7499 17.4047 22.4888 17.4047 22.1666C17.4047 21.8444 17.1435 21.5833 16.8213 21.5833H9.52966C7.91883 21.5833 6.613 20.2774 6.613 18.6666L6.613 11.0833C6.613 10.7611 6.35183 10.4999 6.02966 10.4999Z" fill="#050505"/>
<path fill-rule="evenodd" clip-rule="evenodd" d="M9.73169 3.22132C11.1472 2.63502 12.6642 2.33325 14.1963 2.33325V10.4999C14.1963 10.4999 14.1964 10.4999 14.1963 10.4999C12.2633 10.4999 10.6962 12.0669 10.6962 13.9999L2.52966 13.9999C2.52966 12.4678 2.83143 10.9507 3.41773 9.53528C4.00404 8.11981 4.8634 6.83369 5.94675 5.75034C7.0301 4.66699 8.31622 3.80763 9.73169 3.22132Z" fill="#FFAA7B"/>
<path fill-rule="evenodd" clip-rule="evenodd" d="M14.1963 17.4999C16.1293 17.4999 17.6962 15.9329 17.6962 13.9999L25.863 13.9999C25.863 15.532 25.5612 17.0491 24.9749 18.4646C24.3886 19.88 23.5293 21.1661 22.4459 22.2495C21.3626 23.3328 20.0764 24.1922 18.661 24.7785C17.2455 25.3648 15.7284 25.6666 14.1963 25.6666V17.4999Z" fill="#FF8038"/>
<path fill-rule="evenodd" clip-rule="evenodd" d="M14.1963 19.8333C17.418 19.8333 20.0297 17.2216 20.0297 13.9999C20.0297 10.7783 17.418 8.16658 14.1963 8.16658C10.9747 8.16658 8.363 10.7783 8.363 13.9999C8.363 17.2216 10.9747 19.8333 14.1963 19.8333ZM14.1963 16.9166C15.8072 16.9166 17.113 15.6107 17.113 13.9999C17.113 12.3891 15.8072 11.0833 14.1963 11.0833C12.5855 11.0833 11.2797 12.3891 11.2797 13.9999C11.2797 15.6107 12.5855 16.9166 14.1963 16.9166Z" fill="#D05510"/>
</svg>
