<svg width="29" height="28" viewBox="0 0 29 28" fill="none" xmlns="http://www.w3.org/2000/svg">
<path d="M24.6963 20.4166C24.6963 22.6717 22.8682 24.4999 20.613 24.4999C18.3578 24.4999 16.5297 22.6717 16.5297 20.4166C16.5297 18.1614 18.3578 16.3333 20.613 16.3333C22.8682 16.3333 24.6963 18.1614 24.6963 20.4166Z" fill="#FFAA7B"/>
<path fill-rule="evenodd" clip-rule="evenodd" d="M14.1963 10.4999C16.1293 10.5 17.6962 12.067 17.6962 13.9999L25.863 13.9999C25.863 12.4678 25.5612 10.9507 24.9749 9.53528C24.3886 8.11981 23.5293 6.83369 22.4459 5.75034C21.3626 4.66699 20.0764 3.80763 18.661 3.22132C17.2455 2.63502 15.7284 2.33325 14.1963 2.33325V10.4999Z" fill="#D05510"/>
<path d="M21.1963 13.9999C21.1963 17.8659 18.0623 20.9999 14.1963 20.9999C10.3303 20.9999 7.19633 17.8659 7.19633 13.9999C7.19633 10.1339 10.3303 6.99992 14.1963 6.99992C18.0623 6.99992 21.1963 10.1339 21.1963 13.9999Z" fill="#FF8038"/>
<path fill-rule="evenodd" clip-rule="evenodd" d="M17.9012 4.17525C16.0044 3.46001 13.9412 3.30908 11.9606 3.7407C9.98003 4.17232 8.1667 5.16802 6.73956 6.60759C5.31242 8.04717 4.3325 9.86908 3.91809 11.8534C3.50368 13.8376 3.67251 15.8995 4.40419 17.7899C5.13587 19.6803 6.39911 21.3186 8.04142 22.5068C9.68373 23.6951 11.6349 24.3825 13.6593 24.4862C13.9811 24.5027 14.2285 24.7768 14.2121 25.0986C14.1956 25.4203 13.9214 25.6678 13.5997 25.6513C11.3503 25.5361 9.18233 24.7723 7.35754 23.452C5.53276 22.1317 4.12915 20.3115 3.31617 18.211C2.5032 16.1105 2.31561 13.8196 2.77606 11.6149C3.23652 9.4101 4.32532 7.38576 5.91103 5.78623C7.49674 4.18669 9.51155 3.08036 11.7122 2.60079C13.9129 2.12121 16.2054 2.28891 18.3128 3.08362C20.4203 3.87833 22.2526 5.26609 23.5887 7.07935C24.9248 8.89261 25.7074 11.0538 25.8421 13.3021C25.8614 13.6237 25.6163 13.9 25.2947 13.9193C24.9731 13.9386 24.6968 13.6935 24.6775 13.3719C24.5563 11.3485 23.8519 9.40334 22.6495 7.77141C21.447 6.13947 19.7979 4.89049 17.9012 4.17525Z" fill="#050505"/>
</svg>
