<svg width="29" height="28" viewBox="0 0 29 28" fill="none" xmlns="http://www.w3.org/2000/svg">
<path d="M10.113 5.83333C10.113 4.54467 11.1576 3.5 12.4463 3.5H22.363C23.6516 3.5 24.6963 4.54467 24.6963 5.83333V15.75C24.6963 17.0387 23.6516 18.0833 22.363 18.0833H12.4463C11.1576 18.0833 10.113 17.0387 10.113 15.75V5.83333Z" fill="#D05510"/>
<path d="M7.19629 9.91667C7.19629 7.98367 8.76329 6.41667 10.6963 6.41667H18.2796C20.2126 6.41667 21.7796 7.98367 21.7796 9.91667V17.5C21.7796 19.433 20.2126 21 18.2796 21H10.6963C8.76329 21 7.19629 19.433 7.19629 17.5V9.91667Z" fill="#FFAA7B"/>
<path d="M3.69629 13.4167C3.69629 11.4837 5.26329 9.91667 7.19629 9.91667H14.7796C16.7126 9.91667 18.2796 11.4837 18.2796 13.4167V21C18.2796 22.933 16.7126 24.5 14.7796 24.5H7.19629C5.26329 24.5 3.69629 22.933 3.69629 21V13.4167Z" fill="#FF8038"/>
</svg>
