<svg xmlns="http://www.w3.org/2000/svg" viewBox="0 0 21 21"><path d="M10.166.252A9.93 9.93 0 0 0 .25 10.168a9.93 9.93 0 0 0 9.916 9.916 9.93 9.93 0 0 0 9.918-9.916A9.93 9.93 0 0 0 10.166.252zm-1.699 1.67C6.91 4.123 5.976 6.714 5.785 9.418h-4c.328-3.735 3.081-6.762 6.682-7.496zm3.398 0c3.601.734 6.355 3.761 6.684 7.496h-4a14.77 14.77 0 0 0-2.684-7.496zm-1.697.467c1.59 2.045 2.647 4.454 2.869 7.029h-5.74c.222-2.576 1.281-4.984 2.871-7.029zm-8.383 8.529h4a14.77 14.77 0 0 0 2.684 7.496c-3.602-.734-6.355-3.761-6.684-7.496zm5.512 0h5.74c-.222 2.575-1.28 4.982-2.869 7.027-1.59-2.045-2.649-4.452-2.871-7.027zm7.252 0h4c-.329 3.735-3.082 6.762-6.684 7.496a14.77 14.77 0 0 0 2.684-7.496z"/></svg>
