<svg xmlns="http://www.w3.org/2000/svg" viewBox="0 0 22 19"><path d="M8.273.252a4.4 4.4 0 0 0-4.387 4.385 4.4 4.4 0 0 0 4.387 4.387 4.4 4.4 0 0 0 4.385-4.387c0-2.414-1.971-4.385-4.385-4.385zm6.314.119a.75.75 0 0 0-.139 1.475c.621.159 1.171.519 1.564 1.025a2.89 2.89 0 0 1 .607 1.771c0 .641-.214 1.263-.607 1.77s-.943.866-1.564 1.025a.75.75 0 1 0 .373 1.453c.943-.242 1.78-.789 2.377-1.559s.922-1.716.922-2.689-.325-1.92-.922-2.689A4.39 4.39 0 0 0 14.822.393a.75.75 0 0 0-.234-.021zM8.273 1.752a2.87 2.87 0 0 1 2.885 2.885c0 1.603-1.282 2.887-2.885 2.887S5.387 6.24 5.387 4.637 6.67 1.752 8.273 1.752zM4.637 11.16A4.39 4.39 0 0 0 .25 15.547v1.818a.75.75 0 1 0 1.5 0v-1.818c0-.766.304-1.499.846-2.041s1.275-.846 2.041-.846h7.271c.766 0 1.499.304 2.041.846s.846 1.275.846 2.041v1.818a.75.75 0 1 0 1.5 0v-1.818c0-1.163-.461-2.279-1.283-3.102a.75.75 0 0 0-.002 0 4.39 4.39 0 0 0-3.102-1.285zm13.631.119a.75.75 0 0 0-.182 1.475c.619.16 1.167.522 1.559 1.027s.605 1.126.605 1.766v1.818a.75.75 0 1 0 1.5 0v-1.818a.75.75 0 0 0 0-.002c-.001-.972-.324-1.916-.92-2.684a4.38 4.38 0 0 0-2.369-1.559.75.75 0 0 0-.193-.023z"/></svg>
