<svg xmlns="http://www.w3.org/2000/svg" viewBox="0 0 32 32"><path d="M10.7 25.512c0 .132-.132.231-.33.231-.231.033-.363-.066-.363-.231 0-.132.132-.231.33-.231s.363.099.363.231zm-2.014-.297c-.033.132.099.297.297.33.165.066.363 0 .396-.132s-.099-.264-.297-.33c-.165-.066-.33 0-.396.132zm2.873-.099c-.198.033-.33.165-.297.33 0 .099.165.198.363.165.198-.066.33-.165.297-.297 0-.132-.198-.231-.363-.198zM15.785.414C6.836.414 0 7.184 0 16.133c0 7.166 4.491 13.276 10.931 15.422.826.165 1.123-.363 1.123-.76l-.033-3.963s-4.491.958-5.449-1.915c0 0-.727-1.882-1.783-2.378 0 0-1.486-1.024.099-.991 0 0 1.585.132 2.477 1.651 1.42 2.51 3.798 1.783 4.689 1.354.165-1.024.594-1.75 1.057-2.18-3.6-.396-7.265-.925-7.265-7.1 0-1.783.495-2.675 1.519-3.798-.165-.429-.693-2.18.198-4.392 1.321-.429 4.425 1.75 4.425 1.75a15.08 15.08 0 0 1 4.062-.561 15.08 15.08 0 0 1 4.062.561s3.104-2.18 4.425-1.75c.892 2.246.363 3.963.165 4.392 1.057 1.123 1.684 2.014 1.684 3.798 0 6.208-3.798 6.704-7.397 7.1.594.528 1.09 1.486 1.09 3.005l-.033 5.383c0 .429.297.958 1.123.793C27.608 29.409 32 23.299 32 16.133 32 7.184 24.735.414 15.785.414zM6.275 22.639c-.099.066-.066.231.033.33s.264.165.33.066c.099-.066.066-.198-.033-.33-.099-.099-.264-.132-.33-.066zm-.693-.528c-.066.099 0 .198.132.264.099.066.231.033.297-.033.033-.099-.033-.198-.165-.264-.132-.033-.231-.033-.264.033zm2.08 2.312c-.099.066-.066.264.099.396.132.165.33.165.396.066.099-.099.066-.264-.066-.396-.165-.165-.33-.165-.429-.066zm-.727-.958c-.099.066-.099.231 0 .396.099.132.264.198.363.132s.099-.231 0-.396c-.099-.132-.264-.198-.363-.132z"/></svg>
