<svg fill="none" height="226" viewBox="0 0 1056 226" width="1056" xmlns="http://www.w3.org/2000/svg" xmlns:xlink="http://www.w3.org/1999/xlink"><linearGradient id="a" gradientUnits="userSpaceOnUse" x1="278.92" x2="-.000028" y1="113.01" y2="113.01"><stop offset="0" stop-color="#984ad7"/><stop offset=".49" stop-color="#465ce0"/><stop offset="1" stop-color="#0497dc"/></linearGradient><clipPath id="b"><path d="m0 0h1056v226h-1056z"/></clipPath><g clip-path="url(#b)"><path d="m36.9 177.64-12.33 29.09c-2.14 5.05-1.16 11.11 2.96 15.23 2.71 2.71 6.26 4.06 9.81 4.06s7.1-1.35 9.81-4.06l11.72-11.72 44.24-44.25c2.05-2.05.6-5.54-2.3-5.54h-25.14c-.15 0-.3-.02-.46-.02-26.48 0-47.96-21.79-47.46-48.38.49-25.99 22.26-46.55 48.25-46.55h53.65c.86 0 1.69-.34 2.3-.95l21.26-21.26c2.05-2.05.6-5.54-2.3-5.54h-74.66c-41.74 0-76.620026 34.15-76.25003052 75.89.23999052 27.21 15.00003052 51 36.89003052 64.02zm166.01-17.2c25.99 0 47.76-20.56 48.25-46.55s-20.98-48.38-47.46-48.38c-.16 0-.33-.02-.49-.02h-25.12c-2.89 0-4.34-3.5-2.3-5.54l46.51-46.51h-.01l9.16-9.18001c5.23-5.230002 13.74-5.79 19.28-.88 4.65 4.11 5.84 10.52001 3.59 15.82001l-12.33 29.08c21.91 13.01 36.68 36.8 36.93 64.01.37 41.74-34.51 75.9-76.25 75.9h-74.67c-2.89 0-4.34-3.5-2.3-5.54l21.26-21.26c.61-.61 1.44-.95 2.3-.95h53.66zm-13.57-72.09c13.27 0 24.03 10.76 24.03 24.03s-10.76 24.03-24.03 24.03-24.03-10.76-24.03-24.03 10.76-24.03 24.03-24.03zm-98.2-.01c13.27 0 24.03 10.76 24.03 24.03s-10.76 24.03-24.03 24.03-24.03-10.76-24.03-24.03 10.76-24.03 24.03-24.03z" fill="url(#a)"/><g fill="#121518"><path d="m1055.78 162.621c0 2.578-.17 4.57-.52 5.977-.3 1.347-.71 2.314-1.23 2.9-.53.527-1.32 1.025-2.38 1.494-.99.41-2.19.762-3.6 1.055-1.35.351-2.84.615-4.48.791-1.59.176-3.2.264-4.84.264-4.39 0-8.2-.557-11.42-1.67-3.23-1.114-5.89-2.813-8-5.098-2.11-2.344-3.66-5.273-4.66-8.789s-1.49-7.676-1.49-12.481v-40.166h-9.41c-1.11 0-1.96-.673-2.55-2.021-.58-1.406-.88-3.721-.88-6.9434 0-1.6992.06-3.1348.18-4.3066.18-1.1719.41-2.0801.7-2.7247.3-.7031.65-1.2011 1.06-1.4941.47-.293.99-.4394 1.58-.4394h9.32v-17.4903c0-.5859.14-1.1133.44-1.582.35-.4688.93-.8496 1.75-1.1426.88-.3516 2.03-.5859 3.43-.7031 1.47-.1758 3.25-.2637 5.36-.2637 2.17 0 3.96.0879 5.36.2637 1.47.1172 2.61.3515 3.43.7031.82.293 1.41.6738 1.76 1.1426.35.4687.53.9961.53 1.582v17.4903h17.05c.58 0 1.08.1464 1.49.4394.47.293.85.791 1.14 1.4941.3.6446.5 1.5528.62 2.7247.18 1.1718.26 2.6074.26 4.3066 0 3.2224-.29 5.5374-.88 6.9434-.58 1.348-1.43 2.021-2.54 2.021h-17.14v36.827c0 4.277.67 7.5 2.02 9.668 1.35 2.109 3.75 3.164 7.21 3.164 1.17 0 2.22-.088 3.16-.264.94-.234 1.76-.469 2.46-.703.76-.293 1.38-.528 1.85-.703.52-.235.99-.352 1.4-.352.35 0 .68.117.97.352.35.175.61.586.79 1.23.18.586.32 1.406.44 2.461.18 1.055.26 2.402.26 4.043z"/><path d="m989.338 170.355c0 .586-.176 1.114-.527 1.583-.352.41-.938.761-1.758 1.054-.821.293-1.963.498-3.428.615-1.406.176-3.164.264-5.273.264-2.168 0-3.985-.088-5.45-.264-1.406-.117-2.519-.322-3.34-.615-.82-.293-1.406-.644-1.757-1.054-.352-.469-.528-.997-.528-1.583v-44.736c0-3.808-.293-6.797-.879-8.965-.527-2.168-1.318-4.013-2.373-5.537-1.054-1.582-2.431-2.783-4.13-3.603-1.641-.879-3.575-1.319-5.801-1.319-2.813 0-5.655 1.026-8.526 3.076-2.871 2.051-5.859 5.04-8.964 8.965v52.119c0 .586-.176 1.114-.528 1.583-.351.41-.967.761-1.846 1.054-.82.293-1.933.498-3.339.615-1.407.176-3.194.264-5.362.264s-3.955-.088-5.361-.264c-1.406-.117-2.549-.322-3.428-.615-.82-.293-1.406-.644-1.758-1.054-.351-.469-.527-.997-.527-1.583v-78.398c0-.5859.147-1.084.44-1.4941.293-.4688.82-.8496 1.582-1.1426.761-.293 1.728-.498 2.9-.6152 1.23-.1758 2.754-.2637 4.57-.2637 1.875 0 3.428.0879 4.658.2637 1.231.1172 2.168.3222 2.813.6152.703.293 1.201.6738 1.494 1.1426.293.4101.44.9082.44 1.4941v9.053c4.336-4.6877 8.73-8.2034 13.183-10.5471 4.512-2.3438 9.199-3.5156 14.063-3.5156 5.332 0 9.814.8789 13.447 2.6367 3.691 1.7578 6.65 4.1601 8.877 7.207 2.285 2.9883 3.926 6.504 4.922 10.547s1.494 8.906 1.494 14.59z"/><path d="m892.131 170.355c0 .586-.147 1.114-.44 1.583-.293.41-.82.761-1.582 1.054-.703.293-1.67.498-2.9.615-1.172.176-2.666.264-4.482.264-1.934 0-3.516-.088-4.747-.264-1.171-.117-2.109-.322-2.812-.615s-1.201-.644-1.494-1.054c-.293-.469-.44-.997-.44-1.583v-9.052c-4.336 4.687-8.759 8.203-13.271 10.547-4.453 2.343-9.082 3.515-13.887 3.515-5.39 0-9.931-.879-13.623-2.636-3.633-1.758-6.592-4.161-8.877-7.208-2.226-3.046-3.838-6.562-4.834-10.546-.937-4.043-1.406-9.053-1.406-15.03v-47.988c0-.5859.146-1.084.439-1.4941.352-.4688.938-.8496 1.758-1.1426.879-.293 2.022-.498 3.428-.6152 1.465-.1758 3.252-.2637 5.361-.2637 2.168 0 3.955.0879 5.362.2637 1.406.1172 2.519.3222 3.339.6152.879.293 1.495.6738 1.846 1.1426.352.4101.527.9082.527 1.4941v44.297c0 4.101.264 7.236.792 9.404.527 2.168 1.318 4.043 2.373 5.625 1.113 1.524 2.49 2.725 4.13 3.604 1.7.82 3.663 1.23 5.889 1.23 2.813 0 5.625-1.025 8.438-3.076 2.871-2.051 5.918-5.039 9.14-8.965v-52.119c0-.5859.147-1.084.44-1.4941.351-.4688.937-.8496 1.757-1.1426.879-.293 2.022-.498 3.428-.6152 1.406-.1758 3.194-.2637 5.362-.2637 2.167 0 3.955.0879 5.361.2637 1.406.1172 2.519.3222 3.34.6152.82.293 1.406.6738 1.758 1.1426.351.4101.527.9082.527 1.4941z"/><path d="m794.309 170.18c0 .586-.205 1.113-.616 1.582-.351.468-.966.849-1.845 1.142s-2.051.528-3.516.703c-1.465.176-3.311.264-5.537.264-2.285 0-4.19-.088-5.713-.264-1.465-.175-2.637-.41-3.516-.703-.82-.293-1.435-.674-1.845-1.142-.352-.469-.528-.996-.528-1.582v-45.967h-42.539v45.967c0 .586-.175 1.113-.527 1.582-.352.468-.967.849-1.846 1.142s-2.051.528-3.515.703c-1.465.176-3.34.264-5.625.264-2.227 0-4.102-.088-5.625-.264-1.465-.175-2.637-.41-3.516-.703s-1.523-.674-1.934-1.142c-.351-.469-.527-.996-.527-1.582v-107.4027c0-.5859.176-1.1132.527-1.582.411-.4687 1.055-.8496 1.934-1.1426.879-.2929 2.051-.5273 3.516-.7031 1.523-.1758 3.398-.2637 5.625-.2637 2.285 0 4.16.0879 5.625.2637 1.464.1758 2.636.4102 3.515.7031.879.293 1.494.6739 1.846 1.1426.352.4688.527.9961.527 1.582v41.7477h42.539v-41.7477c0-.5859.176-1.1132.528-1.582.41-.4687 1.025-.8496 1.845-1.1426.879-.2929 2.051-.5273 3.516-.7031 1.523-.1758 3.428-.2637 5.713-.2637 2.226 0 4.072.0879 5.537.2637s2.637.4102 3.516.7031c.879.293 1.494.6739 1.845 1.1426.411.4688.616.9961.616 1.582z"/><path d="m690.07 91.7812c0 .6446-.088 1.4356-.263 2.3731-.176.9375-.498 2.2852-.967 4.043l-20.918 70.9277c-.293.996-.674 1.816-1.143 2.461-.468.586-1.201 1.055-2.197 1.406-.937.352-2.314.586-4.131.703-1.758.117-4.072.176-6.943.176s-5.215-.088-7.031-.264c-1.817-.117-3.252-.351-4.307-.703-.996-.351-1.729-.82-2.197-1.406-.469-.644-.821-1.436-1.055-2.373l-13.184-47.637-.175-.791-.176.791-12.129 47.637c-.234.996-.586 1.816-1.055 2.461-.41.586-1.142 1.055-2.197 1.406-1.055.352-2.49.586-4.307.703-1.816.117-4.16.176-7.031.176-2.93 0-5.303-.088-7.119-.264-1.758-.117-3.164-.351-4.219-.703-.996-.351-1.728-.82-2.197-1.406-.469-.644-.82-1.436-1.055-2.373l-20.742-70.9277c-.527-1.6993-.879-3.0176-1.055-3.9551-.117-.9961-.175-1.8164-.175-2.461 0-.5859.146-1.0839.439-1.4941.352-.4687.938-.8203 1.758-1.0547.879-.2929 2.021-.498 3.428-.6152 1.464-.1172 3.281-.1758 5.449-.1758 2.344 0 4.248.0586 5.713.1758s2.607.3223 3.427.6152c.821.293 1.377.7031 1.67 1.2305.352.4687.616 1.0547.791 1.7578l15.557 57.5683.176 1.055.176-1.055 14.589-57.5683c.176-.7031.44-1.2891.791-1.7578.411-.5274.996-.9375 1.758-1.2305.762-.2929 1.817-.498 3.164-.6152 1.407-.1172 3.194-.1758 5.362-.1758s3.925.0879 5.273.2637c1.348.1172 2.402.3222 3.164.6152.82.2344 1.377.5859 1.67 1.0547.352.4102.615.9082.791 1.4941l15.645 58.0079.263.967.176-1.055 14.941-57.5683c.118-.7031.352-1.2891.704-1.7578.351-.5274.937-.9375 1.757-1.2305.821-.2929 1.934-.498 3.34-.6152s3.194-.1758 5.362-.1758 3.925.0586 5.273.1758c1.406.1172 2.49.3223 3.252.6152.82.2344 1.377.586 1.67 1.0547.293.4102.439.9082.439 1.4941z"/><path d="m552.873 130.365c0 6.68-.879 12.774-2.637 18.281-1.757 5.508-4.424 10.254-7.998 14.239-3.574 3.984-8.056 7.06-13.447 9.228s-11.689 3.252-18.896 3.252c-6.973 0-13.038-.967-18.194-2.9-5.156-1.934-9.433-4.746-12.832-8.438-3.398-3.691-5.918-8.232-7.558-13.623-1.641-5.39-2.461-11.543-2.461-18.457 0-6.679.879-12.773 2.636-18.281 1.817-5.566 4.512-10.312 8.086-14.2383 3.574-3.9843 8.028-7.0605 13.36-9.2285 5.39-2.168 11.689-3.2519 18.896-3.2519 7.031 0 13.125.9668 18.281 2.9004 5.157 1.875 9.405 4.6582 12.745 8.3496 3.398 3.6917 5.917 8.2327 7.558 13.6227 1.641 5.391 2.461 11.573 2.461 18.545zm-22.764.879c0-3.867-.322-7.412-.966-10.635-.586-3.281-1.612-6.123-3.077-8.525-1.464-2.402-3.427-4.277-5.888-5.625-2.403-1.348-5.449-2.021-9.141-2.021-3.281 0-6.152.615-8.613 1.845-2.461 1.172-4.483 2.93-6.065 5.274-1.582 2.285-2.783 5.068-3.603 8.349-.762 3.223-1.143 6.914-1.143 11.074 0 3.868.323 7.442.967 10.723.645 3.223 1.67 6.035 3.076 8.438 1.465 2.402 3.428 4.277 5.889 5.625 2.461 1.289 5.508 1.933 9.141 1.933 3.339 0 6.24-.586 8.701-1.758 2.461-1.23 4.482-2.988 6.064-5.273s2.754-5.039 3.516-8.262c.762-3.281 1.142-7.002 1.142-11.162z"/><path d="m451.447 170.355c0 .586-.176 1.114-.527 1.583-.352.41-.967.761-1.846 1.054-.82.293-1.933.498-3.34.615-1.406.176-3.193.264-5.361.264s-3.955-.088-5.361-.264c-1.407-.117-2.549-.322-3.428-.615-.82-.293-1.406-.644-1.758-1.054-.351-.469-.527-.997-.527-1.583v-115.5757c0-.5859.176-1.1133.527-1.582.352-.4688.938-.8496 1.758-1.1426.879-.3516 2.021-.6152 3.428-.791 1.406-.1758 3.193-.2637 5.361-.2637s3.955.0879 5.361.2637c1.407.1758 2.52.4394 3.34.791.879.293 1.494.6738 1.846 1.1426.351.4687.527.9961.527 1.582z"/><path d="m411.809 69.1055c0 1.7578-.088 3.2519-.264 4.4824-.117 1.1719-.352 2.1094-.703 2.8125-.293.7031-.645 1.2305-1.055 1.582-.41.3516-.879.5274-1.406.5274h-37.178v30.5862h34.893c.527 0 .996.146 1.406.439s.762.791 1.055 1.494c.351.703.586 1.641.703 2.813.176 1.172.263 2.637.263 4.394 0 1.758-.087 3.223-.263 4.395-.117 1.172-.352 2.139-.703 2.9-.293.762-.645 1.319-1.055 1.67-.41.293-.879.44-1.406.44h-34.893v42.363c0 .644-.176 1.201-.527 1.67-.352.469-.996.879-1.934 1.23-.879.293-2.051.528-3.515.703-1.465.176-3.34.264-5.625.264-2.227 0-4.102-.088-5.625-.264-1.465-.175-2.637-.41-3.516-.703-.879-.351-1.523-.761-1.934-1.23-.351-.469-.527-1.026-.527-1.67v-103.0958c0-2.5781.645-4.4238 1.934-5.5371 1.347-1.1719 2.988-1.7578 4.921-1.7578h53.526c.527 0 .996.1758 1.406.5273.41.293.762.8203 1.055 1.5821.351.7031.586 1.6699.703 2.9003.176 1.2305.264 2.7247.264 4.4825z"/></g></g></svg>