<?xml version="1.0" encoding="UTF-8" standalone="no"?>
<!DOCTYPE svg PUBLIC "-//W3C//DTD SVG 1.1//EN" "http://www.w3.org/Graphics/SVG/1.1/DTD/svg11.dtd">
<svg width="100%" height="100%" viewBox="0 0 20 20" version="1.1" xmlns="http://www.w3.org/2000/svg" xmlns:xlink="http://www.w3.org/1999/xlink" xml:space="preserve" xmlns:serif="http://www.serif.com/" style="fill-rule:evenodd;clip-rule:evenodd;stroke-linejoin:round;stroke-miterlimit:2;">
    <rect id="Artboard1" x="0" y="0" width="20" height="20" style="fill:none;"/>
    <clipPath id="_clip1">
        <rect id="Artboard11" serif:id="Artboard1" x="0" y="0" width="20" height="20"/>
    </clipPath>
    <g clip-path="url(#_clip1)">
        <g transform="matrix(1.08533,0,0,1.08534,-0.853633,-0.853414)">
            <g>
                <path d="M14.143,3.721L5.858,3.721C4.724,3.721 3.721,4.743 3.721,6.093L3.721,13.907C3.721,15.257 4.724,16.279 5.858,16.279L14.143,16.279C15.277,16.279 16.28,15.257 16.28,13.907L16.28,6.093C16.28,4.743 15.277,3.721 14.143,3.721ZM14.143,5.521C14.379,5.521 14.48,5.812 14.48,6.093C14.48,6.093 14.48,13.907 14.48,13.907C14.48,14.188 14.379,14.479 14.143,14.479C14.143,14.479 5.858,14.479 5.858,14.479C5.622,14.479 5.521,14.188 5.521,13.907C5.521,13.907 5.521,6.093 5.521,6.093C5.521,5.812 5.622,5.521 5.858,5.521L14.143,5.521Z"/>
                <path d="M10.235,11.832L7.647,11.832L7.203,13.095L6.145,13.095L8.359,6.906L9.532,6.906L11.746,13.095L10.68,13.095L10.235,11.832ZM9.95,11.005L8.946,8.133L7.932,11.005L9.95,11.005Z" style="fill-rule:nonzero;"/>
                <rect x="12.131" y="6.914" width="1.014" height="6.18" style="fill-rule:nonzero;"/>
                <path d="M9.108,1.681L9.092,4.616C9.089,5.112 9.49,5.518 9.987,5.521C10.484,5.523 10.889,5.122 10.892,4.625L10.908,1.691C10.91,1.194 10.509,0.789 10.013,0.786C9.516,0.784 9.11,1.185 9.108,1.681ZM6.158,1.681L6.142,4.616C6.139,5.112 6.54,5.518 7.037,5.521C7.534,5.523 7.939,5.122 7.942,4.625L7.958,1.691C7.96,1.194 7.559,0.789 7.063,0.786C6.566,0.784 6.16,1.185 6.158,1.681ZM12.058,1.681L12.042,4.616C12.039,5.112 12.441,5.518 12.937,5.521C13.434,5.523 13.839,5.122 13.842,4.625L13.858,1.691C13.861,1.194 13.459,0.789 12.963,0.786C12.466,0.784 12.061,1.185 12.058,1.681Z"/>
                <path d="M9.108,15.375L9.092,18.309C9.089,18.806 9.49,19.211 9.987,19.214C10.484,19.216 10.889,18.815 10.892,18.319L10.908,15.384C10.91,14.888 10.509,14.482 10.013,14.48C9.516,14.477 9.11,14.878 9.108,15.375ZM6.158,15.375L6.142,18.309C6.139,18.806 6.54,19.211 7.037,19.214C7.534,19.216 7.939,18.815 7.942,18.319L7.958,15.384C7.96,14.888 7.559,14.482 7.063,14.48C6.566,14.477 6.16,14.878 6.158,15.375ZM12.058,15.375L12.042,18.309C12.039,18.806 12.441,19.211 12.937,19.214C13.434,19.216 13.839,18.815 13.842,18.319L13.858,15.384C13.861,14.888 13.459,14.482 12.963,14.48C12.466,14.477 12.061,14.878 12.058,15.375Z"/>
                <path d="M18.319,12.058L15.385,12.042C14.888,12.04 14.483,12.441 14.48,12.937C14.477,13.434 14.878,13.84 15.375,13.842L18.309,13.858C18.806,13.861 19.211,13.459 19.214,12.963C19.217,12.466 18.816,12.061 18.319,12.058ZM18.319,9.108L15.385,9.092C14.888,9.089 14.483,9.491 14.48,9.987C14.477,10.484 14.878,10.889 15.375,10.892L18.309,10.908C18.806,10.911 19.211,10.509 19.214,10.013C19.217,9.516 18.816,9.111 18.319,9.108ZM18.319,6.158L15.385,6.142C14.888,6.139 14.483,6.541 14.48,7.037C14.477,7.534 14.878,7.939 15.375,7.942L18.309,7.958C18.806,7.961 19.211,7.559 19.214,7.063C19.217,6.566 18.816,6.161 18.319,6.158Z"/>
                <path d="M4.626,12.058L1.691,12.042C1.195,12.04 0.789,12.441 0.787,12.937C0.784,13.434 1.185,13.84 1.682,13.842L4.616,13.858C5.113,13.861 5.518,13.459 5.521,12.963C5.523,12.466 5.122,12.061 4.626,12.058ZM4.626,9.108L1.691,9.092C1.195,9.089 0.789,9.491 0.787,9.987C0.784,10.484 1.185,10.889 1.682,10.892L4.616,10.908C5.113,10.911 5.518,10.509 5.521,10.013C5.523,9.516 5.122,9.111 4.626,9.108ZM4.626,6.158L1.691,6.142C1.195,6.139 0.789,6.541 0.787,7.037C0.784,7.534 1.185,7.939 1.682,7.942L4.616,7.958C5.113,7.961 5.518,7.559 5.521,7.063C5.523,6.566 5.122,6.161 4.626,6.158Z"/>
            </g>
        </g>
    </g>
</svg>
